<svg width="400" height="300" xmlns="http://www.w3.org/2000/svg">
  <line x1="40" y1="250" x2="360" y2="250" stroke="black" stroke-width="2" />
  <line x1="45.333333333333336" y1="160.30478955007254" x2="45.333333333333336" y2="198.62119013062397" stroke="black" stroke-width="1" />
  <rect x="40.53333333333333" y="167.07789066279622" width="9.6" height="1" fill="green" />
  <line x1="45.333333333333336" y1="250" x2="45.333333333333336" y2="255" stroke="black" stroke-width="1" />
  <text x="40.0" y="275" font-size="12" fill="black">2024-08-18</text>
  <line x1="56.0" y1="103.60425737784203" x2="56.0" y2="177.72133526850521" stroke="black" stroke-width="1" />
  <rect x="51.199999999999996" y="109.60328979196885" width="9.6" height="67.1504596032899" fill="green" />
  <line x1="56.0" y1="250" x2="56.0" y2="255" stroke="black" stroke-width="1" />
  <text x="50.666666666666664" y="275" font-size="12" fill="black">2024-08-21</text>
  <line x1="66.66666666666666" y1="97.79874213836484" x2="66.66666666666666" y2="162.62699564586364" stroke="black" stroke-width="1" />
  <rect x="61.86666666666666" y="104.76536042573758" width="9.6" height="18.77116594097728" fill="red" />
  <line x1="66.66666666666666" y1="250" x2="66.66666666666666" y2="255" stroke="black" stroke-width="1" />
  <text x="61.33333333333333" y="275" font-size="12" fill="black">2024-08-22</text>
  <line x1="77.33333333333333" y1="100.60474117077862" x2="77.33333333333333" y2="132.82535074987925" stroke="black" stroke-width="1" />
  <rect x="72.53333333333333" y="116.18287373004341" width="9.6" height="1.7416545718433207" fill="green" />
  <line x1="77.33333333333333" y1="250" x2="77.33333333333333" y2="255" stroke="black" stroke-width="1" />
  <text x="72.0" y="275" font-size="12" fill="black">2024-08-23</text>
  <line x1="87.99999999999999" y1="96.63763909046929" x2="87.99999999999999" y2="139.01790033865512" stroke="black" stroke-width="1" />
  <rect x="83.19999999999999" y="106.99080793420413" width="9.6" height="12.288340590227232" fill="red" />
  <line x1="87.99999999999999" y1="250" x2="87.99999999999999" y2="255" stroke="black" stroke-width="1" />
  <text x="82.66666666666666" y="275" font-size="12" fill="black">2024-08-24</text>
  <line x1="98.66666666666666" y1="88.12288340590231" x2="98.66666666666666" y2="122.0445089501691" stroke="black" stroke-width="1" />
  <rect x="93.86666666666666" y="96.44412191581966" width="9.6" height="5.805515239477736" fill="green" />
  <line x1="98.66666666666666" y1="250" x2="98.66666666666666" y2="255" stroke="black" stroke-width="1" />
  <text x="93.33333333333333" y="275" font-size="12" fill="black">2024-08-25</text>
  <line x1="109.33333333333333" y1="88.31833575229794" x2="109.33333333333333" y2="125.08466376390909" stroke="black" stroke-width="1" />
  <rect x="104.53333333333333" y="96.2506047411706" width="9.6" height="2.322206095791094" fill="red" />
  <line x1="109.33333333333333" y1="250" x2="109.33333333333333" y2="255" stroke="black" stroke-width="1" />
  <text x="104.0" y="275" font-size="12" fill="black">2024-08-28</text>
  <line x1="119.99999999999999" y1="81.93033381712587" x2="119.99999999999999" y2="142.30769230769215" stroke="black" stroke-width="1" />
  <rect x="115.19999999999999" y="87.92936623125269" width="9.6" height="40.058055152395276" fill="red" />
  <line x1="119.99999999999999" y1="250" x2="119.99999999999999" y2="255" stroke="black" stroke-width="1" />
  <text x="114.66666666666666" y="275" font-size="12" fill="black">2024-08-29</text>
  <line x1="130.66666666666666" y1="121.98838896952117" x2="130.66666666666666" y2="164.56216739235606" stroke="black" stroke-width="1" />
  <rect x="125.86666666666666" y="135.72810836961753" width="9.6" height="2.322206095791094" fill="red" />
  <line x1="130.66666666666666" y1="250" x2="130.66666666666666" y2="255" stroke="black" stroke-width="1" />
  <text x="125.33333333333333" y="275" font-size="12" fill="black">2024-08-30</text>
  <line x1="141.33333333333334" y1="117.92452830188674" x2="141.33333333333334" y2="168.04547653604268" stroke="black" stroke-width="1" />
  <rect x="136.53333333333333" y="126.43928398645372" width="9.6" height="15.86840832123841" fill="red" />
  <line x1="141.33333333333334" y1="250" x2="141.33333333333334" y2="255" stroke="black" stroke-width="1" />
  <text x="136.0" y="275" font-size="12" fill="black">2024-08-31</text>
  <line x1="152.0" y1="116.76342525399119" x2="152.0" y2="161.8529269472668" stroke="black" stroke-width="1" />
  <rect x="147.2" y="120.4402515723269" width="9.6" height="20.5128205128206" fill="green" />
  <line x1="152.0" y1="250" x2="152.0" y2="255" stroke="black" stroke-width="1" />
  <text x="146.66666666666666" y="275" font-size="12" fill="black">2024-09-01</text>
  <line x1="162.66666666666666" y1="49.99999999999997" x2="162.66666666666666" y2="124.60087082728586" stroke="black" stroke-width="1" />
  <rect x="157.86666666666665" y="93.73488147073041" width="9.6" height="29.995162070634052" fill="green" />
  <line x1="162.66666666666666" y1="250" x2="162.66666666666666" y2="255" stroke="black" stroke-width="1" />
  <text x="157.33333333333331" y="275" font-size="12" fill="black">2024-09-05</text>
  <line x1="173.33333333333334" y1="51.35462022254461" x2="173.33333333333334" y2="117.92452830188674" stroke="black" stroke-width="1" />
  <rect x="168.53333333333333" y="74.57668118045444" width="9.6" height="32.31736816642515" fill="red" />
  <line x1="173.33333333333334" y1="250" x2="173.33333333333334" y2="255" stroke="black" stroke-width="1" />
  <text x="168.0" y="275" font-size="12" fill="black">2024-09-06</text>
  <line x1="184.0" y1="104.5718432510885" x2="184.0" y2="200.749879051766" stroke="black" stroke-width="1" />
  <rect x="179.2" y="107.86163522012552" width="9.6" height="79.34204160619261" fill="red" />
  <line x1="184.0" y1="250" x2="184.0" y2="255" stroke="black" stroke-width="1" />
  <text x="178.66666666666666" y="275" font-size="12" fill="black">2024-09-07</text>
  <line x1="194.66666666666666" y1="150.82244799225913" x2="194.66666666666666" y2="187.7842283502659" stroke="black" stroke-width="1" />
  <rect x="189.86666666666665" y="175.39912917271414" width="9.6" height="1.3546202225446216" fill="red" />
  <line x1="194.66666666666666" y1="250" x2="194.66666666666666" y2="255" stroke="black" stroke-width="1" />
  <text x="189.33333333333331" y="275" font-size="12" fill="black">2024-09-08</text>
  <line x1="205.33333333333334" y1="114.63473633284917" x2="205.33333333333334" y2="166.30382196419936" stroke="black" stroke-width="1" />
  <rect x="200.53333333333333" y="118.31156265118543" width="9.6" height="28.059990324141104" fill="green" />
  <line x1="205.33333333333334" y1="250" x2="205.33333333333334" y2="255" stroke="black" stroke-width="1" />
  <text x="200.0" y="275" font-size="12" fill="black">2024-09-11</text>
  <line x1="216.0" y1="59.28882438316381" x2="216.0" y2="186.2360909530722" stroke="black" stroke-width="1" />
  <rect x="211.2" y="61.611030478954916" width="9.6" height="62.50604741170772" fill="green" />
  <line x1="216.0" y1="250" x2="216.0" y2="255" stroke="black" stroke-width="1" />
  <text x="210.66666666666666" y="275" font-size="12" fill="black">2024-09-12</text>
  <line x1="226.66666666666666" y1="93.9283986453795" x2="226.66666666666666" y2="176.4054184808901" stroke="black" stroke-width="1" />
  <rect x="221.86666666666665" y="93.9283986453795" width="9.6" height="59.796806966618476" fill="red" />
  <line x1="226.66666666666666" y1="250" x2="226.66666666666666" y2="255" stroke="black" stroke-width="1" />
  <text x="221.33333333333331" y="275" font-size="12" fill="black">2024-09-13</text>
  <line x1="237.33333333333334" y1="144.43638122883414" x2="237.33333333333334" y2="217.97290759554903" stroke="black" stroke-width="1" />
  <rect x="232.53333333333333" y="150.04837929366226" width="9.6" height="14.707305273342863" fill="red" />
  <line x1="237.33333333333334" y1="250" x2="237.33333333333334" y2="255" stroke="black" stroke-width="1" />
  <text x="232.0" y="275" font-size="12" fill="black">2024-09-14</text>
  <line x1="248.0" y1="153.72520561199798" x2="248.0" y2="207.52298016448964" stroke="black" stroke-width="1" />
  <rect x="243.2" y="161.0788582486694" width="9.6" height="6.7731011127236584" fill="green" />
  <line x1="248.0" y1="250" x2="248.0" y2="255" stroke="black" stroke-width="1" />
  <text x="242.66666666666666" y="275" font-size="12" fill="black">2024-09-15</text>
  <line x1="258.66666666666663" y1="123.34300919206578" x2="258.66666666666663" y2="156.24092888243814" stroke="black" stroke-width="1" />
  <rect x="253.86666666666665" y="129.92259313014034" width="9.6" height="1.7416545718433207" fill="red" />
  <line x1="258.66666666666663" y1="250" x2="258.66666666666663" y2="255" stroke="black" stroke-width="1" />
  <text x="253.33333333333331" y="275" font-size="12" fill="black">2024-09-18</text>
  <line x1="269.3333333333333" y1="124.98790517658456" x2="269.3333333333333" y2="207.32946298984058" stroke="black" stroke-width="1" />
  <rect x="264.53333333333336" y="149.66134494436358" width="9.6" height="26.12481857764926" fill="red" />
  <line x1="269.3333333333333" y1="250" x2="269.3333333333333" y2="255" stroke="black" stroke-width="1" />
  <text x="264.0" y="275" font-size="12" fill="black">2024-09-19</text>
  <line x1="279.99999999999994" y1="134.56700532172198" x2="279.99999999999994" y2="208.1499758103531" stroke="black" stroke-width="1" />
  <rect x="275.2" y="181.9787131107887" width="9.6" height="3.6768263183357157" fill="red" />
  <line x1="279.99999999999994" y1="250" x2="279.99999999999994" y2="255" stroke="black" stroke-width="1" />
  <text x="274.66666666666663" y="275" font-size="12" fill="black">2024-09-20</text>
  <line x1="290.66666666666663" y1="162.0464441219159" x2="290.66666666666663" y2="204.6202225447508" stroke="black" stroke-width="1" />
  <rect x="285.8666666666667" y="172.49637155297523" width="9.6" height="3.773584905660253" fill="green" />
  <line x1="290.66666666666663" y1="250" x2="290.66666666666663" y2="255" stroke="black" stroke-width="1" />
  <text x="285.3333333333333" y="275" font-size="12" fill="black">2024-09-21</text>
  <line x1="301.3333333333333" y1="168.60667634252545" x2="301.3333333333333" y2="201.33043057571376" stroke="black" stroke-width="1" />
  <rect x="296.53333333333336" y="175.39912917271414" width="9.6" height="9.095307208514752" fill="green" />
  <line x1="301.3333333333333" y1="250" x2="301.3333333333333" y2="255" stroke="black" stroke-width="1" />
  <text x="296.0" y="275" font-size="12" fill="black">2024-09-22</text>
  <line x1="311.99999999999994" y1="159.3372036768261" x2="311.99999999999994" y2="199.97581035316915" stroke="black" stroke-width="1" />
  <rect x="307.2" y="168.43251088534083" width="9.6" height="2.5157232704407186" fill="green" />
  <line x1="311.99999999999994" y1="250" x2="311.99999999999994" y2="255" stroke="black" stroke-width="1" />
  <text x="306.66666666666663" y="275" font-size="12" fill="black">2024-09-25</text>
  <line x1="322.66666666666663" y1="141.72714078374435" x2="322.66666666666663" y2="211.83454281567506" stroke="black" stroke-width="1" />
  <rect x="317.8666666666667" y="174.62506047411728" width="9.6" height="10.836961780358074" fill="green" />
  <line x1="322.66666666666663" y1="250" x2="322.66666666666663" y2="255" stroke="black" stroke-width="1" />
  <text x="317.3333333333333" y="275" font-size="12" fill="black">2024-09-26</text>
  <line x1="333.3333333333333" y1="154.11223996129667" x2="333.3333333333333" y2="223.97194000967582" stroke="black" stroke-width="1" />
  <rect x="328.53333333333336" y="165.1427189163038" width="9.6" height="53.02370585389482" fill="red" />
  <line x1="333.3333333333333" y1="250" x2="333.3333333333333" y2="255" stroke="black" stroke-width="1" />
  <text x="328.0" y="275" font-size="12" fill="black">2024-09-27</text>
  <line x1="343.99999999999994" y1="187.01015965166903" x2="343.99999999999994" y2="250.0" stroke="black" stroke-width="1" />
  <rect x="339.2" y="205.7813255926463" width="9.6" height="34.83309143686532" fill="green" />
  <line x1="343.99999999999994" y1="250" x2="343.99999999999994" y2="255" stroke="black" stroke-width="1" />
  <text x="338.66666666666663" y="275" font-size="12" fill="black">2024-09-28</text>
  <line x1="354.66666666666663" y1="123.92356071601355" x2="354.66666666666663" y2="237.32462506047406" stroke="black" stroke-width="1" />
  <rect x="349.8666666666667" y="149.8548621190132" width="9.6" height="42.38026124818582" fill="green" />
  <line x1="354.66666666666663" y1="250" x2="354.66666666666663" y2="255" stroke="black" stroke-width="1" />
  <text x="349.3333333333333" y="275" font-size="12" fill="black">2024-09-29</text>
</svg>