<svg width="400" height="300" xmlns="http://www.w3.org/2000/svg">
  <line x1="40" y1="250" x2="360" y2="250" stroke="black" stroke-width="2" />
  <line x1="45.333333333333336" y1="83.41890315052495" x2="45.333333333333336" y2="120.10501750291712" stroke="black" stroke-width="1" />
  <rect x="40.53333333333333" y="103.02217036172681" width="9.6" height="13.90898483080523" fill="green" />
  <line x1="45.333333333333336" y1="250" x2="45.333333333333336" y2="255" stroke="black" stroke-width="1" />
  <text x="40.0" y="275" font-size="12" fill="black">2024-08-18</text>
  <line x1="56.0" y1="68.20303383897308" x2="56.0" y2="90.88681446907816" stroke="black" stroke-width="1" />
  <rect x="51.199999999999996" y="68.38973162193699" width="9.6" height="12.97549591598588" fill="green" />
  <line x1="56.0" y1="250" x2="56.0" y2="255" stroke="black" stroke-width="1" />
  <text x="50.666666666666664" y="275" font-size="12" fill="black">2024-08-21</text>
  <line x1="66.66666666666666" y1="50.0" x2="66.66666666666666" y2="66.98949824970825" stroke="black" stroke-width="1" />
  <rect x="61.86666666666666" y="63.628938156359226" width="9.6" height="2.613768961493595" fill="green" />
  <line x1="66.66666666666666" y1="250" x2="66.66666666666666" y2="255" stroke="black" stroke-width="1" />
  <text x="61.33333333333333" y="275" font-size="12" fill="black">2024-08-22</text>
  <line x1="77.33333333333333" y1="66.70945157526248" x2="77.33333333333333" y2="87.05950991831975" stroke="black" stroke-width="1" />
  <rect x="72.53333333333333" y="76.04434072345387" width="9.6" height="6.5344224037338545" fill="green" />
  <line x1="77.33333333333333" y1="250" x2="77.33333333333333" y2="255" stroke="black" stroke-width="1" />
  <text x="72.0" y="275" font-size="12" fill="black">2024-08-23</text>
  <line x1="87.99999999999999" y1="59.801633605600784" x2="87.99999999999999" y2="99.75495915985988" stroke="black" stroke-width="1" />
  <rect x="83.19999999999999" y="62.882147024504064" width="9.6" height="32.29871645274196" fill="red" />
  <line x1="87.99999999999999" y1="250" x2="87.99999999999999" y2="255" stroke="black" stroke-width="1" />
  <text x="82.66666666666666" y="275" font-size="12" fill="black">2024-08-24</text>
  <line x1="98.66666666666666" y1="72.96382730455059" x2="98.66666666666666" y2="94.90081680280025" stroke="black" stroke-width="1" />
  <rect x="93.86666666666666" y="78.19136522753777" width="9.6" height="8.401400233372287" fill="green" />
  <line x1="98.66666666666666" y1="250" x2="98.66666666666666" y2="255" stroke="black" stroke-width="1" />
  <text x="93.33333333333333" y="275" font-size="12" fill="black">2024-08-25</text>
  <line x1="109.33333333333333" y1="60.175029171528365" x2="109.33333333333333" y2="89.06651108518065" stroke="black" stroke-width="1" />
  <rect x="104.53333333333333" y="71.09684947491243" width="9.6" height="2.0536756126020914" fill="red" />
  <line x1="109.33333333333333" y1="250" x2="109.33333333333333" y2="255" stroke="black" stroke-width="1" />
  <text x="104.0" y="275" font-size="12" fill="black">2024-08-28</text>
  <line x1="119.99999999999999" y1="70.51248541423561" x2="119.99999999999999" y2="89.01983663943975" stroke="black" stroke-width="1" />
  <rect x="115.19999999999999" y="76.18436406067661" width="9.6" height="10.781796966161046" fill="red" />
  <line x1="119.99999999999999" y1="250" x2="119.99999999999999" y2="255" stroke="black" stroke-width="1" />
  <text x="114.66666666666666" y="275" font-size="12" fill="black">2024-08-29</text>
  <line x1="130.66666666666666" y1="78.3780630105017" x2="130.66666666666666" y2="116.3859976662776" stroke="black" stroke-width="1" />
  <rect x="125.86666666666666" y="83.65227537922979" width="9.6" height="20.39673278879817" fill="red" />
  <line x1="130.66666666666666" y1="250" x2="130.66666666666666" y2="255" stroke="black" stroke-width="1" />
  <text x="125.33333333333333" y="275" font-size="12" fill="black">2024-08-30</text>
  <line x1="141.33333333333334" y1="74.92415402567084" x2="141.33333333333334" y2="128.3197199533255" stroke="black" stroke-width="1" />
  <rect x="136.53333333333333" y="90.42007001166849" width="9.6" height="23.617269544924184" fill="red" />
  <line x1="141.33333333333334" y1="250" x2="141.33333333333334" y2="255" stroke="black" stroke-width="1" />
  <text x="136.0" y="275" font-size="12" fill="black">2024-08-31</text>
  <line x1="152.0" y1="96.48774795799295" x2="152.0" y2="114.85414235705949" stroke="black" stroke-width="1" />
  <rect x="147.2" y="99.10151691948653" width="9.6" height="7.141190198366273" fill="green" />
  <line x1="152.0" y1="250" x2="152.0" y2="255" stroke="black" stroke-width="1" />
  <text x="146.66666666666666" y="275" font-size="12" fill="black">2024-09-01</text>
  <line x1="162.66666666666666" y1="113.38389731621936" x2="162.66666666666666" y2="163.51225204200705" stroke="black" stroke-width="1" />
  <rect x="157.86666666666665" y="114.5974329054842" width="9.6" height="40.70011668611425" fill="red" />
  <line x1="162.66666666666666" y1="250" x2="162.66666666666666" y2="255" stroke="black" stroke-width="1" />
  <text x="157.33333333333331" y="275" font-size="12" fill="black">2024-09-05</text>
  <line x1="173.33333333333334" y1="139.9883313885647" x2="173.33333333333334" y2="168.35145857642934" stroke="black" stroke-width="1" />
  <rect x="168.53333333333333" y="161.87864644107347" width="9.6" height="1.9136522753793481" fill="red" />
  <line x1="173.33333333333334" y1="250" x2="173.33333333333334" y2="255" stroke="black" stroke-width="1" />
  <text x="168.0" y="275" font-size="12" fill="black">2024-09-06</text>
  <line x1="184.0" y1="135.7876312718787" x2="184.0" y2="168.17502917152848" stroke="black" stroke-width="1" />
  <rect x="179.2" y="156.41773628938142" width="9.6" height="8.774795799299868" fill="green" />
  <line x1="184.0" y1="250" x2="184.0" y2="255" stroke="black" stroke-width="1" />
  <text x="178.66666666666666" y="275" font-size="12" fill="black">2024-09-07</text>
  <line x1="194.66666666666666" y1="150.9101516919485" x2="194.66666666666666" y2="218.8681446907817" stroke="black" stroke-width="1" />
  <rect x="189.86666666666665" y="155.85764294048994" width="9.6" height="59.55659276546118" fill="red" />
  <line x1="194.66666666666666" y1="250" x2="194.66666666666666" y2="255" stroke="black" stroke-width="1" />
  <text x="189.33333333333331" y="275" font-size="12" fill="black">2024-09-08</text>
  <line x1="205.33333333333334" y1="192.26371061843633" x2="205.33333333333334" y2="250.0" stroke="black" stroke-width="1" />
  <rect x="200.53333333333333" y="200.5717619603268" width="9.6" height="35.47257876312705" fill="red" />
  <line x1="205.33333333333334" y1="250" x2="205.33333333333334" y2="255" stroke="black" stroke-width="1" />
  <text x="200.0" y="275" font-size="12" fill="black">2024-09-11</text>
  <line x1="216.0" y1="212.14702450408393" x2="216.0" y2="239.4982497082847" stroke="black" stroke-width="1" />
  <rect x="211.2" y="219.80163360560104" width="9.6" height="16.70945157526248" fill="red" />
  <line x1="216.0" y1="250" x2="216.0" y2="255" stroke="black" stroke-width="1" />
  <text x="210.66666666666666" y="275" font-size="12" fill="black">2024-09-12</text>
  <line x1="226.66666666666666" y1="210.0" x2="226.66666666666666" y2="247.15285880980156" stroke="black" stroke-width="1" />
  <rect x="221.86666666666665" y="213.1738623103851" width="9.6" height="11.575262543757386" fill="green" />
  <line x1="226.66666666666666" y1="250" x2="226.66666666666666" y2="255" stroke="black" stroke-width="1" />
  <text x="221.33333333333331" y="275" font-size="12" fill="black">2024-09-13</text>
  <line x1="237.33333333333334" y1="179.00816802800472" x2="237.33333333333334" y2="199.26487747957987" stroke="black" stroke-width="1" />
  <rect x="232.53333333333333" y="180.22170361726955" width="9.6" height="8.308051341890193" fill="green" />
  <line x1="237.33333333333334" y1="250" x2="237.33333333333334" y2="255" stroke="black" stroke-width="1" />
  <text x="232.0" y="275" font-size="12" fill="black">2024-09-14</text>
  <line x1="248.0" y1="145.77596266044338" x2="248.0" y2="175.36756126020992" stroke="black" stroke-width="1" />
  <rect x="243.2" y="154.36406067677933" width="9.6" height="18.949824970828498" fill="green" />
  <line x1="248.0" y1="250" x2="248.0" y2="255" stroke="black" stroke-width="1" />
  <text x="242.66666666666666" y="275" font-size="12" fill="black">2024-09-15</text>
  <line x1="258.66666666666663" y1="146.98949824970822" x2="258.66666666666663" y2="162.39206534422405" stroke="black" stroke-width="1" />
  <rect x="253.86666666666665" y="148.76312718786457" width="9.6" height="7.001166861143529" fill="green" />
  <line x1="258.66666666666663" y1="250" x2="258.66666666666663" y2="255" stroke="black" stroke-width="1" />
  <text x="253.33333333333331" y="275" font-size="12" fill="black">2024-09-18</text>
  <line x1="269.3333333333333" y1="125.51925320886798" x2="269.3333333333333" y2="145.82263710618432" stroke="black" stroke-width="1" />
  <rect x="264.53333333333336" y="137.00116686114353" width="9.6" height="2.8004667444572524" fill="green" />
  <line x1="269.3333333333333" y1="250" x2="269.3333333333333" y2="255" stroke="black" stroke-width="1" />
  <text x="264.0" y="275" font-size="12" fill="black">2024-09-19</text>
  <line x1="279.99999999999994" y1="125.98599766627765" x2="279.99999999999994" y2="143.76896149358222" stroke="black" stroke-width="1" />
  <rect x="275.2" y="131.96032672112" width="9.6" height="1" fill="red" />
  <line x1="279.99999999999994" y1="250" x2="279.99999999999994" y2="255" stroke="black" stroke-width="1" />
  <text x="274.66666666666663" y="275" font-size="12" fill="black">2024-09-20</text>
  <line x1="290.66666666666663" y1="95.27421236872812" x2="290.66666666666663" y2="118.14469078179687" stroke="black" stroke-width="1" />
  <rect x="285.8666666666667" y="96.02100350058328" width="9.6" height="14.655775962660657" fill="red" />
  <line x1="290.66666666666663" y1="250" x2="290.66666666666663" y2="255" stroke="black" stroke-width="1" />
  <text x="285.3333333333333" y="275" font-size="12" fill="black">2024-09-21</text>
  <line x1="301.3333333333333" y1="95.8343057176196" x2="301.3333333333333" y2="111.42357059509908" stroke="black" stroke-width="1" />
  <rect x="296.53333333333336" y="97.14119019836627" width="9.6" height="1" fill="green" />
  <line x1="301.3333333333333" y1="250" x2="301.3333333333333" y2="255" stroke="black" stroke-width="1" />
  <text x="296.0" y="275" font-size="12" fill="black">2024-09-22</text>
  <line x1="311.99999999999994" y1="79.40490081680261" x2="311.99999999999994" y2="115.06417736289387" stroke="black" stroke-width="1" />
  <rect x="307.2" y="90.0466744457409" width="9.6" height="23.33722287047843" fill="red" />
  <line x1="311.99999999999994" y1="250" x2="311.99999999999994" y2="255" stroke="black" stroke-width="1" />
  <text x="306.66666666666663" y="275" font-size="12" fill="black">2024-09-25</text>
  <line x1="322.66666666666663" y1="100.6343057176195" x2="322.66666666666663" y2="124.2123687281213" stroke="black" stroke-width="1" />
  <rect x="317.8666666666667" y="102.36872812135346" width="9.6" height="6.907817969661701" fill="red" />
  <line x1="322.66666666666663" y1="250" x2="322.66666666666663" y2="255" stroke="black" stroke-width="1" />
  <text x="317.3333333333333" y="275" font-size="12" fill="black">2024-09-26</text>
  <line x1="333.3333333333333" y1="104.42240373395555" x2="333.3333333333333" y2="118.51808634772445" stroke="black" stroke-width="1" />
  <rect x="328.53333333333336" y="116.7444574095681" width="9.6" height="1" fill="green" />
  <line x1="333.3333333333333" y1="250" x2="333.3333333333333" y2="255" stroke="black" stroke-width="1" />
  <text x="328.0" y="275" font-size="12" fill="black">2024-09-27</text>
  <line x1="343.99999999999994" y1="92.56709451575242" x2="343.99999999999994" y2="109.36989498249699" stroke="black" stroke-width="1" />
  <rect x="339.2" y="96.67444574095686" width="9.6" height="8.494749124854117" fill="red" />
  <line x1="343.99999999999994" y1="250" x2="343.99999999999994" y2="255" stroke="black" stroke-width="1" />
  <text x="338.66666666666663" y="275" font-size="12" fill="black">2024-09-28</text>
  <line x1="354.66666666666663" y1="77.44457409568261" x2="354.66666666666663" y2="106.13908984830789" stroke="black" stroke-width="1" />
  <rect x="349.8666666666667" y="93.78063010501751" width="9.6" height="10.641773628938036" fill="green" />
  <line x1="354.66666666666663" y1="250" x2="354.66666666666663" y2="255" stroke="black" stroke-width="1" />
  <text x="349.3333333333333" y="275" font-size="12" fill="black">2024-09-29</text>
</svg>