<svg width="400" height="300" xmlns="http://www.w3.org/2000/svg">
  <line x1="40" y1="250" x2="360" y2="250" stroke="black" stroke-width="2" />
  <line x1="45.333333333333336" y1="178.77126654064267" x2="45.333333333333336" y2="194.49829867674856" stroke="black" stroke-width="1" />
  <rect x="40.53333333333333" y="188.44990548204152" width="9.6" height="1" fill="green" />
  <line x1="45.333333333333336" y1="250" x2="45.333333333333336" y2="255" stroke="black" stroke-width="1" />
  <text x="40.0" y="275" font-size="12" fill="black">2024-08-18</text>
  <line x1="56.0" y1="179.0737240075613" x2="56.0" y2="195.25519848771262" stroke="black" stroke-width="1" />
  <rect x="51.199999999999996" y="179.67863894139884" width="9.6" height="4.385633270321453" fill="green" />
  <line x1="56.0" y1="250" x2="56.0" y2="255" stroke="black" stroke-width="1" />
  <text x="50.666666666666664" y="275" font-size="12" fill="black">2024-08-21</text>
  <line x1="66.66666666666666" y1="173.70510396975428" x2="66.66666666666666" y2="185.64612476370502" stroke="black" stroke-width="1" />
  <rect x="61.86666666666666" y="174.68809073724006" width="9.6" height="7.258979206049204" fill="green" />
  <line x1="66.66666666666666" y1="250" x2="66.66666666666666" y2="255" stroke="black" stroke-width="1" />
  <text x="61.33333333333333" y="275" font-size="12" fill="black">2024-08-22</text>
  <line x1="77.33333333333333" y1="148.18525519848777" x2="77.33333333333333" y2="174.5844990548204" stroke="black" stroke-width="1" />
  <rect x="72.53333333333333" y="165.38752362948946" width="9.6" height="1.4366729678640908" fill="green" />
  <line x1="77.33333333333333" y1="250" x2="77.33333333333333" y2="255" stroke="black" stroke-width="1" />
  <text x="72.0" y="275" font-size="12" fill="black">2024-08-23</text>
  <line x1="87.99999999999999" y1="155.10396975425328" x2="87.99999999999999" y2="198.88468809073714" stroke="black" stroke-width="1" />
  <rect x="83.19999999999999" y="155.7844990548204" width="9.6" height="39.69754253308126" fill="red" />
  <line x1="87.99999999999999" y1="250" x2="87.99999999999999" y2="255" stroke="black" stroke-width="1" />
  <text x="82.66666666666666" y="275" font-size="12" fill="black">2024-08-24</text>
  <line x1="98.66666666666666" y1="174.00831758034025" x2="98.66666666666666" y2="202.21172022684297" stroke="black" stroke-width="1" />
  <rect x="93.86666666666666" y="186.3327032136105" width="9.6" height="2.2684310018904434" fill="red" />
  <line x1="98.66666666666666" y1="250" x2="98.66666666666666" y2="255" stroke="black" stroke-width="1" />
  <text x="93.33333333333333" y="275" font-size="12" fill="black">2024-08-25</text>
  <line x1="109.33333333333333" y1="185.36332703213608" x2="109.33333333333333" y2="209.31947069943274" stroke="black" stroke-width="1" />
  <rect x="104.53333333333333" y="191.17202268431004" width="9.6" height="9.073724007561344" fill="red" />
  <line x1="109.33333333333333" y1="250" x2="109.33333333333333" y2="255" stroke="black" stroke-width="1" />
  <text x="104.0" y="275" font-size="12" fill="black">2024-08-28</text>
  <line x1="119.99999999999999" y1="204.85822306238188" x2="119.99999999999999" y2="224.82041587901693" stroke="black" stroke-width="1" />
  <rect x="115.19999999999999" y="210.45368620037794" width="9.6" height="7.788279773156903" fill="red" />
  <line x1="119.99999999999999" y1="250" x2="119.99999999999999" y2="255" stroke="black" stroke-width="1" />
  <text x="114.66666666666666" y="275" font-size="12" fill="black">2024-08-29</text>
  <line x1="130.66666666666666" y1="213.93194706994325" x2="130.66666666666666" y2="250.0" stroke="black" stroke-width="1" />
  <rect x="125.86666666666666" y="213.93194706994325" width="9.6" height="21.85255198487701" fill="red" />
  <line x1="130.66666666666666" y1="250" x2="130.66666666666666" y2="255" stroke="black" stroke-width="1" />
  <text x="125.33333333333333" y="275" font-size="12" fill="black">2024-08-30</text>
  <line x1="141.33333333333334" y1="209.39508506616255" x2="141.33333333333334" y2="235.70888468809062" stroke="black" stroke-width="1" />
  <rect x="136.53333333333333" y="217.4858223062381" width="9.6" height="8.317580340264602" fill="red" />
  <line x1="141.33333333333334" y1="250" x2="141.33333333333334" y2="255" stroke="black" stroke-width="1" />
  <text x="136.0" y="275" font-size="12" fill="black">2024-08-31</text>
  <line x1="152.0" y1="174.53686200378064" x2="152.0" y2="222.17391304347822" stroke="black" stroke-width="1" />
  <rect x="147.2" y="177.56143667296783" width="9.6" height="43.25141776937615" fill="green" />
  <line x1="152.0" y1="250" x2="152.0" y2="255" stroke="black" stroke-width="1" />
  <text x="146.66666666666666" y="275" font-size="12" fill="black">2024-09-01</text>
  <line x1="162.66666666666666" y1="179.37618147448018" x2="162.66666666666666" y2="202.06049149338375" stroke="black" stroke-width="1" />
  <rect x="157.86666666666665" y="184.7448015122872" width="9.6" height="9.829867674858303" fill="red" />
  <line x1="162.66666666666666" y1="250" x2="162.66666666666666" y2="255" stroke="black" stroke-width="1" />
  <text x="157.33333333333331" y="275" font-size="12" fill="black">2024-09-05</text>
  <line x1="173.33333333333334" y1="196.6162570888469" x2="173.33333333333334" y2="222.6275992438563" stroke="black" stroke-width="1" />
  <rect x="168.53333333333333" y="207.95841209829868" width="9.6" height="8.695652173912865" fill="red" />
  <line x1="173.33333333333334" y1="250" x2="173.33333333333334" y2="255" stroke="black" stroke-width="1" />
  <text x="168.0" y="275" font-size="12" fill="black">2024-09-06</text>
  <line x1="184.0" y1="167.164461247637" x2="184.0" y2="204.06427221172012" stroke="black" stroke-width="1" />
  <rect x="179.2" y="182.1739130434783" width="9.6" height="21.85255198487701" fill="green" />
  <line x1="184.0" y1="250" x2="184.0" y2="255" stroke="black" stroke-width="1" />
  <text x="178.66666666666666" y="275" font-size="12" fill="black">2024-09-07</text>
  <line x1="194.66666666666666" y1="178.468809073724" x2="194.66666666666666" y2="233.06238185255194" stroke="black" stroke-width="1" />
  <rect x="189.86666666666665" y="187.08884688090725" width="9.6" height="44.234404536862144" fill="red" />
  <line x1="194.66666666666666" y1="250" x2="194.66666666666666" y2="255" stroke="black" stroke-width="1" />
  <text x="189.33333333333331" y="275" font-size="12" fill="black">2024-09-08</text>
  <line x1="205.33333333333334" y1="197.5992438563327" x2="205.33333333333334" y2="215.2930056710775" stroke="black" stroke-width="1" />
  <rect x="200.53333333333333" y="201.00189035916813" width="9.6" height="6.5784499054820715" fill="green" />
  <line x1="205.33333333333334" y1="250" x2="205.33333333333334" y2="255" stroke="black" stroke-width="1" />
  <text x="200.0" y="275" font-size="12" fill="black">2024-09-11</text>
  <line x1="216.0" y1="162.4385633270321" x2="216.0" y2="190.49149338374292" stroke="black" stroke-width="1" />
  <rect x="211.2" y="169.6219281663515" width="9.6" height="15.576559546313806" fill="green" />
  <line x1="216.0" y1="250" x2="216.0" y2="255" stroke="black" stroke-width="1" />
  <text x="210.66666666666666" y="275" font-size="12" fill="black">2024-09-12</text>
  <line x1="226.66666666666666" y1="128.48771266540635" x2="226.66666666666666" y2="198.50661625708887" stroke="black" stroke-width="1" />
  <rect x="221.86666666666665" y="132.04158790170123" width="9.6" height="33.45935727788286" fill="green" />
  <line x1="226.66666666666666" y1="250" x2="226.66666666666666" y2="255" stroke="black" stroke-width="1" />
  <text x="221.33333333333331" y="275" font-size="12" fill="black">2024-09-13</text>
  <line x1="237.33333333333334" y1="110.18903591682422" x2="237.33333333333334" y2="139.45179584120987" stroke="black" stroke-width="1" />
  <rect x="232.53333333333333" y="113.28922495274102" width="9.6" height="16.635160680529204" fill="green" />
  <line x1="237.33333333333334" y1="250" x2="237.33333333333334" y2="255" stroke="black" stroke-width="1" />
  <text x="232.0" y="275" font-size="12" fill="black">2024-09-14</text>
  <line x1="248.0" y1="101.94706994328922" x2="248.0" y2="121.531190926276" stroke="black" stroke-width="1" />
  <rect x="243.2" y="113.28922495274102" width="9.6" height="3.856332703213539" fill="red" />
  <line x1="248.0" y1="250" x2="248.0" y2="255" stroke="black" stroke-width="1" />
  <text x="242.66666666666666" y="275" font-size="12" fill="black">2024-09-15</text>
  <line x1="258.66666666666663" y1="122.28733459357275" x2="258.66666666666663" y2="140.8128544423439" stroke="black" stroke-width="1" />
  <rect x="253.86666666666665" y="126.21928166351611" width="9.6" height="3.0245746691871864" fill="red" />
  <line x1="258.66666666666663" y1="250" x2="258.66666666666663" y2="255" stroke="black" stroke-width="1" />
  <text x="253.33333333333331" y="275" font-size="12" fill="black">2024-09-18</text>
  <line x1="269.3333333333333" y1="94.76370510396984" x2="269.3333333333333" y2="119.79206049149349" stroke="black" stroke-width="1" />
  <rect x="264.53333333333336" y="114.1965973534972" width="9.6" height="1" fill="green" />
  <line x1="269.3333333333333" y1="250" x2="269.3333333333333" y2="255" stroke="black" stroke-width="1" />
  <text x="264.0" y="275" font-size="12" fill="black">2024-09-19</text>
  <line x1="279.99999999999994" y1="99.67863894139879" x2="279.99999999999994" y2="127.95841209829865" stroke="black" stroke-width="1" />
  <rect x="275.2" y="117.44801512287341" width="9.6" height="1" fill="red" />
  <line x1="279.99999999999994" y1="250" x2="279.99999999999994" y2="255" stroke="black" stroke-width="1" />
  <text x="274.66666666666663" y="275" font-size="12" fill="black">2024-09-20</text>
  <line x1="290.66666666666663" y1="83.1190926275992" x2="290.66666666666663" y2="102.17391304347828" stroke="black" stroke-width="1" />
  <rect x="285.8666666666667" y="90.30245746691878" width="9.6" height="1.2854442344044414" fill="red" />
  <line x1="290.66666666666663" y1="250" x2="290.66666666666663" y2="255" stroke="black" stroke-width="1" />
  <text x="285.3333333333333" y="275" font-size="12" fill="black">2024-09-21</text>
  <line x1="301.3333333333333" y1="76.69187145557655" x2="301.3333333333333" y2="110.18903591682422" stroke="black" stroke-width="1" />
  <rect x="296.53333333333336" y="78.50661625708892" width="9.6" height="10.359168241966001" fill="green" />
  <line x1="301.3333333333333" y1="250" x2="301.3333333333333" y2="255" stroke="black" stroke-width="1" />
  <text x="296.0" y="275" font-size="12" fill="black">2024-09-22</text>
  <line x1="311.99999999999994" y1="56.95652173913055" x2="311.99999999999994" y2="86.29489603024581" stroke="black" stroke-width="1" />
  <rect x="307.2" y="61.26654064272219" width="9.6" height="16.937618147448074" fill="green" />
  <line x1="311.99999999999994" y1="250" x2="311.99999999999994" y2="255" stroke="black" stroke-width="1" />
  <text x="306.66666666666663" y="275" font-size="12" fill="black">2024-09-25</text>
  <line x1="322.66666666666663" y1="50.0" x2="322.66666666666663" y2="89.62192816635167" stroke="black" stroke-width="1" />
  <rect x="317.8666666666667" y="58.31758034026461" width="9.6" height="2.3440453686200535" fill="red" />
  <line x1="322.66666666666663" y1="250" x2="322.66666666666663" y2="255" stroke="black" stroke-width="1" />
  <text x="317.3333333333333" y="275" font-size="12" fill="black">2024-09-26</text>
  <line x1="333.3333333333333" y1="60.7387523629489" x2="333.3333333333333" y2="74.27221172022689" stroke="black" stroke-width="1" />
  <rect x="328.53333333333336" y="62.249527410207975" width="9.6" height="9.224952741020779" fill="red" />
  <line x1="333.3333333333333" y1="250" x2="333.3333333333333" y2="255" stroke="black" stroke-width="1" />
  <text x="328.0" y="275" font-size="12" fill="black">2024-09-27</text>
  <line x1="343.99999999999994" y1="56.351606805293045" x2="343.99999999999994" y2="94.08317580340272" stroke="black" stroke-width="1" />
  <rect x="339.2" y="58.015122873345945" width="9.6" height="23.818525519848798" fill="red" />
  <line x1="343.99999999999994" y1="250" x2="343.99999999999994" y2="255" stroke="black" stroke-width="1" />
  <text x="338.66666666666663" y="275" font-size="12" fill="black">2024-09-28</text>
  <line x1="354.66666666666663" y1="83.79962192816632" x2="354.66666666666663" y2="110.71833648393192" stroke="black" stroke-width="1" />
  <rect x="349.8666666666667" y="85.46313799621925" width="9.6" height="20.491493383742956" fill="red" />
  <line x1="354.66666666666663" y1="250" x2="354.66666666666663" y2="255" stroke="black" stroke-width="1" />
  <text x="349.3333333333333" y="275" font-size="12" fill="black">2024-09-29</text>
</svg>