<svg width="400" height="300" xmlns="http://www.w3.org/2000/svg">
  <line x1="40" y1="250" x2="360" y2="250" stroke="black" stroke-width="2" />
  <line x1="45.333333333333336" y1="115.34063641105891" x2="45.333333333333336" y2="148.4861763171621" stroke="black" stroke-width="1" />
  <rect x="40.53333333333333" y="123.4480959833071" width="9.6" height="22.222222222222452" fill="green" />
  <line x1="45.333333333333336" y1="250" x2="45.333333333333336" y2="255" stroke="black" stroke-width="1" />
  <text x="40.0" y="275" font-size="12" fill="black">2024-08-18</text>
  <line x1="56.0" y1="124.07407407407395" x2="56.0" y2="154.8513302034429" stroke="black" stroke-width="1" />
  <rect x="51.199999999999996" y="125.11737089201888" width="9.6" height="1.773604590505867" fill="green" />
  <line x1="56.0" y1="250" x2="56.0" y2="255" stroke="black" stroke-width="1" />
  <text x="50.666666666666664" y="275" font-size="12" fill="black">2024-08-21</text>
  <line x1="66.66666666666666" y1="111.76317162232667" x2="66.66666666666666" y2="129.70787689097557" stroke="black" stroke-width="1" />
  <rect x="61.86666666666666" y="118.64893062076166" width="9.6" height="7.720396452790611" fill="green" />
  <line x1="66.66666666666666" y1="250" x2="66.66666666666666" y2="255" stroke="black" stroke-width="1" />
  <text x="61.33333333333333" y="275" font-size="12" fill="black">2024-08-22</text>
  <line x1="77.33333333333333" y1="103.31246739697454" x2="77.33333333333333" y2="133.88106416275414" stroke="black" stroke-width="1" />
  <rect x="72.53333333333333" y="118.544600938967" width="9.6" height="1.2519561815336928" fill="red" />
  <line x1="77.33333333333333" y1="250" x2="77.33333333333333" y2="255" stroke="black" stroke-width="1" />
  <text x="72.0" y="275" font-size="12" fill="black">2024-08-23</text>
  <line x1="87.99999999999999" y1="99.55659885237344" x2="87.99999999999999" y2="145.87897756911832" stroke="black" stroke-width="1" />
  <rect x="83.19999999999999" y="105.29473135106946" width="9.6" height="34.01147626499727" fill="red" />
  <line x1="87.99999999999999" y1="250" x2="87.99999999999999" y2="255" stroke="black" stroke-width="1" />
  <text x="82.66666666666666" y="275" font-size="12" fill="black">2024-08-24</text>
  <line x1="98.66666666666666" y1="100.80855503390714" x2="98.66666666666666" y2="141.392801251956" stroke="black" stroke-width="1" />
  <rect x="93.86666666666666" y="115.20605112154402" width="9.6" height="12.32237871674506" fill="green" />
  <line x1="98.66666666666666" y1="250" x2="98.66666666666666" y2="255" stroke="black" stroke-width="1" />
  <text x="93.33333333333333" y="275" font-size="12" fill="black">2024-08-25</text>
  <line x1="109.33333333333333" y1="110.61554512258735" x2="109.33333333333333" y2="145.97809076682307" stroke="black" stroke-width="1" />
  <rect x="104.53333333333333" y="111.658841940532" width="9.6" height="4.381846635367925" fill="green" />
  <line x1="109.33333333333333" y1="250" x2="109.33333333333333" y2="255" stroke="black" stroke-width="1" />
  <text x="104.0" y="275" font-size="12" fill="black">2024-08-28</text>
  <line x1="119.99999999999999" y1="94.23578508085555" x2="119.99999999999999" y2="135.55033907146594" stroke="black" stroke-width="1" />
  <rect x="115.19999999999999" y="102.79081898800206" width="9.6" height="21.231090245174702" fill="green" />
  <line x1="119.99999999999999" y1="250" x2="119.99999999999999" y2="255" stroke="black" stroke-width="1" />
  <text x="114.66666666666666" y="275" font-size="12" fill="black">2024-08-29</text>
  <line x1="130.66666666666666" y1="83.69848721961384" x2="130.66666666666666" y2="127.30829420970255" stroke="black" stroke-width="1" />
  <rect x="125.86666666666666" y="103.93844548774138" width="9.6" height="14.919144496609048" fill="red" />
  <line x1="130.66666666666666" y1="250" x2="130.66666666666666" y2="255" stroke="black" stroke-width="1" />
  <text x="125.33333333333333" y="275" font-size="12" fill="black">2024-08-30</text>
  <line x1="141.33333333333334" y1="51.77360459050615" x2="141.33333333333334" y2="93.92279603547212" stroke="black" stroke-width="1" />
  <rect x="136.53333333333333" y="81.19457485654675" width="9.6" height="3.2342201356286076" fill="red" />
  <line x1="141.33333333333334" y1="250" x2="141.33333333333334" y2="255" stroke="black" stroke-width="1" />
  <text x="136.0" y="275" font-size="12" fill="black">2024-08-31</text>
  <line x1="152.0" y1="78.06468440271252" x2="152.0" y2="108.52895148669805" stroke="black" stroke-width="1" />
  <rect x="147.2" y="80.25560772039648" width="9.6" height="12.41523213354196" fill="red" />
  <line x1="152.0" y1="250" x2="152.0" y2="255" stroke="black" stroke-width="1" />
  <text x="146.66666666666666" y="275" font-size="12" fill="black">2024-09-01</text>
  <line x1="162.66666666666666" y1="92.67083985393845" x2="162.66666666666666" y2="174.36098069900893" stroke="black" stroke-width="1" />
  <rect x="157.86666666666665" y="97.3656755346895" width="9.6" height="60.30255607720393" fill="red" />
  <line x1="162.66666666666666" y1="250" x2="162.66666666666666" y2="255" stroke="black" stroke-width="1" />
  <text x="157.33333333333331" y="275" font-size="12" fill="black">2024-09-05</text>
  <line x1="173.33333333333334" y1="167.99687010954608" x2="173.33333333333334" y2="212.8586332811685" stroke="black" stroke-width="1" />
  <rect x="168.53333333333333" y="169.24882629107978" width="9.6" height="8.45070422535213" fill="red" />
  <line x1="173.33333333333334" y1="250" x2="173.33333333333334" y2="255" stroke="black" stroke-width="1" />
  <text x="168.0" y="275" font-size="12" fill="black">2024-09-06</text>
  <line x1="184.0" y1="129.39488784559214" x2="184.0" y2="170.70944183620225" stroke="black" stroke-width="1" />
  <rect x="179.2" y="161.73708920187792" width="9.6" height="7.876890975482471" fill="green" />
  <line x1="184.0" y1="250" x2="184.0" y2="255" stroke="black" stroke-width="1" />
  <text x="178.66666666666666" y="275" font-size="12" fill="black">2024-09-07</text>
  <line x1="194.66666666666666" y1="131.89880020865922" x2="194.66666666666666" y2="188.96713615023455" stroke="black" stroke-width="1" />
  <rect x="189.86666666666665" y="145.35732916014615" width="9.6" height="32.6551904016692" fill="red" />
  <line x1="194.66666666666666" y1="250" x2="194.66666666666666" y2="255" stroke="black" stroke-width="1" />
  <text x="189.33333333333331" y="275" font-size="12" fill="black">2024-09-08</text>
  <line x1="205.33333333333334" y1="173.317683881064" x2="205.33333333333334" y2="220.89201877934252" stroke="black" stroke-width="1" />
  <rect x="200.53333333333333" y="177.07355242566507" width="9.6" height="1" fill="green" />
  <line x1="205.33333333333334" y1="250" x2="205.33333333333334" y2="255" stroke="black" stroke-width="1" />
  <text x="200.0" y="275" font-size="12" fill="black">2024-09-11</text>
  <line x1="216.0" y1="171.12676056338032" x2="216.0" y2="220.68335941575378" stroke="black" stroke-width="1" />
  <rect x="211.2" y="185.4199269692225" width="9.6" height="12.415232133542256" fill="green" />
  <line x1="216.0" y1="250" x2="216.0" y2="255" stroke="black" stroke-width="1" />
  <text x="210.66666666666666" y="275" font-size="12" fill="black">2024-09-12</text>
  <line x1="226.66666666666666" y1="154.32968179447045" x2="226.66666666666666" y2="208.58111632759525" stroke="black" stroke-width="1" />
  <rect x="221.86666666666665" y="158.81585811163274" width="9.6" height="12.571726656233523" fill="green" />
  <line x1="226.66666666666666" y1="250" x2="226.66666666666666" y2="255" stroke="black" stroke-width="1" />
  <text x="221.33333333333331" y="275" font-size="12" fill="black">2024-09-13</text>
  <line x1="237.33333333333334" y1="149.5305164319247" x2="237.33333333333334" y2="188.44548774126238" stroke="black" stroke-width="1" />
  <rect x="232.53333333333333" y="157.66823161189342" width="9.6" height="2.816901408450809" fill="green" />
  <line x1="237.33333333333334" y1="250" x2="237.33333333333334" y2="255" stroke="black" stroke-width="1" />
  <text x="232.0" y="275" font-size="12" fill="black">2024-09-14</text>
  <line x1="248.0" y1="144.41836202399588" x2="248.0" y2="166.64058424621803" stroke="black" stroke-width="1" />
  <rect x="243.2" y="149.2175273865413" width="9.6" height="11.267605633802939" fill="red" />
  <line x1="248.0" y1="250" x2="248.0" y2="255" stroke="black" stroke-width="1" />
  <text x="242.66666666666666" y="275" font-size="12" fill="black">2024-09-15</text>
  <line x1="258.66666666666663" y1="215.57120500782463" x2="258.66666666666663" y2="250.0" stroke="black" stroke-width="1" />
  <rect x="253.86666666666665" y="222.6656233698487" width="9.6" height="2.295252999478338" fill="red" />
  <line x1="258.66666666666663" y1="250" x2="258.66666666666663" y2="255" stroke="black" stroke-width="1" />
  <text x="253.33333333333331" y="275" font-size="12" fill="black">2024-09-18</text>
  <line x1="269.3333333333333" y1="218.9097548252476" x2="269.3333333333333" y2="243.94887845592058" stroke="black" stroke-width="1" />
  <rect x="264.53333333333336" y="220.05738132498692" width="9.6" height="10.850286906624843" fill="green" />
  <line x1="269.3333333333333" y1="250" x2="269.3333333333333" y2="255" stroke="black" stroke-width="1" />
  <text x="264.0" y="275" font-size="12" fill="black">2024-09-19</text>
  <line x1="279.99999999999994" y1="158.29420970266028" x2="279.99999999999994" y2="212.23265519040166" stroke="black" stroke-width="1" />
  <rect x="275.2" y="179.36880542514342" width="9.6" height="32.75952008346358" fill="green" />
  <line x1="279.99999999999994" y1="250" x2="279.99999999999994" y2="255" stroke="black" stroke-width="1" />
  <text x="274.66666666666663" y="275" font-size="12" fill="black">2024-09-20</text>
  <line x1="290.66666666666663" y1="84.11580594679194" x2="290.66666666666663" y2="138.26291079812205" stroke="black" stroke-width="1" />
  <rect x="285.8666666666667" y="94.0271257172665" width="9.6" height="40.479916536254485" fill="green" />
  <line x1="290.66666666666663" y1="250" x2="290.66666666666663" y2="255" stroke="black" stroke-width="1" />
  <text x="285.3333333333333" y="275" font-size="12" fill="black">2024-09-21</text>
  <line x1="301.3333333333333" y1="50.0" x2="301.3333333333333" y2="107.0683359415753" stroke="black" stroke-width="1" />
  <rect x="296.53333333333336" y="82.5508607198748" width="9.6" height="18.466353677621374" fill="red" />
  <line x1="301.3333333333333" y1="250" x2="301.3333333333333" y2="255" stroke="black" stroke-width="1" />
  <text x="296.0" y="275" font-size="12" fill="black">2024-09-22</text>
  <line x1="311.99999999999994" y1="87.97600417318739" x2="311.99999999999994" y2="125.95200834637448" stroke="black" stroke-width="1" />
  <rect x="307.2" y="109.98956703182048" width="9.6" height="9.076682316118976" fill="red" />
  <line x1="311.99999999999994" y1="250" x2="311.99999999999994" y2="255" stroke="black" stroke-width="1" />
  <text x="306.66666666666663" y="275" font-size="12" fill="black">2024-09-25</text>
  <line x1="322.66666666666663" y1="89.01930099113204" x2="322.66666666666663" y2="126.78664580073038" stroke="black" stroke-width="1" />
  <rect x="317.8666666666667" y="96.37454355764203" width="9.6" height="13.302034428795041" fill="red" />
  <line x1="322.66666666666663" y1="250" x2="322.66666666666663" y2="255" stroke="black" stroke-width="1" />
  <text x="317.3333333333333" y="275" font-size="12" fill="black">2024-09-26</text>
  <line x1="333.3333333333333" y1="110.51121544079297" x2="333.3333333333333" y2="144.62702138758462" stroke="black" stroke-width="1" />
  <rect x="328.53333333333336" y="120.10954616588413" width="9.6" height="15.02347417840372" fill="green" />
  <line x1="333.3333333333333" y1="250" x2="333.3333333333333" y2="255" stroke="black" stroke-width="1" />
  <text x="328.0" y="275" font-size="12" fill="black">2024-09-27</text>
  <line x1="343.99999999999994" y1="97.88732394366195" x2="343.99999999999994" y2="130.12519561815338" stroke="black" stroke-width="1" />
  <rect x="339.2" y="108.11163275951995" width="9.6" height="2.295252999478338" fill="green" />
  <line x1="343.99999999999994" y1="250" x2="343.99999999999994" y2="255" stroke="black" stroke-width="1" />
  <text x="338.66666666666663" y="275" font-size="12" fill="black">2024-09-28</text>
  <line x1="354.66666666666663" y1="87.24569640062586" x2="354.66666666666663" y2="110.4068857589983" stroke="black" stroke-width="1" />
  <rect x="349.8666666666667" y="98.30464267083977" width="9.6" height="6.990088680229686" fill="red" />
  <line x1="354.66666666666663" y1="250" x2="354.66666666666663" y2="255" stroke="black" stroke-width="1" />
  <text x="349.3333333333333" y="275" font-size="12" fill="black">2024-09-29</text>
</svg>