<svg width="400" height="300" xmlns="http://www.w3.org/2000/svg">
  <line x1="40" y1="250" x2="360" y2="250" stroke="black" stroke-width="2" />
  <line x1="45.333333333333336" y1="228.58921910042707" x2="45.333333333333336" y2="250.0" stroke="black" stroke-width="1" />
  <rect x="40.53333333333333" y="231.71777619997522" width="9.6" height="13.34370175023376" fill="green" />
  <line x1="45.333333333333336" y1="250" x2="45.333333333333336" y2="255" stroke="black" stroke-width="1" />
  <text x="40.0" y="275" font-size="12" fill="black">2024-08-18</text>
  <line x1="56.0" y1="204.94021255254648" x2="56.0" y2="226.2180072353517" stroke="black" stroke-width="1" />
  <rect x="51.199999999999996" y="212.51366489727383" width="9.6" height="12.442100280623418" fill="green" />
  <line x1="56.0" y1="250" x2="56.0" y2="255" stroke="black" stroke-width="1" />
  <text x="50.666666666666664" y="275" font-size="12" fill="black">2024-08-21</text>
  <line x1="66.66666666666666" y1="204.71481218514384" x2="66.66666666666666" y2="223.287802459118" stroke="black" stroke-width="1" />
  <rect x="61.86666666666666" y="210.12442100280617" width="9.6" height="4.237526907168848" fill="red" />
  <line x1="66.66666666666666" y1="250" x2="66.66666666666666" y2="255" stroke="black" stroke-width="1" />
  <text x="61.33333333333333" y="275" font-size="12" fill="black">2024-08-22</text>
  <line x1="77.33333333333333" y1="201.19856645366343" x2="77.33333333333333" y2="234.73814112317012" stroke="black" stroke-width="1" />
  <rect x="72.53333333333333" y="207.69009703485827" width="9.6" height="14.605943807688192" fill="red" />
  <line x1="77.33333333333333" y1="250" x2="77.33333333333333" y2="255" stroke="black" stroke-width="1" />
  <text x="72.0" y="275" font-size="12" fill="black">2024-08-23</text>
  <line x1="87.99999999999999" y1="208.77201879839052" x2="87.99999999999999" y2="231.08665517124803" stroke="black" stroke-width="1" />
  <rect x="83.19999999999999" y="211.34158298678037" width="9.6" height="12.306860060181725" fill="green" />
  <line x1="87.99999999999999" y1="250" x2="87.99999999999999" y2="255" stroke="black" stroke-width="1" />
  <text x="82.66666666666666" y="275" font-size="12" fill="black">2024-08-24</text>
  <line x1="98.66666666666666" y1="190.19902852441635" x2="98.66666666666666" y2="212.33334460335166" stroke="black" stroke-width="1" />
  <rect x="93.86666666666666" y="191.73175102275417" width="9.6" height="15.237064836415664" fill="green" />
  <line x1="98.66666666666666" y1="250" x2="98.66666666666666" y2="255" stroke="black" stroke-width="1" />
  <text x="93.33333333333333" y="275" font-size="12" fill="black">2024-08-25</text>
  <line x1="109.33333333333333" y1="165.18003854346279" x2="109.33333333333333" y2="191.91207131667633" stroke="black" stroke-width="1" />
  <rect x="104.53333333333333" y="183.05383687775407" width="9.6" height="3.6740259886623514" fill="red" />
  <line x1="109.33333333333333" y1="250" x2="109.33333333333333" y2="255" stroke="black" stroke-width="1" />
  <text x="104.0" y="275" font-size="12" fill="black">2024-08-28</text>
  <line x1="119.99999999999999" y1="152.42192694774081" x2="119.99999999999999" y2="186.14182191116967" stroke="black" stroke-width="1" />
  <rect x="115.19999999999999" y="159.0486977493773" width="9.6" height="21.142554462363766" fill="green" />
  <line x1="119.99999999999999" y1="250" x2="119.99999999999999" y2="255" stroke="black" stroke-width="1" />
  <text x="114.66666666666666" y="275" font-size="12" fill="black">2024-08-29</text>
  <line x1="130.66666666666666" y1="132.1358938815069" x2="130.66666666666666" y2="158.37249664716964" stroke="black" stroke-width="1" />
  <rect x="125.86666666666666" y="141.1969886510916" width="9.6" height="15.417385130337578" fill="green" />
  <line x1="130.66666666666666" y1="250" x2="130.66666666666666" y2="255" stroke="black" stroke-width="1" />
  <text x="125.33333333333333" y="275" font-size="12" fill="black">2024-08-30</text>
  <line x1="141.33333333333334" y1="117.48487000033796" x2="141.33333333333334" y2="148.3647203344941" stroke="black" stroke-width="1" />
  <rect x="136.53333333333333" y="124.15672087545498" width="9.6" height="5.6800892585454505" fill="green" />
  <line x1="141.33333333333334" y1="250" x2="141.33333333333334" y2="255" stroke="black" stroke-width="1" />
  <text x="136.0" y="275" font-size="12" fill="black">2024-08-31</text>
  <line x1="152.0" y1="85.47801782916909" x2="152.0" y2="116.80866889813029" stroke="black" stroke-width="1" />
  <rect x="147.2" y="90.12126539766251" width="9.6" height="24.34323967948083" fill="green" />
  <line x1="152.0" y1="250" x2="152.0" y2="255" stroke="black" stroke-width="1" />
  <text x="146.66666666666666" y="275" font-size="12" fill="black">2024-09-01</text>
  <line x1="162.66666666666666" y1="58.700454181740355" x2="162.66666666666666" y2="100.0388815633768" stroke="black" stroke-width="1" />
  <rect x="157.86666666666665" y="86.01897871093536" width="9.6" height="8.249653446935048" fill="green" />
  <line x1="162.66666666666666" y1="250" x2="162.66666666666666" y2="255" stroke="black" stroke-width="1" />
  <text x="157.33333333333331" y="275" font-size="12" fill="black">2024-09-05</text>
  <line x1="173.33333333333334" y1="50.0" x2="173.33333333333334" y2="97.78487788935081" stroke="black" stroke-width="1" />
  <rect x="168.53333333333333" y="77.67916511703908" width="9.6" height="1" fill="red" />
  <line x1="173.33333333333334" y1="250" x2="173.33333333333334" y2="255" stroke="black" stroke-width="1" />
  <text x="168.0" y="275" font-size="12" fill="black">2024-09-06</text>
  <line x1="184.0" y1="74.2981596060001" x2="184.0" y2="148.90568121626038" stroke="black" stroke-width="1" />
  <rect x="179.2" y="74.2981596060001" width="9.6" height="65.41118662023415" fill="red" />
  <line x1="184.0" y1="250" x2="184.0" y2="255" stroke="black" stroke-width="1" />
  <text x="178.66666666666666" y="275" font-size="12" fill="black">2024-09-07</text>
  <line x1="194.66666666666666" y1="125.05832234506532" x2="194.66666666666666" y2="168.42535303332537" stroke="black" stroke-width="1" />
  <rect x="189.86666666666665" y="144.66815430909153" width="9.6" height="19.8352323314286" fill="red" />
  <line x1="194.66666666666666" y1="250" x2="194.66666666666666" y2="255" stroke="black" stroke-width="1" />
  <text x="189.33333333333331" y="275" font-size="12" fill="black">2024-09-08</text>
  <line x1="205.33333333333334" y1="134.8406982903382" x2="205.33333333333334" y2="165.22466781620855" stroke="black" stroke-width="1" />
  <rect x="200.53333333333333" y="143.99195320688358" width="9.6" height="19.654912037506683" fill="red" />
  <line x1="205.33333333333334" y1="250" x2="205.33333333333334" y2="255" stroke="black" stroke-width="1" />
  <text x="200.0" y="275" font-size="12" fill="black">2024-09-11</text>
  <line x1="216.0" y1="142.41415063506554" x2="216.0" y2="178.97409022776714" stroke="black" stroke-width="1" />
  <rect x="211.2" y="153.68416900519549" width="9.6" height="13.073221309350632" fill="red" />
  <line x1="216.0" y1="250" x2="216.0" y2="255" stroke="black" stroke-width="1" />
  <text x="210.66666666666666" y="275" font-size="12" fill="black">2024-09-12</text>
  <line x1="226.66666666666666" y1="172.61779986701373" x2="226.66666666666666" y2="228.38185076241672" stroke="black" stroke-width="1" />
  <rect x="221.86666666666665" y="172.61779986701373" width="9.6" height="20.376193213194856" fill="red" />
  <line x1="226.66666666666666" y1="250" x2="226.66666666666666" y2="255" stroke="black" stroke-width="1" />
  <text x="221.33333333333331" y="275" font-size="12" fill="black">2024-09-13</text>
  <line x1="237.33333333333334" y1="184.42877911890994" x2="237.33333333333334" y2="210.25966122324786" stroke="black" stroke-width="1" />
  <rect x="232.53333333333333" y="185.15006029459838" width="9.6" height="17.89678917176622" fill="red" />
  <line x1="237.33333333333334" y1="250" x2="237.33333333333334" y2="255" stroke="black" stroke-width="1" />
  <text x="232.0" y="275" font-size="12" fill="black">2024-09-14</text>
  <line x1="248.0" y1="196.02112001442566" x2="248.0" y2="219.54615636023493" stroke="black" stroke-width="1" />
  <rect x="243.2" y="199.84616424924778" width="9.6" height="17.89678917176622" fill="red" />
  <line x1="248.0" y1="250" x2="248.0" y2="255" stroke="black" stroke-width="1" />
  <text x="242.66666666666666" y="275" font-size="12" fill="black">2024-09-15</text>
  <line x1="258.66666666666663" y1="193.48987388849437" x2="258.66666666666663" y2="214.45210805693623" stroke="black" stroke-width="1" />
  <rect x="253.86666666666665" y="198.94456277963744" width="9.6" height="13.433861897194719" fill="green" />
  <line x1="258.66666666666663" y1="250" x2="258.66666666666663" y2="255" stroke="black" stroke-width="1" />
  <text x="253.33333333333331" y="275" font-size="12" fill="black">2024-09-18</text>
  <line x1="269.3333333333333" y1="156.92993429579278" x2="269.3333333333333" y2="192.13747168407872" stroke="black" stroke-width="1" />
  <rect x="264.53333333333336" y="176.85532677418257" width="9.6" height="14.33546336680532" fill="green" />
  <line x1="269.3333333333333" y1="250" x2="269.3333333333333" y2="255" stroke="black" stroke-width="1" />
  <text x="264.0" y="275" font-size="12" fill="black">2024-09-19</text>
  <line x1="279.99999999999994" y1="162.61002355433848" x2="279.99999999999994" y2="184.96928919994127" stroke="black" stroke-width="1" />
  <rect x="275.2" y="170.54411648690993" width="9.6" height="6.6718508751167525" fill="red" />
  <line x1="279.99999999999994" y1="250" x2="279.99999999999994" y2="255" stroke="black" stroke-width="1" />
  <text x="274.66666666666663" y="275" font-size="12" fill="black">2024-09-20</text>
  <line x1="290.66666666666663" y1="152.01620628641624" x2="290.66666666666663" y2="174.285762585793" stroke="black" stroke-width="1" />
  <rect x="285.8666666666667" y="152.8727276825461" width="9.6" height="10.323336827039121" fill="red" />
  <line x1="290.66666666666663" y1="250" x2="290.66666666666663" y2="255" stroke="black" stroke-width="1" />
  <text x="285.3333333333333" y="275" font-size="12" fill="black">2024-09-21</text>
  <line x1="301.3333333333333" y1="171.13015744215664" x2="301.3333333333333" y2="188.71138609955926" stroke="black" stroke-width="1" />
  <rect x="296.53333333333336" y="171.98667883828654" width="9.6" height="11.044618002727294" fill="red" />
  <line x1="301.3333333333333" y1="250" x2="301.3333333333333" y2="255" stroke="black" stroke-width="1" />
  <text x="296.0" y="275" font-size="12" fill="black">2024-09-22</text>
  <line x1="311.99999999999994" y1="163.44625891740208" x2="311.99999999999994" y2="191.551430728832" stroke="black" stroke-width="1" />
  <rect x="307.2" y="174.01528214490986" width="9.6" height="10.503657120961035" fill="red" />
  <line x1="311.99999999999994" y1="250" x2="311.99999999999994" y2="255" stroke="black" stroke-width="1" />
  <text x="306.66666666666663" y="275" font-size="12" fill="black">2024-09-25</text>
  <line x1="322.66666666666663" y1="181.7244255108136" x2="322.66666666666663" y2="198.9896428531179" stroke="black" stroke-width="1" />
  <rect x="317.8666666666667" y="186.4123023520528" width="9.6" height="1.0368416900520367" fill="green" />
  <line x1="322.66666666666663" y1="250" x2="322.66666666666663" y2="255" stroke="black" stroke-width="1" />
  <text x="317.3333333333333" y="275" font-size="12" fill="black">2024-09-26</text>
  <line x1="333.3333333333333" y1="180.77729316698782" x2="333.3333333333333" y2="201.51412696802703" stroke="black" stroke-width="1" />
  <rect x="328.53333333333336" y="184.87957985371526" width="9.6" height="11.45033866405186" fill="red" />
  <line x1="333.3333333333333" y1="250" x2="333.3333333333333" y2="255" stroke="black" stroke-width="1" />
  <text x="328.0" y="275" font-size="12" fill="black">2024-09-27</text>
  <line x1="343.99999999999994" y1="175.412764422806" x2="343.99999999999994" y2="200.92808601278028" stroke="black" stroke-width="1" />
  <rect x="339.2" y="188.12534514431252" width="9.6" height="6.491530581194837" fill="green" />
  <line x1="343.99999999999994" y1="250" x2="343.99999999999994" y2="255" stroke="black" stroke-width="1" />
  <text x="338.66666666666663" y="275" font-size="12" fill="black">2024-09-28</text>
  <line x1="354.66666666666663" y1="169.68759509078006" x2="354.66666666666663" y2="184.24845882498778" stroke="black" stroke-width="1" />
  <rect x="349.8666666666667" y="173.29400096922143" width="9.6" height="6.446450507714359" fill="green" />
  <line x1="354.66666666666663" y1="250" x2="354.66666666666663" y2="255" stroke="black" stroke-width="1" />
  <text x="349.3333333333333" y="275" font-size="12" fill="black">2024-09-29</text>
</svg>