<svg width="400" height="300" xmlns="http://www.w3.org/2000/svg">
  <line x1="40" y1="250" x2="360" y2="250" stroke="black" stroke-width="2" />
  <line x1="45.333333333333336" y1="130.0" x2="45.333333333333336" y2="169.43127962085305" stroke="black" stroke-width="1" />
  <rect x="40.53333333333333" y="156.16113744075824" width="9.6" height="9.478672985781992" fill="green" />
  <line x1="45.333333333333336" y1="250" x2="45.333333333333336" y2="255" stroke="black" stroke-width="1" />
  <text x="40.0" y="275" font-size="12" fill="black">2024-08-18</text>
  <line x1="56.0" y1="132.2748815165875" x2="56.0" y2="162.41706161137432" stroke="black" stroke-width="1" />
  <rect x="51.199999999999996" y="155.40284360189554" width="9.6" height="3.0331753554504424" fill="red" />
  <line x1="56.0" y1="250" x2="56.0" y2="255" stroke="black" stroke-width="1" />
  <text x="50.666666666666664" y="275" font-size="12" fill="black">2024-08-21</text>
  <line x1="66.66666666666666" y1="146.68246445497624" x2="66.66666666666666" y2="172.46445497630322" stroke="black" stroke-width="1" />
  <rect x="61.86666666666666" y="159.57345971563961" width="9.6" height="10.995260663507349" fill="red" />
  <line x1="66.66666666666666" y1="250" x2="66.66666666666666" y2="255" stroke="black" stroke-width="1" />
  <text x="61.33333333333333" y="275" font-size="12" fill="black">2024-08-22</text>
  <line x1="77.33333333333333" y1="163.36492890995245" x2="77.33333333333333" y2="201.6587677725119" stroke="black" stroke-width="1" />
  <rect x="72.53333333333333" y="178.15165876777237" width="9.6" height="12.890995260663638" fill="red" />
  <line x1="77.33333333333333" y1="250" x2="77.33333333333333" y2="255" stroke="black" stroke-width="1" />
  <text x="72.0" y="275" font-size="12" fill="black">2024-08-23</text>
  <line x1="87.99999999999999" y1="184.52890995260645" x2="87.99999999999999" y2="250.0" stroke="black" stroke-width="1" />
  <rect x="83.19999999999999" y="186.1137440758293" width="9.6" height="36.01895734597168" fill="red" />
  <line x1="87.99999999999999" y1="250" x2="87.99999999999999" y2="255" stroke="black" stroke-width="1" />
  <text x="82.66666666666666" y="275" font-size="12" fill="black">2024-08-24</text>
  <line x1="98.66666666666666" y1="198.62559241706145" x2="98.66666666666666" y2="231.2322274881515" stroke="black" stroke-width="1" />
  <rect x="93.86666666666666" y="203.55450236966817" width="9.6" height="16.68246445497622" fill="green" />
  <line x1="98.66666666666666" y1="250" x2="98.66666666666666" y2="255" stroke="black" stroke-width="1" />
  <text x="93.33333333333333" y="275" font-size="12" fill="black">2024-08-25</text>
  <line x1="109.33333333333333" y1="189.3364928909952" x2="109.33333333333333" y2="208.48341232227492" stroke="black" stroke-width="1" />
  <rect x="104.53333333333333" y="198.62559241706145" width="9.6" height="2.6540284360189688" fill="green" />
  <line x1="109.33333333333333" y1="250" x2="109.33333333333333" y2="255" stroke="black" stroke-width="1" />
  <text x="104.0" y="275" font-size="12" fill="black">2024-08-28</text>
  <line x1="119.99999999999999" y1="177.77251184834117" x2="119.99999999999999" y2="214.92890995260646" stroke="black" stroke-width="1" />
  <rect x="115.19999999999999" y="194.07582938388617" width="9.6" height="9.099526066350789" fill="red" />
  <line x1="119.99999999999999" y1="250" x2="119.99999999999999" y2="255" stroke="black" stroke-width="1" />
  <text x="114.66666666666666" y="275" font-size="12" fill="black">2024-08-29</text>
  <line x1="130.66666666666666" y1="134.9289099526065" x2="130.66666666666666" y2="206.58767772511834" stroke="black" stroke-width="1" />
  <rect x="125.86666666666666" y="167.5355450236965" width="9.6" height="35.82938388625594" fill="green" />
  <line x1="130.66666666666666" y1="250" x2="130.66666666666666" y2="255" stroke="black" stroke-width="1" />
  <text x="125.33333333333333" y="275" font-size="12" fill="black">2024-08-30</text>
  <line x1="141.33333333333334" y1="140.80568720379136" x2="141.33333333333334" y2="178.90995260663504" stroke="black" stroke-width="1" />
  <rect x="136.53333333333333" y="142.51184834123217" width="9.6" height="17.061611374407423" fill="green" />
  <line x1="141.33333333333334" y1="250" x2="141.33333333333334" y2="255" stroke="black" stroke-width="1" />
  <text x="136.0" y="275" font-size="12" fill="black">2024-08-31</text>
  <line x1="152.0" y1="122.79620853080552" x2="152.0" y2="144.02843601895728" stroke="black" stroke-width="1" />
  <rect x="147.2" y="133.79146919431258" width="9.6" height="8.720379146919583" fill="green" />
  <line x1="152.0" y1="250" x2="152.0" y2="255" stroke="black" stroke-width="1" />
  <text x="146.66666666666666" y="275" font-size="12" fill="black">2024-09-01</text>
  <line x1="162.66666666666666" y1="103.83886255924153" x2="162.66666666666666" y2="145.01800947867287" stroke="black" stroke-width="1" />
  <rect x="157.86666666666665" y="112.18009478672963" width="9.6" height="30.71090047393374" fill="green" />
  <line x1="162.66666666666666" y1="250" x2="162.66666666666666" y2="255" stroke="black" stroke-width="1" />
  <text x="157.33333333333331" y="275" font-size="12" fill="black">2024-09-05</text>
  <line x1="173.33333333333334" y1="103.45971563981033" x2="173.33333333333334" y2="149.14691943127946" stroke="black" stroke-width="1" />
  <rect x="168.53333333333333" y="104.5971563981042" width="9.6" height="28.815165876777183" fill="red" />
  <line x1="173.33333333333334" y1="250" x2="173.33333333333334" y2="255" stroke="black" stroke-width="1" />
  <text x="168.0" y="275" font-size="12" fill="black">2024-09-06</text>
  <line x1="184.0" y1="122.79620853080552" x2="184.0" y2="161.0142180094786" stroke="black" stroke-width="1" />
  <rect x="179.2" y="128.86255924170612" width="9.6" height="10.616113744075875" fill="red" />
  <line x1="184.0" y1="250" x2="184.0" y2="255" stroke="black" stroke-width="1" />
  <text x="178.66666666666666" y="275" font-size="12" fill="black">2024-09-07</text>
  <line x1="194.66666666666666" y1="130.75829383886241" x2="194.66666666666666" y2="187.63033175355437" stroke="black" stroke-width="1" />
  <rect x="189.86666666666665" y="139.8578199052132" width="9.6" height="41.327014218009346" fill="red" />
  <line x1="194.66666666666666" y1="250" x2="194.66666666666666" y2="255" stroke="black" stroke-width="1" />
  <text x="189.33333333333331" y="275" font-size="12" fill="black">2024-09-08</text>
  <line x1="205.33333333333334" y1="165.06729857819883" x2="205.33333333333334" y2="224.78672985781992" stroke="black" stroke-width="1" />
  <rect x="200.53333333333333" y="180.42654028436016" width="9.6" height="8.34123222748811" fill="red" />
  <line x1="205.33333333333334" y1="250" x2="205.33333333333334" y2="255" stroke="black" stroke-width="1" />
  <text x="200.0" y="275" font-size="12" fill="black">2024-09-11</text>
  <line x1="216.0" y1="157.86729857819904" x2="216.0" y2="208.86255924170612" stroke="black" stroke-width="1" />
  <rect x="211.2" y="159.1943127962084" width="9.6" height="29.57345971563986" fill="green" />
  <line x1="216.0" y1="250" x2="216.0" y2="255" stroke="black" stroke-width="1" />
  <text x="210.66666666666666" y="275" font-size="12" fill="black">2024-09-12</text>
  <line x1="226.66666666666666" y1="162.7962085308055" x2="226.66666666666666" y2="198.24644549763025" stroke="black" stroke-width="1" />
  <rect x="221.86666666666665" y="165.6398104265402" width="9.6" height="19.715639810426392" fill="red" />
  <line x1="226.66666666666666" y1="250" x2="226.66666666666666" y2="255" stroke="black" stroke-width="1" />
  <text x="221.33333333333331" y="275" font-size="12" fill="black">2024-09-13</text>
  <line x1="237.33333333333334" y1="186.1137440758293" x2="237.33333333333334" y2="216.691943127962" stroke="black" stroke-width="1" />
  <rect x="232.53333333333333" y="193.3175355450235" width="9.6" height="5.3080568720379375" fill="red" />
  <line x1="237.33333333333334" y1="250" x2="237.33333333333334" y2="255" stroke="black" stroke-width="1" />
  <text x="232.0" y="275" font-size="12" fill="black">2024-09-14</text>
  <line x1="248.0" y1="164.12322274881512" x2="248.0" y2="200.14218009478654" stroke="black" stroke-width="1" />
  <rect x="243.2" y="164.88151658767754" width="9.6" height="33.36492890995271" fill="green" />
  <line x1="248.0" y1="250" x2="248.0" y2="255" stroke="black" stroke-width="1" />
  <text x="242.66666666666666" y="275" font-size="12" fill="black">2024-09-15</text>
  <line x1="258.66666666666663" y1="122.41706161137431" x2="258.66666666666663" y2="160.14218009478654" stroke="black" stroke-width="1" />
  <rect x="253.86666666666665" y="132.2748815165875" width="9.6" height="18.57819905213278" fill="green" />
  <line x1="258.66666666666663" y1="250" x2="258.66666666666663" y2="255" stroke="black" stroke-width="1" />
  <text x="253.33333333333331" y="275" font-size="12" fill="black">2024-09-18</text>
  <line x1="269.3333333333333" y1="116.27488151658761" x2="269.3333333333333" y2="175.4976303317534" stroke="black" stroke-width="1" />
  <rect x="264.53333333333336" y="128.48341232227466" width="9.6" height="22.748815165876834" fill="red" />
  <line x1="269.3333333333333" y1="250" x2="269.3333333333333" y2="255" stroke="black" stroke-width="1" />
  <text x="264.0" y="275" font-size="12" fill="black">2024-09-19</text>
  <line x1="279.99999999999994" y1="125.07109004739327" x2="279.99999999999994" y2="178.15165876777237" stroke="black" stroke-width="1" />
  <rect x="275.2" y="141.7535545023695" width="9.6" height="12.511848341232435" fill="green" />
  <line x1="279.99999999999994" y1="250" x2="279.99999999999994" y2="255" stroke="black" stroke-width="1" />
  <text x="274.66666666666663" y="275" font-size="12" fill="black">2024-09-20</text>
  <line x1="290.66666666666663" y1="130.3791469194312" x2="290.66666666666663" y2="171.8957345971563" stroke="black" stroke-width="1" />
  <rect x="285.8666666666667" y="136.06635071090034" width="9.6" height="32.98578199052124" fill="red" />
  <line x1="290.66666666666663" y1="250" x2="290.66666666666663" y2="255" stroke="black" stroke-width="1" />
  <text x="285.3333333333333" y="275" font-size="12" fill="black">2024-09-21</text>
  <line x1="301.3333333333333" y1="149.7156398104264" x2="301.3333333333333" y2="169.81042654028425" stroke="black" stroke-width="1" />
  <rect x="296.53333333333336" y="154.26540284360192" width="9.6" height="4.549763033175259" fill="green" />
  <line x1="301.3333333333333" y1="250" x2="301.3333333333333" y2="255" stroke="black" stroke-width="1" />
  <text x="296.0" y="275" font-size="12" fill="black">2024-09-22</text>
  <line x1="311.99999999999994" y1="123.17535545023698" x2="311.99999999999994" y2="151.527962085308" stroke="black" stroke-width="1" />
  <rect x="307.2" y="131.5165876777251" width="9.6" height="17.061611374407423" fill="green" />
  <line x1="311.99999999999994" y1="250" x2="311.99999999999994" y2="255" stroke="black" stroke-width="1" />
  <text x="306.66666666666663" y="275" font-size="12" fill="black">2024-09-25</text>
  <line x1="322.66666666666663" y1="90.56872037914667" x2="322.66666666666663" y2="139.0995260663505" stroke="black" stroke-width="1" />
  <rect x="317.8666666666667" y="96.25592417061608" width="9.6" height="35.260663507109" fill="green" />
  <line x1="322.66666666666663" y1="250" x2="322.66666666666663" y2="255" stroke="black" stroke-width="1" />
  <text x="317.3333333333333" y="275" font-size="12" fill="black">2024-09-26</text>
  <line x1="333.3333333333333" y1="79.95260663507108" x2="333.3333333333333" y2="165.6398104265402" stroke="black" stroke-width="1" />
  <rect x="328.53333333333336" y="84.50236966824633" width="9.6" height="49.28909952606625" fill="red" />
  <line x1="333.3333333333333" y1="250" x2="333.3333333333333" y2="255" stroke="black" stroke-width="1" />
  <text x="328.0" y="275" font-size="12" fill="black">2024-09-27</text>
  <line x1="343.99999999999994" y1="111.04265402843603" x2="343.99999999999994" y2="142.70142180094763" stroke="black" stroke-width="1" />
  <rect x="339.2" y="127.34597156398104" width="9.6" height="11.374407582938284" fill="green" />
  <line x1="343.99999999999994" y1="250" x2="343.99999999999994" y2="255" stroke="black" stroke-width="1" />
  <text x="338.66666666666663" y="275" font-size="12" fill="black">2024-09-28</text>
  <line x1="354.66666666666663" y1="50.0" x2="354.66666666666663" y2="104.97630331753541" stroke="black" stroke-width="1" />
  <rect x="349.8666666666667" y="73.50710900473925" width="9.6" height="23.88625592417072" fill="red" />
  <line x1="354.66666666666663" y1="250" x2="354.66666666666663" y2="255" stroke="black" stroke-width="1" />
  <text x="349.3333333333333" y="275" font-size="12" fill="black">2024-09-29</text>
</svg>