<svg width="400" height="300" xmlns="http://www.w3.org/2000/svg">
  <line x1="40" y1="250" x2="360" y2="250" stroke="black" stroke-width="2" />
  <line x1="45.333333333333336" y1="211.34715025906746" x2="45.333333333333336" y2="221.8134715025907" stroke="black" stroke-width="1" />
  <rect x="40.53333333333333" y="213.5233160621762" width="9.6" height="4.766839378238278" fill="red" />
  <line x1="45.333333333333336" y1="250" x2="45.333333333333336" y2="255" stroke="black" stroke-width="1" />
  <text x="40.0" y="275" font-size="12" fill="black">2024-08-21</text>
  <line x1="56.0" y1="210.93264248704668" x2="56.0" y2="223.7823834196891" stroke="black" stroke-width="1" />
  <rect x="51.199999999999996" y="218.29015544041448" width="9.6" height="2.7979274611400027" fill="red" />
  <line x1="56.0" y1="250" x2="56.0" y2="255" stroke="black" stroke-width="1" />
  <text x="50.666666666666664" y="275" font-size="12" fill="black">2024-08-22</text>
  <line x1="66.66666666666666" y1="207.0984455958549" x2="66.66666666666666" y2="219.43005181347147" stroke="black" stroke-width="1" />
  <rect x="61.86666666666666" y="207.3056994818654" width="9.6" height="2.4870466321242994" fill="green" />
  <line x1="66.66666666666666" y1="250" x2="66.66666666666666" y2="255" stroke="black" stroke-width="1" />
  <text x="61.33333333333333" y="275" font-size="12" fill="black">2024-08-23</text>
  <line x1="77.33333333333333" y1="179.32642487046638" x2="77.33333333333333" y2="213.937823834197" stroke="black" stroke-width="1" />
  <rect x="72.53333333333333" y="179.32642487046638" width="9.6" height="27.979274611398996" fill="green" />
  <line x1="77.33333333333333" y1="250" x2="77.33333333333333" y2="255" stroke="black" stroke-width="1" />
  <text x="72.0" y="275" font-size="12" fill="black">2024-08-24</text>
  <line x1="87.99999999999999" y1="178.08290155440415" x2="87.99999999999999" y2="200.67357512953376" stroke="black" stroke-width="1" />
  <rect x="83.19999999999999" y="183.05699481865292" width="9.6" height="1" fill="green" />
  <line x1="87.99999999999999" y1="250" x2="87.99999999999999" y2="255" stroke="black" stroke-width="1" />
  <text x="82.66666666666666" y="275" font-size="12" fill="black">2024-08-25</text>
  <line x1="98.66666666666666" y1="184.61139896373055" x2="98.66666666666666" y2="196.94300518134725" stroke="black" stroke-width="1" />
  <rect x="93.86666666666666" y="188.65284974093262" width="9.6" height="1" fill="red" />
  <line x1="98.66666666666666" y1="250" x2="98.66666666666666" y2="255" stroke="black" stroke-width="1" />
  <text x="93.33333333333333" y="275" font-size="12" fill="black">2024-08-28</text>
  <line x1="109.33333333333333" y1="192.79792746113992" x2="109.33333333333333" y2="219.32642487046638" stroke="black" stroke-width="1" />
  <rect x="104.53333333333333" y="192.79792746113992" width="9.6" height="15.647668393782439" fill="red" />
  <line x1="109.33333333333333" y1="250" x2="109.33333333333333" y2="255" stroke="black" stroke-width="1" />
  <text x="104.0" y="275" font-size="12" fill="black">2024-08-29</text>
  <line x1="119.99999999999999" y1="196.94300518134725" x2="119.99999999999999" y2="214.76683937823842" stroke="black" stroke-width="1" />
  <rect x="115.19999999999999" y="208.86010362694302" width="9.6" height="1" fill="green" />
  <line x1="119.99999999999999" y1="250" x2="119.99999999999999" y2="255" stroke="black" stroke-width="1" />
  <text x="114.66666666666666" y="275" font-size="12" fill="black">2024-08-30</text>
  <line x1="130.66666666666666" y1="182.12435233160625" x2="130.66666666666666" y2="208.65284974093268" stroke="black" stroke-width="1" />
  <rect x="125.86666666666666" y="186.06217616580307" width="9.6" height="22.590673575129607" fill="green" />
  <line x1="130.66666666666666" y1="250" x2="130.66666666666666" y2="255" stroke="black" stroke-width="1" />
  <text x="125.33333333333333" y="275" font-size="12" fill="black">2024-08-31</text>
  <line x1="141.33333333333334" y1="178.1865284974094" x2="141.33333333333334" y2="191.24352331606215" stroke="black" stroke-width="1" />
  <rect x="136.53333333333333" y="178.1865284974094" width="9.6" height="7.875647668393689" fill="green" />
  <line x1="141.33333333333334" y1="250" x2="141.33333333333334" y2="255" stroke="black" stroke-width="1" />
  <text x="136.0" y="275" font-size="12" fill="black">2024-09-01</text>
  <line x1="152.0" y1="172.69430051813475" x2="152.0" y2="188.65284974093262" stroke="black" stroke-width="1" />
  <rect x="147.2" y="172.69430051813475" width="9.6" height="6.424870466321291" fill="green" />
  <line x1="152.0" y1="250" x2="152.0" y2="255" stroke="black" stroke-width="1" />
  <text x="146.66666666666666" y="275" font-size="12" fill="black">2024-09-04</text>
  <line x1="162.66666666666666" y1="162.33160621761664" x2="162.66666666666666" y2="191.34715025906738" stroke="black" stroke-width="1" />
  <rect x="157.86666666666665" y="172.27979274611397" width="9.6" height="9.740932642487024" fill="red" />
  <line x1="162.66666666666666" y1="250" x2="162.66666666666666" y2="255" stroke="black" stroke-width="1" />
  <text x="157.33333333333331" y="275" font-size="12" fill="black">2024-09-05</text>
  <line x1="173.33333333333334" y1="190.9326424870466" x2="173.33333333333334" y2="213.10880829015542" stroke="black" stroke-width="1" />
  <rect x="168.53333333333333" y="196.52849740932646" width="9.6" height="10.777202072538927" fill="red" />
  <line x1="173.33333333333334" y1="250" x2="173.33333333333334" y2="255" stroke="black" stroke-width="1" />
  <text x="168.0" y="275" font-size="12" fill="black">2024-09-06</text>
  <line x1="184.0" y1="204.09326424870474" x2="184.0" y2="225.75129533678768" stroke="black" stroke-width="1" />
  <rect x="179.2" y="204.09326424870474" width="9.6" height="18.238341968911826" fill="red" />
  <line x1="184.0" y1="250" x2="184.0" y2="255" stroke="black" stroke-width="1" />
  <text x="178.66666666666666" y="275" font-size="12" fill="black">2024-09-07</text>
  <line x1="194.66666666666666" y1="220.880829015544" x2="194.66666666666666" y2="250.0" stroke="black" stroke-width="1" />
  <rect x="189.86666666666665" y="222.33160621761655" width="9.6" height="25.077720207253908" fill="red" />
  <line x1="194.66666666666666" y1="250" x2="194.66666666666666" y2="255" stroke="black" stroke-width="1" />
  <text x="189.33333333333331" y="275" font-size="12" fill="black">2024-09-08</text>
  <line x1="205.33333333333334" y1="233.62694300518137" x2="205.33333333333334" y2="246.68393782383427" stroke="black" stroke-width="1" />
  <rect x="200.53333333333333" y="237.04663212435233" width="9.6" height="9.637305699481937" fill="green" />
  <line x1="205.33333333333334" y1="250" x2="205.33333333333334" y2="255" stroke="black" stroke-width="1" />
  <text x="200.0" y="275" font-size="12" fill="black">2024-09-11</text>
  <line x1="216.0" y1="226.37305699481863" x2="216.0" y2="244.71502590673583" stroke="black" stroke-width="1" />
  <rect x="211.2" y="226.37305699481863" width="9.6" height="11.60621761658036" fill="green" />
  <line x1="216.0" y1="250" x2="216.0" y2="255" stroke="black" stroke-width="1" />
  <text x="210.66666666666666" y="275" font-size="12" fill="black">2024-09-12</text>
  <line x1="226.66666666666666" y1="214.8704663212435" x2="226.66666666666666" y2="234.4559585492228" stroke="black" stroke-width="1" />
  <rect x="221.86666666666665" y="223.67875647668401" width="9.6" height="8.290155440414479" fill="red" />
  <line x1="226.66666666666666" y1="250" x2="226.66666666666666" y2="255" stroke="black" stroke-width="1" />
  <text x="221.33333333333331" y="275" font-size="12" fill="black">2024-09-13</text>
  <line x1="237.33333333333334" y1="193.7305699481866" x2="237.33333333333334" y2="236.01036269430057" stroke="black" stroke-width="1" />
  <rect x="232.53333333333333" y="218.9119170984456" width="9.6" height="11.088082901554483" fill="red" />
  <line x1="237.33333333333334" y1="250" x2="237.33333333333334" y2="255" stroke="black" stroke-width="1" />
  <text x="232.0" y="275" font-size="12" fill="black">2024-09-14</text>
  <line x1="248.0" y1="210.62176165803112" x2="248.0" y2="224.50777202072544" stroke="black" stroke-width="1" />
  <rect x="243.2" y="210.62176165803112" width="9.6" height="13.886010362694337" fill="red" />
  <line x1="248.0" y1="250" x2="248.0" y2="255" stroke="black" stroke-width="1" />
  <text x="242.66666666666666" y="275" font-size="12" fill="black">2024-09-15</text>
  <line x1="258.66666666666663" y1="215.2849740932643" x2="258.66666666666663" y2="238.3937823834198" stroke="black" stroke-width="1" />
  <rect x="253.86666666666665" y="221.39896373057005" width="9.6" height="4.1450777202071665" fill="green" />
  <line x1="258.66666666666663" y1="250" x2="258.66666666666663" y2="255" stroke="black" stroke-width="1" />
  <text x="253.33333333333331" y="275" font-size="12" fill="black">2024-09-18</text>
  <line x1="269.3333333333333" y1="200.8808290155441" x2="269.3333333333333" y2="225.85492227979276" stroke="black" stroke-width="1" />
  <rect x="264.53333333333336" y="200.8808290155441" width="9.6" height="20.51813471502595" fill="green" />
  <line x1="269.3333333333333" y1="250" x2="269.3333333333333" y2="255" stroke="black" stroke-width="1" />
  <text x="264.0" y="275" font-size="12" fill="black">2024-09-19</text>
  <line x1="279.99999999999994" y1="187.7202072538861" x2="279.99999999999994" y2="203.57512953367885" stroke="black" stroke-width="1" />
  <rect x="275.2" y="193.62694300518137" width="9.6" height="7.2538860103627245" fill="green" />
  <line x1="279.99999999999994" y1="250" x2="279.99999999999994" y2="255" stroke="black" stroke-width="1" />
  <text x="274.66666666666663" y="275" font-size="12" fill="black">2024-09-20</text>
  <line x1="290.66666666666663" y1="140.25906735751306" x2="290.66666666666663" y2="187.51295336787564" stroke="black" stroke-width="1" />
  <rect x="285.8666666666667" y="145.12953367875656" width="9.6" height="39.37823834196889" fill="green" />
  <line x1="290.66666666666663" y1="250" x2="290.66666666666663" y2="255" stroke="black" stroke-width="1" />
  <text x="285.3333333333333" y="275" font-size="12" fill="black">2024-09-21</text>
  <line x1="301.3333333333333" y1="140.67357512953367" x2="301.3333333333333" y2="153.00518134715026" stroke="black" stroke-width="1" />
  <rect x="296.53333333333336" y="143.67875647668401" width="9.6" height="1.450777202072545" fill="green" />
  <line x1="301.3333333333333" y1="250" x2="301.3333333333333" y2="255" stroke="black" stroke-width="1" />
  <text x="296.0" y="275" font-size="12" fill="black">2024-09-22</text>
  <line x1="311.99999999999994" y1="138.70466321243526" x2="311.99999999999994" y2="160.15544041450772" stroke="black" stroke-width="1" />
  <rect x="307.2" y="142.6424870466321" width="9.6" height="1.450777202072545" fill="green" />
  <line x1="311.99999999999994" y1="250" x2="311.99999999999994" y2="255" stroke="black" stroke-width="1" />
  <text x="306.66666666666663" y="275" font-size="12" fill="black">2024-09-25</text>
  <line x1="322.66666666666663" y1="123.78238341968918" x2="322.66666666666663" y2="142.22797927461147" stroke="black" stroke-width="1" />
  <rect x="317.8666666666667" y="123.78238341968918" width="9.6" height="13.886010362694337" fill="green" />
  <line x1="322.66666666666663" y1="250" x2="322.66666666666663" y2="255" stroke="black" stroke-width="1" />
  <text x="317.3333333333333" y="275" font-size="12" fill="black">2024-09-26</text>
  <line x1="333.3333333333333" y1="103.67875647668401" x2="333.3333333333333" y2="123.78238341968918" stroke="black" stroke-width="1" />
  <rect x="328.53333333333336" y="110.51813471502595" width="9.6" height="13.264248704663226" fill="green" />
  <line x1="333.3333333333333" y1="250" x2="333.3333333333333" y2="255" stroke="black" stroke-width="1" />
  <text x="328.0" y="275" font-size="12" fill="black">2024-09-27</text>
  <line x1="343.99999999999994" y1="50.0" x2="343.99999999999994" y2="90.20725388601034" stroke="black" stroke-width="1" />
  <rect x="339.2" y="50.0" width="9.6" height="39.79274611398968" fill="green" />
  <line x1="343.99999999999994" y1="250" x2="343.99999999999994" y2="255" stroke="black" stroke-width="1" />
  <text x="338.66666666666663" y="275" font-size="12" fill="black">2024-09-28</text>
  <line x1="354.66666666666663" y1="50.829015544041425" x2="354.66666666666663" y2="79.63730569948186" stroke="black" stroke-width="1" />
  <rect x="349.8666666666667" y="54.55958549222797" width="9.6" height="19.067357512953407" fill="red" />
  <line x1="354.66666666666663" y1="250" x2="354.66666666666663" y2="255" stroke="black" stroke-width="1" />
  <text x="349.3333333333333" y="275" font-size="12" fill="black">2024-09-29</text>
</svg>