<svg width="400" height="300" xmlns="http://www.w3.org/2000/svg">
  <line x1="40" y1="250" x2="360" y2="250" stroke="black" stroke-width="2" />
  <line x1="45.333333333333336" y1="223.0061349693253" x2="45.333333333333336" y2="250.0" stroke="black" stroke-width="1" />
  <rect x="40.53333333333333" y="227.9141104294476" width="9.6" height="13.905930470347785" fill="green" />
  <line x1="45.333333333333336" y1="250" x2="45.333333333333336" y2="255" stroke="black" stroke-width="1" />
  <text x="40.0" y="275" font-size="12" fill="black">2024-08-18</text>
  <line x1="56.0" y1="218.09815950920242" x2="56.0" y2="241.61554192229045" stroke="black" stroke-width="1" />
  <rect x="51.199999999999996" y="220.96114519427428" width="9.6" height="15.132924335377925" fill="red" />
  <line x1="56.0" y1="250" x2="56.0" y2="255" stroke="black" stroke-width="1" />
  <text x="50.666666666666664" y="275" font-size="12" fill="black">2024-08-21</text>
  <line x1="66.66666666666666" y1="219.32515337423314" x2="66.66666666666666" y2="244.8875255623722" stroke="black" stroke-width="1" />
  <rect x="61.86666666666666" y="219.73415132924356" width="9.6" height="15.950920245398795" fill="green" />
  <line x1="66.66666666666666" y1="250" x2="66.66666666666666" y2="255" stroke="black" stroke-width="1" />
  <text x="61.33333333333333" y="275" font-size="12" fill="black">2024-08-22</text>
  <line x1="77.33333333333333" y1="189.0593047034767" x2="77.33333333333333" y2="221.57464212678966" stroke="black" stroke-width="1" />
  <rect x="72.53333333333333" y="211.96319018404938" width="9.6" height="3.6809815950915823" fill="green" />
  <line x1="77.33333333333333" y1="250" x2="77.33333333333333" y2="255" stroke="black" stroke-width="1" />
  <text x="72.0" y="275" font-size="12" fill="black">2024-08-23</text>
  <line x1="87.99999999999999" y1="197.64826175869118" x2="87.99999999999999" y2="243.8650306748464" stroke="black" stroke-width="1" />
  <rect x="83.19999999999999" y="197.64826175869118" width="9.6" height="24.130879345603407" fill="red" />
  <line x1="87.99999999999999" y1="250" x2="87.99999999999999" y2="255" stroke="black" stroke-width="1" />
  <text x="82.66666666666666" y="275" font-size="12" fill="black">2024-08-24</text>
  <line x1="98.66666666666666" y1="200.51124744376304" x2="98.66666666666666" y2="237.93456032719828" stroke="black" stroke-width="1" />
  <rect x="93.86666666666666" y="202.9652351738239" width="9.6" height="15.950920245398795" fill="green" />
  <line x1="98.66666666666666" y1="250" x2="98.66666666666666" y2="255" stroke="black" stroke-width="1" />
  <text x="93.33333333333333" y="275" font-size="12" fill="black">2024-08-25</text>
  <line x1="109.33333333333333" y1="156.74846625766867" x2="109.33333333333333" y2="205.41922290388536" stroke="black" stroke-width="1" />
  <rect x="104.53333333333333" y="160.0204498977504" width="9.6" height="41.30879345603292" fill="green" />
  <line x1="109.33333333333333" y1="250" x2="109.33333333333333" y2="255" stroke="black" stroke-width="1" />
  <text x="104.0" y="275" font-size="12" fill="black">2024-08-28</text>
  <line x1="119.99999999999999" y1="131.799591002045" x2="119.99999999999999" y2="151.43149284253593" stroke="black" stroke-width="1" />
  <rect x="115.19999999999999" y="133.0265848670757" width="9.6" height="7.361963190184327" fill="green" />
  <line x1="119.99999999999999" y1="250" x2="119.99999999999999" y2="255" stroke="black" stroke-width="1" />
  <text x="114.66666666666666" y="275" font-size="12" fill="black">2024-08-29</text>
  <line x1="130.66666666666666" y1="120.34764826175865" x2="130.66666666666666" y2="141.41104294478527" stroke="black" stroke-width="1" />
  <rect x="125.86666666666666" y="122.80163599182008" width="9.6" height="5.725971370143172" fill="green" />
  <line x1="130.66666666666666" y1="250" x2="130.66666666666666" y2="255" stroke="black" stroke-width="1" />
  <text x="125.33333333333333" y="275" font-size="12" fill="black">2024-08-30</text>
  <line x1="141.33333333333334" y1="103.57873210633957" x2="141.33333333333334" y2="144.0695296523516" stroke="black" stroke-width="1" />
  <rect x="136.53333333333333" y="110.53169734151345" width="9.6" height="6.134969325153024" fill="green" />
  <line x1="141.33333333333334" y1="250" x2="141.33333333333334" y2="255" stroke="black" stroke-width="1" />
  <text x="136.0" y="275" font-size="12" fill="black">2024-08-31</text>
  <line x1="152.0" y1="89.26380368098191" x2="152.0" y2="121.57464212678937" stroke="black" stroke-width="1" />
  <rect x="147.2" y="93.35378323108395" width="9.6" height="11.042944785275909" fill="green" />
  <line x1="152.0" y1="250" x2="152.0" y2="255" stroke="black" stroke-width="1" />
  <text x="146.66666666666666" y="275" font-size="12" fill="black">2024-09-01</text>
  <line x1="162.66666666666666" y1="60.020449897750694" x2="162.66666666666666" y2="102.55623721881378" stroke="black" stroke-width="1" />
  <rect x="157.86666666666665" y="71.26789366053154" width="9.6" height="23.31288343558312" fill="green" />
  <line x1="162.66666666666666" y1="250" x2="162.66666666666666" y2="255" stroke="black" stroke-width="1" />
  <text x="157.33333333333331" y="275" font-size="12" fill="black">2024-09-05</text>
  <line x1="173.33333333333334" y1="50.0" x2="173.33333333333334" y2="116.25766871165663" stroke="black" stroke-width="1" />
  <rect x="168.53333333333333" y="59.40695296523535" width="9.6" height="30.265848670756434" fill="red" />
  <line x1="173.33333333333334" y1="250" x2="173.33333333333334" y2="255" stroke="black" stroke-width="1" />
  <text x="168.0" y="275" font-size="12" fill="black">2024-09-06</text>
  <line x1="184.0" y1="84.7648261758689" x2="184.0" y2="154.29447852760723" stroke="black" stroke-width="1" />
  <rect x="179.2" y="87.21881390593035" width="9.6" height="59.30470347648272" fill="red" />
  <line x1="184.0" y1="250" x2="184.0" y2="255" stroke="black" stroke-width="1" />
  <text x="178.66666666666666" y="275" font-size="12" fill="black">2024-09-07</text>
  <line x1="194.66666666666666" y1="126.0736196319018" x2="194.66666666666666" y2="157.97546012269942" stroke="black" stroke-width="1" />
  <rect x="189.86666666666665" y="147.7505112474438" width="9.6" height="6.134969325153606" fill="green" />
  <line x1="194.66666666666666" y1="250" x2="194.66666666666666" y2="255" stroke="black" stroke-width="1" />
  <text x="189.33333333333331" y="275" font-size="12" fill="black">2024-09-08</text>
  <line x1="205.33333333333334" y1="100.10224948875234" x2="205.33333333333334" y2="154.29447852760723" stroke="black" stroke-width="1" />
  <rect x="200.53333333333333" y="118.71165644171808" width="9.6" height="25.35787321063355" fill="green" />
  <line x1="205.33333333333334" y1="250" x2="205.33333333333334" y2="255" stroke="black" stroke-width="1" />
  <text x="200.0" y="275" font-size="12" fill="black">2024-09-11</text>
  <line x1="216.0" y1="95.39877300613495" x2="216.0" y2="132.20858895705544" stroke="black" stroke-width="1" />
  <rect x="211.2" y="113.80368098159519" width="9.6" height="17.177914110429516" fill="red" />
  <line x1="216.0" y1="250" x2="216.0" y2="255" stroke="black" stroke-width="1" />
  <text x="210.66666666666666" y="275" font-size="12" fill="black">2024-09-12</text>
  <line x1="226.66666666666666" y1="138.34355828220845" x2="226.66666666666666" y2="171.05930470347664" stroke="black" stroke-width="1" />
  <rect x="221.86666666666665" y="138.75255623721887" width="9.6" height="11.451942740286343" fill="red" />
  <line x1="226.66666666666666" y1="250" x2="226.66666666666666" y2="255" stroke="black" stroke-width="1" />
  <text x="221.33333333333331" y="275" font-size="12" fill="black">2024-09-13</text>
  <line x1="237.33333333333334" y1="137.9345603271986" x2="237.33333333333334" y2="167.58691206543966" stroke="black" stroke-width="1" />
  <rect x="232.53333333333333" y="144.0695296523516" width="9.6" height="9.406952965235336" fill="green" />
  <line x1="237.33333333333334" y1="250" x2="237.33333333333334" y2="255" stroke="black" stroke-width="1" />
  <text x="232.0" y="275" font-size="12" fill="black">2024-09-14</text>
  <line x1="248.0" y1="134.45807770961136" x2="248.0" y2="174.74437627811847" stroke="black" stroke-width="1" />
  <rect x="243.2" y="136.70756646216788" width="9.6" height="23.31288343558254" fill="green" />
  <line x1="248.0" y1="250" x2="248.0" y2="255" stroke="black" stroke-width="1" />
  <text x="242.66666666666666" y="275" font-size="12" fill="black">2024-09-15</text>
  <line x1="258.66666666666663" y1="102.76073619631927" x2="258.66666666666663" y2="128.11860940695283" stroke="black" stroke-width="1" />
  <rect x="253.86666666666665" y="108.48670756646246" width="9.6" height="13.49693251533735" fill="green" />
  <line x1="258.66666666666663" y1="250" x2="258.66666666666663" y2="255" stroke="black" stroke-width="1" />
  <text x="253.33333333333331" y="275" font-size="12" fill="black">2024-09-18</text>
  <line x1="269.3333333333333" y1="98.26175869120684" x2="269.3333333333333" y2="123.82413087934587" stroke="black" stroke-width="1" />
  <rect x="264.53333333333336" y="116.66666666666649" width="9.6" height="4.089979550102598" fill="red" />
  <line x1="269.3333333333333" y1="250" x2="269.3333333333333" y2="255" stroke="black" stroke-width="1" />
  <text x="264.0" y="275" font-size="12" fill="black">2024-09-19</text>
  <line x1="279.99999999999994" y1="97.03476482617612" x2="279.99999999999994" y2="142.43353783231106" stroke="black" stroke-width="1" />
  <rect x="275.2" y="117.0756646216769" width="9.6" height="5.725971370143172" fill="red" />
  <line x1="279.99999999999994" y1="250" x2="279.99999999999994" y2="255" stroke="black" stroke-width="1" />
  <text x="274.66666666666663" y="275" font-size="12" fill="black">2024-09-20</text>
  <line x1="290.66666666666663" y1="115.03067484662591" x2="290.66666666666663" y2="169.83640081799618" stroke="black" stroke-width="1" />
  <rect x="285.8666666666667" y="130.57259713701427" width="9.6" height="38.445807770961046" fill="red" />
  <line x1="290.66666666666663" y1="250" x2="290.66666666666663" y2="255" stroke="black" stroke-width="1" />
  <text x="285.3333333333333" y="275" font-size="12" fill="black">2024-09-21</text>
  <line x1="301.3333333333333" y1="120.75664621676907" x2="301.3333333333333" y2="178.83435582822108" stroke="black" stroke-width="1" />
  <rect x="296.53333333333336" y="127.30061349693253" width="9.6" height="50.30674846625782" fill="green" />
  <line x1="301.3333333333333" y1="250" x2="301.3333333333333" y2="255" stroke="black" stroke-width="1" />
  <text x="296.0" y="275" font-size="12" fill="black">2024-09-22</text>
  <line x1="311.99999999999994" y1="104.39672801635984" x2="311.99999999999994" y2="146.11451942740263" stroke="black" stroke-width="1" />
  <rect x="307.2" y="123.61963190184036" width="9.6" height="7.361963190184327" fill="green" />
  <line x1="311.99999999999994" y1="250" x2="311.99999999999994" y2="255" stroke="black" stroke-width="1" />
  <text x="306.66666666666663" y="275" font-size="12" fill="black">2024-09-25</text>
  <line x1="322.66666666666663" y1="120.14314928425372" x2="322.66666666666663" y2="169.83640081799618" stroke="black" stroke-width="1" />
  <rect x="317.8666666666667" y="139.97955010224962" width="9.6" height="4.4989775051124505" fill="green" />
  <line x1="322.66666666666663" y1="250" x2="322.66666666666663" y2="255" stroke="black" stroke-width="1" />
  <text x="317.3333333333333" y="275" font-size="12" fill="black">2024-09-26</text>
  <line x1="333.3333333333333" y1="115.84867075664619" x2="333.3333333333333" y2="141.00204498977482" stroke="black" stroke-width="1" />
  <rect x="328.53333333333336" y="124.43762781186123" width="9.6" height="10.633946830265476" fill="red" />
  <line x1="333.3333333333333" y1="250" x2="333.3333333333333" y2="255" stroke="black" stroke-width="1" />
  <text x="328.0" y="275" font-size="12" fill="black">2024-09-27</text>
  <line x1="343.99999999999994" y1="128.52760736196325" x2="343.99999999999994" y2="160.0204498977504" stroke="black" stroke-width="1" />
  <rect x="339.2" y="137.11656441717773" width="9.6" height="22.0858895705524" fill="green" />
  <line x1="343.99999999999994" y1="250" x2="343.99999999999994" y2="255" stroke="black" stroke-width="1" />
  <text x="338.66666666666663" y="275" font-size="12" fill="black">2024-09-28</text>
  <line x1="354.66666666666663" y1="104.39672801635984" x2="354.66666666666663" y2="134.66257668711688" stroke="black" stroke-width="1" />
  <rect x="349.8666666666667" y="121.16564417177892" width="9.6" height="10.224948875255622" fill="green" />
  <line x1="354.66666666666663" y1="250" x2="354.66666666666663" y2="255" stroke="black" stroke-width="1" />
  <text x="349.3333333333333" y="275" font-size="12" fill="black">2024-09-29</text>
</svg>