<svg width="400" height="300" xmlns="http://www.w3.org/2000/svg">
  <line x1="40" y1="250" x2="360" y2="250" stroke="black" stroke-width="2" />
  <line x1="45.333333333333336" y1="234.50184501845013" x2="45.333333333333336" y2="250.0" stroke="black" stroke-width="1" />
  <rect x="40.53333333333333" y="244.09594095940946" width="9.6" height="4.428044280442708" fill="green" />
  <line x1="45.333333333333336" y1="250" x2="45.333333333333336" y2="255" stroke="black" stroke-width="1" />
  <text x="40.0" y="275" font-size="12" fill="black">2024-08-21</text>
  <line x1="56.0" y1="231.549815498155" x2="56.0" y2="246.30996309963095" stroke="black" stroke-width="1" />
  <rect x="51.199999999999996" y="231.549815498155" width="9.6" height="10.332103321032987" fill="green" />
  <line x1="56.0" y1="250" x2="56.0" y2="255" stroke="black" stroke-width="1" />
  <text x="50.666666666666664" y="275" font-size="12" fill="black">2024-08-22</text>
  <line x1="66.66666666666666" y1="228.5977859778596" x2="66.66666666666666" y2="235.9778597785977" stroke="black" stroke-width="1" />
  <rect x="61.86666666666666" y="232.28782287822864" width="9.6" height="1" fill="red" />
  <line x1="66.66666666666666" y1="250" x2="66.66666666666666" y2="255" stroke="black" stroke-width="1" />
  <text x="61.33333333333333" y="275" font-size="12" fill="black">2024-08-23</text>
  <line x1="77.33333333333333" y1="224.90774907749054" x2="77.33333333333333" y2="232.28782287822864" stroke="black" stroke-width="1" />
  <rect x="72.53333333333333" y="227.12177121771202" width="9.6" height="5.166051660516624" fill="green" />
  <line x1="77.33333333333333" y1="250" x2="77.33333333333333" y2="255" stroke="black" stroke-width="1" />
  <text x="72.0" y="275" font-size="12" fill="black">2024-08-24</text>
  <line x1="87.99999999999999" y1="210.88560885608848" x2="87.99999999999999" y2="227.85977859778592" stroke="black" stroke-width="1" />
  <rect x="83.19999999999999" y="215.3136531365312" width="9.6" height="11.808118081180819" fill="green" />
  <line x1="87.99999999999999" y1="250" x2="87.99999999999999" y2="255" stroke="black" stroke-width="1" />
  <text x="82.66666666666666" y="275" font-size="12" fill="black">2024-08-25</text>
  <line x1="98.66666666666666" y1="202.7675276752767" x2="98.66666666666666" y2="216.05166051660512" stroke="black" stroke-width="1" />
  <rect x="93.86666666666666" y="202.7675276752767" width="9.6" height="12.546125461254471" fill="green" />
  <line x1="98.66666666666666" y1="250" x2="98.66666666666666" y2="255" stroke="black" stroke-width="1" />
  <text x="93.33333333333333" y="275" font-size="12" fill="black">2024-08-28</text>
  <line x1="109.33333333333333" y1="195.3874538745386" x2="109.33333333333333" y2="213.09963099630997" stroke="black" stroke-width="1" />
  <rect x="104.53333333333333" y="205.71955719557187" width="9.6" height="7.38007380073811" fill="red" />
  <line x1="109.33333333333333" y1="250" x2="109.33333333333333" y2="255" stroke="black" stroke-width="1" />
  <text x="104.0" y="275" font-size="12" fill="black">2024-08-29</text>
  <line x1="119.99999999999999" y1="202.7675276752767" x2="119.99999999999999" y2="212.36162361623605" stroke="black" stroke-width="1" />
  <rect x="115.19999999999999" y="212.36162361623605" width="9.6" height="1" fill="red" />
  <line x1="119.99999999999999" y1="250" x2="119.99999999999999" y2="255" stroke="black" stroke-width="1" />
  <text x="114.66666666666666" y="275" font-size="12" fill="black">2024-08-30</text>
  <line x1="130.66666666666666" y1="207.19557195571943" x2="130.66666666666666" y2="221.21771217712174" stroke="black" stroke-width="1" />
  <rect x="125.86666666666666" y="212.36162361623605" width="9.6" height="7.38007380073811" fill="green" />
  <line x1="130.66666666666666" y1="250" x2="130.66666666666666" y2="255" stroke="black" stroke-width="1" />
  <text x="125.33333333333333" y="275" font-size="12" fill="black">2024-08-31</text>
  <line x1="141.33333333333334" y1="191.69741697416956" x2="141.33333333333334" y2="212.36162361623605" stroke="black" stroke-width="1" />
  <rect x="136.53333333333333" y="192.43542435424348" width="9.6" height="19.926199261992583" fill="green" />
  <line x1="141.33333333333334" y1="250" x2="141.33333333333334" y2="255" stroke="black" stroke-width="1" />
  <text x="136.0" y="275" font-size="12" fill="black">2024-09-01</text>
  <line x1="152.0" y1="182.84132841328415" x2="152.0" y2="201.29151291512915" stroke="black" stroke-width="1" />
  <rect x="147.2" y="182.84132841328415" width="9.6" height="12.546125461254471" fill="green" />
  <line x1="152.0" y1="250" x2="152.0" y2="255" stroke="black" stroke-width="1" />
  <text x="146.66666666666666" y="275" font-size="12" fill="black">2024-09-04</text>
  <line x1="162.66666666666666" y1="155.53505535055345" x2="162.66666666666666" y2="182.10332103321025" stroke="black" stroke-width="1" />
  <rect x="157.86666666666665" y="163.65313653136522" width="9.6" height="18.450184501845012" fill="green" />
  <line x1="162.66666666666666" y1="250" x2="162.66666666666666" y2="255" stroke="black" stroke-width="1" />
  <text x="157.33333333333331" y="275" font-size="12" fill="black">2024-09-05</text>
  <line x1="173.33333333333334" y1="157.74907749077494" x2="173.33333333333334" y2="186.53136531365294" stroke="black" stroke-width="1" />
  <rect x="168.53333333333333" y="160.70110701107006" width="9.6" height="8.856088560885416" fill="green" />
  <line x1="173.33333333333334" y1="250" x2="173.33333333333334" y2="255" stroke="black" stroke-width="1" />
  <text x="168.0" y="275" font-size="12" fill="black">2024-09-06</text>
  <line x1="184.0" y1="135.60885608856086" x2="184.0" y2="164.39114391143914" stroke="black" stroke-width="1" />
  <rect x="179.2" y="137.08487084870845" width="9.6" height="23.616236162361638" fill="green" />
  <line x1="184.0" y1="250" x2="184.0" y2="255" stroke="black" stroke-width="1" />
  <text x="178.66666666666666" y="275" font-size="12" fill="black">2024-09-07</text>
  <line x1="194.66666666666666" y1="134.87084870848696" x2="194.66666666666666" y2="150.36900369003683" stroke="black" stroke-width="1" />
  <rect x="189.86666666666665" y="136.34686346863452" width="9.6" height="5.166051660516624" fill="green" />
  <line x1="194.66666666666666" y1="250" x2="194.66666666666666" y2="255" stroke="black" stroke-width="1" />
  <text x="189.33333333333331" y="275" font-size="12" fill="black">2024-09-08</text>
  <line x1="205.33333333333334" y1="132.65682656826547" x2="205.33333333333334" y2="149.6309963099629" stroke="black" stroke-width="1" />
  <rect x="200.53333333333333" y="137.8228782287821" width="9.6" height="8.856088560885679" fill="red" />
  <line x1="205.33333333333334" y1="250" x2="205.33333333333334" y2="255" stroke="black" stroke-width="1" />
  <text x="200.0" y="275" font-size="12" fill="black">2024-09-11</text>
  <line x1="216.0" y1="140.7749077490775" x2="216.0" y2="158.4870848708486" stroke="black" stroke-width="1" />
  <rect x="211.2" y="146.67896678966778" width="9.6" height="11.808118081180819" fill="red" />
  <line x1="216.0" y1="250" x2="216.0" y2="255" stroke="black" stroke-width="1" />
  <text x="210.66666666666666" y="275" font-size="12" fill="black">2024-09-12</text>
  <line x1="226.66666666666666" y1="153.32103321033196" x2="226.66666666666666" y2="183.5793357933578" stroke="black" stroke-width="1" />
  <rect x="221.86666666666665" y="154.05904059040589" width="9.6" height="5.904059040590278" fill="green" />
  <line x1="226.66666666666666" y1="250" x2="226.66666666666666" y2="255" stroke="black" stroke-width="1" />
  <text x="221.33333333333331" y="275" font-size="12" fill="black">2024-09-13</text>
  <line x1="237.33333333333334" y1="147.4169741697417" x2="237.33333333333334" y2="159.96309963099617" stroke="black" stroke-width="1" />
  <rect x="232.53333333333333" y="148.89298892988927" width="9.6" height="1" fill="green" />
  <line x1="237.33333333333334" y1="250" x2="237.33333333333334" y2="255" stroke="black" stroke-width="1" />
  <text x="232.0" y="275" font-size="12" fill="black">2024-09-14</text>
  <line x1="248.0" y1="134.1328413284133" x2="248.0" y2="153.32103321033196" stroke="black" stroke-width="1" />
  <rect x="243.2" y="141.51291512915117" width="9.6" height="5.90405904059054" fill="green" />
  <line x1="248.0" y1="250" x2="248.0" y2="255" stroke="black" stroke-width="1" />
  <text x="242.66666666666666" y="275" font-size="12" fill="black">2024-09-15</text>
  <line x1="258.66666666666663" y1="129.70479704797032" x2="258.66666666666663" y2="145.94095940959414" stroke="black" stroke-width="1" />
  <rect x="253.86666666666665" y="129.70479704797032" width="9.6" height="12.546125461254734" fill="green" />
  <line x1="258.66666666666663" y1="250" x2="258.66666666666663" y2="255" stroke="black" stroke-width="1" />
  <text x="253.33333333333331" y="275" font-size="12" fill="black">2024-09-18</text>
  <line x1="269.3333333333333" y1="114.94464944649437" x2="269.3333333333333" y2="132.65682656826547" stroke="black" stroke-width="1" />
  <rect x="264.53333333333336" y="115.68265682656829" width="9.6" height="11.808118081180819" fill="green" />
  <line x1="269.3333333333333" y1="250" x2="269.3333333333333" y2="255" stroke="black" stroke-width="1" />
  <text x="264.0" y="275" font-size="12" fill="black">2024-09-19</text>
  <line x1="279.99999999999994" y1="104.61254612546114" x2="279.99999999999994" y2="118.63468634686342" stroke="black" stroke-width="1" />
  <rect x="275.2" y="109.77859778597775" width="9.6" height="7.38007380073811" fill="green" />
  <line x1="279.99999999999994" y1="250" x2="279.99999999999994" y2="255" stroke="black" stroke-width="1" />
  <text x="274.66666666666663" y="275" font-size="12" fill="black">2024-09-20</text>
  <line x1="290.66666666666663" y1="103.13653136531354" x2="290.66666666666663" y2="122.32472324723248" stroke="black" stroke-width="1" />
  <rect x="285.8666666666667" y="112.73062730627288" width="9.6" height="5.90405904059054" fill="red" />
  <line x1="290.66666666666663" y1="250" x2="290.66666666666663" y2="255" stroke="black" stroke-width="1" />
  <text x="285.3333333333333" y="275" font-size="12" fill="black">2024-09-21</text>
  <line x1="301.3333333333333" y1="103.87453874538747" x2="301.3333333333333" y2="120.8487084870849" stroke="black" stroke-width="1" />
  <rect x="296.53333333333336" y="107.56457564575626" width="9.6" height="11.070110701107165" fill="green" />
  <line x1="301.3333333333333" y1="250" x2="301.3333333333333" y2="255" stroke="black" stroke-width="1" />
  <text x="296.0" y="275" font-size="12" fill="black">2024-09-22</text>
  <line x1="311.99999999999994" y1="87.6383763837637" x2="311.99999999999994" y2="112.73062730627288" stroke="black" stroke-width="1" />
  <rect x="307.2" y="92.06642066420665" width="9.6" height="16.236162361623528" fill="green" />
  <line x1="311.99999999999994" y1="250" x2="311.99999999999994" y2="255" stroke="black" stroke-width="1" />
  <text x="306.66666666666663" y="275" font-size="12" fill="black">2024-09-25</text>
  <line x1="322.66666666666663" y1="86.90036900369003" x2="322.66666666666663" y2="99.4464944649445" stroke="black" stroke-width="1" />
  <rect x="317.8666666666667" y="88.3763837638376" width="9.6" height="3.690036900369055" fill="green" />
  <line x1="322.66666666666663" y1="250" x2="322.66666666666663" y2="255" stroke="black" stroke-width="1" />
  <text x="317.3333333333333" y="275" font-size="12" fill="black">2024-09-26</text>
  <line x1="333.3333333333333" y1="60.33210332103326" x2="333.3333333333333" y2="88.3763837638376" stroke="black" stroke-width="1" />
  <rect x="328.53333333333336" y="60.33210332103326" width="9.6" height="28.044280442804343" fill="green" />
  <line x1="333.3333333333333" y1="250" x2="333.3333333333333" y2="255" stroke="black" stroke-width="1" />
  <text x="328.0" y="275" font-size="12" fill="black">2024-09-27</text>
  <line x1="343.99999999999994" y1="50.73800738007367" x2="343.99999999999994" y2="72.87822878228772" stroke="black" stroke-width="1" />
  <rect x="339.2" y="55.16605166051664" width="9.6" height="5.166051660516624" fill="green" />
  <line x1="343.99999999999994" y1="250" x2="343.99999999999994" y2="255" stroke="black" stroke-width="1" />
  <text x="338.66666666666663" y="275" font-size="12" fill="black">2024-09-28</text>
  <line x1="354.66666666666663" y1="50.0" x2="354.66666666666663" y2="92.80442804428031" stroke="black" stroke-width="1" />
  <rect x="349.8666666666667" y="52.21402214022123" width="9.6" height="40.590405904059075" fill="red" />
  <line x1="354.66666666666663" y1="250" x2="354.66666666666663" y2="255" stroke="black" stroke-width="1" />
  <text x="349.3333333333333" y="275" font-size="12" fill="black">2024-09-29</text>
</svg>