<svg width="400" height="300" xmlns="http://www.w3.org/2000/svg">
  <line x1="40" y1="250" x2="360" y2="250" stroke="black" stroke-width="2" />
  <line x1="45.333333333333336" y1="81.73605655930865" x2="45.333333333333336" y2="94.61901021209744" stroke="black" stroke-width="1" />
  <rect x="40.53333333333333" y="86.60644147682635" width="9.6" height="2.8279654359781112" fill="green" />
  <line x1="45.333333333333336" y1="250" x2="45.333333333333336" y2="255" stroke="black" stroke-width="1" />
  <text x="40.0" y="275" font-size="12" fill="black">2024-08-18</text>
  <line x1="56.0" y1="50.0" x2="56.0" y2="86.60644147682635" stroke="black" stroke-width="1" />
  <rect x="51.199999999999996" y="80.95051060487035" width="9.6" height="2.042419481539598" fill="green" />
  <line x1="56.0" y1="250" x2="56.0" y2="255" stroke="black" stroke-width="1" />
  <text x="50.666666666666664" y="275" font-size="12" fill="black">2024-08-21</text>
  <line x1="66.66666666666666" y1="79.06520031421829" x2="66.66666666666666" y2="144.10840534171237" stroke="black" stroke-width="1" />
  <rect x="61.86666666666666" y="79.06520031421829" width="9.6" height="63.943440691280536" fill="red" />
  <line x1="66.66666666666666" y1="250" x2="66.66666666666666" y2="255" stroke="black" stroke-width="1" />
  <text x="61.33333333333333" y="275" font-size="12" fill="black">2024-08-22</text>
  <line x1="77.33333333333333" y1="127.45483110761987" x2="77.33333333333333" y2="155.89159465828737" stroke="black" stroke-width="1" />
  <rect x="72.53333333333333" y="136.25294579732903" width="9.6" height="18.22466614296953" fill="red" />
  <line x1="77.33333333333333" y1="250" x2="77.33333333333333" y2="255" stroke="black" stroke-width="1" />
  <text x="72.0" y="275" font-size="12" fill="black">2024-08-23</text>
  <line x1="87.99999999999999" y1="136.25294579732903" x2="87.99999999999999" y2="157.85545954438322" stroke="black" stroke-width="1" />
  <rect x="83.19999999999999" y="140.65200314218373" width="9.6" height="14.9253731343284" fill="green" />
  <line x1="87.99999999999999" y1="250" x2="87.99999999999999" y2="255" stroke="black" stroke-width="1" />
  <text x="82.66666666666666" y="275" font-size="12" fill="black">2024-08-24</text>
  <line x1="98.66666666666666" y1="109.38727415553808" x2="98.66666666666666" y2="136.01728201099752" stroke="black" stroke-width="1" />
  <rect x="93.86666666666666" y="115.67164179104486" width="9.6" height="20.345640219952667" fill="green" />
  <line x1="98.66666666666666" y1="250" x2="98.66666666666666" y2="255" stroke="black" stroke-width="1" />
  <text x="93.33333333333333" y="275" font-size="12" fill="black">2024-08-25</text>
  <line x1="109.33333333333333" y1="74.50903377847607" x2="109.33333333333333" y2="106.24509033778472" stroke="black" stroke-width="1" />
  <rect x="104.53333333333333" y="76.55145326001565" width="9.6" height="16.496465043204978" fill="green" />
  <line x1="109.33333333333333" y1="250" x2="109.33333333333333" y2="255" stroke="black" stroke-width="1" />
  <text x="104.0" y="275" font-size="12" fill="black">2024-08-28</text>
  <line x1="119.99999999999999" y1="67.12490180675573" x2="119.99999999999999" y2="98.70384917517663" stroke="black" stroke-width="1" />
  <rect x="115.19999999999999" y="74.19481539670079" width="9.6" height="20.109976433621156" fill="red" />
  <line x1="119.99999999999999" y1="250" x2="119.99999999999999" y2="255" stroke="black" stroke-width="1" />
  <text x="114.66666666666666" y="275" font-size="12" fill="black">2024-08-29</text>
  <line x1="130.66666666666666" y1="95.87588373919874" x2="130.66666666666666" y2="116.61429693637066" stroke="black" stroke-width="1" />
  <rect x="125.86666666666666" y="104.98821681068341" width="9.6" height="7.541241162608073" fill="red" />
  <line x1="130.66666666666666" y1="250" x2="130.66666666666666" y2="255" stroke="black" stroke-width="1" />
  <text x="125.33333333333333" y="275" font-size="12" fill="black">2024-08-30</text>
  <line x1="141.33333333333334" y1="76.86567164179093" x2="141.33333333333334" y2="115.20031421838183" stroke="black" stroke-width="1" />
  <rect x="136.53333333333333" y="87.2348782403771" width="9.6" height="14.611154752552904" fill="green" />
  <line x1="141.33333333333334" y1="250" x2="141.33333333333334" y2="255" stroke="black" stroke-width="1" />
  <text x="136.0" y="275" font-size="12" fill="black">2024-08-31</text>
  <line x1="152.0" y1="88.96307934014143" x2="152.0" y2="116.14296936370766" stroke="black" stroke-width="1" />
  <rect x="147.2" y="90.21995286724274" width="9.6" height="18.067556952081556" fill="green" />
  <line x1="152.0" y1="250" x2="152.0" y2="255" stroke="black" stroke-width="1" />
  <text x="146.66666666666666" y="275" font-size="12" fill="black">2024-09-01</text>
  <line x1="162.66666666666666" y1="119.28515318146103" x2="162.66666666666666" y2="151.4925373134327" stroke="black" stroke-width="1" />
  <rect x="157.86666666666665" y="123.21288295365271" width="9.6" height="5.813040062843746" fill="red" />
  <line x1="162.66666666666666" y1="250" x2="162.66666666666666" y2="255" stroke="black" stroke-width="1" />
  <text x="157.33333333333331" y="275" font-size="12" fill="black">2024-09-05</text>
  <line x1="173.33333333333334" y1="118.342498036135" x2="173.33333333333334" y2="152.51374705420272" stroke="black" stroke-width="1" />
  <rect x="168.53333333333333" y="131.85388845247434" width="9.6" height="19.32443047918309" fill="red" />
  <line x1="173.33333333333334" y1="250" x2="173.33333333333334" y2="255" stroke="black" stroke-width="1" />
  <text x="168.0" y="275" font-size="12" fill="black">2024-09-06</text>
  <line x1="184.0" y1="132.0109976433621" x2="184.0" y2="166.73212882953658" stroke="black" stroke-width="1" />
  <rect x="179.2" y="135.31029065200323" width="9.6" height="29.850746268656575" fill="red" />
  <line x1="184.0" y1="250" x2="184.0" y2="255" stroke="black" stroke-width="1" />
  <text x="178.66666666666666" y="275" font-size="12" fill="black">2024-09-07</text>
  <line x1="194.66666666666666" y1="149.29300864100537" x2="194.66666666666666" y2="187.7533385703063" stroke="black" stroke-width="1" />
  <rect x="189.86666666666665" y="158.56245090337774" width="9.6" height="14.9253731343284" fill="red" />
  <line x1="194.66666666666666" y1="250" x2="194.66666666666666" y2="255" stroke="black" stroke-width="1" />
  <text x="189.33333333333331" y="275" font-size="12" fill="black">2024-09-08</text>
  <line x1="205.33333333333334" y1="118.342498036135" x2="205.33333333333334" y2="173.17360565593088" stroke="black" stroke-width="1" />
  <rect x="200.53333333333333" y="136.25294579732903" width="9.6" height="33.62136684996072" fill="green" />
  <line x1="205.33333333333334" y1="250" x2="205.33333333333334" y2="255" stroke="black" stroke-width="1" />
  <text x="200.0" y="275" font-size="12" fill="black">2024-09-11</text>
  <line x1="216.0" y1="130.12568735271003" x2="216.0" y2="212.29379418695987" stroke="black" stroke-width="1" />
  <rect x="211.2" y="134.8389630793402" width="9.6" height="67.24273369992144" fill="red" />
  <line x1="216.0" y1="250" x2="216.0" y2="255" stroke="black" stroke-width="1" />
  <text x="210.66666666666666" y="275" font-size="12" fill="black">2024-09-12</text>
  <line x1="226.66666666666666" y1="200.0392772977218" x2="226.66666666666666" y2="250.0" stroke="black" stroke-width="1" />
  <rect x="221.86666666666665" y="202.78868813825596" width="9.6" height="16.575019638648964" fill="red" />
  <line x1="226.66666666666666" y1="250" x2="226.66666666666666" y2="255" stroke="black" stroke-width="1" />
  <text x="221.33333333333331" y="275" font-size="12" fill="black">2024-09-13</text>
  <line x1="237.33333333333334" y1="194.06912804399056" x2="237.33333333333334" y2="218.72113118617423" stroke="black" stroke-width="1" />
  <rect x="232.53333333333333" y="195.64021995286714" width="9.6" height="20.895522388059668" fill="green" />
  <line x1="237.33333333333334" y1="250" x2="237.33333333333334" y2="255" stroke="black" stroke-width="1" />
  <text x="232.0" y="275" font-size="12" fill="black">2024-09-14</text>
  <line x1="248.0" y1="176.15868028279652" x2="248.0" y2="200.3534956794971" stroke="black" stroke-width="1" />
  <rect x="243.2" y="191.8695993715632" width="9.6" height="5.027494108405233" fill="red" />
  <line x1="248.0" y1="250" x2="248.0" y2="255" stroke="black" stroke-width="1" />
  <text x="242.66666666666666" y="275" font-size="12" fill="black">2024-09-15</text>
  <line x1="258.66666666666663" y1="166.4964650432051" x2="258.66666666666663" y2="188.41319717203456" stroke="black" stroke-width="1" />
  <rect x="253.86666666666665" y="172.38805970149258" width="9.6" height="10.369206598585961" fill="green" />
  <line x1="258.66666666666663" y1="250" x2="258.66666666666663" y2="255" stroke="black" stroke-width="1" />
  <text x="253.33333333333331" y="275" font-size="12" fill="black">2024-09-18</text>
  <line x1="269.3333333333333" y1="146.30793401413973" x2="269.3333333333333" y2="181.65750196386477" stroke="black" stroke-width="1" />
  <rect x="264.53333333333336" y="149.29300864100537" width="9.6" height="29.222309505106256" fill="green" />
  <line x1="269.3333333333333" y1="250" x2="269.3333333333333" y2="255" stroke="black" stroke-width="1" />
  <text x="264.0" y="275" font-size="12" fill="black">2024-09-19</text>
  <line x1="279.99999999999994" y1="126.51217596229384" x2="279.99999999999994" y2="155.1060487038491" stroke="black" stroke-width="1" />
  <rect x="275.2" y="143.00864100549882" width="9.6" height="7.3841319717203255" fill="green" />
  <line x1="279.99999999999994" y1="250" x2="279.99999999999994" y2="255" stroke="black" stroke-width="1" />
  <text x="274.66666666666663" y="275" font-size="12" fill="black">2024-09-20</text>
  <line x1="290.66666666666663" y1="95.9544383346425" x2="290.66666666666663" y2="133.42498036135115" stroke="black" stroke-width="1" />
  <rect x="285.8666666666667" y="118.18538884524747" width="9.6" height="2.5137470542026166" fill="red" />
  <line x1="290.66666666666663" y1="250" x2="290.66666666666663" y2="255" stroke="black" stroke-width="1" />
  <text x="285.3333333333333" y="275" font-size="12" fill="black">2024-09-21</text>
  <line x1="301.3333333333333" y1="128.39748625294567" x2="301.3333333333333" y2="148.1932443047918" stroke="black" stroke-width="1" />
  <rect x="296.53333333333336" y="129.1830322073842" width="9.6" height="2.985074626865635" fill="red" />
  <line x1="301.3333333333333" y1="250" x2="301.3333333333333" y2="255" stroke="black" stroke-width="1" />
  <text x="296.0" y="275" font-size="12" fill="black">2024-09-22</text>
  <line x1="311.99999999999994" y1="92.52945797329133" x2="311.99999999999994" y2="134.5247446975647" stroke="black" stroke-width="1" />
  <rect x="307.2" y="99.33228593872741" width="9.6" height="31.893165750196395" fill="green" />
  <line x1="311.99999999999994" y1="250" x2="311.99999999999994" y2="255" stroke="black" stroke-width="1" />
  <text x="306.66666666666663" y="275" font-size="12" fill="black">2024-09-25</text>
  <line x1="322.66666666666663" y1="86.7635506677141" x2="322.66666666666663" y2="107.65907305577377" stroke="black" stroke-width="1" />
  <rect x="317.8666666666667" y="91.79104477611932" width="9.6" height="12.411626080125782" fill="red" />
  <line x1="322.66666666666663" y1="250" x2="322.66666666666663" y2="255" stroke="black" stroke-width="1" />
  <text x="317.3333333333333" y="275" font-size="12" fill="black">2024-09-26</text>
  <line x1="333.3333333333333" y1="104.2026708562451" x2="333.3333333333333" y2="151.4925373134327" stroke="black" stroke-width="1" />
  <rect x="328.53333333333336" y="113.07934014139826" width="9.6" height="26.944226237234925" fill="red" />
  <line x1="333.3333333333333" y1="250" x2="333.3333333333333" y2="255" stroke="black" stroke-width="1" />
  <text x="328.0" y="275" font-size="12" fill="black">2024-09-27</text>
  <line x1="343.99999999999994" y1="160.2906520031421" x2="343.99999999999994" y2="197.05420267085617" stroke="black" stroke-width="1" />
  <rect x="339.2" y="170.97407698350355" width="9.6" height="26.08012568735265" fill="green" />
  <line x1="343.99999999999994" y1="250" x2="343.99999999999994" y2="255" stroke="black" stroke-width="1" />
  <text x="338.66666666666663" y="275" font-size="12" fill="black">2024-09-28</text>
  <line x1="354.66666666666663" y1="119.28515318146103" x2="354.66666666666663" y2="163.90416339355846" stroke="black" stroke-width="1" />
  <rect x="349.8666666666667" y="123.5271013354282" width="9.6" height="32.36449332285919" fill="green" />
  <line x1="354.66666666666663" y1="250" x2="354.66666666666663" y2="255" stroke="black" stroke-width="1" />
  <text x="349.3333333333333" y="275" font-size="12" fill="black">2024-09-29</text>
</svg>