<svg width="400" height="300" xmlns="http://www.w3.org/2000/svg">
  <line x1="40" y1="250" x2="360" y2="250" stroke="black" stroke-width="2" />
  <line x1="45.333333333333336" y1="118.24644549763048" x2="45.333333333333336" y2="195.97156398104272" stroke="black" stroke-width="1" />
  <rect x="40.53333333333333" y="133.41232227488166" width="9.6" height="41.70616113744048" fill="green" />
  <line x1="45.333333333333336" y1="250" x2="45.333333333333336" y2="255" stroke="black" stroke-width="1" />
  <text x="40.0" y="275" font-size="12" fill="black">2024-08-21</text>
  <line x1="56.0" y1="114.45497630331775" x2="56.0" y2="147.63033175355446" stroke="black" stroke-width="1" />
  <rect x="51.199999999999996" y="130.56872037914695" width="9.6" height="2.8436018957347007" fill="green" />
  <line x1="56.0" y1="250" x2="56.0" y2="255" stroke="black" stroke-width="1" />
  <text x="50.666666666666664" y="275" font-size="12" fill="black">2024-08-22</text>
  <line x1="66.66666666666666" y1="115.40284360189577" x2="66.66666666666666" y2="150.47393364928917" stroke="black" stroke-width="1" />
  <rect x="61.86666666666666" y="126.77725118483424" width="9.6" height="14.21800947867283" fill="red" />
  <line x1="66.66666666666666" y1="250" x2="66.66666666666666" y2="255" stroke="black" stroke-width="1" />
  <text x="61.33333333333333" y="275" font-size="12" fill="black">2024-08-23</text>
  <line x1="77.33333333333333" y1="104.02843601895731" x2="77.33333333333333" y2="138.1516587677727" stroke="black" stroke-width="1" />
  <rect x="72.53333333333333" y="121.09004739336484" width="9.6" height="17.061611374407867" fill="green" />
  <line x1="77.33333333333333" y1="250" x2="77.33333333333333" y2="255" stroke="black" stroke-width="1" />
  <text x="72.0" y="275" font-size="12" fill="black">2024-08-24</text>
  <line x1="87.99999999999999" y1="91.70616113744083" x2="87.99999999999999" y2="115.40284360189577" stroke="black" stroke-width="1" />
  <rect x="83.19999999999999" y="104.02843601895731" width="9.6" height="11.374407582938465" fill="green" />
  <line x1="87.99999999999999" y1="250" x2="87.99999999999999" y2="255" stroke="black" stroke-width="1" />
  <text x="82.66666666666666" y="275" font-size="12" fill="black">2024-08-25</text>
  <line x1="98.66666666666666" y1="99.2890995260666" x2="98.66666666666666" y2="122.03791469194319" stroke="black" stroke-width="1" />
  <rect x="93.86666666666666" y="103.08056872037929" width="9.6" height="5.687203791469065" fill="green" />
  <line x1="98.66666666666666" y1="250" x2="98.66666666666666" y2="255" stroke="black" stroke-width="1" />
  <text x="93.33333333333333" y="275" font-size="12" fill="black">2024-08-28</text>
  <line x1="109.33333333333333" y1="99.2890995260666" x2="109.33333333333333" y2="152.36966824644554" stroke="black" stroke-width="1" />
  <rect x="104.53333333333333" y="103.08056872037929" width="9.6" height="42.65402843601883" fill="red" />
  <line x1="109.33333333333333" y1="250" x2="109.33333333333333" y2="255" stroke="black" stroke-width="1" />
  <text x="104.0" y="275" font-size="12" fill="black">2024-08-29</text>
  <line x1="119.99999999999999" y1="136.25592417061603" x2="119.99999999999999" y2="169.43127962085305" stroke="black" stroke-width="1" />
  <rect x="115.19999999999999" y="145.73459715639814" width="9.6" height="11.374407582938465" fill="red" />
  <line x1="119.99999999999999" y1="250" x2="119.99999999999999" y2="255" stroke="black" stroke-width="1" />
  <text x="114.66666666666666" y="275" font-size="12" fill="black">2024-08-30</text>
  <line x1="130.66666666666666" y1="140.04739336492906" x2="130.66666666666666" y2="203.5545023696681" stroke="black" stroke-width="1" />
  <rect x="125.86666666666666" y="145.73459715639814" width="9.6" height="34.12322274881506" fill="red" />
  <line x1="130.66666666666666" y1="250" x2="130.66666666666666" y2="255" stroke="black" stroke-width="1" />
  <text x="125.33333333333333" y="275" font-size="12" fill="black">2024-08-31</text>
  <line x1="141.33333333333334" y1="118.24644549763048" x2="141.33333333333334" y2="165.63981042654035" stroke="black" stroke-width="1" />
  <rect x="136.53333333333333" y="153.31753554502353" width="9.6" height="3.7914691943130467" fill="green" />
  <line x1="141.33333333333334" y1="250" x2="141.33333333333334" y2="255" stroke="black" stroke-width="1" />
  <text x="136.0" y="275" font-size="12" fill="black">2024-09-01</text>
  <line x1="152.0" y1="134.36018957345965" x2="152.0" y2="177.96208530805683" stroke="black" stroke-width="1" />
  <rect x="147.2" y="139.09952606635073" width="9.6" height="16.113744075829523" fill="green" />
  <line x1="152.0" y1="250" x2="152.0" y2="255" stroke="black" stroke-width="1" />
  <text x="146.66666666666666" y="275" font-size="12" fill="black">2024-09-04</text>
  <line x1="162.66666666666666" y1="114.45497630331775" x2="162.66666666666666" y2="153.31753554502353" stroke="black" stroke-width="1" />
  <rect x="157.86666666666665" y="139.09952606635073" width="9.6" height="2.8436018957347007" fill="red" />
  <line x1="162.66666666666666" y1="250" x2="162.66666666666666" y2="255" stroke="black" stroke-width="1" />
  <text x="157.33333333333331" y="275" font-size="12" fill="black">2024-09-05</text>
  <line x1="173.33333333333334" y1="166.58767772511837" x2="173.33333333333334" y2="206.39810426540282" stroke="black" stroke-width="1" />
  <rect x="168.53333333333333" y="167.53554502369673" width="9.6" height="17.06161137440753" fill="red" />
  <line x1="173.33333333333334" y1="250" x2="173.33333333333334" y2="255" stroke="black" stroke-width="1" />
  <text x="168.0" y="275" font-size="12" fill="black">2024-09-06</text>
  <line x1="184.0" y1="155.21327014218025" x2="184.0" y2="211.13744075829388" stroke="black" stroke-width="1" />
  <rect x="179.2" y="185.5450236966826" width="9.6" height="25.592417061611297" fill="red" />
  <line x1="184.0" y1="250" x2="184.0" y2="255" stroke="black" stroke-width="1" />
  <text x="178.66666666666666" y="275" font-size="12" fill="black">2024-09-07</text>
  <line x1="194.66666666666666" y1="190.2843601895733" x2="194.66666666666666" y2="214.9289099526066" stroke="black" stroke-width="1" />
  <rect x="189.86666666666665" y="198.8151658767771" width="9.6" height="12.322274881516812" fill="green" />
  <line x1="194.66666666666666" y1="250" x2="194.66666666666666" y2="255" stroke="black" stroke-width="1" />
  <text x="189.33333333333331" y="275" font-size="12" fill="black">2024-09-08</text>
  <line x1="205.33333333333334" y1="192.18009478672965" x2="205.33333333333334" y2="214.9289099526066" stroke="black" stroke-width="1" />
  <rect x="200.53333333333333" y="198.8151658767771" width="9.6" height="1.8957345971563548" fill="green" />
  <line x1="205.33333333333334" y1="250" x2="205.33333333333334" y2="255" stroke="black" stroke-width="1" />
  <text x="200.0" y="275" font-size="12" fill="black">2024-09-11</text>
  <line x1="216.0" y1="146.68246445497647" x2="216.0" y2="209.24170616113753" stroke="black" stroke-width="1" />
  <rect x="211.2" y="162.79620853080564" width="9.6" height="34.12322274881506" fill="green" />
  <line x1="216.0" y1="250" x2="216.0" y2="255" stroke="black" stroke-width="1" />
  <text x="210.66666666666666" y="275" font-size="12" fill="black">2024-09-12</text>
  <line x1="226.66666666666666" y1="154.2654028436019" x2="226.66666666666666" y2="199.76303317535542" stroke="black" stroke-width="1" />
  <rect x="221.86666666666665" y="162.79620853080564" width="9.6" height="22.74881516587693" fill="red" />
  <line x1="226.66666666666666" y1="250" x2="226.66666666666666" y2="255" stroke="black" stroke-width="1" />
  <text x="221.33333333333331" y="275" font-size="12" fill="black">2024-09-13</text>
  <line x1="237.33333333333334" y1="163.744075829384" x2="237.33333333333334" y2="235.78199052132683" stroke="black" stroke-width="1" />
  <rect x="232.53333333333333" y="177.96208530805683" width="9.6" height="41.706161137440816" fill="red" />
  <line x1="237.33333333333334" y1="250" x2="237.33333333333334" y2="255" stroke="black" stroke-width="1" />
  <text x="232.0" y="275" font-size="12" fill="black">2024-09-14</text>
  <line x1="248.0" y1="203.5545023696681" x2="248.0" y2="231.04265402843578" stroke="black" stroke-width="1" />
  <rect x="243.2" y="210.18957345971555" width="9.6" height="10.42654028436012" fill="red" />
  <line x1="248.0" y1="250" x2="248.0" y2="255" stroke="black" stroke-width="1" />
  <text x="242.66666666666666" y="275" font-size="12" fill="black">2024-09-15</text>
  <line x1="258.66666666666663" y1="213.98104265402824" x2="258.66666666666663" y2="247.1563981042653" stroke="black" stroke-width="1" />
  <rect x="253.86666666666665" y="219.66824644549766" width="9.6" height="15.165876777251176" fill="red" />
  <line x1="258.66666666666663" y1="250" x2="258.66666666666663" y2="255" stroke="black" stroke-width="1" />
  <text x="253.33333333333331" y="275" font-size="12" fill="black">2024-09-18</text>
  <line x1="269.3333333333333" y1="176.06635071090048" x2="269.3333333333333" y2="234.83412322274881" stroke="black" stroke-width="1" />
  <rect x="264.53333333333336" y="189.3364928909953" width="9.6" height="34.12322274881506" fill="green" />
  <line x1="269.3333333333333" y1="250" x2="269.3333333333333" y2="255" stroke="black" stroke-width="1" />
  <text x="264.0" y="275" font-size="12" fill="black">2024-09-19</text>
  <line x1="279.99999999999994" y1="184.59715639810423" x2="279.99999999999994" y2="208.2938388625592" stroke="black" stroke-width="1" />
  <rect x="275.2" y="185.5450236966826" width="9.6" height="3.7914691943127097" fill="green" />
  <line x1="279.99999999999994" y1="250" x2="279.99999999999994" y2="255" stroke="black" stroke-width="1" />
  <text x="274.66666666666663" y="275" font-size="12" fill="black">2024-09-20</text>
  <line x1="290.66666666666663" y1="161.84834123222765" x2="290.66666666666663" y2="250.0" stroke="black" stroke-width="1" />
  <rect x="285.8666666666667" y="182.70142180094788" width="9.6" height="42.65402843601883" fill="red" />
  <line x1="290.66666666666663" y1="250" x2="290.66666666666663" y2="255" stroke="black" stroke-width="1" />
  <text x="285.3333333333333" y="275" font-size="12" fill="black">2024-09-21</text>
  <line x1="301.3333333333333" y1="203.5545023696681" x2="301.3333333333333" y2="246.20853080568696" stroke="black" stroke-width="1" />
  <rect x="296.53333333333336" y="210.18957345971555" width="9.6" height="11.374407582938465" fill="green" />
  <line x1="301.3333333333333" y1="250" x2="301.3333333333333" y2="255" stroke="black" stroke-width="1" />
  <text x="296.0" y="275" font-size="12" fill="black">2024-09-22</text>
  <line x1="311.99999999999994" y1="180.80568720379154" x2="311.99999999999994" y2="209.24170616113753" stroke="black" stroke-width="1" />
  <rect x="307.2" y="193.127962085308" width="9.6" height="9.478672985782111" fill="green" />
  <line x1="311.99999999999994" y1="250" x2="311.99999999999994" y2="255" stroke="black" stroke-width="1" />
  <text x="306.66666666666663" y="275" font-size="12" fill="black">2024-09-25</text>
  <line x1="322.66666666666663" y1="142.89099526066343" x2="322.66666666666663" y2="204.50236966824647" stroke="black" stroke-width="1" />
  <rect x="317.8666666666667" y="149.52606635071083" width="9.6" height="34.12322274881506" fill="green" />
  <line x1="322.66666666666663" y1="250" x2="322.66666666666663" y2="255" stroke="black" stroke-width="1" />
  <text x="317.3333333333333" y="275" font-size="12" fill="black">2024-09-26</text>
  <line x1="333.3333333333333" y1="126.77725118483424" x2="333.3333333333333" y2="160.9004739336493" stroke="black" stroke-width="1" />
  <rect x="328.53333333333336" y="126.77725118483424" width="9.6" height="34.12322274881506" fill="green" />
  <line x1="333.3333333333333" y1="250" x2="333.3333333333333" y2="255" stroke="black" stroke-width="1" />
  <text x="328.0" y="275" font-size="12" fill="black">2024-09-27</text>
  <line x1="343.99999999999994" y1="50.0" x2="343.99999999999994" y2="122.03791469194319" stroke="black" stroke-width="1" />
  <rect x="339.2" y="87.91469194312813" width="9.6" height="19.90521327014223" fill="green" />
  <line x1="343.99999999999994" y1="250" x2="343.99999999999994" y2="255" stroke="black" stroke-width="1" />
  <text x="338.66666666666663" y="275" font-size="12" fill="black">2024-09-28</text>
  <line x1="354.66666666666663" y1="60.42654028436047" x2="354.66666666666663" y2="101.18483412322294" stroke="black" stroke-width="1" />
  <rect x="349.8666666666667" y="84.12322274881541" width="9.6" height="7.582938388625419" fill="green" />
  <line x1="354.66666666666663" y1="250" x2="354.66666666666663" y2="255" stroke="black" stroke-width="1" />
  <text x="349.3333333333333" y="275" font-size="12" fill="black">2024-09-29</text>
</svg>