<svg width="400" height="300" xmlns="http://www.w3.org/2000/svg">
  <line x1="40" y1="250" x2="360" y2="250" stroke="black" stroke-width="2" />
  <line x1="45.333333333333336" y1="67.94871794871756" x2="45.333333333333336" y2="108.97435897435867" stroke="black" stroke-width="1" />
  <rect x="40.53333333333333" y="74.35897435897408" width="9.6" height="26.923076923077055" fill="green" />
  <line x1="45.333333333333336" y1="250" x2="45.333333333333336" y2="255" stroke="black" stroke-width="1" />
  <text x="40.0" y="275" font-size="12" fill="black">2024-08-21</text>
  <line x1="56.0" y1="56.41025641025604" x2="56.0" y2="97.43589743589715" stroke="black" stroke-width="1" />
  <rect x="51.199999999999996" y="71.79487179487157" width="9.6" height="19.23076923076952" fill="red" />
  <line x1="56.0" y1="250" x2="56.0" y2="255" stroke="black" stroke-width="1" />
  <text x="50.666666666666664" y="275" font-size="12" fill="black">2024-08-22</text>
  <line x1="66.66666666666666" y1="80.76923076923057" x2="66.66666666666666" y2="105.12820512820514" stroke="black" stroke-width="1" />
  <rect x="61.86666666666666" y="89.74358974358961" width="9.6" height="14.102564102564042" fill="green" />
  <line x1="66.66666666666666" y1="250" x2="66.66666666666666" y2="255" stroke="black" stroke-width="1" />
  <text x="61.33333333333333" y="275" font-size="12" fill="black">2024-08-23</text>
  <line x1="77.33333333333333" y1="101.28205128205113" x2="77.33333333333333" y2="112.82051282051268" stroke="black" stroke-width="1" />
  <rect x="72.53333333333333" y="102.56410256410263" width="9.6" height="3.84615384615354" fill="red" />
  <line x1="77.33333333333333" y1="250" x2="77.33333333333333" y2="255" stroke="black" stroke-width="1" />
  <text x="72.0" y="275" font-size="12" fill="black">2024-08-24</text>
  <line x1="87.99999999999999" y1="69.23076923076906" x2="87.99999999999999" y2="112.82051282051268" stroke="black" stroke-width="1" />
  <rect x="83.19999999999999" y="83.33333333333309" width="9.6" height="17.948717948718038" fill="green" />
  <line x1="87.99999999999999" y1="250" x2="87.99999999999999" y2="255" stroke="black" stroke-width="1" />
  <text x="82.66666666666666" y="275" font-size="12" fill="black">2024-08-25</text>
  <line x1="98.66666666666666" y1="83.33333333333309" x2="98.66666666666666" y2="106.41025641025615" stroke="black" stroke-width="1" />
  <rect x="93.86666666666666" y="83.33333333333309" width="9.6" height="1.2820512820514836" fill="red" />
  <line x1="98.66666666666666" y1="250" x2="98.66666666666666" y2="255" stroke="black" stroke-width="1" />
  <text x="93.33333333333333" y="275" font-size="12" fill="black">2024-08-28</text>
  <line x1="109.33333333333333" y1="76.9230769230766" x2="109.33333333333333" y2="99.99999999999966" stroke="black" stroke-width="1" />
  <rect x="104.53333333333333" y="88.46153846153811" width="9.6" height="7.692307692307991" fill="red" />
  <line x1="109.33333333333333" y1="250" x2="109.33333333333333" y2="255" stroke="black" stroke-width="1" />
  <text x="104.0" y="275" font-size="12" fill="black">2024-08-29</text>
  <line x1="119.99999999999999" y1="88.46153846153811" x2="119.99999999999999" y2="107.69230769230765" stroke="black" stroke-width="1" />
  <rect x="115.19999999999999" y="96.1538461538461" width="9.6" height="8.974358974359019" fill="red" />
  <line x1="119.99999999999999" y1="250" x2="119.99999999999999" y2="255" stroke="black" stroke-width="1" />
  <text x="114.66666666666666" y="275" font-size="12" fill="black">2024-08-30</text>
  <line x1="130.66666666666666" y1="78.20512820512806" x2="130.66666666666666" y2="105.12820512820514" stroke="black" stroke-width="1" />
  <rect x="125.86666666666666" y="83.33333333333309" width="9.6" height="21.794871794872034" fill="green" />
  <line x1="130.66666666666666" y1="250" x2="130.66666666666666" y2="255" stroke="black" stroke-width="1" />
  <text x="125.33333333333333" y="275" font-size="12" fill="black">2024-08-31</text>
  <line x1="141.33333333333334" y1="50.0" x2="141.33333333333334" y2="87.1794871794871" stroke="black" stroke-width="1" />
  <rect x="136.53333333333333" y="53.84615384615353" width="9.6" height="29.487179487179567" fill="green" />
  <line x1="141.33333333333334" y1="250" x2="141.33333333333334" y2="255" stroke="black" stroke-width="1" />
  <text x="136.0" y="275" font-size="12" fill="black">2024-09-01</text>
  <line x1="152.0" y1="51.282051282051015" x2="152.0" y2="74.35897435897408" stroke="black" stroke-width="1" />
  <rect x="147.2" y="55.128205128205025" width="9.6" height="8.974358974359019" fill="red" />
  <line x1="152.0" y1="250" x2="152.0" y2="255" stroke="black" stroke-width="1" />
  <text x="146.66666666666666" y="275" font-size="12" fill="black">2024-09-04</text>
  <line x1="162.66666666666666" y1="60.25641025641002" x2="162.66666666666666" y2="158.97435897435878" stroke="black" stroke-width="1" />
  <rect x="157.86666666666665" y="67.94871794871756" width="9.6" height="64.10256410256416" fill="red" />
  <line x1="162.66666666666666" y1="250" x2="162.66666666666666" y2="255" stroke="black" stroke-width="1" />
  <text x="157.33333333333331" y="275" font-size="12" fill="black">2024-09-05</text>
  <line x1="173.33333333333334" y1="143.5897435897437" x2="173.33333333333334" y2="164.1025641025638" stroke="black" stroke-width="1" />
  <rect x="168.53333333333333" y="153.84615384615375" width="9.6" height="5.128205128205024" fill="green" />
  <line x1="173.33333333333334" y1="250" x2="173.33333333333334" y2="255" stroke="black" stroke-width="1" />
  <text x="168.0" y="275" font-size="12" fill="black">2024-09-06</text>
  <line x1="184.0" y1="151.28205128205127" x2="184.0" y2="173.0769230769228" stroke="black" stroke-width="1" />
  <rect x="179.2" y="155.12820512820525" width="9.6" height="15.38461538461507" fill="red" />
  <line x1="184.0" y1="250" x2="184.0" y2="255" stroke="black" stroke-width="1" />
  <text x="178.66666666666666" y="275" font-size="12" fill="black">2024-09-07</text>
  <line x1="194.66666666666666" y1="162.82051282051276" x2="194.66666666666666" y2="191.02564102564088" stroke="black" stroke-width="1" />
  <rect x="189.86666666666665" y="170.51282051282033" width="9.6" height="12.820512820513015" fill="red" />
  <line x1="194.66666666666666" y1="250" x2="194.66666666666666" y2="255" stroke="black" stroke-width="1" />
  <text x="189.33333333333331" y="275" font-size="12" fill="black">2024-09-08</text>
  <line x1="205.33333333333334" y1="175.6410256410258" x2="205.33333333333334" y2="197.43589743589737" stroke="black" stroke-width="1" />
  <rect x="200.53333333333333" y="187.17948717948732" width="9.6" height="1.2820512820510281" fill="red" />
  <line x1="205.33333333333334" y1="250" x2="205.33333333333334" y2="255" stroke="black" stroke-width="1" />
  <text x="200.0" y="275" font-size="12" fill="black">2024-09-11</text>
  <line x1="216.0" y1="176.92307692307682" x2="216.0" y2="201.28205128205138" stroke="black" stroke-width="1" />
  <rect x="211.2" y="188.46153846153834" width="9.6" height="10.256410256410502" fill="red" />
  <line x1="216.0" y1="250" x2="216.0" y2="255" stroke="black" stroke-width="1" />
  <text x="210.66666666666666" y="275" font-size="12" fill="black">2024-09-12</text>
  <line x1="226.66666666666666" y1="187.17948717948732" x2="226.66666666666666" y2="250.0" stroke="black" stroke-width="1" />
  <rect x="221.86666666666665" y="196.1538461538459" width="9.6" height="53.84615384615411" fill="red" />
  <line x1="226.66666666666666" y1="250" x2="226.66666666666666" y2="255" stroke="black" stroke-width="1" />
  <text x="221.33333333333331" y="275" font-size="12" fill="black">2024-09-13</text>
  <line x1="237.33333333333334" y1="212.8205128205129" x2="237.33333333333334" y2="248.7179487179485" stroke="black" stroke-width="1" />
  <rect x="232.53333333333333" y="228.20512820512798" width="9.6" height="1.2820512820514836" fill="green" />
  <line x1="237.33333333333334" y1="250" x2="237.33333333333334" y2="255" stroke="black" stroke-width="1" />
  <text x="232.0" y="275" font-size="12" fill="black">2024-09-14</text>
  <line x1="248.0" y1="198.71794871794884" x2="248.0" y2="221.7948717948719" stroke="black" stroke-width="1" />
  <rect x="243.2" y="199.9999999999999" width="9.6" height="21.794871794872034" fill="green" />
  <line x1="248.0" y1="250" x2="248.0" y2="255" stroke="black" stroke-width="1" />
  <text x="242.66666666666666" y="275" font-size="12" fill="black">2024-09-15</text>
  <line x1="258.66666666666663" y1="199.9999999999999" x2="258.66666666666663" y2="226.92307692307693" stroke="black" stroke-width="1" />
  <rect x="253.86666666666665" y="199.9999999999999" width="9.6" height="21.794871794872034" fill="red" />
  <line x1="258.66666666666663" y1="250" x2="258.66666666666663" y2="255" stroke="black" stroke-width="1" />
  <text x="253.33333333333331" y="275" font-size="12" fill="black">2024-09-18</text>
  <line x1="269.3333333333333" y1="199.9999999999999" x2="269.3333333333333" y2="232.05128205128196" stroke="black" stroke-width="1" />
  <rect x="264.53333333333336" y="216.66666666666643" width="9.6" height="6.410256410256507" fill="green" />
  <line x1="269.3333333333333" y1="250" x2="269.3333333333333" y2="255" stroke="black" stroke-width="1" />
  <text x="264.0" y="275" font-size="12" fill="black">2024-09-19</text>
  <line x1="279.99999999999994" y1="192.30769230769235" x2="279.99999999999994" y2="230.76923076923094" stroke="black" stroke-width="1" />
  <rect x="275.2" y="196.1538461538459" width="9.6" height="19.23076923076952" fill="green" />
  <line x1="279.99999999999994" y1="250" x2="279.99999999999994" y2="255" stroke="black" stroke-width="1" />
  <text x="274.66666666666663" y="275" font-size="12" fill="black">2024-09-20</text>
  <line x1="290.66666666666663" y1="139.74358974358972" x2="290.66666666666663" y2="182.05128205128185" stroke="black" stroke-width="1" />
  <rect x="285.8666666666667" y="151.28205128205127" width="9.6" height="26.923076923077055" fill="green" />
  <line x1="290.66666666666663" y1="250" x2="290.66666666666663" y2="255" stroke="black" stroke-width="1" />
  <text x="285.3333333333333" y="275" font-size="12" fill="black">2024-09-21</text>
  <line x1="301.3333333333333" y1="129.48717948717922" x2="301.3333333333333" y2="199.9999999999999" stroke="black" stroke-width="1" />
  <rect x="296.53333333333336" y="129.48717948717922" width="9.6" height="62.82051282051313" fill="red" />
  <line x1="301.3333333333333" y1="250" x2="301.3333333333333" y2="255" stroke="black" stroke-width="1" />
  <text x="296.0" y="275" font-size="12" fill="black">2024-09-22</text>
  <line x1="311.99999999999994" y1="188.46153846153834" x2="311.99999999999994" y2="230.76923076923094" stroke="black" stroke-width="1" />
  <rect x="307.2" y="192.30769230769235" width="9.6" height="29.487179487179567" fill="red" />
  <line x1="311.99999999999994" y1="250" x2="311.99999999999994" y2="255" stroke="black" stroke-width="1" />
  <text x="306.66666666666663" y="275" font-size="12" fill="black">2024-09-25</text>
  <line x1="322.66666666666663" y1="183.33333333333331" x2="322.66666666666663" y2="214.10256410256392" stroke="black" stroke-width="1" />
  <rect x="317.8666666666667" y="183.33333333333331" width="9.6" height="17.948717948718038" fill="green" />
  <line x1="322.66666666666663" y1="250" x2="322.66666666666663" y2="255" stroke="black" stroke-width="1" />
  <text x="317.3333333333333" y="275" font-size="12" fill="black">2024-09-26</text>
  <line x1="333.3333333333333" y1="135.89743589743574" x2="333.3333333333333" y2="194.87179487179486" stroke="black" stroke-width="1" />
  <rect x="328.53333333333336" y="141.02564102564077" width="9.6" height="34.61538461538505" fill="red" />
  <line x1="333.3333333333333" y1="250" x2="333.3333333333333" y2="255" stroke="black" stroke-width="1" />
  <text x="328.0" y="275" font-size="12" fill="black">2024-09-27</text>
  <line x1="343.99999999999994" y1="102.56410256410263" x2="343.99999999999994" y2="173.0769230769228" stroke="black" stroke-width="1" />
  <rect x="339.2" y="114.10256410256414" width="9.6" height="58.97435897435868" fill="green" />
  <line x1="343.99999999999994" y1="250" x2="343.99999999999994" y2="255" stroke="black" stroke-width="1" />
  <text x="338.66666666666663" y="275" font-size="12" fill="black">2024-09-28</text>
  <line x1="354.66666666666663" y1="102.56410256410263" x2="354.66666666666663" y2="147.43589743589726" stroke="black" stroke-width="1" />
  <rect x="349.8666666666667" y="116.66666666666666" width="9.6" height="24.358974358974088" fill="red" />
  <line x1="354.66666666666663" y1="250" x2="354.66666666666663" y2="255" stroke="black" stroke-width="1" />
  <text x="349.3333333333333" y="275" font-size="12" fill="black">2024-09-29</text>
</svg>