<svg width="400" height="300" xmlns="http://www.w3.org/2000/svg">
  <line x1="40" y1="250" x2="360" y2="250" stroke="black" stroke-width="2" />
  <line x1="45.333333333333336" y1="240.4761904761906" x2="45.333333333333336" y2="250.0" stroke="black" stroke-width="1" />
  <rect x="40.53333333333333" y="244.11952700543313" width="9.6" height="1.2783636944710046" fill="green" />
  <line x1="45.333333333333336" y1="250" x2="45.333333333333336" y2="255" stroke="black" stroke-width="1" />
  <text x="40.0" y="275" font-size="12" fill="black">2024-08-18</text>
  <line x1="56.0" y1="232.96580377117294" x2="56.0" y2="244.53499520613622" stroke="black" stroke-width="1" />
  <rect x="51.199999999999996" y="238.04729945669558" width="9.6" height="5.688718440396207" fill="green" />
  <line x1="56.0" y1="250" x2="56.0" y2="255" stroke="black" stroke-width="1" />
  <text x="50.666666666666664" y="275" font-size="12" fill="black">2024-08-21</text>
  <line x1="66.66666666666666" y1="228.5874081176095" x2="66.66666666666666" y2="244.3112815596038" stroke="black" stroke-width="1" />
  <rect x="61.86666666666666" y="229.7379354426335" width="9.6" height="9.204218600191743" fill="green" />
  <line x1="66.66666666666666" y1="250" x2="66.66666666666666" y2="255" stroke="black" stroke-width="1" />
  <text x="61.33333333333333" y="275" font-size="12" fill="black">2024-08-22</text>
  <line x1="77.33333333333333" y1="221.42857142857144" x2="77.33333333333333" y2="241.97826781719402" stroke="black" stroke-width="1" />
  <rect x="72.53333333333333" y="222.1955896452541" width="9.6" height="7.925854905720738" fill="green" />
  <line x1="77.33333333333333" y1="250" x2="77.33333333333333" y2="255" stroke="black" stroke-width="1" />
  <text x="72.0" y="275" font-size="12" fill="black">2024-08-23</text>
  <line x1="87.99999999999999" y1="217.6573985298819" x2="87.99999999999999" y2="232.67817193991704" stroke="black" stroke-width="1" />
  <rect x="83.19999999999999" y="221.93991690635994" width="9.6" height="8.245445829338397" fill="red" />
  <line x1="87.99999999999999" y1="250" x2="87.99999999999999" y2="255" stroke="black" stroke-width="1" />
  <text x="82.66666666666666" y="275" font-size="12" fill="black">2024-08-24</text>
  <line x1="98.66666666666666" y1="221.10898050495376" x2="98.66666666666666" y2="240.22051773729643" stroke="black" stroke-width="1" />
  <rect x="93.86666666666666" y="224.88015340364348" width="9.6" height="4.410354745925202" fill="red" />
  <line x1="98.66666666666666" y1="250" x2="98.66666666666666" y2="255" stroke="black" stroke-width="1" />
  <text x="93.33333333333333" y="275" font-size="12" fill="black">2024-08-25</text>
  <line x1="109.33333333333333" y1="214.94087567913078" x2="109.33333333333333" y2="230.56887184403968" stroke="black" stroke-width="1" />
  <rect x="104.53333333333333" y="217.27388942154056" width="9.6" height="12.6558005752636" fill="green" />
  <line x1="109.33333333333333" y1="250" x2="109.33333333333333" y2="255" stroke="black" stroke-width="1" />
  <text x="104.0" y="275" font-size="12" fill="black">2024-08-28</text>
  <line x1="119.99999999999999" y1="208.19750719079582" x2="119.99999999999999" y2="223.72962607861945" stroke="black" stroke-width="1" />
  <rect x="115.19999999999999" y="212.48002556727403" width="9.6" height="8.245445829338397" fill="green" />
  <line x1="119.99999999999999" y1="250" x2="119.99999999999999" y2="255" stroke="black" stroke-width="1" />
  <text x="114.66666666666666" y="275" font-size="12" fill="black">2024-08-29</text>
  <line x1="130.66666666666666" y1="204.36241610738261" x2="130.66666666666666" y2="220.4058804729946" stroke="black" stroke-width="1" />
  <rect x="125.86666666666666" y="210.754234579738" width="9.6" height="3.451581975071858" fill="red" />
  <line x1="130.66666666666666" y1="250" x2="130.66666666666666" y2="255" stroke="black" stroke-width="1" />
  <text x="125.33333333333333" y="275" font-size="12" fill="black">2024-08-30</text>
  <line x1="141.33333333333334" y1="197.20357941834456" x2="141.33333333333334" y2="215.4202620645574" stroke="black" stroke-width="1" />
  <rect x="136.53333333333333" y="208.83668903803132" width="9.6" height="2.556727388942191" fill="red" />
  <line x1="141.33333333333334" y1="250" x2="141.33333333333334" y2="255" stroke="black" stroke-width="1" />
  <text x="136.0" y="275" font-size="12" fill="black">2024-08-31</text>
  <line x1="152.0" y1="190.4921700223715" x2="152.0" y2="212.48002556727403" stroke="black" stroke-width="1" />
  <rect x="147.2" y="190.74784276126567" width="9.6" height="19.30329178651315" fill="green" />
  <line x1="152.0" y1="250" x2="152.0" y2="255" stroke="black" stroke-width="1" />
  <text x="146.66666666666666" y="275" font-size="12" fill="black">2024-09-01</text>
  <line x1="162.66666666666666" y1="174.1930329178652" x2="162.66666666666666" y2="203.02013422818794" stroke="black" stroke-width="1" />
  <rect x="157.86666666666665" y="192.15404282518386" width="9.6" height="4.026845637583865" fill="red" />
  <line x1="162.66666666666666" y1="250" x2="162.66666666666666" y2="255" stroke="black" stroke-width="1" />
  <text x="157.33333333333331" y="275" font-size="12" fill="black">2024-09-05</text>
  <line x1="173.33333333333334" y1="176.49408756791306" x2="173.33333333333334" y2="201.16650687120494" stroke="black" stroke-width="1" />
  <rect x="168.53333333333333" y="178.0920421860019" width="9.6" height="21.41259188239069" fill="green" />
  <line x1="173.33333333333334" y1="250" x2="173.33333333333334" y2="255" stroke="black" stroke-width="1" />
  <text x="168.0" y="275" font-size="12" fill="black">2024-09-06</text>
  <line x1="184.0" y1="166.33109619686815" x2="184.0" y2="198.2262703739214" stroke="black" stroke-width="1" />
  <rect x="179.2" y="178.2837967401726" width="9.6" height="9.523809523809584" fill="red" />
  <line x1="184.0" y1="250" x2="184.0" y2="255" stroke="black" stroke-width="1" />
  <text x="178.66666666666666" y="275" font-size="12" fill="black">2024-09-07</text>
  <line x1="194.66666666666666" y1="178.15596037072558" x2="194.66666666666666" y2="208.6129753914989" stroke="black" stroke-width="1" />
  <rect x="189.86666666666665" y="189.14988814317684" width="9.6" height="10.482582294662746" fill="red" />
  <line x1="194.66666666666666" y1="250" x2="194.66666666666666" y2="255" stroke="black" stroke-width="1" />
  <text x="189.33333333333331" y="275" font-size="12" fill="black">2024-09-08</text>
  <line x1="205.33333333333334" y1="172.08373282198784" x2="205.33333333333334" y2="195.22211569191438" stroke="black" stroke-width="1" />
  <rect x="200.53333333333333" y="181.7992968999681" width="9.6" height="10.162991371045086" fill="green" />
  <line x1="205.33333333333334" y1="250" x2="205.33333333333334" y2="255" stroke="black" stroke-width="1" />
  <text x="200.0" y="275" font-size="12" fill="black">2024-09-11</text>
  <line x1="216.0" y1="167.09811441355066" x2="216.0" y2="186.01789709172263" stroke="black" stroke-width="1" />
  <rect x="211.2" y="170.35794183445202" width="9.6" height="7.158836689038062" fill="green" />
  <line x1="216.0" y1="250" x2="216.0" y2="255" stroke="black" stroke-width="1" />
  <text x="210.66666666666666" y="275" font-size="12" fill="black">2024-09-12</text>
  <line x1="226.66666666666666" y1="139.67721316714608" x2="226.66666666666666" y2="184.9312879514223" stroke="black" stroke-width="1" />
  <rect x="221.86666666666665" y="141.14733141578796" width="9.6" height="13.614573346116945" fill="green" />
  <line x1="226.66666666666666" y1="250" x2="226.66666666666666" y2="255" stroke="black" stroke-width="1" />
  <text x="221.33333333333331" y="275" font-size="12" fill="black">2024-09-13</text>
  <line x1="237.33333333333334" y1="123.50591243208694" x2="237.33333333333334" y2="151.53403643336543" stroke="black" stroke-width="1" />
  <rect x="232.53333333333333" y="130.1534036433365" width="9.6" height="10.29082774049226" fill="green" />
  <line x1="237.33333333333334" y1="250" x2="237.33333333333334" y2="255" stroke="black" stroke-width="1" />
  <text x="232.0" y="275" font-size="12" fill="black">2024-09-14</text>
  <line x1="248.0" y1="101.51805688718443" x2="248.0" y2="126.82965803771182" stroke="black" stroke-width="1" />
  <rect x="243.2" y="109.82742090124651" width="9.6" height="14.765100671140958" fill="green" />
  <line x1="248.0" y1="250" x2="248.0" y2="255" stroke="black" stroke-width="1" />
  <text x="242.66666666666666" y="275" font-size="12" fill="black">2024-09-15</text>
  <line x1="258.66666666666663" y1="89.94886545222118" x2="258.66666666666663" y2="105.16139341642696" stroke="black" stroke-width="1" />
  <rect x="253.86666666666665" y="94.67881112176423" width="9.6" height="8.181527644614903" fill="green" />
  <line x1="258.66666666666663" y1="250" x2="258.66666666666663" y2="255" stroke="black" stroke-width="1" />
  <text x="253.33333333333331" y="275" font-size="12" fill="black">2024-09-18</text>
  <line x1="269.3333333333333" y1="83.94055608820713" x2="269.3333333333333" y2="121.2687759667626" stroke="black" stroke-width="1" />
  <rect x="264.53333333333336" y="94.10354745925221" width="9.6" height="19.942473633748836" fill="red" />
  <line x1="269.3333333333333" y1="250" x2="269.3333333333333" y2="255" stroke="black" stroke-width="1" />
  <text x="264.0" y="275" font-size="12" fill="black">2024-09-19</text>
  <line x1="279.99999999999994" y1="96.59635666347071" x2="279.99999999999994" y2="117.49760306807289" stroke="black" stroke-width="1" />
  <rect x="275.2" y="108.86864813039315" width="9.6" height="5.177372962607878" fill="green" />
  <line x1="279.99999999999994" y1="250" x2="279.99999999999994" y2="255" stroke="black" stroke-width="1" />
  <text x="274.66666666666663" y="275" font-size="12" fill="black">2024-09-20</text>
  <line x1="290.66666666666663" y1="86.24161073825516" x2="290.66666666666663" y2="138.07925854905724" stroke="black" stroke-width="1" />
  <rect x="285.8666666666667" y="89.24576542026216" width="9.6" height="26.334292106104222" fill="red" />
  <line x1="290.66666666666663" y1="250" x2="290.66666666666663" y2="255" stroke="black" stroke-width="1" />
  <text x="285.3333333333333" y="275" font-size="12" fill="black">2024-09-21</text>
  <line x1="301.3333333333333" y1="90.26845637583901" x2="301.3333333333333" y2="116.53883029721956" stroke="black" stroke-width="1" />
  <rect x="296.53333333333336" y="91.22722914669237" width="9.6" height="21.5404282518375" fill="green" />
  <line x1="301.3333333333333" y1="250" x2="301.3333333333333" y2="255" stroke="black" stroke-width="1" />
  <text x="296.0" y="275" font-size="12" fill="black">2024-09-22</text>
  <line x1="311.99999999999994" y1="72.56311920741453" x2="311.99999999999994" y2="93.97571108980503" stroke="black" stroke-width="1" />
  <rect x="307.2" y="73.33013742409719" width="9.6" height="15.979546180888466" fill="green" />
  <line x1="311.99999999999994" y1="250" x2="311.99999999999994" y2="255" stroke="black" stroke-width="1" />
  <text x="306.66666666666663" y="275" font-size="12" fill="black">2024-09-25</text>
  <line x1="322.66666666666663" y1="68.919782678172" x2="322.66666666666663" y2="88.28699264940883" stroke="black" stroke-width="1" />
  <rect x="317.8666666666667" y="70.32598274209019" width="9.6" height="7.606263982102895" fill="green" />
  <line x1="322.66666666666663" y1="250" x2="322.66666666666663" y2="255" stroke="black" stroke-width="1" />
  <text x="317.3333333333333" y="275" font-size="12" fill="black">2024-09-26</text>
  <line x1="333.3333333333333" y1="64.70118248641748" x2="333.3333333333333" y2="75.50335570469807" stroke="black" stroke-width="1" />
  <rect x="328.53333333333336" y="68.66410993927784" width="9.6" height="1" fill="green" />
  <line x1="333.3333333333333" y1="250" x2="333.3333333333333" y2="255" stroke="black" stroke-width="1" />
  <text x="328.0" y="275" font-size="12" fill="black">2024-09-27</text>
  <line x1="343.99999999999994" y1="50.95877277085336" x2="343.99999999999994" y2="67.8651326302334" stroke="black" stroke-width="1" />
  <rect x="339.2" y="54.60210930009589" width="9.6" height="8.437200383509067" fill="green" />
  <line x1="343.99999999999994" y1="250" x2="343.99999999999994" y2="255" stroke="black" stroke-width="1" />
  <text x="338.66666666666663" y="275" font-size="12" fill="black">2024-09-28</text>
  <line x1="354.66666666666663" y1="50.0" x2="354.66666666666663" y2="71.60434643656117" stroke="black" stroke-width="1" />
  <rect x="349.8666666666667" y="57.350591243208726" width="9.6" height="13.806327900287613" fill="red" />
  <line x1="354.66666666666663" y1="250" x2="354.66666666666663" y2="255" stroke="black" stroke-width="1" />
  <text x="349.3333333333333" y="275" font-size="12" fill="black">2024-09-29</text>
</svg>