<svg width="400" height="300" xmlns="http://www.w3.org/2000/svg">
  <line x1="40" y1="250" x2="360" y2="250" stroke="black" stroke-width="2" />
  <line x1="45.333333333333336" y1="217.01030927835063" x2="45.333333333333336" y2="250.0" stroke="black" stroke-width="1" />
  <rect x="40.53333333333333" y="227.31958762886634" width="9.6" height="4.686035613870671" fill="green" />
  <line x1="45.333333333333336" y1="250" x2="45.333333333333336" y2="255" stroke="black" stroke-width="1" />
  <text x="40.0" y="275" font-size="12" fill="black">2024-08-18</text>
  <line x1="56.0" y1="210.3561387066545" x2="56.0" y2="232.19306466729165" stroke="black" stroke-width="1" />
  <rect x="51.199999999999996" y="222.8209934395503" width="9.6" height="3.186504217431822" fill="green" />
  <line x1="56.0" y1="250" x2="56.0" y2="255" stroke="black" stroke-width="1" />
  <text x="50.666666666666664" y="275" font-size="12" fill="black">2024-08-21</text>
  <line x1="66.66666666666666" y1="198.4536082474226" x2="66.66666666666666" y2="222.07122774133117" stroke="black" stroke-width="1" />
  <rect x="61.86666666666666" y="212.88659793814446" width="9.6" height="2.9990627928771656" fill="green" />
  <line x1="66.66666666666666" y1="250" x2="66.66666666666666" y2="255" stroke="black" stroke-width="1" />
  <text x="61.33333333333333" y="275" font-size="12" fill="black">2024-08-22</text>
  <line x1="77.33333333333333" y1="188.14432989690746" x2="77.33333333333333" y2="210.07497656982196" stroke="black" stroke-width="1" />
  <rect x="72.53333333333333" y="189.08153701968126" width="9.6" height="19.306466729147186" fill="green" />
  <line x1="77.33333333333333" y1="250" x2="77.33333333333333" y2="255" stroke="black" stroke-width="1" />
  <text x="72.0" y="275" font-size="12" fill="black">2024-08-23</text>
  <line x1="87.99999999999999" y1="169.21274601686957" x2="87.99999999999999" y2="201.07778819119048" stroke="black" stroke-width="1" />
  <rect x="83.19999999999999" y="171.83692596063744" width="9.6" height="6.560449859418833" fill="green" />
  <line x1="87.99999999999999" y1="250" x2="87.99999999999999" y2="255" stroke="black" stroke-width="1" />
  <text x="82.66666666666666" y="275" font-size="12" fill="black">2024-08-24</text>
  <line x1="98.66666666666666" y1="136.78537956888474" x2="98.66666666666666" y2="184.11433926897863" stroke="black" stroke-width="1" />
  <rect x="93.86666666666666" y="138.47235238987824" width="9.6" height="30.55295220243669" fill="green" />
  <line x1="98.66666666666666" y1="250" x2="98.66666666666666" y2="255" stroke="black" stroke-width="1" />
  <text x="93.33333333333333" y="275" font-size="12" fill="black">2024-08-25</text>
  <line x1="109.33333333333333" y1="108.85660731021537" x2="109.33333333333333" y2="149.5313964386131" stroke="black" stroke-width="1" />
  <rect x="104.53333333333333" y="129.4751640112462" width="9.6" height="8.247422680412871" fill="green" />
  <line x1="109.33333333333333" y1="250" x2="109.33333333333333" y2="255" stroke="black" stroke-width="1" />
  <text x="104.0" y="275" font-size="12" fill="black">2024-08-28</text>
  <line x1="119.99999999999999" y1="140.25304592314907" x2="119.99999999999999" y2="175.3983130271791" stroke="black" stroke-width="1" />
  <rect x="115.19999999999999" y="150.28116213683225" width="9.6" height="10.30927835051569" fill="red" />
  <line x1="119.99999999999999" y1="250" x2="119.99999999999999" y2="255" stroke="black" stroke-width="1" />
  <text x="114.66666666666666" y="275" font-size="12" fill="black">2024-08-29</text>
  <line x1="130.66666666666666" y1="122.16494845360822" x2="130.66666666666666" y2="165.0890346766634" stroke="black" stroke-width="1" />
  <rect x="125.86666666666666" y="142.40862230552975" width="9.6" height="17.244611059043834" fill="green" />
  <line x1="130.66666666666666" y1="250" x2="130.66666666666666" y2="255" stroke="black" stroke-width="1" />
  <text x="125.33333333333333" y="275" font-size="12" fill="black">2024-08-30</text>
  <line x1="141.33333333333334" y1="127.41330834114339" x2="141.33333333333334" y2="152.90534208059955" stroke="black" stroke-width="1" />
  <rect x="136.53333333333333" y="129.1002811621369" width="9.6" height="7.49765698219318" fill="red" />
  <line x1="141.33333333333334" y1="250" x2="141.33333333333334" y2="255" stroke="black" stroke-width="1" />
  <text x="136.0" y="275" font-size="12" fill="black">2024-08-31</text>
  <line x1="152.0" y1="103.79568884723537" x2="152.0" y2="144.47047797563258" stroke="black" stroke-width="1" />
  <rect x="147.2" y="106.04498594189286" width="9.6" height="32.61480787254004" fill="green" />
  <line x1="152.0" y1="250" x2="152.0" y2="255" stroke="black" stroke-width="1" />
  <text x="146.66666666666666" y="275" font-size="12" fill="black">2024-09-01</text>
  <line x1="162.66666666666666" y1="69.49390815370182" x2="162.66666666666666" y2="126.47610121836904" stroke="black" stroke-width="1" />
  <rect x="157.86666666666665" y="81.67760074976567" width="9.6" height="35.98875351452652" fill="green" />
  <line x1="162.66666666666666" y1="250" x2="162.66666666666666" y2="255" stroke="black" stroke-width="1" />
  <text x="157.33333333333331" y="275" font-size="12" fill="black">2024-09-05</text>
  <line x1="173.33333333333334" y1="50.0" x2="173.33333333333334" y2="102.67104029990637" stroke="black" stroke-width="1" />
  <rect x="168.53333333333333" y="69.49390815370182" width="9.6" height="8.434864104966994" fill="red" />
  <line x1="173.33333333333334" y1="250" x2="173.33333333333334" y2="255" stroke="black" stroke-width="1" />
  <text x="168.0" y="275" font-size="12" fill="black">2024-09-06</text>
  <line x1="184.0" y1="77.74133083411417" x2="184.0" y2="125.35145267104004" stroke="black" stroke-width="1" />
  <rect x="179.2" y="80.92783505154654" width="9.6" height="41.42455482661635" fill="red" />
  <line x1="184.0" y1="250" x2="184.0" y2="255" stroke="black" stroke-width="1" />
  <text x="178.66666666666666" y="275" font-size="12" fill="black">2024-09-07</text>
  <line x1="194.66666666666666" y1="104.54732895970014" x2="194.66666666666666" y2="138.6597938144329" stroke="black" stroke-width="1" />
  <rect x="189.86666666666665" y="118.79100281162121" width="9.6" height="14.99531396438636" fill="red" />
  <line x1="194.66666666666666" y1="250" x2="194.66666666666666" y2="255" stroke="black" stroke-width="1" />
  <text x="189.33333333333331" y="275" font-size="12" fill="black">2024-09-08</text>
  <line x1="205.33333333333334" y1="77.08528584817233" x2="205.33333333333334" y2="132.09934395501406" stroke="black" stroke-width="1" />
  <rect x="200.53333333333333" y="91.98687910028085" width="9.6" height="33.17713214620454" fill="green" />
  <line x1="205.33333333333334" y1="250" x2="205.33333333333334" y2="255" stroke="black" stroke-width="1" />
  <text x="200.0" y="275" font-size="12" fill="black">2024-09-11</text>
  <line x1="216.0" y1="57.310215557637974" x2="216.0" y2="89.45641986879085" stroke="black" stroke-width="1" />
  <rect x="211.2" y="75.3045923149015" width="9.6" height="2.2492970946580075" fill="red" />
  <line x1="216.0" y1="250" x2="216.0" y2="255" stroke="black" stroke-width="1" />
  <text x="210.66666666666666" y="275" font-size="12" fill="black">2024-09-12</text>
  <line x1="226.66666666666666" y1="88.61293345829435" x2="226.66666666666666" y2="139.2221180880974" stroke="black" stroke-width="1" />
  <rect x="221.86666666666665" y="88.61293345829435" width="9.6" height="36.92596063730087" fill="red" />
  <line x1="226.66666666666666" y1="250" x2="226.66666666666666" y2="255" stroke="black" stroke-width="1" />
  <text x="221.33333333333331" y="275" font-size="12" fill="black">2024-09-13</text>
  <line x1="237.33333333333334" y1="120.29053420806005" x2="237.33333333333334" y2="165.0871602624178" stroke="black" stroke-width="1" />
  <rect x="232.53333333333333" y="128.91283973758226" width="9.6" height="8.247422680412338" fill="green" />
  <line x1="237.33333333333334" y1="250" x2="237.33333333333334" y2="255" stroke="black" stroke-width="1" />
  <text x="232.0" y="275" font-size="12" fill="black">2024-09-14</text>
  <line x1="248.0" y1="108.1068416119962" x2="248.0" y2="144.2830365510779" stroke="black" stroke-width="1" />
  <rect x="243.2" y="112.41799437675704" width="9.6" height="14.620431115276515" fill="green" />
  <line x1="248.0" y1="250" x2="248.0" y2="255" stroke="black" stroke-width="1" />
  <text x="242.66666666666666" y="275" font-size="12" fill="black">2024-09-15</text>
  <line x1="258.66666666666663" y1="79.99062792877217" x2="258.66666666666663" y2="107.5445173383317" stroke="black" stroke-width="1" />
  <rect x="253.86666666666665" y="84.8641049671975" width="9.6" height="11.808809746954006" fill="green" />
  <line x1="258.66666666666663" y1="250" x2="258.66666666666663" y2="255" stroke="black" stroke-width="1" />
  <text x="253.33333333333331" y="275" font-size="12" fill="black">2024-09-18</text>
  <line x1="269.3333333333333" y1="71.18088097469533" x2="269.3333333333333" y2="104.7328959700092" stroke="black" stroke-width="1" />
  <rect x="264.53333333333336" y="83.36457357075918" width="9.6" height="15.55763823805033" fill="green" />
  <line x1="269.3333333333333" y1="250" x2="269.3333333333333" y2="255" stroke="black" stroke-width="1" />
  <text x="264.0" y="275" font-size="12" fill="black">2024-09-19</text>
  <line x1="279.99999999999994" y1="59.372071227741344" x2="279.99999999999994" y2="108.29428303655087" stroke="black" stroke-width="1" />
  <rect x="275.2" y="91.61199625117152" width="9.6" height="8.997188378631497" fill="red" />
  <line x1="279.99999999999994" y1="250" x2="279.99999999999994" y2="255" stroke="black" stroke-width="1" />
  <text x="274.66666666666663" y="275" font-size="12" fill="black">2024-09-20</text>
  <line x1="290.66666666666663" y1="96.48547328959685" x2="290.66666666666663" y2="133.03655107778843" stroke="black" stroke-width="1" />
  <rect x="285.8666666666667" y="99.1096532333647" width="9.6" height="26.42924086223052" fill="red" />
  <line x1="290.66666666666663" y1="250" x2="290.66666666666663" y2="255" stroke="black" stroke-width="1" />
  <text x="285.3333333333333" y="275" font-size="12" fill="black">2024-09-21</text>
  <line x1="301.3333333333333" y1="124.60168697282089" x2="301.3333333333333" y2="149.34395501405788" stroke="black" stroke-width="1" />
  <rect x="296.53333333333336" y="135.28584817244587" width="9.6" height="2.624179943767853" fill="red" />
  <line x1="301.3333333333333" y1="250" x2="301.3333333333333" y2="255" stroke="black" stroke-width="1" />
  <text x="296.0" y="275" font-size="12" fill="black">2024-09-22</text>
  <line x1="311.99999999999994" y1="131.53701968134956" x2="311.99999999999994" y2="164.90159325210877" stroke="black" stroke-width="1" />
  <rect x="307.2" y="133.41143392689773" width="9.6" height="22.118088097469695" fill="red" />
  <line x1="311.99999999999994" y1="250" x2="311.99999999999994" y2="255" stroke="black" stroke-width="1" />
  <text x="306.66666666666663" y="275" font-size="12" fill="black">2024-09-25</text>
  <line x1="322.66666666666663" y1="150.46860356138689" x2="322.66666666666663" y2="186.83223992502326" stroke="black" stroke-width="1" />
  <rect x="317.8666666666667" y="163.5895032802251" width="9.6" height="1" fill="red" />
  <line x1="322.66666666666663" y1="250" x2="322.66666666666663" y2="255" stroke="black" stroke-width="1" />
  <text x="317.3333333333333" y="275" font-size="12" fill="black">2024-09-26</text>
  <line x1="333.3333333333333" y1="153.7488284910966" x2="333.3333333333333" y2="209.13776944704762" stroke="black" stroke-width="1" />
  <rect x="328.53333333333336" y="159.6532333645736" width="9.6" height="44.98594189315855" fill="red" />
  <line x1="333.3333333333333" y1="250" x2="333.3333333333333" y2="255" stroke="black" stroke-width="1" />
  <text x="328.0" y="275" font-size="12" fill="black">2024-09-27</text>
  <line x1="343.99999999999994" y1="187.01968134957846" x2="343.99999999999994" y2="215.5107778819118" stroke="black" stroke-width="1" />
  <rect x="339.2" y="189.83130271790097" width="9.6" height="21.55576382380466" fill="green" />
  <line x1="343.99999999999994" y1="250" x2="343.99999999999994" y2="255" stroke="black" stroke-width="1" />
  <text x="338.66666666666663" y="275" font-size="12" fill="black">2024-09-28</text>
  <line x1="354.66666666666663" y1="151.5932521087159" x2="354.66666666666663" y2="190.76850984067477" stroke="black" stroke-width="1" />
  <rect x="349.8666666666667" y="178.39737582005625" width="9.6" height="11.246485473289503" fill="red" />
  <line x1="354.66666666666663" y1="250" x2="354.66666666666663" y2="255" stroke="black" stroke-width="1" />
  <text x="349.3333333333333" y="275" font-size="12" fill="black">2024-09-29</text>
</svg>