<svg width="400" height="300" xmlns="http://www.w3.org/2000/svg">
  <line x1="40" y1="250" x2="360" y2="250" stroke="black" stroke-width="2" />
  <line x1="45.333333333333336" y1="141.59630076397264" x2="45.333333333333336" y2="161.741053478086" stroke="black" stroke-width="1" />
  <rect x="40.53333333333333" y="142.56131885806195" width="9.6" height="18.335343787696047" fill="green" />
  <line x1="45.333333333333336" y1="250" x2="45.333333333333336" y2="255" stroke="black" stroke-width="1" />
  <text x="40.0" y="275" font-size="12" fill="black">2024-08-18</text>
  <line x1="56.0" y1="130.01608363490146" x2="56.0" y2="143.76759147567356" stroke="black" stroke-width="1" />
  <rect x="51.199999999999996" y="130.65942903096106" width="9.6" height="11.660635303578529" fill="green" />
  <line x1="56.0" y1="250" x2="56.0" y2="255" stroke="black" stroke-width="1" />
  <text x="50.666666666666664" y="275" font-size="12" fill="black">2024-08-21</text>
  <line x1="66.66666666666666" y1="126.23642943305185" x2="66.66666666666666" y2="144.89344591877762" stroke="black" stroke-width="1" />
  <rect x="61.86666666666666" y="134.27824688379573" width="9.6" height="3.860072376356978" fill="red" />
  <line x1="66.66666666666666" y1="250" x2="66.66666666666666" y2="255" stroke="black" stroke-width="1" />
  <text x="61.33333333333333" y="275" font-size="12" fill="black">2024-08-22</text>
  <line x1="77.33333333333333" y1="134.27824688379573" x2="77.33333333333333" y2="151.6485725774025" stroke="black" stroke-width="1" />
  <rect x="72.53333333333333" y="137.4949738640933" width="9.6" height="1.3671089666263583" fill="green" />
  <line x1="77.33333333333333" y1="250" x2="77.33333333333333" y2="255" stroke="black" stroke-width="1" />
  <text x="72.0" y="275" font-size="12" fill="black">2024-08-23</text>
  <line x1="87.99999999999999" y1="119.80297547245667" x2="87.99999999999999" y2="139.62605548854035" stroke="black" stroke-width="1" />
  <rect x="83.19999999999999" y="121.17008443908324" width="9.6" height="16.485725774024807" fill="green" />
  <line x1="87.99999999999999" y1="250" x2="87.99999999999999" y2="255" stroke="black" stroke-width="1" />
  <text x="82.66666666666666" y="275" font-size="12" fill="black">2024-08-24</text>
  <line x1="98.66666666666666" y1="100.5830317651789" x2="98.66666666666666" y2="122.21552070767991" stroke="black" stroke-width="1" />
  <rect x="93.86666666666666" y="107.65983112183349" width="9.6" height="5.709690390028216" fill="green" />
  <line x1="98.66666666666666" y1="250" x2="98.66666666666666" y2="255" stroke="black" stroke-width="1" />
  <text x="93.33333333333333" y="275" font-size="12" fill="black">2024-08-25</text>
  <line x1="109.33333333333333" y1="96.64254121431435" x2="109.33333333333333" y2="109.75070365902681" stroke="black" stroke-width="1" />
  <rect x="104.53333333333333" y="100.74386811419387" width="9.6" height="1.2866907921189927" fill="green" />
  <line x1="109.33333333333333" y1="250" x2="109.33333333333333" y2="255" stroke="black" stroke-width="1" />
  <text x="104.0" y="275" font-size="12" fill="black">2024-08-28</text>
  <line x1="119.99999999999999" y1="90.69159630076402" x2="119.99999999999999" y2="100.5830317651789" stroke="black" stroke-width="1" />
  <rect x="115.19999999999999" y="92.6216324889424" width="9.6" height="5.388017691998525" fill="green" />
  <line x1="119.99999999999999" y1="250" x2="119.99999999999999" y2="255" stroke="black" stroke-width="1" />
  <text x="114.66666666666666" y="275" font-size="12" fill="black">2024-08-29</text>
  <line x1="130.66666666666666" y1="76.29674306393233" x2="130.66666666666666" y2="100.5830317651789" stroke="black" stroke-width="1" />
  <rect x="125.86666666666666" y="83.69521511861683" width="9.6" height="16.405307599517442" fill="green" />
  <line x1="130.66666666666666" y1="250" x2="130.66666666666666" y2="255" stroke="black" stroke-width="1" />
  <text x="125.33333333333333" y="275" font-size="12" fill="black">2024-08-30</text>
  <line x1="141.33333333333334" y1="70.10454362685968" x2="141.33333333333334" y2="102.59348612786488" stroke="black" stroke-width="1" />
  <rect x="136.53333333333333" y="76.29674306393233" width="9.6" height="1" fill="green" />
  <line x1="141.33333333333334" y1="250" x2="141.33333333333334" y2="255" stroke="black" stroke-width="1" />
  <text x="136.0" y="275" font-size="12" fill="black">2024-08-31</text>
  <line x1="152.0" y1="50.0" x2="152.0" y2="78.54845195014062" stroke="black" stroke-width="1" />
  <rect x="147.2" y="55.46843586650567" width="9.6" height="18.496180136711008" fill="green" />
  <line x1="152.0" y1="250" x2="152.0" y2="255" stroke="black" stroke-width="1" />
  <text x="146.66666666666666" y="275" font-size="12" fill="black">2024-09-01</text>
  <line x1="162.66666666666666" y1="61.097708082026514" x2="162.66666666666666" y2="100.18094089264162" stroke="black" stroke-width="1" />
  <rect x="157.86666666666665" y="75.57297949336535" width="9.6" height="16.083634901487752" fill="red" />
  <line x1="162.66666666666666" y1="250" x2="162.66666666666666" y2="255" stroke="black" stroke-width="1" />
  <text x="157.33333333333331" y="275" font-size="12" fill="black">2024-09-05</text>
  <line x1="173.33333333333334" y1="77.42259750703658" x2="173.33333333333334" y2="116.50583031765171" stroke="black" stroke-width="1" />
  <rect x="168.53333333333333" y="85.70566948130278" width="9.6" height="13.751507840771863" fill="red" />
  <line x1="173.33333333333334" y1="250" x2="173.33333333333334" y2="255" stroke="black" stroke-width="1" />
  <text x="168.0" y="275" font-size="12" fill="black">2024-09-06</text>
  <line x1="184.0" y1="87.63570566948115" x2="184.0" y2="125.99517490952954" stroke="black" stroke-width="1" />
  <rect x="179.2" y="92.86288701246474" width="9.6" height="20.26537997587465" fill="red" />
  <line x1="184.0" y1="250" x2="184.0" y2="255" stroke="black" stroke-width="1" />
  <text x="178.66666666666666" y="275" font-size="12" fill="black">2024-09-07</text>
  <line x1="194.66666666666666" y1="104.20184961801357" x2="194.66666666666666" y2="165.72175311620427" stroke="black" stroke-width="1" />
  <rect x="189.86666666666665" y="113.3695215118617" width="9.6" height="41.334941696823414" fill="red" />
  <line x1="194.66666666666666" y1="250" x2="194.66666666666666" y2="255" stroke="black" stroke-width="1" />
  <text x="189.33333333333331" y="275" font-size="12" fill="black">2024-09-08</text>
  <line x1="205.33333333333334" y1="108.94652191395247" x2="205.33333333333334" y2="140.91274628065935" stroke="black" stroke-width="1" />
  <rect x="200.53333333333333" y="119.7225572979493" width="9.6" height="13.027744270205115" fill="green" />
  <line x1="205.33333333333334" y1="250" x2="205.33333333333334" y2="255" stroke="black" stroke-width="1" />
  <text x="200.0" y="275" font-size="12" fill="black">2024-09-11</text>
  <line x1="216.0" y1="105.00603136308814" x2="216.0" y2="250.0" stroke="black" stroke-width="1" />
  <rect x="211.2" y="105.32770406111783" width="9.6" height="104.86529955770008" fill="red" />
  <line x1="216.0" y1="250" x2="216.0" y2="255" stroke="black" stroke-width="1" />
  <text x="210.66666666666666" y="275" font-size="12" fill="black">2024-09-12</text>
  <line x1="226.66666666666666" y1="192.9835142742261" x2="226.66666666666666" y2="240.18094089264193" stroke="black" stroke-width="1" />
  <rect x="221.86666666666665" y="196.76316847607575" width="9.6" height="15.922798552472791" fill="green" />
  <line x1="226.66666666666666" y1="250" x2="226.66666666666666" y2="255" stroke="black" stroke-width="1" />
  <text x="221.33333333333331" y="275" font-size="12" fill="black">2024-09-13</text>
  <line x1="237.33333333333334" y1="184.29835142742263" x2="237.33333333333334" y2="215.58102131081642" stroke="black" stroke-width="1" />
  <rect x="232.53333333333333" y="193.38560514676317" width="9.6" height="8.44390832328116" fill="red" />
  <line x1="237.33333333333334" y1="250" x2="237.33333333333334" y2="255" stroke="black" stroke-width="1" />
  <text x="232.0" y="275" font-size="12" fill="black">2024-09-14</text>
  <line x1="248.0" y1="191.79171692802586" x2="248.0" y2="230.6192199437073" stroke="black" stroke-width="1" />
  <rect x="243.2" y="199.73864093285079" width="9.6" height="20.42621632488961" fill="red" />
  <line x1="248.0" y1="250" x2="248.0" y2="255" stroke="black" stroke-width="1" />
  <text x="242.66666666666666" y="275" font-size="12" fill="black">2024-09-15</text>
  <line x1="258.66666666666663" y1="188.88218737434659" x2="258.66666666666663" y2="209.95174909529558" stroke="black" stroke-width="1" />
  <rect x="253.86666666666665" y="191.6968234821069" width="9.6" height="16.324889425010078" fill="green" />
  <line x1="258.66666666666663" y1="250" x2="258.66666666666663" y2="255" stroke="black" stroke-width="1" />
  <text x="253.33333333333331" y="275" font-size="12" fill="black">2024-09-18</text>
  <line x1="269.3333333333333" y1="175.05026135906712" x2="269.3333333333333" y2="193.3051869722558" stroke="black" stroke-width="1" />
  <rect x="264.53333333333336" y="180.51869722557302" width="9.6" height="12.223562525130774" fill="green" />
  <line x1="269.3333333333333" y1="250" x2="269.3333333333333" y2="255" stroke="black" stroke-width="1" />
  <text x="264.0" y="275" font-size="12" fill="black">2024-09-19</text>
  <line x1="279.99999999999994" y1="163.7426618415763" x2="279.99999999999994" y2="201.02533172497" stroke="black" stroke-width="1" />
  <rect x="275.2" y="182.44873341375163" width="9.6" height="11.901889827100854" fill="red" />
  <line x1="279.99999999999994" y1="250" x2="279.99999999999994" y2="255" stroke="black" stroke-width="1" />
  <text x="274.66666666666663" y="275" font-size="12" fill="black">2024-09-20</text>
  <line x1="290.66666666666663" y1="159.12746280659434" x2="290.66666666666663" y2="195.8785685564938" stroke="black" stroke-width="1" />
  <rect x="285.8666666666667" y="170.62726176115814" width="9.6" height="5.629272215520622" fill="green" />
  <line x1="290.66666666666663" y1="250" x2="290.66666666666663" y2="255" stroke="black" stroke-width="1" />
  <text x="285.3333333333333" y="275" font-size="12" fill="black">2024-09-21</text>
  <line x1="301.3333333333333" y1="163.1081624447126" x2="301.3333333333333" y2="178.50824286288707" stroke="black" stroke-width="1" />
  <rect x="296.53333333333336" y="165.72175311620427" width="9.6" height="9.328508242862869" fill="green" />
  <line x1="301.3333333333333" y1="250" x2="301.3333333333333" y2="255" stroke="black" stroke-width="1" />
  <text x="296.0" y="275" font-size="12" fill="black">2024-09-22</text>
  <line x1="311.99999999999994" y1="160.01206272617605" x2="311.99999999999994" y2="174.5677523120225" stroke="black" stroke-width="1" />
  <rect x="307.2" y="162.90711700844395" width="9.6" height="3.5383996783272873" fill="green" />
  <line x1="311.99999999999994" y1="250" x2="311.99999999999994" y2="255" stroke="black" stroke-width="1" />
  <text x="306.66666666666663" y="275" font-size="12" fill="black">2024-09-25</text>
  <line x1="322.66666666666663" y1="150.76397265782077" x2="322.66666666666663" y2="171.51186168073986" stroke="black" stroke-width="1" />
  <rect x="317.8666666666667" y="161.70084439083234" width="9.6" height="3.5383996783272873" fill="green" />
  <line x1="322.66666666666663" y1="250" x2="322.66666666666663" y2="255" stroke="black" stroke-width="1" />
  <text x="317.3333333333333" y="275" font-size="12" fill="black">2024-09-26</text>
  <line x1="333.3333333333333" y1="156.47366304784876" x2="333.3333333333333" y2="185.66546039404898" stroke="black" stroke-width="1" />
  <rect x="328.53333333333336" y="160.97708082026534" width="9.6" height="11.982308001608448" fill="red" />
  <line x1="333.3333333333333" y1="250" x2="333.3333333333333" y2="255" stroke="black" stroke-width="1" />
  <text x="328.0" y="275" font-size="12" fill="black">2024-09-27</text>
  <line x1="343.99999999999994" y1="160.81624447125063" x2="343.99999999999994" y2="182.44873341375163" stroke="black" stroke-width="1" />
  <rect x="339.2" y="165.40008041817458" width="9.6" height="10.856453558504187" fill="red" />
  <line x1="343.99999999999994" y1="250" x2="343.99999999999994" y2="255" stroke="black" stroke-width="1" />
  <text x="338.66666666666663" y="275" font-size="12" fill="black">2024-09-28</text>
  <line x1="354.66666666666663" y1="154.86529955770007" x2="354.66666666666663" y2="179.87535182951342" stroke="black" stroke-width="1" />
  <rect x="349.8666666666667" y="169.26015279453156" width="9.6" height="1.2062726176116272" fill="red" />
  <line x1="354.66666666666663" y1="250" x2="354.66666666666663" y2="255" stroke="black" stroke-width="1" />
  <text x="349.3333333333333" y="275" font-size="12" fill="black">2024-09-29</text>
</svg>