<svg width="400" height="300" xmlns="http://www.w3.org/2000/svg">
  <line x1="40" y1="250" x2="360" y2="250" stroke="black" stroke-width="2" />
  <line x1="45.333333333333336" y1="209.34959349593493" x2="45.333333333333336" y2="243.4959349593497" stroke="black" stroke-width="1" />
  <rect x="40.53333333333333" y="215.85365853658547" width="9.6" height="17.886178861788547" fill="green" />
  <line x1="45.333333333333336" y1="250" x2="45.333333333333336" y2="255" stroke="black" stroke-width="1" />
  <text x="40.0" y="275" font-size="12" fill="black">2024-08-21</text>
  <line x1="56.0" y1="188.21138211382123" x2="56.0" y2="214.2276422764229" stroke="black" stroke-width="1" />
  <rect x="51.199999999999996" y="204.4715447154472" width="9.6" height="9.756097560975702" fill="green" />
  <line x1="56.0" y1="250" x2="56.0" y2="255" stroke="black" stroke-width="1" />
  <text x="50.666666666666664" y="275" font-size="12" fill="black">2024-08-22</text>
  <line x1="66.66666666666666" y1="184.9593495934958" x2="66.66666666666666" y2="206.09756097560978" stroke="black" stroke-width="1" />
  <rect x="61.86666666666666" y="184.9593495934958" width="9.6" height="19.512195121951404" fill="green" />
  <line x1="66.66666666666666" y1="250" x2="66.66666666666666" y2="255" stroke="black" stroke-width="1" />
  <text x="61.33333333333333" y="275" font-size="12" fill="black">2024-08-23</text>
  <line x1="77.33333333333333" y1="158.94308943089442" x2="77.33333333333333" y2="186.58536585365866" stroke="black" stroke-width="1" />
  <rect x="72.53333333333333" y="167.07317073170725" width="9.6" height="16.26016260162598" fill="green" />
  <line x1="77.33333333333333" y1="250" x2="77.33333333333333" y2="255" stroke="black" stroke-width="1" />
  <text x="72.0" y="275" font-size="12" fill="black">2024-08-24</text>
  <line x1="87.99999999999999" y1="158.94308943089442" x2="87.99999999999999" y2="181.70731707317066" stroke="black" stroke-width="1" />
  <rect x="83.19999999999999" y="165.44715447154468" width="9.6" height="1.626016260162569" fill="green" />
  <line x1="87.99999999999999" y1="250" x2="87.99999999999999" y2="255" stroke="black" stroke-width="1" />
  <text x="82.66666666666666" y="275" font-size="12" fill="black">2024-08-25</text>
  <line x1="98.66666666666666" y1="165.44715447154468" x2="98.66666666666666" y2="186.58536585365866" stroke="black" stroke-width="1" />
  <rect x="93.86666666666666" y="165.44715447154468" width="9.6" height="4.878048780487707" fill="red" />
  <line x1="98.66666666666666" y1="250" x2="98.66666666666666" y2="255" stroke="black" stroke-width="1" />
  <text x="93.33333333333333" y="275" font-size="12" fill="black">2024-08-28</text>
  <line x1="109.33333333333333" y1="149.1869918699187" x2="109.33333333333333" y2="180.0813008130081" stroke="black" stroke-width="1" />
  <rect x="104.53333333333333" y="162.19512195121956" width="9.6" height="13.00813008130084" fill="green" />
  <line x1="109.33333333333333" y1="250" x2="109.33333333333333" y2="255" stroke="black" stroke-width="1" />
  <text x="104.0" y="275" font-size="12" fill="black">2024-08-29</text>
  <line x1="119.99999999999999" y1="115.04065040650389" x2="119.99999999999999" y2="163.8211382113821" stroke="black" stroke-width="1" />
  <rect x="115.19999999999999" y="118.29268292682931" width="9.6" height="43.902439024390226" fill="green" />
  <line x1="119.99999999999999" y1="250" x2="119.99999999999999" y2="255" stroke="black" stroke-width="1" />
  <text x="114.66666666666666" y="275" font-size="12" fill="black">2024-08-30</text>
  <line x1="130.66666666666666" y1="118.29268292682931" x2="130.66666666666666" y2="145.93495934959356" stroke="black" stroke-width="1" />
  <rect x="125.86666666666666" y="118.29268292682931" width="9.6" height="16.26016260162598" fill="red" />
  <line x1="130.66666666666666" y1="250" x2="130.66666666666666" y2="255" stroke="black" stroke-width="1" />
  <text x="125.33333333333333" y="275" font-size="12" fill="black">2024-08-31</text>
  <line x1="141.33333333333334" y1="110.1626016260162" x2="141.33333333333334" y2="141.05691056910558" stroke="black" stroke-width="1" />
  <rect x="136.53333333333333" y="123.17073170731703" width="9.6" height="4.878048780487707" fill="green" />
  <line x1="141.33333333333334" y1="250" x2="141.33333333333334" y2="255" stroke="black" stroke-width="1" />
  <text x="136.0" y="275" font-size="12" fill="black">2024-09-01</text>
  <line x1="152.0" y1="106.91056910569105" x2="152.0" y2="137.80487804878044" stroke="black" stroke-width="1" />
  <rect x="147.2" y="123.17073170731703" width="9.6" height="4.878048780487707" fill="red" />
  <line x1="152.0" y1="250" x2="152.0" y2="255" stroke="black" stroke-width="1" />
  <text x="146.66666666666666" y="275" font-size="12" fill="black">2024-09-04</text>
  <line x1="162.66666666666666" y1="116.66666666666646" x2="162.66666666666666" y2="154.06504065040642" stroke="black" stroke-width="1" />
  <rect x="157.86666666666665" y="137.80487804878044" width="9.6" height="11.38211382113827" fill="red" />
  <line x1="162.66666666666666" y1="250" x2="162.66666666666666" y2="255" stroke="black" stroke-width="1" />
  <text x="157.33333333333331" y="275" font-size="12" fill="black">2024-09-05</text>
  <line x1="173.33333333333334" y1="141.05691056910558" x2="173.33333333333334" y2="180.0813008130081" stroke="black" stroke-width="1" />
  <rect x="168.53333333333333" y="152.43902439024384" width="9.6" height="19.512195121951404" fill="green" />
  <line x1="173.33333333333334" y1="250" x2="173.33333333333334" y2="255" stroke="black" stroke-width="1" />
  <text x="168.0" y="275" font-size="12" fill="black">2024-09-06</text>
  <line x1="184.0" y1="152.43902439024384" x2="184.0" y2="175.20325203252037" stroke="black" stroke-width="1" />
  <rect x="179.2" y="154.06504065040642" width="9.6" height="17.886178861788835" fill="red" />
  <line x1="184.0" y1="250" x2="184.0" y2="255" stroke="black" stroke-width="1" />
  <text x="178.66666666666666" y="275" font-size="12" fill="black">2024-09-07</text>
  <line x1="194.66666666666666" y1="160.56910569105696" x2="194.66666666666666" y2="217.47967479674804" stroke="black" stroke-width="1" />
  <rect x="189.86666666666665" y="175.20325203252037" width="9.6" height="42.27642276422766" fill="red" />
  <line x1="194.66666666666666" y1="250" x2="194.66666666666666" y2="255" stroke="black" stroke-width="1" />
  <text x="189.33333333333331" y="275" font-size="12" fill="black">2024-09-08</text>
  <line x1="205.33333333333334" y1="178.4552845528455" x2="205.33333333333334" y2="209.34959349593493" stroke="black" stroke-width="1" />
  <rect x="200.53333333333333" y="201.21951219512206" width="9.6" height="8.130081300812844" fill="green" />
  <line x1="205.33333333333334" y1="250" x2="205.33333333333334" y2="255" stroke="black" stroke-width="1" />
  <text x="200.0" y="275" font-size="12" fill="black">2024-09-11</text>
  <line x1="216.0" y1="180.0813008130081" x2="216.0" y2="212.60162601626035" stroke="black" stroke-width="1" />
  <rect x="211.2" y="196.34146341463406" width="9.6" height="4.878048780487996" fill="green" />
  <line x1="216.0" y1="250" x2="216.0" y2="255" stroke="black" stroke-width="1" />
  <text x="210.66666666666666" y="275" font-size="12" fill="black">2024-09-12</text>
  <line x1="226.66666666666666" y1="191.46341463414637" x2="226.66666666666666" y2="210.97560975609747" stroke="black" stroke-width="1" />
  <rect x="221.86666666666665" y="202.84552845528464" width="9.6" height="8.130081300812844" fill="red" />
  <line x1="226.66666666666666" y1="250" x2="226.66666666666666" y2="255" stroke="black" stroke-width="1" />
  <text x="221.33333333333331" y="275" font-size="12" fill="black">2024-09-13</text>
  <line x1="237.33333333333334" y1="191.46341463414637" x2="237.33333333333334" y2="250.0" stroke="black" stroke-width="1" />
  <rect x="232.53333333333333" y="210.97560975609747" width="9.6" height="29.268292682927108" fill="red" />
  <line x1="237.33333333333334" y1="250" x2="237.33333333333334" y2="255" stroke="black" stroke-width="1" />
  <text x="232.0" y="275" font-size="12" fill="black">2024-09-14</text>
  <line x1="248.0" y1="186.58536585365866" x2="248.0" y2="235.3658536585366" stroke="black" stroke-width="1" />
  <rect x="243.2" y="191.46341463414637" width="9.6" height="43.902439024390226" fill="green" />
  <line x1="248.0" y1="250" x2="248.0" y2="255" stroke="black" stroke-width="1" />
  <text x="242.66666666666666" y="275" font-size="12" fill="black">2024-09-15</text>
  <line x1="258.66666666666663" y1="191.46341463414637" x2="258.66666666666663" y2="227.23577235772376" stroke="black" stroke-width="1" />
  <rect x="253.86666666666665" y="191.46341463414637" width="9.6" height="27.642276422764247" fill="red" />
  <line x1="258.66666666666663" y1="250" x2="258.66666666666663" y2="255" stroke="black" stroke-width="1" />
  <text x="253.33333333333331" y="275" font-size="12" fill="black">2024-09-18</text>
  <line x1="269.3333333333333" y1="186.58536585365866" x2="269.3333333333333" y2="219.10569105691062" stroke="black" stroke-width="1" />
  <rect x="264.53333333333336" y="193.08943089430892" width="9.6" height="26.01626016260168" fill="green" />
  <line x1="269.3333333333333" y1="250" x2="269.3333333333333" y2="255" stroke="black" stroke-width="1" />
  <text x="264.0" y="275" font-size="12" fill="black">2024-09-19</text>
  <line x1="279.99999999999994" y1="162.19512195121956" x2="279.99999999999994" y2="209.34959349593493" stroke="black" stroke-width="1" />
  <rect x="275.2" y="162.19512195121956" width="9.6" height="47.15447154471536" fill="green" />
  <line x1="279.99999999999994" y1="250" x2="279.99999999999994" y2="255" stroke="black" stroke-width="1" />
  <text x="274.66666666666663" y="275" font-size="12" fill="black">2024-09-20</text>
  <line x1="290.66666666666663" y1="116.66666666666646" x2="290.66666666666663" y2="162.19512195121956" stroke="black" stroke-width="1" />
  <rect x="285.8666666666667" y="116.66666666666646" width="9.6" height="40.65040650406509" fill="green" />
  <line x1="290.66666666666663" y1="250" x2="290.66666666666663" y2="255" stroke="black" stroke-width="1" />
  <text x="285.3333333333333" y="275" font-size="12" fill="black">2024-09-21</text>
  <line x1="301.3333333333333" y1="100.40650406504048" x2="301.3333333333333" y2="129.67479674796732" stroke="black" stroke-width="1" />
  <rect x="296.53333333333336" y="119.91869918699189" width="9.6" height="4.878048780487707" fill="red" />
  <line x1="301.3333333333333" y1="250" x2="301.3333333333333" y2="255" stroke="black" stroke-width="1" />
  <text x="296.0" y="275" font-size="12" fill="black">2024-09-22</text>
  <line x1="311.99999999999994" y1="93.90243902439022" x2="311.99999999999994" y2="128.04878048780472" stroke="black" stroke-width="1" />
  <rect x="307.2" y="110.1626016260162" width="9.6" height="14.634146341463408" fill="green" />
  <line x1="311.99999999999994" y1="250" x2="311.99999999999994" y2="255" stroke="black" stroke-width="1" />
  <text x="306.66666666666663" y="275" font-size="12" fill="black">2024-09-25</text>
  <line x1="322.66666666666663" y1="87.39837398373965" x2="322.66666666666663" y2="110.1626016260162" stroke="black" stroke-width="1" />
  <rect x="317.8666666666667" y="97.15447154471534" width="9.6" height="9.756097560975702" fill="green" />
  <line x1="322.66666666666663" y1="250" x2="322.66666666666663" y2="255" stroke="black" stroke-width="1" />
  <text x="317.3333333333333" y="275" font-size="12" fill="black">2024-09-26</text>
  <line x1="333.3333333333333" y1="49.99999999999997" x2="333.3333333333333" y2="154.06504065040642" stroke="black" stroke-width="1" />
  <rect x="328.53333333333336" y="97.15447154471534" width="9.6" height="35.77235772357738" fill="red" />
  <line x1="333.3333333333333" y1="250" x2="333.3333333333333" y2="255" stroke="black" stroke-width="1" />
  <text x="328.0" y="275" font-size="12" fill="black">2024-09-27</text>
  <line x1="343.99999999999994" y1="97.15447154471534" x2="343.99999999999994" y2="145.93495934959356" stroke="black" stroke-width="1" />
  <rect x="339.2" y="111.78861788617877" width="9.6" height="21.138211382113973" fill="red" />
  <line x1="343.99999999999994" y1="250" x2="343.99999999999994" y2="255" stroke="black" stroke-width="1" />
  <text x="338.66666666666663" y="275" font-size="12" fill="black">2024-09-28</text>
  <line x1="354.66666666666663" y1="82.52032520325193" x2="354.66666666666663" y2="137.80487804878044" stroke="black" stroke-width="1" />
  <rect x="349.8666666666667" y="89.02439024390222" width="9.6" height="48.78048780487822" fill="green" />
  <line x1="354.66666666666663" y1="250" x2="354.66666666666663" y2="255" stroke="black" stroke-width="1" />
  <text x="349.3333333333333" y="275" font-size="12" fill="black">2024-09-29</text>
</svg>