<svg width="400" height="300" xmlns="http://www.w3.org/2000/svg">
  <line x1="40" y1="250" x2="360" y2="250" stroke="black" stroke-width="2" />
  <line x1="45.333333333333336" y1="120.00000000000014" x2="45.333333333333336" y2="150.0" stroke="black" stroke-width="1" />
  <rect x="40.53333333333333" y="123.33333333333339" width="9.6" height="20.000000000000117" fill="green" />
  <line x1="45.333333333333336" y1="250" x2="45.333333333333336" y2="255" stroke="black" stroke-width="1" />
  <text x="40.0" y="275" font-size="12" fill="black">2024-08-21</text>
  <line x1="56.0" y1="123.33333333333339" x2="56.0" y2="170.0000000000001" stroke="black" stroke-width="1" />
  <rect x="51.199999999999996" y="123.33333333333339" width="9.6" height="46.66666666666674" fill="red" />
  <line x1="56.0" y1="250" x2="56.0" y2="255" stroke="black" stroke-width="1" />
  <text x="50.666666666666664" y="275" font-size="12" fill="black">2024-08-22</text>
  <line x1="66.66666666666666" y1="153.33333333333326" x2="66.66666666666666" y2="173.33333333333337" stroke="black" stroke-width="1" />
  <rect x="61.86666666666666" y="153.33333333333326" width="9.6" height="9.999999999999762" fill="red" />
  <line x1="66.66666666666666" y1="250" x2="66.66666666666666" y2="255" stroke="black" stroke-width="1" />
  <text x="61.33333333333333" y="275" font-size="12" fill="black">2024-08-23</text>
  <line x1="77.33333333333333" y1="140.00000000000023" x2="77.33333333333333" y2="163.33333333333303" stroke="black" stroke-width="1" />
  <rect x="72.53333333333333" y="143.33333333333348" width="9.6" height="6.666666666666508" fill="green" />
  <line x1="77.33333333333333" y1="250" x2="77.33333333333333" y2="255" stroke="black" stroke-width="1" />
  <text x="72.0" y="275" font-size="12" fill="black">2024-08-24</text>
  <line x1="87.99999999999999" y1="120.00000000000014" x2="87.99999999999999" y2="143.33333333333348" stroke="black" stroke-width="1" />
  <rect x="83.19999999999999" y="120.00000000000014" width="9.6" height="20.000000000000117" fill="green" />
  <line x1="87.99999999999999" y1="250" x2="87.99999999999999" y2="255" stroke="black" stroke-width="1" />
  <text x="82.66666666666666" y="275" font-size="12" fill="black">2024-08-25</text>
  <line x1="98.66666666666666" y1="120.00000000000014" x2="98.66666666666666" y2="163.33333333333303" stroke="black" stroke-width="1" />
  <rect x="93.86666666666666" y="123.33333333333339" width="9.6" height="29.99999999999988" fill="red" />
  <line x1="98.66666666666666" y1="250" x2="98.66666666666666" y2="255" stroke="black" stroke-width="1" />
  <text x="93.33333333333333" y="275" font-size="12" fill="black">2024-08-28</text>
  <line x1="109.33333333333333" y1="136.6666666666664" x2="109.33333333333333" y2="156.66666666666652" stroke="black" stroke-width="1" />
  <rect x="104.53333333333333" y="146.66666666666674" width="9.6" height="9.999999999999762" fill="green" />
  <line x1="109.33333333333333" y1="250" x2="109.33333333333333" y2="255" stroke="black" stroke-width="1" />
  <text x="104.0" y="275" font-size="12" fill="black">2024-08-29</text>
  <line x1="119.99999999999999" y1="133.33333333333314" x2="119.99999999999999" y2="170.0000000000001" stroke="black" stroke-width="1" />
  <rect x="115.19999999999999" y="143.33333333333348" width="9.6" height="19.999999999999524" fill="red" />
  <line x1="119.99999999999999" y1="250" x2="119.99999999999999" y2="255" stroke="black" stroke-width="1" />
  <text x="114.66666666666666" y="275" font-size="12" fill="black">2024-08-30</text>
  <line x1="130.66666666666666" y1="143.33333333333348" x2="130.66666666666666" y2="163.33333333333303" stroke="black" stroke-width="1" />
  <rect x="125.86666666666666" y="146.66666666666674" width="9.6" height="16.66666666666627" fill="green" />
  <line x1="130.66666666666666" y1="250" x2="130.66666666666666" y2="255" stroke="black" stroke-width="1" />
  <text x="125.33333333333333" y="275" font-size="12" fill="black">2024-08-31</text>
  <line x1="141.33333333333334" y1="140.00000000000023" x2="141.33333333333334" y2="173.33333333333337" stroke="black" stroke-width="1" />
  <rect x="136.53333333333333" y="140.00000000000023" width="9.6" height="16.66666666666627" fill="red" />
  <line x1="141.33333333333334" y1="250" x2="141.33333333333334" y2="255" stroke="black" stroke-width="1" />
  <text x="136.0" y="275" font-size="12" fill="black">2024-09-01</text>
  <line x1="152.0" y1="136.6666666666664" x2="152.0" y2="153.33333333333326" stroke="black" stroke-width="1" />
  <rect x="147.2" y="143.33333333333348" width="9.6" height="9.999999999999762" fill="green" />
  <line x1="152.0" y1="250" x2="152.0" y2="255" stroke="black" stroke-width="1" />
  <text x="146.66666666666666" y="275" font-size="12" fill="black">2024-09-04</text>
  <line x1="162.66666666666666" y1="90.00000000000026" x2="162.66666666666666" y2="140.00000000000023" stroke="black" stroke-width="1" />
  <rect x="157.86666666666665" y="110.00000000000037" width="9.6" height="29.99999999999988" fill="green" />
  <line x1="162.66666666666666" y1="250" x2="162.66666666666666" y2="255" stroke="black" stroke-width="1" />
  <text x="157.33333333333331" y="275" font-size="12" fill="black">2024-09-05</text>
  <line x1="173.33333333333334" y1="116.66666666666688" x2="173.33333333333334" y2="159.99999999999977" stroke="black" stroke-width="1" />
  <rect x="168.53333333333333" y="116.66666666666688" width="9.6" height="29.99999999999988" fill="red" />
  <line x1="173.33333333333334" y1="250" x2="173.33333333333334" y2="255" stroke="black" stroke-width="1" />
  <text x="168.0" y="275" font-size="12" fill="black">2024-09-06</text>
  <line x1="184.0" y1="126.66666666666664" x2="184.0" y2="156.66666666666652" stroke="black" stroke-width="1" />
  <rect x="179.2" y="150.0" width="9.6" height="6.666666666666508" fill="red" />
  <line x1="184.0" y1="250" x2="184.0" y2="255" stroke="black" stroke-width="1" />
  <text x="178.66666666666666" y="275" font-size="12" fill="black">2024-09-07</text>
  <line x1="194.66666666666666" y1="133.33333333333314" x2="194.66666666666666" y2="176.66666666666663" stroke="black" stroke-width="1" />
  <rect x="189.86666666666665" y="150.0" width="9.6" height="3.333333333333254" fill="green" />
  <line x1="194.66666666666666" y1="250" x2="194.66666666666666" y2="255" stroke="black" stroke-width="1" />
  <text x="189.33333333333331" y="275" font-size="12" fill="black">2024-09-08</text>
  <line x1="205.33333333333334" y1="103.33333333333326" x2="205.33333333333334" y2="146.66666666666674" stroke="black" stroke-width="1" />
  <rect x="200.53333333333333" y="116.66666666666688" width="9.6" height="29.99999999999988" fill="green" />
  <line x1="205.33333333333334" y1="250" x2="205.33333333333334" y2="255" stroke="black" stroke-width="1" />
  <text x="200.0" y="275" font-size="12" fill="black">2024-09-11</text>
  <line x1="216.0" y1="93.33333333333351" x2="216.0" y2="143.33333333333348" stroke="black" stroke-width="1" />
  <rect x="211.2" y="106.66666666666652" width="9.6" height="23.33333333333337" fill="red" />
  <line x1="216.0" y1="250" x2="216.0" y2="255" stroke="black" stroke-width="1" />
  <text x="210.66666666666666" y="275" font-size="12" fill="black">2024-09-12</text>
  <line x1="226.66666666666666" y1="126.66666666666664" x2="226.66666666666666" y2="146.66666666666674" stroke="black" stroke-width="1" />
  <rect x="221.86666666666665" y="126.66666666666664" width="9.6" height="13.33333333333361" fill="red" />
  <line x1="226.66666666666666" y1="250" x2="226.66666666666666" y2="255" stroke="black" stroke-width="1" />
  <text x="221.33333333333331" y="275" font-size="12" fill="black">2024-09-13</text>
  <line x1="237.33333333333334" y1="120.00000000000014" x2="237.33333333333334" y2="176.66666666666663" stroke="black" stroke-width="1" />
  <rect x="232.53333333333333" y="133.33333333333314" width="9.6" height="43.333333333333485" fill="red" />
  <line x1="237.33333333333334" y1="250" x2="237.33333333333334" y2="255" stroke="black" stroke-width="1" />
  <text x="232.0" y="275" font-size="12" fill="black">2024-09-14</text>
  <line x1="248.0" y1="143.33333333333348" x2="248.0" y2="250.0" stroke="black" stroke-width="1" />
  <rect x="243.2" y="143.33333333333348" width="9.6" height="96.66666666666615" fill="red" />
  <line x1="248.0" y1="250" x2="248.0" y2="255" stroke="black" stroke-width="1" />
  <text x="242.66666666666666" y="275" font-size="12" fill="black">2024-09-15</text>
  <line x1="258.66666666666663" y1="176.66666666666663" x2="258.66666666666663" y2="233.33333333333314" stroke="black" stroke-width="1" />
  <rect x="253.86666666666665" y="176.66666666666663" width="9.6" height="56.66666666666651" fill="green" />
  <line x1="258.66666666666663" y1="250" x2="258.66666666666663" y2="255" stroke="black" stroke-width="1" />
  <text x="253.33333333333331" y="275" font-size="12" fill="black">2024-09-18</text>
  <line x1="269.3333333333333" y1="146.66666666666674" x2="269.3333333333333" y2="170.0000000000001" stroke="black" stroke-width="1" />
  <rect x="264.53333333333336" y="153.33333333333326" width="9.6" height="16.666666666666863" fill="green" />
  <line x1="269.3333333333333" y1="250" x2="269.3333333333333" y2="255" stroke="black" stroke-width="1" />
  <text x="264.0" y="275" font-size="12" fill="black">2024-09-19</text>
  <line x1="279.99999999999994" y1="153.33333333333326" x2="279.99999999999994" y2="186.6666666666664" stroke="black" stroke-width="1" />
  <rect x="275.2" y="153.33333333333326" width="9.6" height="23.33333333333337" fill="red" />
  <line x1="279.99999999999994" y1="250" x2="279.99999999999994" y2="255" stroke="black" stroke-width="1" />
  <text x="274.66666666666663" y="275" font-size="12" fill="black">2024-09-20</text>
  <line x1="290.66666666666663" y1="113.33333333333363" x2="290.66666666666663" y2="179.9999999999999" stroke="black" stroke-width="1" />
  <rect x="285.8666666666667" y="123.33333333333339" width="9.6" height="56.66666666666651" fill="green" />
  <line x1="290.66666666666663" y1="250" x2="290.66666666666663" y2="255" stroke="black" stroke-width="1" />
  <text x="285.3333333333333" y="275" font-size="12" fill="black">2024-09-21</text>
  <line x1="301.3333333333333" y1="106.66666666666652" x2="301.3333333333333" y2="186.6666666666664" stroke="black" stroke-width="1" />
  <rect x="296.53333333333336" y="123.33333333333339" width="9.6" height="43.333333333333485" fill="red" />
  <line x1="301.3333333333333" y1="250" x2="301.3333333333333" y2="255" stroke="black" stroke-width="1" />
  <text x="296.0" y="275" font-size="12" fill="black">2024-09-22</text>
  <line x1="311.99999999999994" y1="140.00000000000023" x2="311.99999999999994" y2="170.0000000000001" stroke="black" stroke-width="1" />
  <rect x="307.2" y="156.66666666666652" width="9.6" height="10.000000000000355" fill="green" />
  <line x1="311.99999999999994" y1="250" x2="311.99999999999994" y2="255" stroke="black" stroke-width="1" />
  <text x="306.66666666666663" y="275" font-size="12" fill="black">2024-09-25</text>
  <line x1="322.66666666666663" y1="116.66666666666688" x2="322.66666666666663" y2="163.33333333333303" stroke="black" stroke-width="1" />
  <rect x="317.8666666666667" y="123.33333333333339" width="9.6" height="23.33333333333337" fill="green" />
  <line x1="322.66666666666663" y1="250" x2="322.66666666666663" y2="255" stroke="black" stroke-width="1" />
  <text x="317.3333333333333" y="275" font-size="12" fill="black">2024-09-26</text>
  <line x1="333.3333333333333" y1="110.00000000000037" x2="333.3333333333333" y2="140.00000000000023" stroke="black" stroke-width="1" />
  <rect x="328.53333333333336" y="110.00000000000037" width="9.6" height="13.333333333333016" fill="green" />
  <line x1="333.3333333333333" y1="250" x2="333.3333333333333" y2="255" stroke="black" stroke-width="1" />
  <text x="328.0" y="275" font-size="12" fill="black">2024-09-27</text>
  <line x1="343.99999999999994" y1="70.00000000000014" x2="343.99999999999994" y2="106.66666666666652" stroke="black" stroke-width="1" />
  <rect x="339.2" y="79.99999999999989" width="9.6" height="26.666666666666625" fill="green" />
  <line x1="343.99999999999994" y1="250" x2="343.99999999999994" y2="255" stroke="black" stroke-width="1" />
  <text x="338.66666666666663" y="275" font-size="12" fill="black">2024-09-28</text>
  <line x1="354.66666666666663" y1="50.00000000000003" x2="354.66666666666663" y2="73.3333333333334" stroke="black" stroke-width="1" />
  <rect x="349.8666666666667" y="63.33333333333363" width="9.6" height="9.999999999999762" fill="green" />
  <line x1="354.66666666666663" y1="250" x2="354.66666666666663" y2="255" stroke="black" stroke-width="1" />
  <text x="349.3333333333333" y="275" font-size="12" fill="black">2024-09-29</text>
</svg>