<svg width="400" height="300" xmlns="http://www.w3.org/2000/svg">
  <line x1="40" y1="250" x2="360" y2="250" stroke="black" stroke-width="2" />
  <line x1="45.333333333333336" y1="229.13043478260872" x2="45.333333333333336" y2="250.0" stroke="black" stroke-width="1" />
  <rect x="40.53333333333333" y="240.144927536232" width="9.6" height="9.85507246376801" fill="green" />
  <line x1="45.333333333333336" y1="250" x2="45.333333333333336" y2="255" stroke="black" stroke-width="1" />
  <text x="40.0" y="275" font-size="12" fill="black">2024-08-21</text>
  <line x1="56.0" y1="226.81159420289862" x2="56.0" y2="246.52173913043487" stroke="black" stroke-width="1" />
  <rect x="51.199999999999996" y="237.24637681159427" width="9.6" height="2.898550724637723" fill="green" />
  <line x1="56.0" y1="250" x2="56.0" y2="255" stroke="black" stroke-width="1" />
  <text x="50.666666666666664" y="275" font-size="12" fill="black">2024-08-22</text>
  <line x1="66.66666666666666" y1="200.1449275362319" x2="66.66666666666666" y2="229.71014492753636" stroke="black" stroke-width="1" />
  <rect x="61.86666666666666" y="220.43478260869577" width="9.6" height="6.956521739130493" fill="green" />
  <line x1="66.66666666666666" y1="250" x2="66.66666666666666" y2="255" stroke="black" stroke-width="1" />
  <text x="61.33333333333333" y="275" font-size="12" fill="black">2024-08-23</text>
  <line x1="77.33333333333333" y1="213.47826086956528" x2="77.33333333333333" y2="225.07246376811597" stroke="black" stroke-width="1" />
  <rect x="72.53333333333333" y="213.47826086956528" width="9.6" height="1.7391304347826748" fill="green" />
  <line x1="77.33333333333333" y1="250" x2="77.33333333333333" y2="255" stroke="black" stroke-width="1" />
  <text x="72.0" y="275" font-size="12" fill="black">2024-08-24</text>
  <line x1="87.99999999999999" y1="196.66666666666677" x2="87.99999999999999" y2="215.79710144927537" stroke="black" stroke-width="1" />
  <rect x="83.19999999999999" y="196.66666666666677" width="9.6" height="16.811594202898505" fill="green" />
  <line x1="87.99999999999999" y1="250" x2="87.99999999999999" y2="255" stroke="black" stroke-width="1" />
  <text x="82.66666666666666" y="275" font-size="12" fill="black">2024-08-25</text>
  <line x1="98.66666666666666" y1="176.3768115942029" x2="98.66666666666666" y2="196.66666666666677" stroke="black" stroke-width="1" />
  <rect x="93.86666666666666" y="179.85507246376827" width="9.6" height="16.811594202898505" fill="green" />
  <line x1="98.66666666666666" y1="250" x2="98.66666666666666" y2="255" stroke="black" stroke-width="1" />
  <text x="93.33333333333333" y="275" font-size="12" fill="black">2024-08-28</text>
  <line x1="109.33333333333333" y1="179.85507246376827" x2="109.33333333333333" y2="205.94202898550736" stroke="black" stroke-width="1" />
  <rect x="104.53333333333333" y="180.43478260869568" width="9.6" height="23.768115942029" fill="red" />
  <line x1="109.33333333333333" y1="250" x2="109.33333333333333" y2="255" stroke="black" stroke-width="1" />
  <text x="104.0" y="275" font-size="12" fill="black">2024-08-29</text>
  <line x1="119.99999999999999" y1="198.98550724637687" x2="119.99999999999999" y2="213.47826086956528" stroke="black" stroke-width="1" />
  <rect x="115.19999999999999" y="201.30434782608697" width="9.6" height="1.159420289855254" fill="red" />
  <line x1="119.99999999999999" y1="250" x2="119.99999999999999" y2="255" stroke="black" stroke-width="1" />
  <text x="114.66666666666666" y="275" font-size="12" fill="black">2024-08-30</text>
  <line x1="130.66666666666666" y1="196.66666666666677" x2="130.66666666666666" y2="232.02898550724646" stroke="black" stroke-width="1" />
  <rect x="125.86666666666666" y="201.88405797101458" width="9.6" height="29.565217391304444" fill="red" />
  <line x1="130.66666666666666" y1="250" x2="130.66666666666666" y2="255" stroke="black" stroke-width="1" />
  <text x="125.33333333333333" y="275" font-size="12" fill="black">2024-08-31</text>
  <line x1="141.33333333333334" y1="192.02898550724638" x2="141.33333333333334" y2="227.39130434782626" stroke="black" stroke-width="1" />
  <rect x="136.53333333333333" y="196.08695652173913" width="9.6" height="31.304347826087117" fill="green" />
  <line x1="141.33333333333334" y1="250" x2="141.33333333333334" y2="255" stroke="black" stroke-width="1" />
  <text x="136.0" y="275" font-size="12" fill="black">2024-09-01</text>
  <line x1="152.0" y1="184.49275362318843" x2="152.0" y2="205.36231884057972" stroke="black" stroke-width="1" />
  <rect x="147.2" y="186.81159420289856" width="9.6" height="9.275362318840589" fill="green" />
  <line x1="152.0" y1="250" x2="152.0" y2="255" stroke="black" stroke-width="1" />
  <text x="146.66666666666666" y="275" font-size="12" fill="black">2024-09-04</text>
  <line x1="162.66666666666666" y1="186.81159420289856" x2="162.66666666666666" y2="220.43478260869577" stroke="black" stroke-width="1" />
  <rect x="157.86666666666665" y="186.81159420289856" width="9.6" height="7.536231884058121" fill="red" />
  <line x1="162.66666666666666" y1="250" x2="162.66666666666666" y2="255" stroke="black" stroke-width="1" />
  <text x="157.33333333333331" y="275" font-size="12" fill="black">2024-09-05</text>
  <line x1="173.33333333333334" y1="178.1159420289856" x2="173.33333333333334" y2="209.4202898550725" stroke="black" stroke-width="1" />
  <rect x="168.53333333333333" y="185.07246376811608" width="9.6" height="19.1304347826086" fill="green" />
  <line x1="173.33333333333334" y1="250" x2="173.33333333333334" y2="255" stroke="black" stroke-width="1" />
  <text x="168.0" y="275" font-size="12" fill="black">2024-09-06</text>
  <line x1="184.0" y1="133.4782608695653" x2="184.0" y2="190.2898550724639" stroke="black" stroke-width="1" />
  <rect x="179.2" y="143.91304347826093" width="9.6" height="46.37681159420295" fill="green" />
  <line x1="184.0" y1="250" x2="184.0" y2="255" stroke="black" stroke-width="1" />
  <text x="178.66666666666666" y="275" font-size="12" fill="black">2024-09-07</text>
  <line x1="194.66666666666666" y1="132.31884057971027" x2="194.66666666666666" y2="168.840579710145" stroke="black" stroke-width="1" />
  <rect x="189.86666666666665" y="132.31884057971027" width="9.6" height="11.594202898550686" fill="green" />
  <line x1="194.66666666666666" y1="250" x2="194.66666666666666" y2="255" stroke="black" stroke-width="1" />
  <text x="189.33333333333331" y="275" font-size="12" fill="black">2024-09-08</text>
  <line x1="205.33333333333334" y1="132.31884057971027" x2="205.33333333333334" y2="155.50724637681162" stroke="black" stroke-width="1" />
  <rect x="200.53333333333333" y="132.31884057971027" width="9.6" height="17.391304347826132" fill="red" />
  <line x1="205.33333333333334" y1="250" x2="205.33333333333334" y2="255" stroke="black" stroke-width="1" />
  <text x="200.0" y="275" font-size="12" fill="black">2024-09-11</text>
  <line x1="216.0" y1="94.05797101449286" x2="216.0" y2="135.21739130434798" stroke="black" stroke-width="1" />
  <rect x="211.2" y="105.65217391304355" width="9.6" height="25.507246376811672" fill="green" />
  <line x1="216.0" y1="250" x2="216.0" y2="255" stroke="black" stroke-width="1" />
  <text x="210.66666666666666" y="275" font-size="12" fill="black">2024-09-12</text>
  <line x1="226.66666666666666" y1="98.69565217391306" x2="226.66666666666666" y2="130.00000000000017" stroke="black" stroke-width="1" />
  <rect x="221.86666666666665" y="104.49275362318849" width="9.6" height="15.07246376811583" fill="red" />
  <line x1="226.66666666666666" y1="250" x2="226.66666666666666" y2="255" stroke="black" stroke-width="1" />
  <text x="221.33333333333331" y="275" font-size="12" fill="black">2024-09-13</text>
  <line x1="237.33333333333334" y1="104.49275362318849" x2="237.33333333333334" y2="114.92753623188415" stroke="black" stroke-width="1" />
  <rect x="232.53333333333333" y="110.28985507246375" width="9.6" height="1.159420289855254" fill="green" />
  <line x1="237.33333333333334" y1="250" x2="237.33333333333334" y2="255" stroke="black" stroke-width="1" />
  <text x="232.0" y="275" font-size="12" fill="black">2024-09-14</text>
  <line x1="248.0" y1="68.55072463768118" x2="248.0" y2="110.28985507246375" stroke="black" stroke-width="1" />
  <rect x="243.2" y="74.34782608695664" width="9.6" height="19.710144927536227" fill="green" />
  <line x1="248.0" y1="250" x2="248.0" y2="255" stroke="black" stroke-width="1" />
  <text x="242.66666666666666" y="275" font-size="12" fill="black">2024-09-15</text>
  <line x1="258.66666666666663" y1="74.34782608695664" x2="258.66666666666663" y2="85.9420289855073" stroke="black" stroke-width="1" />
  <rect x="253.86666666666665" y="74.34782608695664" width="9.6" height="9.275362318840589" fill="red" />
  <line x1="258.66666666666663" y1="250" x2="258.66666666666663" y2="255" stroke="black" stroke-width="1" />
  <text x="253.33333333333331" y="275" font-size="12" fill="black">2024-09-18</text>
  <line x1="269.3333333333333" y1="78.98550724637684" x2="269.3333333333333" y2="97.536231884058" stroke="black" stroke-width="1" />
  <rect x="264.53333333333336" y="90.5797101449275" width="9.6" height="6.956521739130493" fill="red" />
  <line x1="269.3333333333333" y1="250" x2="269.3333333333333" y2="255" stroke="black" stroke-width="1" />
  <text x="264.0" y="275" font-size="12" fill="black">2024-09-19</text>
  <line x1="279.99999999999994" y1="87.10144927536237" x2="279.99999999999994" y2="109.13043478260869" stroke="black" stroke-width="1" />
  <rect x="275.2" y="97.536231884058" width="9.6" height="2.3188405797100957" fill="red" />
  <line x1="279.99999999999994" y1="250" x2="279.99999999999994" y2="255" stroke="black" stroke-width="1" />
  <text x="274.66666666666663" y="275" font-size="12" fill="black">2024-09-20</text>
  <line x1="290.66666666666663" y1="61.59420289855069" x2="290.66666666666663" y2="89.42028985507247" stroke="black" stroke-width="1" />
  <rect x="285.8666666666667" y="67.39130434782615" width="9.6" height="19.710144927536227" fill="green" />
  <line x1="290.66666666666663" y1="250" x2="290.66666666666663" y2="255" stroke="black" stroke-width="1" />
  <text x="285.3333333333333" y="275" font-size="12" fill="black">2024-09-21</text>
  <line x1="301.3333333333333" y1="65.07246376811605" x2="301.3333333333333" y2="89.42028985507247" stroke="black" stroke-width="1" />
  <rect x="296.53333333333336" y="67.39130434782615" width="9.6" height="22.028985507246322" fill="red" />
  <line x1="301.3333333333333" y1="250" x2="301.3333333333333" y2="255" stroke="black" stroke-width="1" />
  <text x="296.0" y="275" font-size="12" fill="black">2024-09-22</text>
  <line x1="311.99999999999994" y1="56.956521739130494" x2="311.99999999999994" y2="98.69565217391306" stroke="black" stroke-width="1" />
  <rect x="307.2" y="58.11594202898556" width="9.6" height="40.5797101449275" fill="green" />
  <line x1="311.99999999999994" y1="250" x2="311.99999999999994" y2="255" stroke="black" stroke-width="1" />
  <text x="306.66666666666663" y="275" font-size="12" fill="black">2024-09-25</text>
  <line x1="322.66666666666663" y1="50.0" x2="322.66666666666663" y2="87.10144927536237" stroke="black" stroke-width="1" />
  <rect x="317.8666666666667" y="65.07246376811605" width="9.6" height="11.594202898550686" fill="red" />
  <line x1="322.66666666666663" y1="250" x2="322.66666666666663" y2="255" stroke="black" stroke-width="1" />
  <text x="317.3333333333333" y="275" font-size="12" fill="black">2024-09-26</text>
  <line x1="333.3333333333333" y1="73.18840579710158" x2="333.3333333333333" y2="96.37681159420296" stroke="black" stroke-width="1" />
  <rect x="328.53333333333336" y="76.66666666666674" width="9.6" height="17.391304347826132" fill="red" />
  <line x1="333.3333333333333" y1="250" x2="333.3333333333333" y2="255" stroke="black" stroke-width="1" />
  <text x="328.0" y="275" font-size="12" fill="black">2024-09-27</text>
  <line x1="343.99999999999994" y1="73.18840579710158" x2="343.99999999999994" y2="91.73913043478277" stroke="black" stroke-width="1" />
  <rect x="339.2" y="82.46376811594217" width="9.6" height="1.1594202898550479" fill="green" />
  <line x1="343.99999999999994" y1="250" x2="343.99999999999994" y2="255" stroke="black" stroke-width="1" />
  <text x="338.66666666666663" y="275" font-size="12" fill="black">2024-09-28</text>
  <line x1="354.66666666666663" y1="60.434782608695656" x2="354.66666666666663" y2="82.46376811594217" stroke="black" stroke-width="1" />
  <rect x="349.8666666666667" y="77.82608695652178" width="9.6" height="4.6376811594203975" fill="green" />
  <line x1="354.66666666666663" y1="250" x2="354.66666666666663" y2="255" stroke="black" stroke-width="1" />
  <text x="349.3333333333333" y="275" font-size="12" fill="black">2024-09-29</text>
</svg>