<svg width="400" height="300" xmlns="http://www.w3.org/2000/svg">
  <line x1="40" y1="250" x2="360" y2="250" stroke="black" stroke-width="2" />
  <line x1="45.333333333333336" y1="237.95811518324606" x2="45.333333333333336" y2="250.0" stroke="black" stroke-width="1" />
  <rect x="40.53333333333333" y="241.62303664921464" width="9.6" height="8.376963350785347" fill="green" />
  <line x1="45.333333333333336" y1="250" x2="45.333333333333336" y2="255" stroke="black" stroke-width="1" />
  <text x="40.0" y="275" font-size="12" fill="black">2024-08-21</text>
  <line x1="56.0" y1="232.72251308900513" x2="56.0" y2="240.57591623036652" stroke="black" stroke-width="1" />
  <rect x="51.199999999999996" y="235.34031413612558" width="9.6" height="4.712041884816746" fill="green" />
  <line x1="56.0" y1="250" x2="56.0" y2="255" stroke="black" stroke-width="1" />
  <text x="50.666666666666664" y="275" font-size="12" fill="black">2024-08-22</text>
  <line x1="66.66666666666666" y1="229.31937172774872" x2="66.66666666666666" y2="239.52879581151836" stroke="black" stroke-width="1" />
  <rect x="61.86666666666666" y="231.93717277486917" width="9.6" height="1" fill="green" />
  <line x1="66.66666666666666" y1="250" x2="66.66666666666666" y2="255" stroke="black" stroke-width="1" />
  <text x="61.33333333333333" y="275" font-size="12" fill="black">2024-08-23</text>
  <line x1="77.33333333333333" y1="222.77486910994767" x2="77.33333333333333" y2="234.55497382198945" stroke="black" stroke-width="1" />
  <rect x="72.53333333333333" y="228.53403141361255" width="9.6" height="3.403141361256611" fill="green" />
  <line x1="77.33333333333333" y1="250" x2="77.33333333333333" y2="255" stroke="black" stroke-width="1" />
  <text x="72.0" y="275" font-size="12" fill="black">2024-08-24</text>
  <line x1="87.99999999999999" y1="206.02094240837698" x2="87.99999999999999" y2="229.05759162303673" stroke="black" stroke-width="1" />
  <rect x="83.19999999999999" y="206.02094240837698" width="9.6" height="22.513089005235585" fill="green" />
  <line x1="87.99999999999999" y1="250" x2="87.99999999999999" y2="255" stroke="black" stroke-width="1" />
  <text x="82.66666666666666" y="275" font-size="12" fill="black">2024-08-25</text>
  <line x1="98.66666666666666" y1="204.97382198952883" x2="98.66666666666666" y2="215.96858638743464" stroke="black" stroke-width="1" />
  <rect x="93.86666666666666" y="206.54450261780096" width="9.6" height="6.020942408377067" fill="red" />
  <line x1="98.66666666666666" y1="250" x2="98.66666666666666" y2="255" stroke="black" stroke-width="1" />
  <text x="93.33333333333333" y="275" font-size="12" fill="black">2024-08-28</text>
  <line x1="109.33333333333333" y1="217.53926701570674" x2="109.33333333333333" y2="228.79581151832454" stroke="black" stroke-width="1" />
  <rect x="104.53333333333333" y="217.53926701570674" width="9.6" height="2.09424083769629" fill="red" />
  <line x1="109.33333333333333" y1="250" x2="109.33333333333333" y2="255" stroke="black" stroke-width="1" />
  <text x="104.0" y="275" font-size="12" fill="black">2024-08-29</text>
  <line x1="119.99999999999999" y1="212.04188481675385" x2="119.99999999999999" y2="223.29842931937165" stroke="black" stroke-width="1" />
  <rect x="115.19999999999999" y="217.01570680628276" width="9.6" height="3.6649214659686007" fill="green" />
  <line x1="119.99999999999999" y1="250" x2="119.99999999999999" y2="255" stroke="black" stroke-width="1" />
  <text x="114.66666666666666" y="275" font-size="12" fill="black">2024-08-30</text>
  <line x1="130.66666666666666" y1="197.38219895287963" x2="130.66666666666666" y2="218.5863874345549" stroke="black" stroke-width="1" />
  <rect x="125.86666666666666" y="197.38219895287963" width="9.6" height="21.204188481675263" fill="green" />
  <line x1="130.66666666666666" y1="250" x2="130.66666666666666" y2="255" stroke="black" stroke-width="1" />
  <text x="125.33333333333333" y="275" font-size="12" fill="black">2024-08-31</text>
  <line x1="141.33333333333334" y1="184.81675392670152" x2="141.33333333333334" y2="198.69109947643977" stroke="black" stroke-width="1" />
  <rect x="136.53333333333333" y="186.12565445026183" width="9.6" height="8.11518324607317" fill="green" />
  <line x1="141.33333333333334" y1="250" x2="141.33333333333334" y2="255" stroke="black" stroke-width="1" />
  <text x="136.0" y="275" font-size="12" fill="black">2024-09-01</text>
  <line x1="152.0" y1="174.0837696335079" x2="152.0" y2="199.47643979057594" stroke="black" stroke-width="1" />
  <rect x="147.2" y="176.96335078534034" width="9.6" height="14.136125654450238" fill="green" />
  <line x1="152.0" y1="250" x2="152.0" y2="255" stroke="black" stroke-width="1" />
  <text x="146.66666666666666" y="275" font-size="12" fill="black">2024-09-04</text>
  <line x1="162.66666666666666" y1="160.20942408376965" x2="162.66666666666666" y2="177.48691099476434" stroke="black" stroke-width="1" />
  <rect x="157.86666666666665" y="165.44502617801038" width="9.6" height="11.518324607329967" fill="green" />
  <line x1="162.66666666666666" y1="250" x2="162.66666666666666" y2="255" stroke="black" stroke-width="1" />
  <text x="157.33333333333331" y="275" font-size="12" fill="black">2024-09-05</text>
  <line x1="173.33333333333334" y1="172.2513089005236" x2="173.33333333333334" y2="189.0052356020943" stroke="black" stroke-width="1" />
  <rect x="168.53333333333333" y="176.43979057591616" width="9.6" height="7.853403141361367" fill="red" />
  <line x1="173.33333333333334" y1="250" x2="173.33333333333334" y2="255" stroke="black" stroke-width="1" />
  <text x="168.0" y="275" font-size="12" fill="black">2024-09-06</text>
  <line x1="184.0" y1="182.72251308900525" x2="184.0" y2="193.45549738219887" stroke="black" stroke-width="1" />
  <rect x="179.2" y="184.29319371727755" width="9.6" height="6.544502617801046" fill="red" />
  <line x1="184.0" y1="250" x2="184.0" y2="255" stroke="black" stroke-width="1" />
  <text x="178.66666666666666" y="275" font-size="12" fill="black">2024-09-07</text>
  <line x1="194.66666666666666" y1="182.98429319371724" x2="194.66666666666666" y2="202.35602094240838" stroke="black" stroke-width="1" />
  <rect x="189.86666666666665" y="193.45549738219887" width="9.6" height="2.356020942408466" fill="green" />
  <line x1="194.66666666666666" y1="250" x2="194.66666666666666" y2="255" stroke="black" stroke-width="1" />
  <text x="189.33333333333331" y="275" font-size="12" fill="black">2024-09-08</text>
  <line x1="205.33333333333334" y1="179.58115183246082" x2="205.33333333333334" y2="192.40837696335072" stroke="black" stroke-width="1" />
  <rect x="200.53333333333333" y="183.76963350785337" width="9.6" height="5.235602094240911" fill="green" />
  <line x1="205.33333333333334" y1="250" x2="205.33333333333334" y2="255" stroke="black" stroke-width="1" />
  <text x="200.0" y="275" font-size="12" fill="black">2024-09-11</text>
  <line x1="216.0" y1="171.20418848167546" x2="216.0" y2="193.71727748691103" stroke="black" stroke-width="1" />
  <rect x="211.2" y="182.19895287958107" width="9.6" height="8.900523560209512" fill="red" />
  <line x1="216.0" y1="250" x2="216.0" y2="255" stroke="black" stroke-width="1" />
  <text x="210.66666666666666" y="275" font-size="12" fill="black">2024-09-12</text>
  <line x1="226.66666666666666" y1="171.98952879581142" x2="226.66666666666666" y2="188.74345549738212" stroke="black" stroke-width="1" />
  <rect x="221.86666666666665" y="183.76963350785337" width="9.6" height="1.5706806282723107" fill="green" />
  <line x1="226.66666666666666" y1="250" x2="226.66666666666666" y2="255" stroke="black" stroke-width="1" />
  <text x="221.33333333333331" y="275" font-size="12" fill="black">2024-09-13</text>
  <line x1="237.33333333333334" y1="157.3298429319372" x2="237.33333333333334" y2="175.9162303664922" stroke="black" stroke-width="1" />
  <rect x="232.53333333333333" y="162.8272251308901" width="9.6" height="10.209424083769647" fill="green" />
  <line x1="237.33333333333334" y1="250" x2="237.33333333333334" y2="255" stroke="black" stroke-width="1" />
  <text x="232.0" y="275" font-size="12" fill="black">2024-09-14</text>
  <line x1="248.0" y1="141.0994764397905" x2="248.0" y2="160.20942408376965" stroke="black" stroke-width="1" />
  <rect x="243.2" y="146.3350785340314" width="9.6" height="12.303664921465938" fill="green" />
  <line x1="248.0" y1="250" x2="248.0" y2="255" stroke="black" stroke-width="1" />
  <text x="242.66666666666666" y="275" font-size="12" fill="black">2024-09-15</text>
  <line x1="258.66666666666663" y1="144.24083769633512" x2="258.66666666666663" y2="159.6858638743455" stroke="black" stroke-width="1" />
  <rect x="253.86666666666665" y="148.42931937172767" width="9.6" height="10.994764397905803" fill="red" />
  <line x1="258.66666666666663" y1="250" x2="258.66666666666663" y2="255" stroke="black" stroke-width="1" />
  <text x="253.33333333333331" y="275" font-size="12" fill="black">2024-09-18</text>
  <line x1="269.3333333333333" y1="151.04712041884815" x2="269.3333333333333" y2="179.8429319371728" stroke="black" stroke-width="1" />
  <rect x="264.53333333333336" y="156.80628272251306" width="9.6" height="1.047120418848145" fill="red" />
  <line x1="269.3333333333333" y1="250" x2="269.3333333333333" y2="255" stroke="black" stroke-width="1" />
  <text x="264.0" y="275" font-size="12" fill="black">2024-09-19</text>
  <line x1="279.99999999999994" y1="142.6701570680628" x2="279.99999999999994" y2="163.61256544502626" stroke="black" stroke-width="1" />
  <rect x="275.2" y="151.57068062827233" width="9.6" height="6.0209424083768806" fill="green" />
  <line x1="279.99999999999994" y1="250" x2="279.99999999999994" y2="255" stroke="black" stroke-width="1" />
  <text x="274.66666666666663" y="275" font-size="12" fill="black">2024-09-20</text>
  <line x1="290.66666666666663" y1="125.91623036649212" x2="290.66666666666663" y2="211.51832460732987" stroke="black" stroke-width="1" />
  <rect x="285.8666666666667" y="141.0994764397905" width="9.6" height="45.026178010471355" fill="red" />
  <line x1="290.66666666666663" y1="250" x2="290.66666666666663" y2="255" stroke="black" stroke-width="1" />
  <text x="285.3333333333333" y="275" font-size="12" fill="black">2024-09-21</text>
  <line x1="301.3333333333333" y1="170.4188481675393" x2="301.3333333333333" y2="206.28272251308897" stroke="black" stroke-width="1" />
  <rect x="296.53333333333336" y="184.81675392670152" width="9.6" height="9.162303664921502" fill="red" />
  <line x1="301.3333333333333" y1="250" x2="301.3333333333333" y2="255" stroke="black" stroke-width="1" />
  <text x="296.0" y="275" font-size="12" fill="black">2024-09-22</text>
  <line x1="311.99999999999994" y1="166.7539267015707" x2="311.99999999999994" y2="194.5026178010472" stroke="black" stroke-width="1" />
  <rect x="307.2" y="170.4188481675393" width="9.6" height="19.89528795811513" fill="green" />
  <line x1="311.99999999999994" y1="250" x2="311.99999999999994" y2="255" stroke="black" stroke-width="1" />
  <text x="306.66666666666663" y="275" font-size="12" fill="black">2024-09-25</text>
  <line x1="322.66666666666663" y1="131.675392670157" x2="322.66666666666663" y2="150.0" stroke="black" stroke-width="1" />
  <rect x="317.8666666666667" y="134.29319371727746" width="9.6" height="11.518324607329783" fill="green" />
  <line x1="322.66666666666663" y1="250" x2="322.66666666666663" y2="255" stroke="black" stroke-width="1" />
  <text x="317.3333333333333" y="275" font-size="12" fill="black">2024-09-26</text>
  <line x1="333.3333333333333" y1="108.11518324607326" x2="333.3333333333333" y2="140.57591623036652" stroke="black" stroke-width="1" />
  <rect x="328.53333333333336" y="108.11518324607326" width="9.6" height="29.319371727748806" fill="green" />
  <line x1="333.3333333333333" y1="250" x2="333.3333333333333" y2="255" stroke="black" stroke-width="1" />
  <text x="328.0" y="275" font-size="12" fill="black">2024-09-27</text>
  <line x1="343.99999999999994" y1="51.57068062827233" x2="343.99999999999994" y2="94.5026178010472" stroke="black" stroke-width="1" />
  <rect x="339.2" y="68.848167539267" width="9.6" height="12.041884816753948" fill="green" />
  <line x1="343.99999999999994" y1="250" x2="343.99999999999994" y2="255" stroke="black" stroke-width="1" />
  <text x="338.66666666666663" y="275" font-size="12" fill="black">2024-09-28</text>
  <line x1="354.66666666666663" y1="50.0" x2="354.66666666666663" y2="77.22513089005233" stroke="black" stroke-width="1" />
  <rect x="349.8666666666667" y="57.853403141361184" width="9.6" height="10.994764397905803" fill="green" />
  <line x1="354.66666666666663" y1="250" x2="354.66666666666663" y2="255" stroke="black" stroke-width="1" />
  <text x="349.3333333333333" y="275" font-size="12" fill="black">2024-09-29</text>
</svg>