<svg width="400" height="300" xmlns="http://www.w3.org/2000/svg">
  <line x1="40" y1="250" x2="360" y2="250" stroke="black" stroke-width="2" />
  <line x1="45.333333333333336" y1="191.90871369294604" x2="45.333333333333336" y2="202.69709543568462" stroke="black" stroke-width="1" />
  <rect x="40.53333333333333" y="191.90871369294604" width="9.6" height="4.149377593360997" fill="red" />
  <line x1="45.333333333333336" y1="250" x2="45.333333333333336" y2="255" stroke="black" stroke-width="1" />
  <text x="40.0" y="275" font-size="12" fill="black">2024-08-21</text>
  <line x1="56.0" y1="186.92946058091277" x2="56.0" y2="204.35684647302904" stroke="black" stroke-width="1" />
  <rect x="51.199999999999996" y="196.05809128630705" width="9.6" height="4.979253112033149" fill="red" />
  <line x1="56.0" y1="250" x2="56.0" y2="255" stroke="black" stroke-width="1" />
  <text x="50.666666666666664" y="275" font-size="12" fill="black">2024-08-22</text>
  <line x1="66.66666666666666" y1="174.48132780082977" x2="66.66666666666666" y2="204.35684647302904" stroke="black" stroke-width="1" />
  <rect x="61.86666666666666" y="176.14107883817422" width="9.6" height="24.896265560165983" fill="green" />
  <line x1="66.66666666666666" y1="250" x2="66.66666666666666" y2="255" stroke="black" stroke-width="1" />
  <text x="61.33333333333333" y="275" font-size="12" fill="black">2024-08-23</text>
  <line x1="77.33333333333333" y1="172.82157676348535" x2="77.33333333333333" y2="182.7800829875518" stroke="black" stroke-width="1" />
  <rect x="72.53333333333333" y="175.31120331950206" width="9.6" height="3.3195020746887267" fill="green" />
  <line x1="77.33333333333333" y1="250" x2="77.33333333333333" y2="255" stroke="black" stroke-width="1" />
  <text x="72.0" y="275" font-size="12" fill="black">2024-08-24</text>
  <line x1="87.99999999999999" y1="156.22406639004137" x2="87.99999999999999" y2="183.60995850622405" stroke="black" stroke-width="1" />
  <rect x="83.19999999999999" y="157.05394190871363" width="9.6" height="23.23651452282156" fill="green" />
  <line x1="87.99999999999999" y1="250" x2="87.99999999999999" y2="255" stroke="black" stroke-width="1" />
  <text x="82.66666666666666" y="275" font-size="12" fill="black">2024-08-25</text>
  <line x1="98.66666666666666" y1="147.92531120331938" x2="98.66666666666666" y2="171.16182572614105" stroke="black" stroke-width="1" />
  <rect x="93.86666666666666" y="151.24481327800822" width="9.6" height="9.958506224066417" fill="green" />
  <line x1="98.66666666666666" y1="250" x2="98.66666666666666" y2="255" stroke="black" stroke-width="1" />
  <text x="93.33333333333333" y="275" font-size="12" fill="black">2024-08-28</text>
  <line x1="109.33333333333333" y1="152.0746887966804" x2="109.33333333333333" y2="171.16182572614105" stroke="black" stroke-width="1" />
  <rect x="104.53333333333333" y="152.90456431535264" width="9.6" height="7.468879668049724" fill="red" />
  <line x1="109.33333333333333" y1="250" x2="109.33333333333333" y2="255" stroke="black" stroke-width="1" />
  <text x="104.0" y="275" font-size="12" fill="black">2024-08-29</text>
  <line x1="119.99999999999999" y1="141.2863070539418" x2="119.99999999999999" y2="159.5435684647302" stroke="black" stroke-width="1" />
  <rect x="115.19999999999999" y="149.5850622406638" width="9.6" height="7.468879668049842" fill="green" />
  <line x1="119.99999999999999" y1="250" x2="119.99999999999999" y2="255" stroke="black" stroke-width="1" />
  <text x="114.66666666666666" y="275" font-size="12" fill="black">2024-08-30</text>
  <line x1="130.66666666666666" y1="140.45643153526964" x2="130.66666666666666" y2="152.90456431535264" stroke="black" stroke-width="1" />
  <rect x="125.86666666666666" y="141.2863070539418" width="9.6" height="9.958506224066417" fill="green" />
  <line x1="130.66666666666666" y1="250" x2="130.66666666666666" y2="255" stroke="black" stroke-width="1" />
  <text x="125.33333333333333" y="275" font-size="12" fill="black">2024-08-31</text>
  <line x1="141.33333333333334" y1="134.64730290456424" x2="141.33333333333334" y2="149.5850622406638" stroke="black" stroke-width="1" />
  <rect x="136.53333333333333" y="134.64730290456424" width="9.6" height="13.278008298755143" fill="green" />
  <line x1="141.33333333333334" y1="250" x2="141.33333333333334" y2="255" stroke="black" stroke-width="1" />
  <text x="136.0" y="275" font-size="12" fill="black">2024-09-01</text>
  <line x1="152.0" y1="127.17842323651439" x2="152.0" y2="144.60580912863065" stroke="black" stroke-width="1" />
  <rect x="147.2" y="131.3278008298754" width="9.6" height="3.319502074688845" fill="green" />
  <line x1="152.0" y1="250" x2="152.0" y2="255" stroke="black" stroke-width="1" />
  <text x="146.66666666666666" y="275" font-size="12" fill="black">2024-09-04</text>
  <line x1="162.66666666666666" y1="120.53941908713693" x2="162.66666666666666" y2="166.18257261410778" stroke="black" stroke-width="1" />
  <rect x="157.86666666666665" y="144.60580912863065" width="9.6" height="14.107883817427414" fill="red" />
  <line x1="162.66666666666666" y1="250" x2="162.66666666666666" y2="255" stroke="black" stroke-width="1" />
  <text x="157.33333333333331" y="275" font-size="12" fill="black">2024-09-05</text>
  <line x1="173.33333333333334" y1="169.50207468879665" x2="173.33333333333334" y2="181.95020746887963" stroke="black" stroke-width="1" />
  <rect x="168.53333333333333" y="175.31120331950206" width="9.6" height="2.4896265560165745" fill="green" />
  <line x1="173.33333333333334" y1="250" x2="173.33333333333334" y2="255" stroke="black" stroke-width="1" />
  <text x="168.0" y="275" font-size="12" fill="black">2024-09-06</text>
  <line x1="184.0" y1="174.48132780082977" x2="184.0" y2="199.37759336099577" stroke="black" stroke-width="1" />
  <rect x="179.2" y="180.2904564315352" width="9.6" height="18.25726141078841" fill="red" />
  <line x1="184.0" y1="250" x2="184.0" y2="255" stroke="black" stroke-width="1" />
  <text x="178.66666666666666" y="275" font-size="12" fill="black">2024-09-07</text>
  <line x1="194.66666666666666" y1="201.86721991701233" x2="194.66666666666666" y2="232.57261410788374" stroke="black" stroke-width="1" />
  <rect x="189.86666666666665" y="206.01659751037334" width="9.6" height="25.726141078838253" fill="red" />
  <line x1="194.66666666666666" y1="250" x2="194.66666666666666" y2="255" stroke="black" stroke-width="1" />
  <text x="189.33333333333331" y="275" font-size="12" fill="black">2024-09-08</text>
  <line x1="205.33333333333334" y1="214.31535269709534" x2="205.33333333333334" y2="229.253112033195" stroke="black" stroke-width="1" />
  <rect x="200.53333333333333" y="225.93360995850617" width="9.6" height="1" fill="red" />
  <line x1="205.33333333333334" y1="250" x2="205.33333333333334" y2="255" stroke="black" stroke-width="1" />
  <text x="200.0" y="275" font-size="12" fill="black">2024-09-11</text>
  <line x1="216.0" y1="219.2946058091286" x2="216.0" y2="240.87136929460573" stroke="black" stroke-width="1" />
  <rect x="211.2" y="225.93360995850617" width="9.6" height="11.61825726141084" fill="red" />
  <line x1="216.0" y1="250" x2="216.0" y2="255" stroke="black" stroke-width="1" />
  <text x="210.66666666666666" y="275" font-size="12" fill="black">2024-09-12</text>
  <line x1="226.66666666666666" y1="231.7427385892116" x2="226.66666666666666" y2="248.34024896265558" stroke="black" stroke-width="1" />
  <rect x="221.86666666666665" y="234.23236514522816" width="9.6" height="7.468879668049842" fill="red" />
  <line x1="226.66666666666666" y1="250" x2="226.66666666666666" y2="255" stroke="black" stroke-width="1" />
  <text x="221.33333333333331" y="275" font-size="12" fill="black">2024-09-13</text>
  <line x1="237.33333333333334" y1="221.78423236514516" x2="237.33333333333334" y2="250.0" stroke="black" stroke-width="1" />
  <rect x="232.53333333333333" y="222.61410788381733" width="9.6" height="19.08713692946068" fill="red" />
  <line x1="237.33333333333334" y1="250" x2="237.33333333333334" y2="255" stroke="black" stroke-width="1" />
  <text x="232.0" y="275" font-size="12" fill="black">2024-09-14</text>
  <line x1="248.0" y1="159.5435684647302" x2="248.0" y2="210.9958506224066" stroke="black" stroke-width="1" />
  <rect x="243.2" y="171.16182572614105" width="9.6" height="25.726141078838136" fill="red" />
  <line x1="248.0" y1="250" x2="248.0" y2="255" stroke="black" stroke-width="1" />
  <text x="242.66666666666666" y="275" font-size="12" fill="black">2024-09-15</text>
  <line x1="258.66666666666663" y1="184.4398340248962" x2="258.66666666666663" y2="202.69709543568462" stroke="black" stroke-width="1" />
  <rect x="253.86666666666665" y="196.05809128630705" width="9.6" height="4.979253112033149" fill="green" />
  <line x1="258.66666666666663" y1="250" x2="258.66666666666663" y2="255" stroke="black" stroke-width="1" />
  <text x="253.33333333333331" y="275" font-size="12" fill="black">2024-09-18</text>
  <line x1="269.3333333333333" y1="176.14107883817422" x2="269.3333333333333" y2="196.05809128630705" stroke="black" stroke-width="1" />
  <rect x="264.53333333333336" y="176.14107883817422" width="9.6" height="16.59751037344399" fill="green" />
  <line x1="269.3333333333333" y1="250" x2="269.3333333333333" y2="255" stroke="black" stroke-width="1" />
  <text x="264.0" y="275" font-size="12" fill="black">2024-09-19</text>
  <line x1="279.99999999999994" y1="146.26556016597507" x2="279.99999999999994" y2="181.95020746887963" stroke="black" stroke-width="1" />
  <rect x="275.2" y="147.0954356846472" width="9.6" height="30.705394190871402" fill="green" />
  <line x1="279.99999999999994" y1="250" x2="279.99999999999994" y2="255" stroke="black" stroke-width="1" />
  <text x="274.66666666666663" y="275" font-size="12" fill="black">2024-09-20</text>
  <line x1="290.66666666666663" y1="92.32365145228212" x2="290.66666666666663" y2="139.62655601659736" stroke="black" stroke-width="1" />
  <rect x="285.8666666666667" y="92.32365145228212" width="9.6" height="44.813278008298695" fill="green" />
  <line x1="290.66666666666663" y1="250" x2="290.66666666666663" y2="255" stroke="black" stroke-width="1" />
  <text x="285.3333333333333" y="275" font-size="12" fill="black">2024-09-21</text>
  <line x1="301.3333333333333" y1="89.83402489626542" x2="301.3333333333333" y2="120.53941908713693" stroke="black" stroke-width="1" />
  <rect x="296.53333333333336" y="94.81327800829857" width="9.6" height="14.107883817427531" fill="red" />
  <line x1="301.3333333333333" y1="250" x2="301.3333333333333" y2="255" stroke="black" stroke-width="1" />
  <text x="296.0" y="275" font-size="12" fill="black">2024-09-22</text>
  <line x1="311.99999999999994" y1="104.77178423236509" x2="311.99999999999994" y2="122.19917012448124" stroke="black" stroke-width="1" />
  <rect x="307.2" y="110.58091286307041" width="9.6" height="3.319502074688845" fill="red" />
  <line x1="311.99999999999994" y1="250" x2="311.99999999999994" y2="255" stroke="black" stroke-width="1" />
  <text x="306.66666666666663" y="275" font-size="12" fill="black">2024-09-25</text>
  <line x1="322.66666666666663" y1="99.79253112033194" x2="322.66666666666663" y2="114.73029045643139" stroke="black" stroke-width="1" />
  <rect x="317.8666666666667" y="104.77178423236509" width="9.6" height="5.809128630705302" fill="red" />
  <line x1="322.66666666666663" y1="250" x2="322.66666666666663" y2="255" stroke="black" stroke-width="1" />
  <text x="317.3333333333333" y="275" font-size="12" fill="black">2024-09-26</text>
  <line x1="333.3333333333333" y1="86.51452282157658" x2="333.3333333333333" y2="114.73029045643139" stroke="black" stroke-width="1" />
  <rect x="328.53333333333336" y="87.34439834024897" width="9.6" height="26.556016597510286" fill="green" />
  <line x1="333.3333333333333" y1="250" x2="333.3333333333333" y2="255" stroke="black" stroke-width="1" />
  <text x="328.0" y="275" font-size="12" fill="black">2024-09-27</text>
  <line x1="343.99999999999994" y1="50.0" x2="343.99999999999994" y2="76.55601659751028" stroke="black" stroke-width="1" />
  <rect x="339.2" y="53.319502074688586" width="9.6" height="23.23651452282168" fill="green" />
  <line x1="343.99999999999994" y1="250" x2="343.99999999999994" y2="255" stroke="black" stroke-width="1" />
  <text x="338.66666666666663" y="275" font-size="12" fill="black">2024-09-28</text>
  <line x1="354.66666666666663" y1="60.78838174273844" x2="354.66666666666663" y2="72.40663900414927" stroke="black" stroke-width="1" />
  <rect x="349.8666666666667" y="64.93775933609945" width="9.6" height="3.319502074688845" fill="red" />
  <line x1="354.66666666666663" y1="250" x2="354.66666666666663" y2="255" stroke="black" stroke-width="1" />
  <text x="349.3333333333333" y="275" font-size="12" fill="black">2024-09-29</text>
</svg>