<svg width="400" height="300" xmlns="http://www.w3.org/2000/svg">
  <line x1="40" y1="250" x2="360" y2="250" stroke="black" stroke-width="2" />
  <line x1="45.333333333333336" y1="163.80471380471366" x2="45.333333333333336" y2="200.84175084175112" stroke="black" stroke-width="1" />
  <rect x="40.53333333333333" y="171.88552188552205" width="9.6" height="28.956228956229083" fill="green" />
  <line x1="45.333333333333336" y1="250" x2="45.333333333333336" y2="255" stroke="black" stroke-width="1" />
  <text x="40.0" y="275" font-size="12" fill="black">2024-08-21</text>
  <line x1="56.0" y1="143.60269360269388" x2="56.0" y2="198.82154882154902" stroke="black" stroke-width="1" />
  <rect x="51.199999999999996" y="161.11111111111126" width="9.6" height="31.649831649831484" fill="red" />
  <line x1="56.0" y1="250" x2="56.0" y2="255" stroke="black" stroke-width="1" />
  <text x="50.666666666666664" y="275" font-size="12" fill="black">2024-08-22</text>
  <line x1="66.66666666666666" y1="175.25252525252534" x2="66.66666666666666" y2="191.41414141414154" stroke="black" stroke-width="1" />
  <rect x="61.86666666666666" y="182.65993265993285" width="9.6" height="6.734006734006597" fill="green" />
  <line x1="66.66666666666666" y1="250" x2="66.66666666666666" y2="255" stroke="black" stroke-width="1" />
  <text x="61.33333333333333" y="275" font-size="12" fill="black">2024-08-23</text>
  <line x1="77.33333333333333" y1="163.80471380471366" x2="77.33333333333333" y2="186.70033670033703" stroke="black" stroke-width="1" />
  <rect x="72.53333333333333" y="175.92592592592624" width="9.6" height="6.734006734006597" fill="green" />
  <line x1="77.33333333333333" y1="250" x2="77.33333333333333" y2="255" stroke="black" stroke-width="1" />
  <text x="72.0" y="275" font-size="12" fill="black">2024-08-24</text>
  <line x1="87.99999999999999" y1="157.07070707070704" x2="87.99999999999999" y2="175.92592592592624" stroke="black" stroke-width="1" />
  <rect x="83.19999999999999" y="165.82491582491576" width="9.6" height="6.734006734006597" fill="green" />
  <line x1="87.99999999999999" y1="250" x2="87.99999999999999" y2="255" stroke="black" stroke-width="1" />
  <text x="82.66666666666666" y="275" font-size="12" fill="black">2024-08-25</text>
  <line x1="98.66666666666666" y1="162.45791245791247" x2="98.66666666666666" y2="189.39393939393943" stroke="black" stroke-width="1" />
  <rect x="93.86666666666666" y="169.19191919191906" width="9.6" height="8.080808080808394" fill="red" />
  <line x1="98.66666666666666" y1="250" x2="98.66666666666666" y2="255" stroke="black" stroke-width="1" />
  <text x="93.33333333333333" y="275" font-size="12" fill="black">2024-08-28</text>
  <line x1="109.33333333333333" y1="173.90572390572413" x2="109.33333333333333" y2="196.12794612794602" stroke="black" stroke-width="1" />
  <rect x="104.53333333333333" y="177.27272727272742" width="9.6" height="17.50841750841739" fill="red" />
  <line x1="109.33333333333333" y1="250" x2="109.33333333333333" y2="255" stroke="black" stroke-width="1" />
  <text x="104.0" y="275" font-size="12" fill="black">2024-08-29</text>
  <line x1="119.99999999999999" y1="173.90572390572413" x2="119.99999999999999" y2="194.78114478114483" stroke="black" stroke-width="1" />
  <rect x="115.19999999999999" y="182.65993265993285" width="9.6" height="12.121212121211993" fill="green" />
  <line x1="119.99999999999999" y1="250" x2="119.99999999999999" y2="255" stroke="black" stroke-width="1" />
  <text x="114.66666666666666" y="275" font-size="12" fill="black">2024-08-30</text>
  <line x1="130.66666666666666" y1="177.27272727272742" x2="130.66666666666666" y2="202.86195286195323" stroke="black" stroke-width="1" />
  <rect x="125.86666666666666" y="182.65993265993285" width="9.6" height="1" fill="red" />
  <line x1="130.66666666666666" y1="250" x2="130.66666666666666" y2="255" stroke="black" stroke-width="1" />
  <text x="125.33333333333333" y="275" font-size="12" fill="black">2024-08-31</text>
  <line x1="141.33333333333334" y1="176.59932659932656" x2="141.33333333333334" y2="195.45454545454572" stroke="black" stroke-width="1" />
  <rect x="136.53333333333333" y="183.33333333333314" width="9.6" height="12.121212121212592" fill="red" />
  <line x1="141.33333333333334" y1="250" x2="141.33333333333334" y2="255" stroke="black" stroke-width="1" />
  <text x="136.0" y="275" font-size="12" fill="black">2024-09-01</text>
  <line x1="152.0" y1="165.15151515151547" x2="152.0" y2="194.78114478114483" stroke="black" stroke-width="1" />
  <rect x="147.2" y="172.55892255892235" width="9.6" height="22.222222222222488" fill="green" />
  <line x1="152.0" y1="250" x2="152.0" y2="255" stroke="black" stroke-width="1" />
  <text x="146.66666666666666" y="275" font-size="12" fill="black">2024-09-04</text>
  <line x1="162.66666666666666" y1="149.66329966329954" x2="162.66666666666666" y2="198.82154882154902" stroke="black" stroke-width="1" />
  <rect x="157.86666666666665" y="172.55892255892235" width="9.6" height="22.895622895623386" fill="red" />
  <line x1="162.66666666666666" y1="250" x2="162.66666666666666" y2="255" stroke="black" stroke-width="1" />
  <text x="157.33333333333331" y="275" font-size="12" fill="black">2024-09-05</text>
  <line x1="173.33333333333334" y1="197.47474747474783" x2="173.33333333333334" y2="233.1649831649835" stroke="black" stroke-width="1" />
  <rect x="168.53333333333333" y="210.94276094276103" width="9.6" height="5.387205387205396" fill="green" />
  <line x1="173.33333333333334" y1="250" x2="173.33333333333334" y2="255" stroke="black" stroke-width="1" />
  <text x="168.0" y="275" font-size="12" fill="black">2024-09-06</text>
  <line x1="184.0" y1="206.22895622895652" x2="184.0" y2="227.7777777777781" stroke="black" stroke-width="1" />
  <rect x="179.2" y="210.94276094276103" width="9.6" height="16.83501683501709" fill="red" />
  <line x1="184.0" y1="250" x2="184.0" y2="255" stroke="black" stroke-width="1" />
  <text x="178.66666666666666" y="275" font-size="12" fill="black">2024-09-07</text>
  <line x1="194.66666666666666" y1="219.69696969696972" x2="194.66666666666666" y2="250.0" stroke="black" stroke-width="1" />
  <rect x="189.86666666666665" y="227.7777777777781" width="9.6" height="11.447811447811095" fill="red" />
  <line x1="194.66666666666666" y1="250" x2="194.66666666666666" y2="255" stroke="black" stroke-width="1" />
  <text x="189.33333333333331" y="275" font-size="12" fill="black">2024-09-08</text>
  <line x1="205.33333333333334" y1="204.88215488215474" x2="205.33333333333334" y2="241.2457912457913" stroke="black" stroke-width="1" />
  <rect x="200.53333333333333" y="204.88215488215474" width="9.6" height="34.34343434343448" fill="green" />
  <line x1="205.33333333333334" y1="250" x2="205.33333333333334" y2="255" stroke="black" stroke-width="1" />
  <text x="200.0" y="275" font-size="12" fill="black">2024-09-11</text>
  <line x1="216.0" y1="173.90572390572413" x2="216.0" y2="210.2693602693601" stroke="black" stroke-width="1" />
  <rect x="211.2" y="201.51515151515144" width="9.6" height="1.3468013468017979" fill="green" />
  <line x1="216.0" y1="250" x2="216.0" y2="255" stroke="black" stroke-width="1" />
  <text x="210.66666666666666" y="275" font-size="12" fill="black">2024-09-12</text>
  <line x1="226.66666666666666" y1="157.74410774410796" x2="226.66666666666666" y2="195.45454545454572" stroke="black" stroke-width="1" />
  <rect x="221.86666666666665" y="157.74410774410796" width="9.6" height="24.242424242423986" fill="red" />
  <line x1="226.66666666666666" y1="250" x2="226.66666666666666" y2="255" stroke="black" stroke-width="1" />
  <text x="221.33333333333331" y="275" font-size="12" fill="black">2024-09-13</text>
  <line x1="237.33333333333334" y1="166.49831649831665" x2="237.33333333333334" y2="210.94276094276103" stroke="black" stroke-width="1" />
  <rect x="232.53333333333333" y="168.51851851851876" width="9.6" height="20.875420875420687" fill="red" />
  <line x1="237.33333333333334" y1="250" x2="237.33333333333334" y2="255" stroke="black" stroke-width="1" />
  <text x="232.0" y="275" font-size="12" fill="black">2024-09-14</text>
  <line x1="248.0" y1="167.17171717171695" x2="248.0" y2="206.90235690235681" stroke="black" stroke-width="1" />
  <rect x="243.2" y="188.04713804713822" width="9.6" height="11.447811447811095" fill="red" />
  <line x1="248.0" y1="250" x2="248.0" y2="255" stroke="black" stroke-width="1" />
  <text x="242.66666666666666" y="275" font-size="12" fill="black">2024-09-15</text>
  <line x1="258.66666666666663" y1="197.47474747474783" x2="258.66666666666663" y2="214.9831649831652" stroke="black" stroke-width="1" />
  <rect x="253.86666666666665" y="199.49494949494934" width="9.6" height="10.101010101010493" fill="red" />
  <line x1="258.66666666666663" y1="250" x2="258.66666666666663" y2="255" stroke="black" stroke-width="1" />
  <text x="253.33333333333331" y="275" font-size="12" fill="black">2024-09-18</text>
  <line x1="269.3333333333333" y1="194.10774410774394" x2="269.3333333333333" y2="225.757575757576" stroke="black" stroke-width="1" />
  <rect x="264.53333333333336" y="209.5959595959598" width="9.6" height="11.447811447811095" fill="red" />
  <line x1="269.3333333333333" y1="250" x2="269.3333333333333" y2="255" stroke="black" stroke-width="1" />
  <text x="264.0" y="275" font-size="12" fill="black">2024-09-19</text>
  <line x1="279.99999999999994" y1="207.57575757575773" x2="279.99999999999994" y2="236.5319865319868" stroke="black" stroke-width="1" />
  <rect x="275.2" y="207.57575757575773" width="9.6" height="19.52861952861949" fill="green" />
  <line x1="279.99999999999994" y1="250" x2="279.99999999999994" y2="255" stroke="black" stroke-width="1" />
  <text x="274.66666666666663" y="275" font-size="12" fill="black">2024-09-20</text>
  <line x1="290.66666666666663" y1="184.68013468013493" x2="290.66666666666663" y2="207.57575757575773" stroke="black" stroke-width="1" />
  <rect x="285.8666666666667" y="194.10774410774394" width="9.6" height="9.427609427609594" fill="red" />
  <line x1="290.66666666666663" y1="250" x2="290.66666666666663" y2="255" stroke="black" stroke-width="1" />
  <text x="285.3333333333333" y="275" font-size="12" fill="black">2024-09-21</text>
  <line x1="301.3333333333333" y1="200.16835016835023" x2="301.3333333333333" y2="234.5117845117847" stroke="black" stroke-width="1" />
  <rect x="296.53333333333336" y="203.53535353535352" width="9.6" height="17.50841750841739" fill="red" />
  <line x1="301.3333333333333" y1="250" x2="301.3333333333333" y2="255" stroke="black" stroke-width="1" />
  <text x="296.0" y="275" font-size="12" fill="black">2024-09-22</text>
  <line x1="311.99999999999994" y1="125.42087542087557" x2="311.99999999999994" y2="227.10437710437722" stroke="black" stroke-width="1" />
  <rect x="307.2" y="152.35690235690254" width="9.6" height="68.68686868686837" fill="green" />
  <line x1="311.99999999999994" y1="250" x2="311.99999999999994" y2="255" stroke="black" stroke-width="1" />
  <text x="306.66666666666663" y="275" font-size="12" fill="black">2024-09-25</text>
  <line x1="322.66666666666663" y1="109.93265993265967" x2="322.66666666666663" y2="151.01010101010075" stroke="black" stroke-width="1" />
  <rect x="317.8666666666667" y="119.36026936026929" width="9.6" height="22.895622895622786" fill="green" />
  <line x1="322.66666666666663" y1="250" x2="322.66666666666663" y2="255" stroke="black" stroke-width="1" />
  <text x="317.3333333333333" y="275" font-size="12" fill="black">2024-09-26</text>
  <line x1="333.3333333333333" y1="108.58585858585849" x2="333.3333333333333" y2="146.96969696969717" stroke="black" stroke-width="1" />
  <rect x="328.53333333333336" y="132.15488215488216" width="9.6" height="1" fill="green" />
  <line x1="333.3333333333333" y1="250" x2="333.3333333333333" y2="255" stroke="black" stroke-width="1" />
  <text x="328.0" y="275" font-size="12" fill="black">2024-09-27</text>
  <line x1="343.99999999999994" y1="83.6700336700336" x2="343.99999999999994" y2="128.78787878787887" stroke="black" stroke-width="1" />
  <rect x="339.2" y="103.87205387205398" width="9.6" height="24.915824915824885" fill="green" />
  <line x1="343.99999999999994" y1="250" x2="343.99999999999994" y2="255" stroke="black" stroke-width="1" />
  <text x="338.66666666666663" y="275" font-size="12" fill="black">2024-09-28</text>
  <line x1="354.66666666666663" y1="50.00000000000003" x2="354.66666666666663" y2="95.11784511784529" stroke="black" stroke-width="1" />
  <rect x="349.8666666666667" y="72.89562289562281" width="9.6" height="20.875420875420687" fill="green" />
  <line x1="354.66666666666663" y1="250" x2="354.66666666666663" y2="255" stroke="black" stroke-width="1" />
  <text x="349.3333333333333" y="275" font-size="12" fill="black">2024-09-29</text>
</svg>