<svg width="400" height="300" xmlns="http://www.w3.org/2000/svg">
  <line x1="40" y1="250" x2="360" y2="250" stroke="black" stroke-width="2" />
  <line x1="45.333333333333336" y1="208.09523809523807" x2="45.333333333333336" y2="229.24812030075168" stroke="black" stroke-width="1" />
  <rect x="40.53333333333333" y="215.01253132832073" width="9.6" height="4.411027568922279" fill="green" />
  <line x1="45.333333333333336" y1="250" x2="45.333333333333336" y2="255" stroke="black" stroke-width="1" />
  <text x="40.0" y="275" font-size="12" fill="black">2024-08-18</text>
  <line x1="56.0" y1="208.6466165413534" x2="56.0" y2="231.85463659147868" stroke="black" stroke-width="1" />
  <rect x="51.199999999999996" y="214.41102756892224" width="9.6" height="10.12531328320792" fill="red" />
  <line x1="56.0" y1="250" x2="56.0" y2="255" stroke="black" stroke-width="1" />
  <text x="50.666666666666664" y="275" font-size="12" fill="black">2024-08-21</text>
  <line x1="66.66666666666666" y1="211.05263157894723" x2="66.66666666666666" y2="231.90476190476184" stroke="black" stroke-width="1" />
  <rect x="61.86666666666666" y="213.8095238095237" width="9.6" height="4.962406015037635" fill="green" />
  <line x1="66.66666666666666" y1="250" x2="66.66666666666666" y2="255" stroke="black" stroke-width="1" />
  <text x="61.33333333333333" y="275" font-size="12" fill="black">2024-08-22</text>
  <line x1="77.33333333333333" y1="213.95989974937348" x2="77.33333333333333" y2="236.8671679197995" stroke="black" stroke-width="1" />
  <rect x="72.53333333333333" y="216.71679197994968" width="9.6" height="2.7067669172933333" fill="red" />
  <line x1="77.33333333333333" y1="250" x2="77.33333333333333" y2="255" stroke="black" stroke-width="1" />
  <text x="72.0" y="275" font-size="12" fill="black">2024-08-23</text>
  <line x1="87.99999999999999" y1="204.8370927318294" x2="87.99999999999999" y2="225.93984962406012" stroke="black" stroke-width="1" />
  <rect x="83.19999999999999" y="211.95488721804497" width="9.6" height="3.3583959899750138" fill="red" />
  <line x1="87.99999999999999" y1="250" x2="87.99999999999999" y2="255" stroke="black" stroke-width="1" />
  <text x="82.66666666666666" y="275" font-size="12" fill="black">2024-08-24</text>
  <line x1="98.66666666666666" y1="207.69423558897248" x2="98.66666666666666" y2="250.0" stroke="black" stroke-width="1" />
  <rect x="93.86666666666666" y="207.89473684210515" width="9.6" height="19.348370927318346" fill="red" />
  <line x1="98.66666666666666" y1="250" x2="98.66666666666666" y2="255" stroke="black" stroke-width="1" />
  <text x="93.33333333333333" y="275" font-size="12" fill="black">2024-08-25</text>
  <line x1="109.33333333333333" y1="206.74185463659154" x2="109.33333333333333" y2="224.43609022556382" stroke="black" stroke-width="1" />
  <rect x="104.53333333333333" y="216.21553884711778" width="9.6" height="2.706766917293048" fill="green" />
  <line x1="109.33333333333333" y1="250" x2="109.33333333333333" y2="255" stroke="black" stroke-width="1" />
  <text x="104.0" y="275" font-size="12" fill="black">2024-08-28</text>
  <line x1="119.99999999999999" y1="181.82957393483704" x2="119.99999999999999" y2="218.3208020050123" stroke="black" stroke-width="1" />
  <rect x="115.19999999999999" y="184.3859649122806" width="9.6" height="19.598997493734444" fill="green" />
  <line x1="119.99999999999999" y1="250" x2="119.99999999999999" y2="255" stroke="black" stroke-width="1" />
  <text x="114.66666666666666" y="275" font-size="12" fill="black">2024-08-29</text>
  <line x1="130.66666666666666" y1="177.268170426065" x2="130.66666666666666" y2="215.08771929824547" stroke="black" stroke-width="1" />
  <rect x="125.86666666666666" y="184.33583959899744" width="9.6" height="16.040100250626494" fill="red" />
  <line x1="130.66666666666666" y1="250" x2="130.66666666666666" y2="255" stroke="black" stroke-width="1" />
  <text x="125.33333333333333" y="275" font-size="12" fill="black">2024-08-30</text>
  <line x1="141.33333333333334" y1="149.64912280701745" x2="141.33333333333334" y2="186.99248120300734" stroke="black" stroke-width="1" />
  <rect x="136.53333333333333" y="155.26315789473676" width="9.6" height="31.729323308270565" fill="green" />
  <line x1="141.33333333333334" y1="250" x2="141.33333333333334" y2="255" stroke="black" stroke-width="1" />
  <text x="136.0" y="275" font-size="12" fill="black">2024-08-31</text>
  <line x1="152.0" y1="130.50125313283203" x2="152.0" y2="161.02756892230585" stroke="black" stroke-width="1" />
  <rect x="147.2" y="142.53132832080212" width="9.6" height="7.518796992481196" fill="green" />
  <line x1="152.0" y1="250" x2="152.0" y2="255" stroke="black" stroke-width="1" />
  <text x="146.66666666666666" y="275" font-size="12" fill="black">2024-09-01</text>
  <line x1="162.66666666666666" y1="125.73934837092733" x2="162.66666666666666" y2="159.0726817042605" stroke="black" stroke-width="1" />
  <rect x="157.86666666666665" y="146.89223057644097" width="9.6" height="1.754385964912393" fill="red" />
  <line x1="162.66666666666666" y1="250" x2="162.66666666666666" y2="255" stroke="black" stroke-width="1" />
  <text x="157.33333333333331" y="275" font-size="12" fill="black">2024-09-05</text>
  <line x1="173.33333333333334" y1="128.34586466165405" x2="173.33333333333334" y2="153.3583959899749" stroke="black" stroke-width="1" />
  <rect x="168.53333333333333" y="143.5338345864662" width="9.6" height="5.263157894736894" fill="green" />
  <line x1="173.33333333333334" y1="250" x2="173.33333333333334" y2="255" stroke="black" stroke-width="1" />
  <text x="168.0" y="275" font-size="12" fill="black">2024-09-06</text>
  <line x1="184.0" y1="138.42105263157882" x2="184.0" y2="193.80902255639097" stroke="black" stroke-width="1" />
  <rect x="179.2" y="143.5338345864662" width="9.6" height="28.972431077694072" fill="red" />
  <line x1="184.0" y1="250" x2="184.0" y2="255" stroke="black" stroke-width="1" />
  <text x="178.66666666666666" y="275" font-size="12" fill="black">2024-09-07</text>
  <line x1="194.66666666666666" y1="157.0676691729323" x2="194.66666666666666" y2="185.78947368421058" stroke="black" stroke-width="1" />
  <rect x="189.86666666666665" y="173.7593984962405" width="9.6" height="4.962406015037635" fill="red" />
  <line x1="194.66666666666666" y1="250" x2="194.66666666666666" y2="255" stroke="black" stroke-width="1" />
  <text x="189.33333333333331" y="275" font-size="12" fill="black">2024-09-08</text>
  <line x1="205.33333333333334" y1="113.107769423559" x2="205.33333333333334" y2="161.45363408521303" stroke="black" stroke-width="1" />
  <rect x="200.53333333333333" y="123.73433583959913" width="9.6" height="33.03258145363393" fill="green" />
  <line x1="205.33333333333334" y1="250" x2="205.33333333333334" y2="255" stroke="black" stroke-width="1" />
  <text x="200.0" y="275" font-size="12" fill="black">2024-09-11</text>
  <line x1="216.0" y1="117.5187969924813" x2="216.0" y2="147.59398496240607" stroke="black" stroke-width="1" />
  <rect x="211.2" y="119.07268170426076" width="9.6" height="4.611528822054928" fill="green" />
  <line x1="216.0" y1="250" x2="216.0" y2="255" stroke="black" stroke-width="1" />
  <text x="210.66666666666666" y="275" font-size="12" fill="black">2024-09-12</text>
  <line x1="226.66666666666666" y1="113.60902255639093" x2="226.66666666666666" y2="170.1002506265665" stroke="black" stroke-width="1" />
  <rect x="221.86666666666665" y="118.2706766917293" width="9.6" height="8.320802005012649" fill="green" />
  <line x1="226.66666666666666" y1="250" x2="226.66666666666666" y2="255" stroke="black" stroke-width="1" />
  <text x="221.33333333333331" y="275" font-size="12" fill="black">2024-09-13</text>
  <line x1="237.33333333333334" y1="94.7117794486216" x2="237.33333333333334" y2="144.23558897243106" stroke="black" stroke-width="1" />
  <rect x="232.53333333333333" y="98.57142857142853" width="9.6" height="25.86466165413544" fill="green" />
  <line x1="237.33333333333334" y1="250" x2="237.33333333333334" y2="255" stroke="black" stroke-width="1" />
  <text x="232.0" y="275" font-size="12" fill="black">2024-09-14</text>
  <line x1="248.0" y1="74.81203007518792" x2="248.0" y2="101.87969924812037" stroke="black" stroke-width="1" />
  <rect x="243.2" y="92.30576441102752" width="9.6" height="1.3032581453633616" fill="green" />
  <line x1="248.0" y1="250" x2="248.0" y2="255" stroke="black" stroke-width="1" />
  <text x="242.66666666666666" y="275" font-size="12" fill="black">2024-09-15</text>
  <line x1="258.66666666666663" y1="67.44360902255647" x2="258.66666666666663" y2="92.15538847117804" stroke="black" stroke-width="1" />
  <rect x="253.86666666666665" y="70.50125313283223" width="9.6" height="12.080200501252962" fill="green" />
  <line x1="258.66666666666663" y1="250" x2="258.66666666666663" y2="255" stroke="black" stroke-width="1" />
  <text x="253.33333333333331" y="275" font-size="12" fill="black">2024-09-18</text>
  <line x1="269.3333333333333" y1="50.30075187969928" x2="269.3333333333333" y2="69.7994987468671" stroke="black" stroke-width="1" />
  <rect x="264.53333333333336" y="54.060150375939884" width="9.6" height="11.979949874686637" fill="green" />
  <line x1="269.3333333333333" y1="250" x2="269.3333333333333" y2="255" stroke="black" stroke-width="1" />
  <text x="264.0" y="275" font-size="12" fill="black">2024-09-19</text>
  <line x1="279.99999999999994" y1="50.00000000000003" x2="279.99999999999994" y2="88.89724310776936" stroke="black" stroke-width="1" />
  <rect x="275.2" y="52.60651629072703" width="9.6" height="32.68170426065151" fill="red" />
  <line x1="279.99999999999994" y1="250" x2="279.99999999999994" y2="255" stroke="black" stroke-width="1" />
  <text x="274.66666666666663" y="275" font-size="12" fill="black">2024-09-20</text>
  <line x1="290.66666666666663" y1="53.35839598997504" x2="290.66666666666663" y2="127.94486215538848" stroke="black" stroke-width="1" />
  <rect x="285.8666666666667" y="59.02255639097751" width="9.6" height="35.03759398496242" fill="red" />
  <line x1="290.66666666666663" y1="250" x2="290.66666666666663" y2="255" stroke="black" stroke-width="1" />
  <text x="285.3333333333333" y="275" font-size="12" fill="black">2024-09-21</text>
  <line x1="301.3333333333333" y1="91.4536340852132" x2="301.3333333333333" y2="120.47619047619042" stroke="black" stroke-width="1" />
  <rect x="296.53333333333336" y="95.41353383458645" width="9.6" height="15.488721804511423" fill="green" />
  <line x1="301.3333333333333" y1="250" x2="301.3333333333333" y2="255" stroke="black" stroke-width="1" />
  <text x="296.0" y="275" font-size="12" fill="black">2024-09-22</text>
  <line x1="311.99999999999994" y1="70.60150375939855" x2="311.99999999999994" y2="102.63157894736838" stroke="black" stroke-width="1" />
  <rect x="307.2" y="73.35839598997507" width="9.6" height="19.94987468671658" fill="green" />
  <line x1="311.99999999999994" y1="250" x2="311.99999999999994" y2="255" stroke="black" stroke-width="1" />
  <text x="306.66666666666663" y="275" font-size="12" fill="black">2024-09-25</text>
  <line x1="322.66666666666663" y1="92.88220551378447" x2="322.66666666666663" y2="137.11779448621544" stroke="black" stroke-width="1" />
  <rect x="317.8666666666667" y="95.71428571428572" width="9.6" height="26.41604010025051" fill="red" />
  <line x1="322.66666666666663" y1="250" x2="322.66666666666663" y2="255" stroke="black" stroke-width="1" />
  <text x="317.3333333333333" y="275" font-size="12" fill="black">2024-09-26</text>
  <line x1="333.3333333333333" y1="109.64912280701768" x2="333.3333333333333" y2="141.5288220551377" stroke="black" stroke-width="1" />
  <rect x="328.53333333333336" y="111.90476190476198" width="9.6" height="23.508771929824526" fill="green" />
  <line x1="333.3333333333333" y1="250" x2="333.3333333333333" y2="255" stroke="black" stroke-width="1" />
  <text x="328.0" y="275" font-size="12" fill="black">2024-09-27</text>
  <line x1="343.99999999999994" y1="90.9774436090226" x2="343.99999999999994" y2="114.16040100250629" stroke="black" stroke-width="1" />
  <rect x="339.2" y="102.78195488721815" width="9.6" height="1.353383458646524" fill="green" />
  <line x1="343.99999999999994" y1="250" x2="343.99999999999994" y2="255" stroke="black" stroke-width="1" />
  <text x="338.66666666666663" y="275" font-size="12" fill="black">2024-09-28</text>
  <line x1="354.66666666666663" y1="79.0726817042607" x2="354.66666666666663" y2="107.19298245614044" stroke="black" stroke-width="1" />
  <rect x="349.8666666666667" y="90.90225563909786" width="9.6" height="13.08270676691735" fill="green" />
  <line x1="354.66666666666663" y1="250" x2="354.66666666666663" y2="255" stroke="black" stroke-width="1" />
  <text x="349.3333333333333" y="275" font-size="12" fill="black">2024-09-29</text>
</svg>