<svg width="400" height="300" xmlns="http://www.w3.org/2000/svg">
  <line x1="40" y1="250" x2="360" y2="250" stroke="black" stroke-width="2" />
  <line x1="45.333333333333336" y1="156.94376528117368" x2="45.333333333333336" y2="178.9486552567238" stroke="black" stroke-width="1" />
  <rect x="40.53333333333333" y="161.24694376528123" width="9.6" height="10.953545232273889" fill="red" />
  <line x1="45.333333333333336" y1="250" x2="45.333333333333336" y2="255" stroke="black" stroke-width="1" />
  <text x="40.0" y="275" font-size="12" fill="black">2024-08-18</text>
  <line x1="56.0" y1="161.83374083129593" x2="56.0" y2="183.5941320293399" stroke="black" stroke-width="1" />
  <rect x="51.199999999999996" y="167.65281173594138" width="9.6" height="5.8924205378972365" fill="green" />
  <line x1="56.0" y1="250" x2="56.0" y2="255" stroke="black" stroke-width="1" />
  <text x="50.666666666666664" y="275" font-size="12" fill="black">2024-08-21</text>
  <line x1="66.66666666666666" y1="163.2273838630806" x2="66.66666666666666" y2="175.96577017114916" stroke="black" stroke-width="1" />
  <rect x="61.86666666666666" y="169.9266503667481" width="9.6" height="3.9608801955990356" fill="red" />
  <line x1="66.66666666666666" y1="250" x2="66.66666666666666" y2="255" stroke="black" stroke-width="1" />
  <text x="61.33333333333333" y="275" font-size="12" fill="black">2024-08-22</text>
  <line x1="77.33333333333333" y1="142.90953545232279" x2="77.33333333333333" y2="173.3863080684598" stroke="black" stroke-width="1" />
  <rect x="72.53333333333333" y="153.276283618582" width="9.6" height="19.584352078239597" fill="green" />
  <line x1="77.33333333333333" y1="250" x2="77.33333333333333" y2="255" stroke="black" stroke-width="1" />
  <text x="72.0" y="275" font-size="12" fill="black">2024-08-23</text>
  <line x1="87.99999999999999" y1="131.10024449877744" x2="87.99999999999999" y2="169.3398533007334" stroke="black" stroke-width="1" />
  <rect x="83.19999999999999" y="148.77750611246944" width="9.6" height="12.396088019560032" fill="red" />
  <line x1="87.99999999999999" y1="250" x2="87.99999999999999" y2="255" stroke="black" stroke-width="1" />
  <text x="82.66666666666666" y="275" font-size="12" fill="black">2024-08-24</text>
  <line x1="98.66666666666666" y1="141.76039119804398" x2="98.66666666666666" y2="177.9706601466994" stroke="black" stroke-width="1" />
  <rect x="93.86666666666666" y="148.97310513447442" width="9.6" height="21.809290953545144" fill="red" />
  <line x1="98.66666666666666" y1="250" x2="98.66666666666666" y2="255" stroke="black" stroke-width="1" />
  <text x="93.33333333333333" y="275" font-size="12" fill="black">2024-08-25</text>
  <line x1="109.33333333333333" y1="170.78239608801957" x2="109.33333333333333" y2="202.68948655256716" stroke="black" stroke-width="1" />
  <rect x="104.53333333333333" y="171.76039119804398" width="9.6" height="15.843520782396142" fill="red" />
  <line x1="109.33333333333333" y1="250" x2="109.33333333333333" y2="255" stroke="black" stroke-width="1" />
  <text x="104.0" y="275" font-size="12" fill="black">2024-08-28</text>
  <line x1="119.99999999999999" y1="180.53789731051347" x2="119.99999999999999" y2="201.8092909535454" stroke="black" stroke-width="1" />
  <rect x="115.19999999999999" y="192.54278728606354" width="9.6" height="1" fill="green" />
  <line x1="119.99999999999999" y1="250" x2="119.99999999999999" y2="255" stroke="black" stroke-width="1" />
  <text x="114.66666666666666" y="275" font-size="12" fill="black">2024-08-29</text>
  <line x1="130.66666666666666" y1="187.68948655256716" x2="130.66666666666666" y2="208.80195599021997" stroke="black" stroke-width="1" />
  <rect x="125.86666666666666" y="196.0268948655258" width="9.6" height="2.1882640586796636" fill="red" />
  <line x1="130.66666666666666" y1="250" x2="130.66666666666666" y2="255" stroke="black" stroke-width="1" />
  <text x="125.33333333333333" y="275" font-size="12" fill="black">2024-08-30</text>
  <line x1="141.33333333333334" y1="172.73838630806836" x2="141.33333333333334" y2="200.9073349633252" stroke="black" stroke-width="1" />
  <rect x="136.53333333333333" y="192.66503667481675" width="9.6" height="2.0293398533005567" fill="red" />
  <line x1="141.33333333333334" y1="250" x2="141.33333333333334" y2="255" stroke="black" stroke-width="1" />
  <text x="136.0" y="275" font-size="12" fill="black">2024-08-31</text>
  <line x1="152.0" y1="181.68704156479228" x2="152.0" y2="202.07823960880188" stroke="black" stroke-width="1" />
  <rect x="147.2" y="187.04156479217602" width="9.6" height="1" fill="red" />
  <line x1="152.0" y1="250" x2="152.0" y2="255" stroke="black" stroke-width="1" />
  <text x="146.66666666666666" y="275" font-size="12" fill="black">2024-09-01</text>
  <line x1="162.66666666666666" y1="176.91931540342296" x2="162.66666666666666" y2="218.1721271393644" stroke="black" stroke-width="1" />
  <rect x="157.86666666666665" y="191.22249388753062" width="9.6" height="19.266503667481665" fill="red" />
  <line x1="162.66666666666666" y1="250" x2="162.66666666666666" y2="255" stroke="black" stroke-width="1" />
  <text x="157.33333333333331" y="275" font-size="12" fill="black">2024-09-05</text>
  <line x1="173.33333333333334" y1="198.67970660146693" x2="173.33333333333334" y2="229.29095354523233" stroke="black" stroke-width="1" />
  <rect x="168.53333333333333" y="208.09290953545232" width="9.6" height="16.30806845965775" fill="green" />
  <line x1="173.33333333333334" y1="250" x2="173.33333333333334" y2="255" stroke="black" stroke-width="1" />
  <text x="168.0" y="275" font-size="12" fill="black">2024-09-06</text>
  <line x1="184.0" y1="186.35819070904645" x2="184.0" y2="211.9804400977996" stroke="black" stroke-width="1" />
  <rect x="179.2" y="198.01955990220048" width="9.6" height="12.567237163814156" fill="green" />
  <line x1="184.0" y1="250" x2="184.0" y2="255" stroke="black" stroke-width="1" />
  <text x="178.66666666666666" y="275" font-size="12" fill="black">2024-09-07</text>
  <line x1="194.66666666666666" y1="179.13227383863097" x2="194.66666666666666" y2="243.52078239608807" stroke="black" stroke-width="1" />
  <rect x="189.86666666666665" y="185.74572127139368" width="9.6" height="52.83618581907097" fill="red" />
  <line x1="194.66666666666666" y1="250" x2="194.66666666666666" y2="255" stroke="black" stroke-width="1" />
  <text x="189.33333333333331" y="275" font-size="12" fill="black">2024-09-08</text>
  <line x1="205.33333333333334" y1="211.54034229828858" x2="205.33333333333334" y2="234.156479217604" stroke="black" stroke-width="1" />
  <rect x="200.53333333333333" y="224.1809290953545" width="9.6" height="3.349633251833754" fill="red" />
  <line x1="205.33333333333334" y1="250" x2="205.33333333333334" y2="255" stroke="black" stroke-width="1" />
  <text x="200.0" y="275" font-size="12" fill="black">2024-09-11</text>
  <line x1="216.0" y1="204.57212713936445" x2="216.0" y2="239.17408312958437" stroke="black" stroke-width="1" />
  <rect x="211.2" y="219.29095354523224" width="9.6" height="8.239608801956006" fill="red" />
  <line x1="216.0" y1="250" x2="216.0" y2="255" stroke="black" stroke-width="1" />
  <text x="210.66666666666666" y="275" font-size="12" fill="black">2024-09-12</text>
  <line x1="226.66666666666666" y1="207.1638141809291" x2="226.66666666666666" y2="250.0" stroke="black" stroke-width="1" />
  <rect x="221.86666666666665" y="210.31784841075802" width="9.6" height="11.784841075794612" fill="green" />
  <line x1="226.66666666666666" y1="250" x2="226.66666666666666" y2="255" stroke="black" stroke-width="1" />
  <text x="221.33333333333331" y="275" font-size="12" fill="black">2024-09-13</text>
  <line x1="237.33333333333334" y1="173.93643031784833" x2="237.33333333333334" y2="202.02933985330068" stroke="black" stroke-width="1" />
  <rect x="232.53333333333333" y="176.65036674816622" width="9.6" height="20.904645476772796" fill="green" />
  <line x1="237.33333333333334" y1="250" x2="237.33333333333334" y2="255" stroke="black" stroke-width="1" />
  <text x="232.0" y="275" font-size="12" fill="black">2024-09-14</text>
  <line x1="248.0" y1="171.80684596577015" x2="248.0" y2="197.4083129584352" stroke="black" stroke-width="1" />
  <rect x="243.2" y="179.04645476772617" width="9.6" height="10.464547677261553" fill="green" />
  <line x1="248.0" y1="250" x2="248.0" y2="255" stroke="black" stroke-width="1" />
  <text x="242.66666666666666" y="275" font-size="12" fill="black">2024-09-15</text>
  <line x1="258.66666666666663" y1="155.86797066014663" x2="258.66666666666663" y2="196.69926650366756" stroke="black" stroke-width="1" />
  <rect x="253.86666666666665" y="157.8728606356969" width="9.6" height="21.369193154034264" fill="green" />
  <line x1="258.66666666666663" y1="250" x2="258.66666666666663" y2="255" stroke="black" stroke-width="1" />
  <text x="253.33333333333331" y="275" font-size="12" fill="black">2024-09-18</text>
  <line x1="269.3333333333333" y1="136.30806845965765" x2="269.3333333333333" y2="164.49877750611233" stroke="black" stroke-width="1" />
  <rect x="264.53333333333336" y="147.3105134474327" width="9.6" height="3.141809290953469" fill="red" />
  <line x1="269.3333333333333" y1="250" x2="269.3333333333333" y2="255" stroke="black" stroke-width="1" />
  <text x="264.0" y="275" font-size="12" fill="black">2024-09-19</text>
  <line x1="279.99999999999994" y1="131.17359413202922" x2="279.99999999999994" y2="156.35061124694374" stroke="black" stroke-width="1" />
  <rect x="275.2" y="146.45476772616126" width="9.6" height="2.1638141809290743" fill="green" />
  <line x1="279.99999999999994" y1="250" x2="279.99999999999994" y2="255" stroke="black" stroke-width="1" />
  <text x="274.66666666666663" y="275" font-size="12" fill="black">2024-09-20</text>
  <line x1="290.66666666666663" y1="87.48166259168687" x2="290.66666666666663" y2="125.50122249388755" stroke="black" stroke-width="1" />
  <rect x="285.8666666666667" y="94.74327628361848" width="9.6" height="22.249388753056305" fill="green" />
  <line x1="290.66666666666663" y1="250" x2="290.66666666666663" y2="255" stroke="black" stroke-width="1" />
  <text x="285.3333333333333" y="275" font-size="12" fill="black">2024-09-21</text>
  <line x1="301.3333333333333" y1="81.54034229828846" x2="301.3333333333333" y2="101.58899755501207" stroke="black" stroke-width="1" />
  <rect x="296.53333333333336" y="89.24205378973096" width="9.6" height="3.300733496332576" fill="green" />
  <line x1="301.3333333333333" y1="250" x2="301.3333333333333" y2="255" stroke="black" stroke-width="1" />
  <text x="296.0" y="275" font-size="12" fill="black">2024-09-22</text>
  <line x1="311.99999999999994" y1="58.36210268948639" x2="311.99999999999994" y2="86.6503667481663" stroke="black" stroke-width="1" />
  <rect x="307.2" y="69.31540342298283" width="9.6" height="12.444987775061211" fill="red" />
  <line x1="311.99999999999994" y1="250" x2="311.99999999999994" y2="255" stroke="black" stroke-width="1" />
  <text x="306.66666666666663" y="275" font-size="12" fill="black">2024-09-25</text>
  <line x1="322.66666666666663" y1="73.6063569682151" x2="322.66666666666663" y2="106.74816625916853" stroke="black" stroke-width="1" />
  <rect x="317.8666666666667" y="76.21026894865534" width="9.6" height="8.19070904645455" fill="red" />
  <line x1="322.66666666666663" y1="250" x2="322.66666666666663" y2="255" stroke="black" stroke-width="1" />
  <text x="317.3333333333333" y="275" font-size="12" fill="black">2024-09-26</text>
  <line x1="333.3333333333333" y1="51.27139364303173" x2="333.3333333333333" y2="83.44743276283609" stroke="black" stroke-width="1" />
  <rect x="328.53333333333336" y="72.2249388753057" width="9.6" height="10.415647921760375" fill="green" />
  <line x1="333.3333333333333" y1="250" x2="333.3333333333333" y2="255" stroke="black" stroke-width="1" />
  <text x="328.0" y="275" font-size="12" fill="black">2024-09-27</text>
  <line x1="343.99999999999994" y1="50.0" x2="343.99999999999994" y2="86.79682151589239" stroke="black" stroke-width="1" />
  <rect x="339.2" y="54.08312958435198" width="9.6" height="19.290953545232252" fill="red" />
  <line x1="343.99999999999994" y1="250" x2="343.99999999999994" y2="255" stroke="black" stroke-width="1" />
  <text x="338.66666666666663" y="275" font-size="12" fill="black">2024-09-28</text>
  <line x1="354.66666666666663" y1="66.03936430317856" x2="354.66666666666663" y2="81.51589242053788" stroke="black" stroke-width="1" />
  <rect x="349.8666666666667" y="67.84841075794611" width="9.6" height="6.699266503667508" fill="red" />
  <line x1="354.66666666666663" y1="250" x2="354.66666666666663" y2="255" stroke="black" stroke-width="1" />
  <text x="349.3333333333333" y="275" font-size="12" fill="black">2024-09-29</text>
</svg>