<svg width="400" height="300" xmlns="http://www.w3.org/2000/svg">
  <line x1="40" y1="250" x2="360" y2="250" stroke="black" stroke-width="2" />
  <line x1="45.333333333333336" y1="185.99999999999983" x2="45.333333333333336" y2="210.00000000000006" stroke="black" stroke-width="1" />
  <rect x="40.53333333333333" y="201.9999999999999" width="9.6" height="8.000000000000199" fill="red" />
  <line x1="45.333333333333336" y1="250" x2="45.333333333333336" y2="255" stroke="black" stroke-width="1" />
  <text x="40.0" y="275" font-size="12" fill="black">2024-08-21</text>
  <line x1="56.0" y1="178.0" x2="56.0" y2="210.00000000000006" stroke="black" stroke-width="1" />
  <rect x="51.199999999999996" y="185.99999999999983" width="9.6" height="8.000000000000199" fill="red" />
  <line x1="56.0" y1="250" x2="56.0" y2="255" stroke="black" stroke-width="1" />
  <text x="50.666666666666664" y="275" font-size="12" fill="black">2024-08-22</text>
  <line x1="66.66666666666666" y1="97.99999999999977" x2="66.66666666666666" y2="185.99999999999983" stroke="black" stroke-width="1" />
  <rect x="61.86666666666666" y="97.99999999999977" width="9.6" height="88.00000000000006" fill="green" />
  <line x1="66.66666666666666" y1="250" x2="66.66666666666666" y2="255" stroke="black" stroke-width="1" />
  <text x="61.33333333333333" y="275" font-size="12" fill="black">2024-08-23</text>
  <line x1="77.33333333333333" y1="97.99999999999977" x2="77.33333333333333" y2="178.0" stroke="black" stroke-width="1" />
  <rect x="72.53333333333333" y="97.99999999999977" width="9.6" height="80.00000000000021" fill="red" />
  <line x1="77.33333333333333" y1="250" x2="77.33333333333333" y2="255" stroke="black" stroke-width="1" />
  <text x="72.0" y="275" font-size="12" fill="black">2024-08-24</text>
  <line x1="87.99999999999999" y1="178.0" x2="87.99999999999999" y2="250.0" stroke="black" stroke-width="1" />
  <rect x="83.19999999999999" y="210.00000000000006" width="9.6" height="39.99999999999993" fill="green" />
  <line x1="87.99999999999999" y1="250" x2="87.99999999999999" y2="255" stroke="black" stroke-width="1" />
  <text x="82.66666666666666" y="275" font-size="12" fill="black">2024-08-25</text>
  <line x1="98.66666666666666" y1="201.9999999999999" x2="98.66666666666666" y2="233.99999999999994" stroke="black" stroke-width="1" />
  <rect x="93.86666666666666" y="217.99999999999991" width="9.6" height="8.000000000000199" fill="red" />
  <line x1="98.66666666666666" y1="250" x2="98.66666666666666" y2="255" stroke="black" stroke-width="1" />
  <text x="93.33333333333333" y="275" font-size="12" fill="black">2024-08-28</text>
  <line x1="109.33333333333333" y1="161.99999999999994" x2="109.33333333333333" y2="233.99999999999994" stroke="black" stroke-width="1" />
  <rect x="104.53333333333333" y="161.99999999999994" width="9.6" height="64.00000000000017" fill="green" />
  <line x1="109.33333333333333" y1="250" x2="109.33333333333333" y2="255" stroke="black" stroke-width="1" />
  <text x="104.0" y="275" font-size="12" fill="black">2024-08-29</text>
  <line x1="119.99999999999999" y1="146.00000000000023" x2="119.99999999999999" y2="250.0" stroke="black" stroke-width="1" />
  <rect x="115.19999999999999" y="146.00000000000023" width="9.6" height="95.9999999999999" fill="red" />
  <line x1="119.99999999999999" y1="250" x2="119.99999999999999" y2="255" stroke="black" stroke-width="1" />
  <text x="114.66666666666666" y="275" font-size="12" fill="black">2024-08-30</text>
  <line x1="130.66666666666666" y1="137.9999999999997" x2="130.66666666666666" y2="242.00000000000014" stroke="black" stroke-width="1" />
  <rect x="125.86666666666666" y="178.0" width="9.6" height="64.00000000000017" fill="green" />
  <line x1="130.66666666666666" y1="250" x2="130.66666666666666" y2="255" stroke="black" stroke-width="1" />
  <text x="125.33333333333333" y="275" font-size="12" fill="black">2024-08-31</text>
  <line x1="141.33333333333334" y1="89.99999999999991" x2="141.33333333333334" y2="178.0" stroke="black" stroke-width="1" />
  <rect x="136.53333333333333" y="89.99999999999991" width="9.6" height="79.99999999999986" fill="red" />
  <line x1="141.33333333333334" y1="250" x2="141.33333333333334" y2="255" stroke="black" stroke-width="1" />
  <text x="136.0" y="275" font-size="12" fill="black">2024-09-01</text>
  <line x1="152.0" y1="129.99999999999983" x2="152.0" y2="185.99999999999983" stroke="black" stroke-width="1" />
  <rect x="147.2" y="129.99999999999983" width="9.6" height="32.000000000000085" fill="green" />
  <line x1="152.0" y1="250" x2="152.0" y2="255" stroke="black" stroke-width="1" />
  <text x="146.66666666666666" y="275" font-size="12" fill="black">2024-09-04</text>
  <line x1="162.66666666666666" y1="122.0" x2="162.66666666666666" y2="201.9999999999999" stroke="black" stroke-width="1" />
  <rect x="157.86666666666665" y="122.0" width="9.6" height="7.999999999999845" fill="red" />
  <line x1="162.66666666666666" y1="250" x2="162.66666666666666" y2="255" stroke="black" stroke-width="1" />
  <text x="157.33333333333331" y="275" font-size="12" fill="black">2024-09-05</text>
  <line x1="173.33333333333334" y1="178.0" x2="173.33333333333334" y2="201.9999999999999" stroke="black" stroke-width="1" />
  <rect x="168.53333333333333" y="178.0" width="9.6" height="23.999999999999886" fill="green" />
  <line x1="173.33333333333334" y1="250" x2="173.33333333333334" y2="255" stroke="black" stroke-width="1" />
  <text x="168.0" y="275" font-size="12" fill="black">2024-09-06</text>
  <line x1="184.0" y1="122.0" x2="184.0" y2="178.0" stroke="black" stroke-width="1" />
  <rect x="179.2" y="122.0" width="9.6" height="47.99999999999977" fill="red" />
  <line x1="184.0" y1="250" x2="184.0" y2="255" stroke="black" stroke-width="1" />
  <text x="178.66666666666666" y="275" font-size="12" fill="black">2024-09-07</text>
  <line x1="194.66666666666666" y1="169.99999999999977" x2="194.66666666666666" y2="201.9999999999999" stroke="black" stroke-width="1" />
  <rect x="189.86666666666665" y="169.99999999999977" width="9.6" height="8.000000000000199" fill="red" />
  <line x1="194.66666666666666" y1="250" x2="194.66666666666666" y2="255" stroke="black" stroke-width="1" />
  <text x="189.33333333333331" y="275" font-size="12" fill="black">2024-09-08</text>
  <line x1="205.33333333333334" y1="146.00000000000023" x2="205.33333333333334" y2="242.00000000000014" stroke="black" stroke-width="1" />
  <rect x="200.53333333333333" y="169.99999999999977" width="9.6" height="1" fill="red" />
  <line x1="205.33333333333334" y1="250" x2="205.33333333333334" y2="255" stroke="black" stroke-width="1" />
  <text x="200.0" y="275" font-size="12" fill="black">2024-09-11</text>
  <line x1="216.0" y1="154.0000000000001" x2="216.0" y2="201.9999999999999" stroke="black" stroke-width="1" />
  <rect x="211.2" y="161.99999999999994" width="9.6" height="23.999999999999886" fill="red" />
  <line x1="216.0" y1="250" x2="216.0" y2="255" stroke="black" stroke-width="1" />
  <text x="210.66666666666666" y="275" font-size="12" fill="black">2024-09-12</text>
  <line x1="226.66666666666666" y1="161.99999999999994" x2="226.66666666666666" y2="201.9999999999999" stroke="black" stroke-width="1" />
  <rect x="221.86666666666665" y="161.99999999999994" width="9.6" height="23.999999999999886" fill="green" />
  <line x1="226.66666666666666" y1="250" x2="226.66666666666666" y2="255" stroke="black" stroke-width="1" />
  <text x="221.33333333333331" y="275" font-size="12" fill="black">2024-09-13</text>
  <line x1="237.33333333333334" y1="169.99999999999977" x2="237.33333333333334" y2="242.00000000000014" stroke="black" stroke-width="1" />
  <rect x="232.53333333333333" y="201.9999999999999" width="9.6" height="8.000000000000199" fill="red" />
  <line x1="237.33333333333334" y1="250" x2="237.33333333333334" y2="255" stroke="black" stroke-width="1" />
  <text x="232.0" y="275" font-size="12" fill="black">2024-09-14</text>
  <line x1="248.0" y1="129.99999999999983" x2="248.0" y2="201.9999999999999" stroke="black" stroke-width="1" />
  <rect x="243.2" y="129.99999999999983" width="9.6" height="32.000000000000085" fill="red" />
  <line x1="248.0" y1="250" x2="248.0" y2="255" stroke="black" stroke-width="1" />
  <text x="242.66666666666666" y="275" font-size="12" fill="black">2024-09-15</text>
  <line x1="258.66666666666663" y1="154.0000000000001" x2="258.66666666666663" y2="210.00000000000006" stroke="black" stroke-width="1" />
  <rect x="253.86666666666665" y="154.0000000000001" width="9.6" height="55.99999999999998" fill="red" />
  <line x1="258.66666666666663" y1="250" x2="258.66666666666663" y2="255" stroke="black" stroke-width="1" />
  <text x="253.33333333333331" y="275" font-size="12" fill="black">2024-09-18</text>
  <line x1="269.3333333333333" y1="129.99999999999983" x2="269.3333333333333" y2="210.00000000000006" stroke="black" stroke-width="1" />
  <rect x="264.53333333333336" y="169.99999999999977" width="9.6" height="40.000000000000284" fill="green" />
  <line x1="269.3333333333333" y1="250" x2="269.3333333333333" y2="255" stroke="black" stroke-width="1" />
  <text x="264.0" y="275" font-size="12" fill="black">2024-09-19</text>
  <line x1="279.99999999999994" y1="185.99999999999983" x2="279.99999999999994" y2="242.00000000000014" stroke="black" stroke-width="1" />
  <rect x="275.2" y="185.99999999999983" width="9.6" height="56.000000000000334" fill="green" />
  <line x1="279.99999999999994" y1="250" x2="279.99999999999994" y2="255" stroke="black" stroke-width="1" />
  <text x="274.66666666666663" y="275" font-size="12" fill="black">2024-09-20</text>
  <line x1="290.66666666666663" y1="50.0" x2="290.66666666666663" y2="161.99999999999994" stroke="black" stroke-width="1" />
  <rect x="285.8666666666667" y="122.0" width="9.6" height="39.99999999999993" fill="green" />
  <line x1="290.66666666666663" y1="250" x2="290.66666666666663" y2="255" stroke="black" stroke-width="1" />
  <text x="285.3333333333333" y="275" font-size="12" fill="black">2024-09-21</text>
  <line x1="301.3333333333333" y1="114.00000000000017" x2="301.3333333333333" y2="194.00000000000003" stroke="black" stroke-width="1" />
  <rect x="296.53333333333336" y="122.0" width="9.6" height="72.00000000000001" fill="red" />
  <line x1="301.3333333333333" y1="250" x2="301.3333333333333" y2="255" stroke="black" stroke-width="1" />
  <text x="296.0" y="275" font-size="12" fill="black">2024-09-22</text>
  <line x1="311.99999999999994" y1="201.9999999999999" x2="311.99999999999994" y2="233.99999999999994" stroke="black" stroke-width="1" />
  <rect x="307.2" y="201.9999999999999" width="9.6" height="8.000000000000199" fill="green" />
  <line x1="311.99999999999994" y1="250" x2="311.99999999999994" y2="255" stroke="black" stroke-width="1" />
  <text x="306.66666666666663" y="275" font-size="12" fill="black">2024-09-25</text>
  <line x1="322.66666666666663" y1="201.9999999999999" x2="322.66666666666663" y2="226.0000000000001" stroke="black" stroke-width="1" />
  <rect x="317.8666666666667" y="210.00000000000006" width="9.6" height="16.000000000000043" fill="green" />
  <line x1="322.66666666666663" y1="250" x2="322.66666666666663" y2="255" stroke="black" stroke-width="1" />
  <text x="317.3333333333333" y="275" font-size="12" fill="black">2024-09-26</text>
  <line x1="333.3333333333333" y1="161.99999999999994" x2="333.3333333333333" y2="217.99999999999991" stroke="black" stroke-width="1" />
  <rect x="328.53333333333336" y="161.99999999999994" width="9.6" height="55.99999999999998" fill="red" />
  <line x1="333.3333333333333" y1="250" x2="333.3333333333333" y2="255" stroke="black" stroke-width="1" />
  <text x="328.0" y="275" font-size="12" fill="black">2024-09-27</text>
  <line x1="343.99999999999994" y1="89.99999999999991" x2="343.99999999999994" y2="169.99999999999977" stroke="black" stroke-width="1" />
  <rect x="339.2" y="169.99999999999977" width="9.6" height="1" fill="red" />
  <line x1="343.99999999999994" y1="250" x2="343.99999999999994" y2="255" stroke="black" stroke-width="1" />
  <text x="338.66666666666663" y="275" font-size="12" fill="black">2024-09-28</text>
  <line x1="354.66666666666663" y1="105.9999999999996" x2="354.66666666666663" y2="185.99999999999983" stroke="black" stroke-width="1" />
  <rect x="349.8666666666667" y="169.99999999999977" width="9.6" height="16.000000000000043" fill="green" />
  <line x1="354.66666666666663" y1="250" x2="354.66666666666663" y2="255" stroke="black" stroke-width="1" />
  <text x="349.3333333333333" y="275" font-size="12" fill="black">2024-09-29</text>
</svg>