<svg width="400" height="300" xmlns="http://www.w3.org/2000/svg">
  <line x1="40" y1="250" x2="360" y2="250" stroke="black" stroke-width="2" />
  <line x1="45.333333333333336" y1="50.00000000000003" x2="45.333333333333336" y2="117.621776504298" stroke="black" stroke-width="1" />
  <rect x="40.53333333333333" y="82.66475644699142" width="9.6" height="8.022922636103036" fill="red" />
  <line x1="45.333333333333336" y1="250" x2="45.333333333333336" y2="255" stroke="black" stroke-width="1" />
  <text x="40.0" y="275" font-size="12" fill="black">2024-08-21</text>
  <line x1="56.0" y1="77.22063037249279" x2="56.0" y2="106.73352435530077" stroke="black" stroke-width="1" />
  <rect x="51.199999999999996" y="89.82808022922646" width="9.6" height="9.169054441260759" fill="red" />
  <line x1="56.0" y1="250" x2="56.0" y2="255" stroke="black" stroke-width="1" />
  <text x="50.666666666666664" y="275" font-size="12" fill="black">2024-08-22</text>
  <line x1="66.66666666666666" y1="84.38395415472786" x2="66.66666666666666" y2="98.71060171919774" stroke="black" stroke-width="1" />
  <rect x="61.86666666666666" y="96.13180515759305" width="9.6" height="1.4326647564469617" fill="green" />
  <line x1="66.66666666666666" y1="250" x2="66.66666666666666" y2="255" stroke="black" stroke-width="1" />
  <text x="61.33333333333333" y="275" font-size="12" fill="black">2024-08-23</text>
  <line x1="77.33333333333333" y1="80.94555873925495" x2="77.33333333333333" y2="103.86819484240684" stroke="black" stroke-width="1" />
  <rect x="72.53333333333333" y="84.38395415472786" width="9.6" height="13.753581661891138" fill="green" />
  <line x1="77.33333333333333" y1="250" x2="77.33333333333333" y2="255" stroke="black" stroke-width="1" />
  <text x="72.0" y="275" font-size="12" fill="black">2024-08-24</text>
  <line x1="87.99999999999999" y1="70.05730659025798" x2="87.99999999999999" y2="89.82808022922646" stroke="black" stroke-width="1" />
  <rect x="83.19999999999999" y="78.36676217765051" width="9.6" height="6.5902578796560745" fill="green" />
  <line x1="87.99999999999999" y1="250" x2="87.99999999999999" y2="255" stroke="black" stroke-width="1" />
  <text x="82.66666666666666" y="275" font-size="12" fill="black">2024-08-25</text>
  <line x1="98.66666666666666" y1="74.35530085959888" x2="98.66666666666666" y2="102.1489971346704" stroke="black" stroke-width="1" />
  <rect x="93.86666666666666" y="78.36676217765051" width="9.6" height="12.320916905443921" fill="red" />
  <line x1="98.66666666666666" y1="250" x2="98.66666666666666" y2="255" stroke="black" stroke-width="1" />
  <text x="93.33333333333333" y="275" font-size="12" fill="black">2024-08-28</text>
  <line x1="109.33333333333333" y1="86.38968481375355" x2="109.33333333333333" y2="108.16618911174774" stroke="black" stroke-width="1" />
  <rect x="104.53333333333333" y="86.67621776504305" width="9.6" height="20.91690544412595" fill="red" />
  <line x1="109.33333333333333" y1="250" x2="109.33333333333333" y2="255" stroke="black" stroke-width="1" />
  <text x="104.0" y="275" font-size="12" fill="black">2024-08-29</text>
  <line x1="119.99999999999999" y1="101.00286532951293" x2="119.99999999999999" y2="127.07736389684824" stroke="black" stroke-width="1" />
  <rect x="115.19999999999999" y="107.02005730659027" width="9.6" height="20.057306590257973" fill="red" />
  <line x1="119.99999999999999" y1="250" x2="119.99999999999999" y2="255" stroke="black" stroke-width="1" />
  <text x="114.66666666666666" y="275" font-size="12" fill="black">2024-08-30</text>
  <line x1="130.66666666666666" y1="100.42979942693418" x2="130.66666666666666" y2="126.50429799426925" stroke="black" stroke-width="1" />
  <rect x="125.86666666666666" y="110.74498567335243" width="9.6" height="15.759312320916834" fill="green" />
  <line x1="130.66666666666666" y1="250" x2="130.66666666666666" y2="255" stroke="black" stroke-width="1" />
  <text x="125.33333333333333" y="275" font-size="12" fill="black">2024-08-31</text>
  <line x1="141.33333333333334" y1="103.29512893982812" x2="141.33333333333334" y2="125.35816618911178" stroke="black" stroke-width="1" />
  <rect x="136.53333333333333" y="107.30659025787975" width="9.6" height="9.742120343839492" fill="red" />
  <line x1="141.33333333333334" y1="250" x2="141.33333333333334" y2="255" stroke="black" stroke-width="1" />
  <text x="136.0" y="275" font-size="12" fill="black">2024-09-01</text>
  <line x1="152.0" y1="113.61031518624634" x2="152.0" y2="135.3868194842408" stroke="black" stroke-width="1" />
  <rect x="147.2" y="117.3352435530085" width="9.6" height="4.584527220630379" fill="red" />
  <line x1="152.0" y1="250" x2="152.0" y2="255" stroke="black" stroke-width="1" />
  <text x="146.66666666666666" y="275" font-size="12" fill="black">2024-09-04</text>
  <line x1="162.66666666666666" y1="112.17765042979937" x2="162.66666666666666" y2="152.00573065902583" stroke="black" stroke-width="1" />
  <rect x="157.86666666666665" y="128.5100286532952" width="9.6" height="20.34383954154721" fill="red" />
  <line x1="162.66666666666666" y1="250" x2="162.66666666666666" y2="255" stroke="black" stroke-width="1" />
  <text x="157.33333333333331" y="275" font-size="12" fill="black">2024-09-05</text>
  <line x1="173.33333333333334" y1="171.7765042979943" x2="173.33333333333334" y2="198.9971346704871" stroke="black" stroke-width="1" />
  <rect x="168.53333333333333" y="182.09169054441253" width="9.6" height="3.724928366762406" fill="red" />
  <line x1="173.33333333333334" y1="250" x2="173.33333333333334" y2="255" stroke="black" stroke-width="1" />
  <text x="168.0" y="275" font-size="12" fill="black">2024-09-06</text>
  <line x1="184.0" y1="174.64183381088822" x2="184.0" y2="202.72206303724926" stroke="black" stroke-width="1" />
  <rect x="179.2" y="185.81661891117494" width="9.6" height="16.9054441260743" fill="red" />
  <line x1="184.0" y1="250" x2="184.0" y2="255" stroke="black" stroke-width="1" />
  <text x="178.66666666666666" y="275" font-size="12" fill="black">2024-09-07</text>
  <line x1="194.66666666666666" y1="196.7048710601719" x2="194.66666666666666" y2="235.95988538681962" stroke="black" stroke-width="1" />
  <rect x="189.86666666666665" y="205.58739255014342" width="9.6" height="30.372492836676198" fill="red" />
  <line x1="194.66666666666666" y1="250" x2="194.66666666666666" y2="255" stroke="black" stroke-width="1" />
  <text x="189.33333333333331" y="275" font-size="12" fill="black">2024-09-08</text>
  <line x1="205.33333333333334" y1="213.03724928366773" x2="205.33333333333334" y2="227.0773638968481" stroke="black" stroke-width="1" />
  <rect x="200.53333333333333" y="224.21203438395418" width="9.6" height="2.00573065902595" fill="red" />
  <line x1="205.33333333333334" y1="250" x2="205.33333333333334" y2="255" stroke="black" stroke-width="1" />
  <text x="200.0" y="275" font-size="12" fill="black">2024-09-11</text>
  <line x1="216.0" y1="222.7793696275072" x2="216.0" y2="250.0" stroke="black" stroke-width="1" />
  <rect x="211.2" y="226.21776504298012" width="9.6" height="20.057306590257717" fill="red" />
  <line x1="216.0" y1="250" x2="216.0" y2="255" stroke="black" stroke-width="1" />
  <text x="210.66666666666666" y="275" font-size="12" fill="black">2024-09-12</text>
  <line x1="226.66666666666666" y1="218.76790830945558" x2="226.66666666666666" y2="247.7077363896848" stroke="black" stroke-width="1" />
  <rect x="221.86666666666665" y="240.2578796561605" width="9.6" height="2.8653295128939233" fill="green" />
  <line x1="226.66666666666666" y1="250" x2="226.66666666666666" y2="255" stroke="black" stroke-width="1" />
  <text x="221.33333333333331" y="275" font-size="12" fill="black">2024-09-13</text>
  <line x1="237.33333333333334" y1="200.42979942693404" x2="237.33333333333334" y2="227.6504297994271" stroke="black" stroke-width="1" />
  <rect x="232.53333333333333" y="219.05444126074508" width="9.6" height="8.595988538682025" fill="red" />
  <line x1="237.33333333333334" y1="250" x2="237.33333333333334" y2="255" stroke="black" stroke-width="1" />
  <text x="232.0" y="275" font-size="12" fill="black">2024-09-14</text>
  <line x1="248.0" y1="210.1719197707738" x2="248.0" y2="228.79656160458455" stroke="black" stroke-width="1" />
  <rect x="243.2" y="214.1833810888252" width="9.6" height="7.736389684813797" fill="green" />
  <line x1="248.0" y1="250" x2="248.0" y2="255" stroke="black" stroke-width="1" />
  <text x="242.66666666666666" y="275" font-size="12" fill="black">2024-09-15</text>
  <line x1="258.66666666666663" y1="203.86819484240698" x2="258.66666666666663" y2="221.919770773639" stroke="black" stroke-width="1" />
  <rect x="253.86666666666665" y="213.03724928366773" width="9.6" height="8.882521489971264" fill="red" />
  <line x1="258.66666666666663" y1="250" x2="258.66666666666663" y2="255" stroke="black" stroke-width="1" />
  <text x="253.33333333333331" y="275" font-size="12" fill="black">2024-09-18</text>
  <line x1="269.3333333333333" y1="175.50143266475646" x2="269.3333333333333" y2="219.9140401146133" stroke="black" stroke-width="1" />
  <rect x="264.53333333333336" y="180.9455587392551" width="9.6" height="37.24928366762177" fill="green" />
  <line x1="269.3333333333333" y1="250" x2="269.3333333333333" y2="255" stroke="black" stroke-width="1" />
  <text x="264.0" y="275" font-size="12" fill="black">2024-09-19</text>
  <line x1="279.99999999999994" y1="180.65902578796556" x2="279.99999999999994" y2="194.69914040114622" stroke="black" stroke-width="1" />
  <rect x="275.2" y="180.65902578796556" width="9.6" height="1" fill="green" />
  <line x1="279.99999999999994" y1="250" x2="279.99999999999994" y2="255" stroke="black" stroke-width="1" />
  <text x="274.66666666666663" y="275" font-size="12" fill="black">2024-09-20</text>
  <line x1="290.66666666666663" y1="119.62750716332368" x2="290.66666666666663" y2="166.04584527220646" stroke="black" stroke-width="1" />
  <rect x="285.8666666666667" y="153.7249283667623" width="9.6" height="6.303724928366581" fill="green" />
  <line x1="290.66666666666663" y1="250" x2="290.66666666666663" y2="255" stroke="black" stroke-width="1" />
  <text x="285.3333333333333" y="275" font-size="12" fill="black">2024-09-21</text>
  <line x1="301.3333333333333" y1="139.97134670487117" x2="301.3333333333333" y2="203.00859598853873" stroke="black" stroke-width="1" />
  <rect x="296.53333333333336" y="141.97707736389685" width="9.6" height="56.16045845272202" fill="red" />
  <line x1="301.3333333333333" y1="250" x2="301.3333333333333" y2="255" stroke="black" stroke-width="1" />
  <text x="296.0" y="275" font-size="12" fill="black">2024-09-22</text>
  <line x1="311.99999999999994" y1="187.53581661891116" x2="311.99999999999994" y2="222.49283667621773" stroke="black" stroke-width="1" />
  <rect x="307.2" y="194.9856733524357" width="9.6" height="1.4326647564469617" fill="green" />
  <line x1="311.99999999999994" y1="250" x2="311.99999999999994" y2="255" stroke="black" stroke-width="1" />
  <text x="306.66666666666663" y="275" font-size="12" fill="black">2024-09-25</text>
  <line x1="322.66666666666663" y1="152.57879656160458" x2="322.66666666666663" y2="181.80515759312328" stroke="black" stroke-width="1" />
  <rect x="317.8666666666667" y="170.63037249283684" width="9.6" height="3.7249283667621516" fill="red" />
  <line x1="322.66666666666663" y1="250" x2="322.66666666666663" y2="255" stroke="black" stroke-width="1" />
  <text x="317.3333333333333" y="275" font-size="12" fill="black">2024-09-26</text>
  <line x1="333.3333333333333" y1="156.01719197707746" x2="333.3333333333333" y2="185.24355300859594" stroke="black" stroke-width="1" />
  <rect x="328.53333333333336" y="161.74785100286533" width="9.6" height="20.630372492836706" fill="green" />
  <line x1="333.3333333333333" y1="250" x2="333.3333333333333" y2="255" stroke="black" stroke-width="1" />
  <text x="328.0" y="275" font-size="12" fill="black">2024-09-27</text>
  <line x1="343.99999999999994" y1="90.68767908309445" x2="343.99999999999994" y2="142.83667621776507" stroke="black" stroke-width="1" />
  <rect x="339.2" y="96.41833810888255" width="9.6" height="46.41833810888253" fill="green" />
  <line x1="343.99999999999994" y1="250" x2="343.99999999999994" y2="255" stroke="black" stroke-width="1" />
  <text x="338.66666666666663" y="275" font-size="12" fill="black">2024-09-28</text>
  <line x1="354.66666666666663" y1="62.89398280802294" x2="354.66666666666663" y2="93.55300859598862" stroke="black" stroke-width="1" />
  <rect x="349.8666666666667" y="62.89398280802294" width="9.6" height="23.782234957020126" fill="green" />
  <line x1="354.66666666666663" y1="250" x2="354.66666666666663" y2="255" stroke="black" stroke-width="1" />
  <text x="349.3333333333333" y="275" font-size="12" fill="black">2024-09-29</text>
</svg>