<svg width="400" height="300" xmlns="http://www.w3.org/2000/svg">
  <line x1="40" y1="250" x2="360" y2="250" stroke="black" stroke-width="2" />
  <line x1="45.333333333333336" y1="149.92691839220484" x2="45.333333333333336" y2="169.61023142509137" stroke="black" stroke-width="1" />
  <rect x="40.53333333333333" y="153.5322777101096" width="9.6" height="10.377588306942728" fill="red" />
  <line x1="45.333333333333336" y1="250" x2="45.333333333333336" y2="255" stroke="black" stroke-width="1" />
  <text x="40.0" y="275" font-size="12" fill="black">2024-08-18</text>
  <line x1="56.0" y1="147.9293544457979" x2="56.0" y2="173.70280146163233" stroke="black" stroke-width="1" />
  <rect x="51.199999999999996" y="149.0012180267968" width="9.6" height="12.52131546894028" fill="green" />
  <line x1="56.0" y1="250" x2="56.0" y2="255" stroke="black" stroke-width="1" />
  <text x="50.666666666666664" y="275" font-size="12" fill="black">2024-08-21</text>
  <line x1="66.66666666666666" y1="127.90499390986604" x2="66.66666666666666" y2="148.46528623629735" stroke="black" stroke-width="1" />
  <rect x="61.86666666666666" y="133.06942752740565" width="9.6" height="15.103532277710215" fill="green" />
  <line x1="66.66666666666666" y1="250" x2="66.66666666666666" y2="255" stroke="black" stroke-width="1" />
  <text x="61.33333333333333" y="275" font-size="12" fill="black">2024-08-22</text>
  <line x1="77.33333333333333" y1="125.27405602923284" x2="77.33333333333333" y2="148.07551766138852" stroke="black" stroke-width="1" />
  <rect x="72.53333333333333" y="136.2850182704021" width="9.6" height="1" fill="green" />
  <line x1="77.33333333333333" y1="250" x2="77.33333333333333" y2="255" stroke="black" stroke-width="1" />
  <text x="72.0" y="275" font-size="12" fill="black">2024-08-23</text>
  <line x1="87.99999999999999" y1="123.37442143727176" x2="87.99999999999999" y2="182.71619975639464" stroke="black" stroke-width="1" />
  <rect x="83.19999999999999" y="135.21315468940318" width="9.6" height="42.92326431181486" fill="red" />
  <line x1="87.99999999999999" y1="250" x2="87.99999999999999" y2="255" stroke="black" stroke-width="1" />
  <text x="82.66666666666666" y="275" font-size="12" fill="black">2024-08-24</text>
  <line x1="98.66666666666666" y1="160.0609013398296" x2="98.66666666666666" y2="194.99390986601725" stroke="black" stroke-width="1" />
  <rect x="93.86666666666666" y="171.16930572472592" width="9.6" height="1" fill="red" />
  <line x1="98.66666666666666" y1="250" x2="98.66666666666666" y2="255" stroke="black" stroke-width="1" />
  <text x="93.33333333333333" y="275" font-size="12" fill="black">2024-08-25</text>
  <line x1="109.33333333333333" y1="169.70816077953725" x2="109.33333333333333" y2="198.64799025578583" stroke="black" stroke-width="1" />
  <rect x="104.53333333333333" y="174.1656516443362" width="9.6" height="14.007308160779534" fill="red" />
  <line x1="109.33333333333333" y1="250" x2="109.33333333333333" y2="255" stroke="black" stroke-width="1" />
  <text x="104.0" y="275" font-size="12" fill="black">2024-08-28</text>
  <line x1="119.99999999999999" y1="183.93422655298417" x2="119.99999999999999" y2="203.95858708891603" stroke="black" stroke-width="1" />
  <rect x="115.19999999999999" y="186.46772228989056" width="9.6" height="4.774665042630748" fill="green" />
  <line x1="119.99999999999999" y1="250" x2="119.99999999999999" y2="255" stroke="black" stroke-width="1" />
  <text x="114.66666666666666" y="275" font-size="12" fill="black">2024-08-29</text>
  <line x1="130.66666666666666" y1="180.81607795371505" x2="130.66666666666666" y2="218.28258221680883" stroke="black" stroke-width="1" />
  <rect x="125.86666666666666" y="181.40073081607807" width="9.6" height="20.85261875761253" fill="red" />
  <line x1="130.66666666666666" y1="250" x2="130.66666666666666" y2="255" stroke="black" stroke-width="1" />
  <text x="125.33333333333333" y="275" font-size="12" fill="black">2024-08-30</text>
  <line x1="141.33333333333334" y1="146.4677222898904" x2="141.33333333333334" y2="202.25334957369057" stroke="black" stroke-width="1" />
  <rect x="136.53333333333333" y="181.10840438489657" width="9.6" height="8.867235079171707" fill="red" />
  <line x1="141.33333333333334" y1="250" x2="141.33333333333334" y2="255" stroke="black" stroke-width="1" />
  <text x="136.0" y="275" font-size="12" fill="black">2024-08-31</text>
  <line x1="152.0" y1="168.68453105968337" x2="152.0" y2="194.7990255785628" stroke="black" stroke-width="1" />
  <rect x="147.2" y="170.3897685749088" width="9.6" height="7.5030450669912945" fill="green" />
  <line x1="152.0" y1="250" x2="152.0" y2="255" stroke="black" stroke-width="1" />
  <text x="146.66666666666666" y="275" font-size="12" fill="black">2024-09-01</text>
  <line x1="162.66666666666666" y1="157.04019488428756" x2="162.66666666666666" y2="219.64677222898922" stroke="black" stroke-width="1" />
  <rect x="157.86666666666665" y="166.63824604141286" width="9.6" height="41.26674786845323" fill="red" />
  <line x1="162.66666666666666" y1="250" x2="162.66666666666666" y2="255" stroke="black" stroke-width="1" />
  <text x="157.33333333333331" y="275" font-size="12" fill="black">2024-09-05</text>
  <line x1="173.33333333333334" y1="199.13520097442148" x2="173.33333333333334" y2="232.60657734470163" stroke="black" stroke-width="1" />
  <rect x="168.53333333333333" y="210.53593179049957" width="9.6" height="14.567600487210482" fill="green" />
  <line x1="173.33333333333334" y1="250" x2="173.33333333333334" y2="255" stroke="black" stroke-width="1" />
  <text x="168.0" y="275" font-size="12" fill="black">2024-09-06</text>
  <line x1="184.0" y1="190.07308160779533" x2="184.0" y2="224.03166869671142" stroke="black" stroke-width="1" />
  <rect x="179.2" y="213.02070645554215" width="9.6" height="3.7515225334956472" fill="green" />
  <line x1="184.0" y1="250" x2="184.0" y2="255" stroke="black" stroke-width="1" />
  <text x="178.66666666666666" y="275" font-size="12" fill="black">2024-09-07</text>
  <line x1="194.66666666666666" y1="202.0097442143729" x2="194.66666666666666" y2="250.0" stroke="black" stroke-width="1" />
  <rect x="189.86666666666665" y="209.75639464068215" width="9.6" height="35.85870889159567" fill="red" />
  <line x1="194.66666666666666" y1="250" x2="194.66666666666666" y2="255" stroke="black" stroke-width="1" />
  <text x="189.33333333333331" y="275" font-size="12" fill="black">2024-09-08</text>
  <line x1="205.33333333333334" y1="211.7539585870891" x2="205.33333333333334" y2="243.42265529841674" stroke="black" stroke-width="1" />
  <rect x="200.53333333333333" y="218.62362971985385" width="9.6" height="7.405602923264221" fill="red" />
  <line x1="205.33333333333334" y1="250" x2="205.33333333333334" y2="255" stroke="black" stroke-width="1" />
  <text x="200.0" y="275" font-size="12" fill="black">2024-09-11</text>
  <line x1="216.0" y1="174.33617539585885" x2="216.0" y2="216.38246041412924" stroke="black" stroke-width="1" />
  <rect x="211.2" y="184.7137637028016" width="9.6" height="29.23264311814859" fill="green" />
  <line x1="216.0" y1="250" x2="216.0" y2="255" stroke="black" stroke-width="1" />
  <text x="210.66666666666666" y="275" font-size="12" fill="black">2024-09-12</text>
  <line x1="226.66666666666666" y1="137.01583434835572" x2="226.66666666666666" y2="207.222898903776" stroke="black" stroke-width="1" />
  <rect x="221.86666666666665" y="141.64433617539584" width="9.6" height="36.73568818514016" fill="green" />
  <line x1="226.66666666666666" y1="250" x2="226.66666666666666" y2="255" stroke="black" stroke-width="1" />
  <text x="221.33333333333331" y="275" font-size="12" fill="black">2024-09-13</text>
  <line x1="237.33333333333334" y1="120.55200974421459" x2="237.33333333333334" y2="157.67356881851407" stroke="black" stroke-width="1" />
  <rect x="232.53333333333333" y="122.35079171741788" width="9.6" height="17.978075517661374" fill="green" />
  <line x1="237.33333333333334" y1="250" x2="237.33333333333334" y2="255" stroke="black" stroke-width="1" />
  <text x="232.0" y="275" font-size="12" fill="black">2024-09-14</text>
  <line x1="248.0" y1="98.81851400730832" x2="248.0" y2="129.85383678440945" stroke="black" stroke-width="1" />
  <rect x="243.2" y="104.85992691839243" width="9.6" height="23.215590742996273" fill="green" />
  <line x1="248.0" y1="250" x2="248.0" y2="255" stroke="black" stroke-width="1" />
  <text x="242.66666666666666" y="275" font-size="12" fill="black">2024-09-15</text>
  <line x1="258.66666666666663" y1="90.53593179049963" x2="258.66666666666663" y2="116.40682095006088" stroke="black" stroke-width="1" />
  <rect x="253.86666666666665" y="101.20584652862385" width="9.6" height="3.6053593179047603" fill="green" />
  <line x1="258.66666666666663" y1="250" x2="258.66666666666663" y2="255" stroke="black" stroke-width="1" />
  <text x="253.33333333333331" y="275" font-size="12" fill="black">2024-09-18</text>
  <line x1="269.3333333333333" y1="50.0" x2="269.3333333333333" y2="96.67478684531079" stroke="black" stroke-width="1" />
  <rect x="264.53333333333336" y="57.89281364190015" width="9.6" height="24.75030450669934" fill="red" />
  <line x1="269.3333333333333" y1="250" x2="269.3333333333333" y2="255" stroke="black" stroke-width="1" />
  <text x="264.0" y="275" font-size="12" fill="black">2024-09-19</text>
  <line x1="279.99999999999994" y1="78.35566382460439" x2="279.99999999999994" y2="105.73690621193663" stroke="black" stroke-width="1" />
  <rect x="275.2" y="83.37393422655308" width="9.6" height="20.41412911084042" fill="red" />
  <line x1="279.99999999999994" y1="250" x2="279.99999999999994" y2="255" stroke="black" stroke-width="1" />
  <text x="274.66666666666663" y="275" font-size="12" fill="black">2024-09-20</text>
  <line x1="290.66666666666663" y1="51.705237515225434" x2="290.66666666666663" y2="74.11693057247282" stroke="black" stroke-width="1" />
  <rect x="285.8666666666667" y="53.04506699147382" width="9.6" height="12.350791717417902" fill="red" />
  <line x1="290.66666666666663" y1="250" x2="290.66666666666663" y2="255" stroke="black" stroke-width="1" />
  <text x="285.3333333333333" y="275" font-size="12" fill="black">2024-09-21</text>
  <line x1="301.3333333333333" y1="62.7161997563947" x2="301.3333333333333" y2="87.17417783191226" stroke="black" stroke-width="1" />
  <rect x="296.53333333333336" y="72.55785627283797" width="9.6" height="9.500609013398513" fill="red" />
  <line x1="301.3333333333333" y1="250" x2="301.3333333333333" y2="255" stroke="black" stroke-width="1" />
  <text x="296.0" y="275" font-size="12" fill="black">2024-09-22</text>
  <line x1="311.99999999999994" y1="76.26065773447036" x2="311.99999999999994" y2="105.83970767356902" stroke="black" stroke-width="1" />
  <rect x="307.2" y="86.88185140073105" width="9.6" height="3.7515225334956472" fill="red" />
  <line x1="311.99999999999994" y1="250" x2="311.99999999999994" y2="255" stroke="black" stroke-width="1" />
  <text x="306.66666666666663" y="275" font-size="12" fill="black">2024-09-25</text>
  <line x1="322.66666666666663" y1="91.41291108404383" x2="322.66666666666663" y2="126.73568818514005" stroke="black" stroke-width="1" />
  <rect x="317.8666666666667" y="93.11814859926929" width="9.6" height="18.66017052375144" fill="red" />
  <line x1="322.66666666666663" y1="250" x2="322.66666666666663" y2="255" stroke="black" stroke-width="1" />
  <text x="317.3333333333333" y="275" font-size="12" fill="black">2024-09-26</text>
  <line x1="333.3333333333333" y1="92.53836784409253" x2="333.3333333333333" y2="114.7015834348357" stroke="black" stroke-width="1" />
  <rect x="328.53333333333336" y="97.45432399512794" width="9.6" height="11.108404384896609" fill="green" />
  <line x1="333.3333333333333" y1="250" x2="333.3333333333333" y2="255" stroke="black" stroke-width="1" />
  <text x="328.0" y="275" font-size="12" fill="black">2024-09-27</text>
  <line x1="343.99999999999994" y1="81.91230207064561" x2="343.99999999999994" y2="111.97320341047515" stroke="black" stroke-width="1" />
  <rect x="339.2" y="82.95980511571275" width="9.6" height="18.392204628501712" fill="red" />
  <line x1="343.99999999999994" y1="250" x2="343.99999999999994" y2="255" stroke="black" stroke-width="1" />
  <text x="338.66666666666663" y="275" font-size="12" fill="black">2024-09-28</text>
  <line x1="354.66666666666663" y1="98.72107186358099" x2="354.66666666666663" y2="120.06090133982943" stroke="black" stroke-width="1" />
  <rect x="349.8666666666667" y="100.32886723507937" width="9.6" height="17.052375152253344" fill="red" />
  <line x1="354.66666666666663" y1="250" x2="354.66666666666663" y2="255" stroke="black" stroke-width="1" />
  <text x="349.3333333333333" y="275" font-size="12" fill="black">2024-09-29</text>
</svg>