<svg width="400" height="300" xmlns="http://www.w3.org/2000/svg">
  <line x1="40" y1="250" x2="360" y2="250" stroke="black" stroke-width="2" />
  <line x1="45.333333333333336" y1="107.22846441947564" x2="45.333333333333336" y2="124.60674157303376" stroke="black" stroke-width="1" />
  <rect x="40.53333333333333" y="107.52808988764048" width="9.6" height="11.235955056179774" fill="green" />
  <line x1="45.333333333333336" y1="250" x2="45.333333333333336" y2="255" stroke="black" stroke-width="1" />
  <text x="40.0" y="275" font-size="12" fill="black">2024-08-21</text>
  <line x1="56.0" y1="104.23220973782776" x2="56.0" y2="118.46441947565543" stroke="black" stroke-width="1" />
  <rect x="51.199999999999996" y="107.22846441947564" width="9.6" height="9.887640449438257" fill="red" />
  <line x1="56.0" y1="250" x2="56.0" y2="255" stroke="black" stroke-width="1" />
  <text x="50.666666666666664" y="275" font-size="12" fill="black">2024-08-22</text>
  <line x1="66.66666666666666" y1="115.01872659176033" x2="66.66666666666666" y2="122.35955056179772" stroke="black" stroke-width="1" />
  <rect x="61.86666666666666" y="115.01872659176033" width="9.6" height="3.745318352059925" fill="green" />
  <line x1="66.66666666666666" y1="250" x2="66.66666666666666" y2="255" stroke="black" stroke-width="1" />
  <text x="61.33333333333333" y="275" font-size="12" fill="black">2024-08-23</text>
  <line x1="77.33333333333333" y1="113.52059925093636" x2="77.33333333333333" y2="121.01123595505621" stroke="black" stroke-width="1" />
  <rect x="72.53333333333333" y="116.81647940074907" width="9.6" height="1" fill="red" />
  <line x1="77.33333333333333" y1="250" x2="77.33333333333333" y2="255" stroke="black" stroke-width="1" />
  <text x="72.0" y="275" font-size="12" fill="black">2024-08-24</text>
  <line x1="87.99999999999999" y1="106.62921348314606" x2="87.99999999999999" y2="116.51685393258421" stroke="black" stroke-width="1" />
  <rect x="83.19999999999999" y="109.02621722846436" width="9.6" height="7.49063670411985" fill="green" />
  <line x1="87.99999999999999" y1="250" x2="87.99999999999999" y2="255" stroke="black" stroke-width="1" />
  <text x="82.66666666666666" y="275" font-size="12" fill="black">2024-08-25</text>
  <line x1="98.66666666666666" y1="101.83520599250937" x2="98.66666666666666" y2="110.52434456928836" stroke="black" stroke-width="1" />
  <rect x="93.86666666666666" y="109.02621722846436" width="9.6" height="1.4981273408239912" fill="red" />
  <line x1="98.66666666666666" y1="250" x2="98.66666666666666" y2="255" stroke="black" stroke-width="1" />
  <text x="93.33333333333333" y="275" font-size="12" fill="black">2024-08-28</text>
  <line x1="109.33333333333333" y1="80.56179775280896" x2="109.33333333333333" y2="102.1348314606742" stroke="black" stroke-width="1" />
  <rect x="104.53333333333333" y="90.44943820224722" width="9.6" height="7.191011235955009" fill="green" />
  <line x1="109.33333333333333" y1="250" x2="109.33333333333333" y2="255" stroke="black" stroke-width="1" />
  <text x="104.0" y="275" font-size="12" fill="black">2024-08-29</text>
  <line x1="119.99999999999999" y1="84.45692883895137" x2="119.99999999999999" y2="99.73782771535579" stroke="black" stroke-width="1" />
  <rect x="115.19999999999999" y="88.65168539325839" width="9.6" height="1.4981273408239912" fill="green" />
  <line x1="119.99999999999999" y1="250" x2="119.99999999999999" y2="255" stroke="black" stroke-width="1" />
  <text x="114.66666666666666" y="275" font-size="12" fill="black">2024-08-30</text>
  <line x1="130.66666666666666" y1="58.98876404494382" x2="130.66666666666666" y2="73.67041198501869" stroke="black" stroke-width="1" />
  <rect x="125.86666666666666" y="58.98876404494382" width="9.6" height="1" fill="green" />
  <line x1="130.66666666666666" y1="250" x2="130.66666666666666" y2="255" stroke="black" stroke-width="1" />
  <text x="125.33333333333333" y="275" font-size="12" fill="black">2024-08-31</text>
  <line x1="141.33333333333334" y1="50.0" x2="141.33333333333334" y2="82.65917602996254" stroke="black" stroke-width="1" />
  <rect x="136.53333333333333" y="57.1910112359551" width="9.6" height="22.47191011235955" fill="red" />
  <line x1="141.33333333333334" y1="250" x2="141.33333333333334" y2="255" stroke="black" stroke-width="1" />
  <text x="136.0" y="275" font-size="12" fill="black">2024-09-01</text>
  <line x1="152.0" y1="79.06367041198496" x2="152.0" y2="92.24719101123594" stroke="black" stroke-width="1" />
  <rect x="147.2" y="81.46067415730337" width="9.6" height="8.98876404494384" fill="red" />
  <line x1="152.0" y1="250" x2="152.0" y2="255" stroke="black" stroke-width="1" />
  <text x="146.66666666666666" y="275" font-size="12" fill="black">2024-09-04</text>
  <line x1="162.66666666666666" y1="87.45318352059923" x2="162.66666666666666" y2="107.22846441947564" stroke="black" stroke-width="1" />
  <rect x="157.86666666666665" y="90.44943820224722" width="9.6" height="16.779026217228424" fill="red" />
  <line x1="162.66666666666666" y1="250" x2="162.66666666666666" y2="255" stroke="black" stroke-width="1" />
  <text x="157.33333333333331" y="275" font-size="12" fill="black">2024-09-05</text>
  <line x1="173.33333333333334" y1="114.7191011235955" x2="173.33333333333334" y2="140.48689138576776" stroke="black" stroke-width="1" />
  <rect x="168.53333333333333" y="117.86516853932585" width="9.6" height="22.02247191011234" fill="red" />
  <line x1="173.33333333333334" y1="250" x2="173.33333333333334" y2="255" stroke="black" stroke-width="1" />
  <text x="168.0" y="275" font-size="12" fill="black">2024-09-06</text>
  <line x1="184.0" y1="124.00749063670408" x2="184.0" y2="140.18726591760304" stroke="black" stroke-width="1" />
  <rect x="179.2" y="137.9400749063671" width="9.6" height="2.2471910112359335" fill="red" />
  <line x1="184.0" y1="250" x2="184.0" y2="255" stroke="black" stroke-width="1" />
  <text x="178.66666666666666" y="275" font-size="12" fill="black">2024-09-07</text>
  <line x1="194.66666666666666" y1="141.08614232209732" x2="194.66666666666666" y2="167.60299625468167" stroke="black" stroke-width="1" />
  <rect x="189.86666666666665" y="141.08614232209732" width="9.6" height="25.16853932584269" fill="red" />
  <line x1="194.66666666666666" y1="250" x2="194.66666666666666" y2="255" stroke="black" stroke-width="1" />
  <text x="189.33333333333331" y="275" font-size="12" fill="black">2024-09-08</text>
  <line x1="205.33333333333334" y1="155.46816479400746" x2="205.33333333333334" y2="172.54681647940072" stroke="black" stroke-width="1" />
  <rect x="200.53333333333333" y="162.95880149812731" width="9.6" height="9.588014981273416" fill="red" />
  <line x1="205.33333333333334" y1="250" x2="205.33333333333334" y2="255" stroke="black" stroke-width="1" />
  <text x="200.0" y="275" font-size="12" fill="black">2024-09-11</text>
  <line x1="216.0" y1="166.85393258426973" x2="216.0" y2="181.53558052434457" stroke="black" stroke-width="1" />
  <rect x="211.2" y="171.64794007490642" width="9.6" height="9.88764044943815" fill="red" />
  <line x1="216.0" y1="250" x2="216.0" y2="255" stroke="black" stroke-width="1" />
  <text x="210.66666666666666" y="275" font-size="12" fill="black">2024-09-12</text>
  <line x1="226.66666666666666" y1="173.5955056179775" x2="226.66666666666666" y2="238.01498127340824" stroke="black" stroke-width="1" />
  <rect x="221.86666666666665" y="178.9887640449438" width="9.6" height="53.333333333333364" fill="red" />
  <line x1="226.66666666666666" y1="250" x2="226.66666666666666" y2="255" stroke="black" stroke-width="1" />
  <text x="221.33333333333331" y="275" font-size="12" fill="black">2024-09-13</text>
  <line x1="237.33333333333334" y1="224.8314606741573" x2="237.33333333333334" y2="248.8014981273408" stroke="black" stroke-width="1" />
  <rect x="232.53333333333333" y="227.97752808988767" width="9.6" height="18.426966292134782" fill="red" />
  <line x1="237.33333333333334" y1="250" x2="237.33333333333334" y2="255" stroke="black" stroke-width="1" />
  <text x="232.0" y="275" font-size="12" fill="black">2024-09-14</text>
  <line x1="248.0" y1="231.2734082397004" x2="248.0" y2="250.0" stroke="black" stroke-width="1" />
  <rect x="243.2" y="233.97003745318352" width="9.6" height="12.434456928838925" fill="green" />
  <line x1="248.0" y1="250" x2="248.0" y2="255" stroke="black" stroke-width="1" />
  <text x="242.66666666666666" y="275" font-size="12" fill="black">2024-09-15</text>
  <line x1="258.66666666666663" y1="224.68164794007495" x2="258.66666666666663" y2="236.06741573033707" stroke="black" stroke-width="1" />
  <rect x="253.86666666666665" y="226.02996254681645" width="9.6" height="9.138576779026208" fill="green" />
  <line x1="258.66666666666663" y1="250" x2="258.66666666666663" y2="255" stroke="black" stroke-width="1" />
  <text x="253.33333333333331" y="275" font-size="12" fill="black">2024-09-18</text>
  <line x1="269.3333333333333" y1="218.689138576779" x2="269.3333333333333" y2="226.3295880149813" stroke="black" stroke-width="1" />
  <rect x="264.53333333333336" y="226.02996254681645" width="9.6" height="1" fill="red" />
  <line x1="269.3333333333333" y1="250" x2="269.3333333333333" y2="255" stroke="black" stroke-width="1" />
  <text x="264.0" y="275" font-size="12" fill="black">2024-09-19</text>
  <line x1="279.99999999999994" y1="218.38951310861424" x2="279.99999999999994" y2="228.42696629213486" stroke="black" stroke-width="1" />
  <rect x="275.2" y="224.08239700374537" width="9.6" height="1" fill="red" />
  <line x1="279.99999999999994" y1="250" x2="279.99999999999994" y2="255" stroke="black" stroke-width="1" />
  <text x="274.66666666666663" y="275" font-size="12" fill="black">2024-09-20</text>
  <line x1="290.66666666666663" y1="210.14981273408233" x2="290.66666666666663" y2="220.48689138576782" stroke="black" stroke-width="1" />
  <rect x="285.8666666666667" y="210.14981273408233" width="9.6" height="9.438202247191048" fill="green" />
  <line x1="290.66666666666663" y1="250" x2="290.66666666666663" y2="255" stroke="black" stroke-width="1" />
  <text x="285.3333333333333" y="275" font-size="12" fill="black">2024-09-21</text>
  <line x1="301.3333333333333" y1="205.80524344569284" x2="301.3333333333333" y2="215.84269662921346" stroke="black" stroke-width="1" />
  <rect x="296.53333333333336" y="209.99999999999997" width="9.6" height="2.397003745318407" fill="red" />
  <line x1="301.3333333333333" y1="250" x2="301.3333333333333" y2="255" stroke="black" stroke-width="1" />
  <text x="296.0" y="275" font-size="12" fill="black">2024-09-22</text>
  <line x1="311.99999999999994" y1="208.0524344569289" x2="311.99999999999994" y2="233.82022471910116" stroke="black" stroke-width="1" />
  <rect x="307.2" y="209.4007490636704" width="9.6" height="11.535580524344615" fill="red" />
  <line x1="311.99999999999994" y1="250" x2="311.99999999999994" y2="255" stroke="black" stroke-width="1" />
  <text x="306.66666666666663" y="275" font-size="12" fill="black">2024-09-25</text>
  <line x1="322.66666666666663" y1="205.20599250936328" x2="322.66666666666663" y2="216.2921348314607" stroke="black" stroke-width="1" />
  <rect x="317.8666666666667" y="212.2471910112359" width="9.6" height="3.745318352059925" fill="green" />
  <line x1="322.66666666666663" y1="250" x2="322.66666666666663" y2="255" stroke="black" stroke-width="1" />
  <text x="317.3333333333333" y="275" font-size="12" fill="black">2024-09-26</text>
  <line x1="333.3333333333333" y1="211.04868913857678" x2="333.3333333333333" y2="223.9325842696629" stroke="black" stroke-width="1" />
  <rect x="328.53333333333336" y="211.3483146067416" width="9.6" height="8.689138576779" fill="red" />
  <line x1="333.3333333333333" y1="250" x2="333.3333333333333" y2="255" stroke="black" stroke-width="1" />
  <text x="328.0" y="275" font-size="12" fill="black">2024-09-27</text>
  <line x1="343.99999999999994" y1="212.3970037453184" x2="343.99999999999994" y2="231.42322097378275" stroke="black" stroke-width="1" />
  <rect x="339.2" y="214.49438202247194" width="9.6" height="4.494382022471867" fill="green" />
  <line x1="343.99999999999994" y1="250" x2="343.99999999999994" y2="255" stroke="black" stroke-width="1" />
  <text x="338.66666666666663" y="275" font-size="12" fill="black">2024-09-28</text>
  <line x1="354.66666666666663" y1="196.8164794007491" x2="354.66666666666663" y2="212.09737827715355" stroke="black" stroke-width="1" />
  <rect x="349.8666666666667" y="198.16479400749063" width="9.6" height="13.932584269662916" fill="green" />
  <line x1="354.66666666666663" y1="250" x2="354.66666666666663" y2="255" stroke="black" stroke-width="1" />
  <text x="349.3333333333333" y="275" font-size="12" fill="black">2024-09-29</text>
</svg>