<svg width="400" height="300" xmlns="http://www.w3.org/2000/svg">
  <line x1="40" y1="250" x2="360" y2="250" stroke="black" stroke-width="2" />
  <line x1="45.333333333333336" y1="189.714551659944" x2="45.333333333333336" y2="235.8516909711447" stroke="black" stroke-width="1" />
  <rect x="40.53333333333333" y="208.827179646292" width="9.6" height="14.396524976730058" fill="green" />
  <line x1="45.333333333333336" y1="250" x2="45.333333333333336" y2="255" stroke="black" stroke-width="1" />
  <text x="40.0" y="275" font-size="12" fill="black">2024-08-18</text>
  <line x1="56.0" y1="163.00031026993466" x2="56.0" y2="212.4263108904747" stroke="black" stroke-width="1" />
  <rect x="51.199999999999996" y="163.9621470679491" width="9.6" height="44.86503257834289" fill="green" />
  <line x1="56.0" y1="250" x2="56.0" y2="255" stroke="black" stroke-width="1" />
  <text x="50.666666666666664" y="275" font-size="12" fill="black">2024-08-21</text>
  <line x1="66.66666666666666" y1="93.22060192367343" x2="66.66666666666666" y2="164.84641638225247" stroke="black" stroke-width="1" />
  <rect x="61.86666666666666" y="132.90412659013344" width="9.6" height="30.034129692832593" fill="green" />
  <line x1="66.66666666666666" y1="250" x2="66.66666666666666" y2="255" stroke="black" stroke-width="1" />
  <text x="61.33333333333333" y="275" font-size="12" fill="black">2024-08-22</text>
  <line x1="77.33333333333333" y1="125.27148619298782" x2="77.33333333333333" y2="155.11945392491458" stroke="black" stroke-width="1" />
  <rect x="72.53333333333333" y="137.30995966490838" width="9.6" height="1" fill="green" />
  <line x1="77.33333333333333" y1="250" x2="77.33333333333333" y2="255" stroke="black" stroke-width="1" />
  <text x="72.0" y="275" font-size="12" fill="black">2024-08-23</text>
  <line x1="87.99999999999999" y1="123.72013651877126" x2="87.99999999999999" y2="171.06732857586087" stroke="black" stroke-width="1" />
  <rect x="83.19999999999999" y="156.29847967731916" width="9.6" height="6.329506670803482" fill="red" />
  <line x1="87.99999999999999" y1="250" x2="87.99999999999999" y2="255" stroke="black" stroke-width="1" />
  <text x="82.66666666666666" y="275" font-size="12" fill="black">2024-08-24</text>
  <line x1="98.66666666666666" y1="140.56779398076304" x2="98.66666666666666" y2="194.67887061743707" stroke="black" stroke-width="1" />
  <rect x="93.86666666666666" y="146.58703071672346" width="9.6" height="22.95997517840513" fill="red" />
  <line x1="98.66666666666666" y1="250" x2="98.66666666666666" y2="255" stroke="black" stroke-width="1" />
  <text x="93.33333333333333" y="275" font-size="12" fill="black">2024-08-25</text>
  <line x1="109.33333333333333" y1="157.57058641017665" x2="109.33333333333333" y2="185.3471920570895" stroke="black" stroke-width="1" />
  <rect x="104.53333333333333" y="164.24139000930785" width="9.6" height="3.661185231151297" fill="green" />
  <line x1="109.33333333333333" y1="250" x2="109.33333333333333" y2="255" stroke="black" stroke-width="1" />
  <text x="104.0" y="275" font-size="12" fill="black">2024-08-28</text>
  <line x1="119.99999999999999" y1="103.89388768228358" x2="119.99999999999999" y2="168.9574930189265" stroke="black" stroke-width="1" />
  <rect x="115.19999999999999" y="141.6537387527147" width="9.6" height="22.30840831523441" fill="green" />
  <line x1="119.99999999999999" y1="250" x2="119.99999999999999" y2="255" stroke="black" stroke-width="1" />
  <text x="114.66666666666666" y="275" font-size="12" fill="black">2024-08-29</text>
  <line x1="130.66666666666666" y1="138.7061743717034" x2="130.66666666666666" y2="199.4260006205397" stroke="black" stroke-width="1" />
  <rect x="125.86666666666666" y="141.312441824387" width="9.6" height="37.20136518771332" fill="red" />
  <line x1="130.66666666666666" y1="250" x2="130.66666666666666" y2="255" stroke="black" stroke-width="1" />
  <text x="125.33333333333333" y="275" font-size="12" fill="black">2024-08-30</text>
  <line x1="141.33333333333334" y1="128.99472541110774" x2="141.33333333333334" y2="171.59478746509438" stroke="black" stroke-width="1" />
  <rect x="136.53333333333333" y="151.7064846416381" width="9.6" height="7.694694384114231" fill="green" />
  <line x1="141.33333333333334" y1="250" x2="141.33333333333334" y2="255" stroke="black" stroke-width="1" />
  <text x="136.0" y="275" font-size="12" fill="black">2024-08-31</text>
  <line x1="152.0" y1="122.60316475333529" x2="152.0" y2="165.11014582686937" stroke="black" stroke-width="1" />
  <rect x="147.2" y="124.18554142103616" width="9.6" height="3.071672354948832" fill="green" />
  <line x1="152.0" y1="250" x2="152.0" y2="255" stroke="black" stroke-width="1" />
  <text x="146.66666666666666" y="275" font-size="12" fill="black">2024-09-01</text>
  <line x1="162.66666666666666" y1="116.39776605646901" x2="162.66666666666666" y2="218.3214396524976" stroke="black" stroke-width="1" />
  <rect x="157.86666666666665" y="128.06391560657758" width="9.6" height="76.884889854173" fill="red" />
  <line x1="162.66666666666666" y1="250" x2="162.66666666666666" y2="255" stroke="black" stroke-width="1" />
  <text x="157.33333333333331" y="275" font-size="12" fill="black">2024-09-05</text>
  <line x1="173.33333333333334" y1="176.00062053986966" x2="173.33333333333334" y2="211.9609059882098" stroke="black" stroke-width="1" />
  <rect x="168.53333333333333" y="191.42103630158243" width="9.6" height="19.764194849519086" fill="green" />
  <line x1="173.33333333333334" y1="250" x2="173.33333333333334" y2="255" stroke="black" stroke-width="1" />
  <text x="168.0" y="275" font-size="12" fill="black">2024-09-06</text>
  <line x1="184.0" y1="167.74744027303763" x2="184.0" y2="215.68414520632933" stroke="black" stroke-width="1" />
  <rect x="179.2" y="179.1964008687557" width="9.6" height="32.51628917157931" fill="green" />
  <line x1="184.0" y1="250" x2="184.0" y2="255" stroke="black" stroke-width="1" />
  <text x="178.66666666666666" y="275" font-size="12" fill="black">2024-09-07</text>
  <line x1="194.66666666666666" y1="180.64908470369215" x2="194.66666666666666" y2="245.22184300341274" stroke="black" stroke-width="1" />
  <rect x="189.86666666666665" y="184.657151721998" width="9.6" height="49.92243251628924" fill="red" />
  <line x1="194.66666666666666" y1="250" x2="194.66666666666666" y2="255" stroke="black" stroke-width="1" />
  <text x="189.33333333333331" y="275" font-size="12" fill="black">2024-09-08</text>
  <line x1="205.33333333333334" y1="179.56872479056767" x2="205.33333333333334" y2="214.81538938876815" stroke="black" stroke-width="1" />
  <rect x="200.53333333333333" y="204.63853552590754" width="9.6" height="4.405833074774925" fill="green" />
  <line x1="205.33333333333334" y1="250" x2="205.33333333333334" y2="255" stroke="black" stroke-width="1" />
  <text x="200.0" y="275" font-size="12" fill="black">2024-09-11</text>
  <line x1="216.0" y1="188.59789016444313" x2="216.0" y2="234.47098976109217" stroke="black" stroke-width="1" />
  <rect x="211.2" y="200.13962147067937" width="9.6" height="10.08377288240769" fill="red" />
  <line x1="216.0" y1="250" x2="216.0" y2="255" stroke="black" stroke-width="1" />
  <text x="210.66666666666666" y="275" font-size="12" fill="black">2024-09-12</text>
  <line x1="226.66666666666666" y1="181.21315544523716" x2="226.66666666666666" y2="250.0" stroke="black" stroke-width="1" />
  <rect x="221.86666666666665" y="185.8672044678869" width="9.6" height="12.441824387216844" fill="green" />
  <line x1="226.66666666666666" y1="250" x2="226.66666666666666" y2="255" stroke="black" stroke-width="1" />
  <text x="221.33333333333331" y="275" font-size="12" fill="black">2024-09-13</text>
  <line x1="237.33333333333334" y1="144.2600062053986" x2="237.33333333333334" y2="183.60223394353062" stroke="black" stroke-width="1" />
  <rect x="232.53333333333333" y="169.32981694073848" width="9.6" height="5.83307477505428" fill="green" />
  <line x1="237.33333333333334" y1="250" x2="237.33333333333334" y2="255" stroke="black" stroke-width="1" />
  <text x="232.0" y="275" font-size="12" fill="black">2024-09-14</text>
  <line x1="248.0" y1="129.49115730685693" x2="248.0" y2="190.42817251008367" stroke="black" stroke-width="1" />
  <rect x="243.2" y="137.49612162581457" width="9.6" height="52.90102389078481" fill="green" />
  <line x1="248.0" y1="250" x2="248.0" y2="255" stroke="black" stroke-width="1" />
  <text x="242.66666666666666" y="275" font-size="12" fill="black">2024-09-15</text>
  <line x1="258.66666666666663" y1="119.00403350915295" x2="258.66666666666663" y2="163.64691281414807" stroke="black" stroke-width="1" />
  <rect x="253.86666666666665" y="128.37418554142096" width="9.6" height="10.859447719515973" fill="red" />
  <line x1="258.66666666666663" y1="250" x2="258.66666666666663" y2="255" stroke="black" stroke-width="1" />
  <text x="253.33333333333331" y="275" font-size="12" fill="black">2024-09-18</text>
  <line x1="269.3333333333333" y1="104.70058951287615" x2="269.3333333333333" y2="133.43158547936696" stroke="black" stroke-width="1" />
  <rect x="264.53333333333336" y="106.9345330437481" width="9.6" height="18.89543903195754" fill="green" />
  <line x1="269.3333333333333" y1="250" x2="269.3333333333333" y2="255" stroke="black" stroke-width="1" />
  <text x="264.0" y="275" font-size="12" fill="black">2024-09-19</text>
  <line x1="279.99999999999994" y1="104.94880546075095" x2="279.99999999999994" y2="165.60657772261857" stroke="black" stroke-width="1" />
  <rect x="275.2" y="104.94880546075095" width="9.6" height="52.994104871237724" fill="red" />
  <line x1="279.99999999999994" y1="250" x2="279.99999999999994" y2="255" stroke="black" stroke-width="1" />
  <text x="274.66666666666663" y="275" font-size="12" fill="black">2024-09-20</text>
  <line x1="290.66666666666663" y1="79.78591374495818" x2="290.66666666666663" y2="142.73968352466636" stroke="black" stroke-width="1" />
  <rect x="285.8666666666667" y="112.86068879925529" width="9.6" height="2.1098355569343767" fill="red" />
  <line x1="290.66666666666663" y1="250" x2="290.66666666666663" y2="255" stroke="black" stroke-width="1" />
  <text x="285.3333333333333" y="275" font-size="12" fill="black">2024-09-21</text>
  <line x1="301.3333333333333" y1="107.66925224945712" x2="301.3333333333333" y2="139.82314613713942" stroke="black" stroke-width="1" />
  <rect x="296.53333333333336" y="111.15420415761722" width="9.6" height="14.024201054917715" fill="red" />
  <line x1="301.3333333333333" y1="250" x2="301.3333333333333" y2="255" stroke="black" stroke-width="1" />
  <text x="296.0" y="275" font-size="12" fill="black">2024-09-22</text>
  <line x1="311.99999999999994" y1="90.36642879304983" x2="311.99999999999994" y2="130.9804529941049" stroke="black" stroke-width="1" />
  <rect x="307.2" y="111.71269004033502" width="9.6" height="9.2460440583308" fill="green" />
  <line x1="311.99999999999994" y1="250" x2="311.99999999999994" y2="255" stroke="black" stroke-width="1" />
  <text x="306.66666666666663" y="275" font-size="12" fill="black">2024-09-25</text>
  <line x1="322.66666666666663" y1="58.74961216258123" x2="322.66666666666663" y2="114.56717344089338" stroke="black" stroke-width="1" />
  <rect x="317.8666666666667" y="59.3080980452994" width="9.6" height="48.51070431275204" fill="green" />
  <line x1="322.66666666666663" y1="250" x2="322.66666666666663" y2="255" stroke="black" stroke-width="1" />
  <text x="317.3333333333333" y="275" font-size="12" fill="black">2024-09-26</text>
  <line x1="333.3333333333333" y1="50.43437790878059" x2="333.3333333333333" y2="78.07942910331974" stroke="black" stroke-width="1" />
  <rect x="328.53333333333336" y="61.47998758920275" width="9.6" height="1.7375116351223863" fill="green" />
  <line x1="333.3333333333333" y1="250" x2="333.3333333333333" y2="255" stroke="black" stroke-width="1" />
  <text x="328.0" y="275" font-size="12" fill="black">2024-09-27</text>
  <line x1="343.99999999999994" y1="50.0" x2="343.99999999999994" y2="123.03754266211588" stroke="black" stroke-width="1" />
  <rect x="339.2" y="51.64443065466946" width="9.6" height="41.26590133416091" fill="red" />
  <line x1="343.99999999999994" y1="250" x2="343.99999999999994" y2="255" stroke="black" stroke-width="1" />
  <text x="338.66666666666663" y="275" font-size="12" fill="black">2024-09-28</text>
  <line x1="354.66666666666663" y1="95.14427551970198" x2="354.66666666666663" y2="124.49301892646595" stroke="black" stroke-width="1" />
  <rect x="349.8666666666667" y="102.4356189885199" width="9.6" height="3.133726341917438" fill="red" />
  <line x1="354.66666666666663" y1="250" x2="354.66666666666663" y2="255" stroke="black" stroke-width="1" />
  <text x="349.3333333333333" y="275" font-size="12" fill="black">2024-09-29</text>
</svg>