<svg width="400" height="300" xmlns="http://www.w3.org/2000/svg">
  <line x1="40" y1="250" x2="360" y2="250" stroke="black" stroke-width="2" />
  <line x1="45.333333333333336" y1="199.86376021798384" x2="45.333333333333336" y2="236.37602179836492" stroke="black" stroke-width="1" />
  <rect x="40.53333333333333" y="199.86376021798384" width="9.6" height="33.78746594005417" fill="green" />
  <line x1="45.333333333333336" y1="250" x2="45.333333333333336" y2="255" stroke="black" stroke-width="1" />
  <text x="40.0" y="275" font-size="12" fill="black">2024-08-21</text>
  <line x1="56.0" y1="193.32425068119886" x2="56.0" y2="225.47683923705725" stroke="black" stroke-width="1" />
  <rect x="51.199999999999996" y="196.04904632152576" width="9.6" height="25.06811989100832" fill="red" />
  <line x1="56.0" y1="250" x2="56.0" y2="255" stroke="black" stroke-width="1" />
  <text x="50.666666666666664" y="275" font-size="12" fill="black">2024-08-22</text>
  <line x1="66.66666666666666" y1="195.5040871934607" x2="66.66666666666666" y2="223.29700272479545" stroke="black" stroke-width="1" />
  <rect x="61.86666666666666" y="195.5040871934607" width="9.6" height="12.534059945503918" fill="green" />
  <line x1="66.66666666666666" y1="250" x2="66.66666666666666" y2="255" stroke="black" stroke-width="1" />
  <text x="61.33333333333333" y="275" font-size="12" fill="black">2024-08-23</text>
  <line x1="77.33333333333333" y1="171.525885558583" x2="77.33333333333333" y2="204.7683923705721" stroke="black" stroke-width="1" />
  <rect x="72.53333333333333" y="172.07084468664863" width="9.6" height="23.43324250681207" fill="green" />
  <line x1="77.33333333333333" y1="250" x2="77.33333333333333" y2="255" stroke="black" stroke-width="1" />
  <text x="72.0" y="275" font-size="12" fill="black">2024-08-24</text>
  <line x1="87.99999999999999" y1="155.17711171662103" x2="87.99999999999999" y2="179.1553133514987" stroke="black" stroke-width="1" />
  <rect x="83.19999999999999" y="155.17711171662103" width="9.6" height="19.073569482288907" fill="green" />
  <line x1="87.99999999999999" y1="250" x2="87.99999999999999" y2="255" stroke="black" stroke-width="1" />
  <text x="82.66666666666666" y="275" font-size="12" fill="black">2024-08-25</text>
  <line x1="98.66666666666666" y1="111.03542234332429" x2="98.66666666666666" y2="163.35149863760228" stroke="black" stroke-width="1" />
  <rect x="93.86666666666666" y="135.01362397820145" width="9.6" height="20.163487738419576" fill="green" />
  <line x1="98.66666666666666" y1="250" x2="98.66666666666666" y2="255" stroke="black" stroke-width="1" />
  <text x="93.33333333333333" y="275" font-size="12" fill="black">2024-08-28</text>
  <line x1="109.33333333333333" y1="109.40054495912804" x2="109.33333333333333" y2="139.37329700272463" stroke="black" stroke-width="1" />
  <rect x="104.53333333333333" y="133.37874659400524" width="9.6" height="5.994550408719412" fill="red" />
  <line x1="109.33333333333333" y1="250" x2="109.33333333333333" y2="255" stroke="black" stroke-width="1" />
  <text x="104.0" y="275" font-size="12" fill="black">2024-08-29</text>
  <line x1="119.99999999999999" y1="120.29972752043571" x2="119.99999999999999" y2="168.25613079019053" stroke="black" stroke-width="1" />
  <rect x="115.19999999999999" y="129.56403269754765" width="9.6" height="8.174386920980753" fill="red" />
  <line x1="119.99999999999999" y1="250" x2="119.99999999999999" y2="255" stroke="black" stroke-width="1" />
  <text x="114.66666666666666" y="275" font-size="12" fill="black">2024-08-30</text>
  <line x1="130.66666666666666" y1="133.37874659400524" x2="130.66666666666666" y2="174.79564032697553" stroke="black" stroke-width="1" />
  <rect x="125.86666666666666" y="141.55313351498646" width="9.6" height="27.24795640326966" fill="red" />
  <line x1="130.66666666666666" y1="250" x2="130.66666666666666" y2="255" stroke="black" stroke-width="1" />
  <text x="125.33333333333333" y="275" font-size="12" fill="black">2024-08-31</text>
  <line x1="141.33333333333334" y1="129.56403269754765" x2="141.33333333333334" y2="167.16621253405987" stroke="black" stroke-width="1" />
  <rect x="136.53333333333333" y="148.63760217983653" width="9.6" height="15.803814713896413" fill="green" />
  <line x1="141.33333333333334" y1="250" x2="141.33333333333334" y2="255" stroke="black" stroke-width="1" />
  <text x="136.0" y="275" font-size="12" fill="black">2024-09-01</text>
  <line x1="152.0" y1="96.32152588555854" x2="152.0" y2="159.5367847411442" stroke="black" stroke-width="1" />
  <rect x="147.2" y="107.7656675749318" width="9.6" height="36.51226158038157" fill="green" />
  <line x1="152.0" y1="250" x2="152.0" y2="255" stroke="black" stroke-width="1" />
  <text x="146.66666666666666" y="275" font-size="12" fill="black">2024-09-04</text>
  <line x1="162.66666666666666" y1="83.24250681198907" x2="162.66666666666666" y2="139.9182561307902" stroke="black" stroke-width="1" />
  <rect x="157.86666666666665" y="104.49591280653931" width="9.6" height="17.43869209809266" fill="red" />
  <line x1="162.66666666666666" y1="250" x2="162.66666666666666" y2="255" stroke="black" stroke-width="1" />
  <text x="157.33333333333331" y="275" font-size="12" fill="black">2024-09-05</text>
  <line x1="173.33333333333334" y1="140.46321525885577" x2="173.33333333333334" y2="168.25613079019053" stroke="black" stroke-width="1" />
  <rect x="168.53333333333333" y="148.09264305177095" width="9.6" height="9.264305177111908" fill="red" />
  <line x1="173.33333333333334" y1="250" x2="173.33333333333334" y2="255" stroke="black" stroke-width="1" />
  <text x="168.0" y="275" font-size="12" fill="black">2024-09-06</text>
  <line x1="184.0" y1="151.36239782016344" x2="184.0" y2="198.7738419618527" stroke="black" stroke-width="1" />
  <rect x="179.2" y="157.35694822888286" width="9.6" height="5.994550408719412" fill="red" />
  <line x1="184.0" y1="250" x2="184.0" y2="255" stroke="black" stroke-width="1" />
  <text x="178.66666666666666" y="275" font-size="12" fill="black">2024-09-07</text>
  <line x1="194.66666666666666" y1="152.45231607629412" x2="194.66666666666666" y2="206.94822888283392" stroke="black" stroke-width="1" />
  <rect x="189.86666666666665" y="155.17711171662103" width="9.6" height="46.321525885558565" fill="red" />
  <line x1="194.66666666666666" y1="250" x2="194.66666666666666" y2="255" stroke="black" stroke-width="1" />
  <text x="189.33333333333331" y="275" font-size="12" fill="black">2024-09-08</text>
  <line x1="205.33333333333334" y1="168.25613079019053" x2="205.33333333333334" y2="198.7738419618527" stroke="black" stroke-width="1" />
  <rect x="200.53333333333333" y="170.43596730245235" width="9.6" height="28.33787465940033" fill="green" />
  <line x1="205.33333333333334" y1="250" x2="205.33333333333334" y2="255" stroke="black" stroke-width="1" />
  <text x="200.0" y="275" font-size="12" fill="black">2024-09-11</text>
  <line x1="216.0" y1="155.17711171662103" x2="216.0" y2="228.20163487738418" stroke="black" stroke-width="1" />
  <rect x="211.2" y="170.43596730245235" width="9.6" height="30.517711171662153" fill="red" />
  <line x1="216.0" y1="250" x2="216.0" y2="255" stroke="black" stroke-width="1" />
  <text x="210.66666666666666" y="275" font-size="12" fill="black">2024-09-12</text>
  <line x1="226.66666666666666" y1="186.23978201634878" x2="226.66666666666666" y2="224.9318801089917" stroke="black" stroke-width="1" />
  <rect x="221.86666666666665" y="200.95367847411453" width="9.6" height="20.163487738419576" fill="red" />
  <line x1="226.66666666666666" y1="250" x2="226.66666666666666" y2="255" stroke="black" stroke-width="1" />
  <text x="221.33333333333331" y="275" font-size="12" fill="black">2024-09-13</text>
  <line x1="237.33333333333334" y1="184.05994550408695" x2="237.33333333333334" y2="250.0" stroke="black" stroke-width="1" />
  <rect x="232.53333333333333" y="214.5776566757491" width="9.6" height="28.882833787465906" fill="red" />
  <line x1="237.33333333333334" y1="250" x2="237.33333333333334" y2="255" stroke="black" stroke-width="1" />
  <text x="232.0" y="275" font-size="12" fill="black">2024-09-14</text>
  <line x1="248.0" y1="186.78474114441434" x2="248.0" y2="236.9209809264305" stroke="black" stroke-width="1" />
  <rect x="243.2" y="201.4986376021796" width="9.6" height="35.422343324250896" fill="green" />
  <line x1="248.0" y1="250" x2="248.0" y2="255" stroke="black" stroke-width="1" />
  <text x="242.66666666666666" y="275" font-size="12" fill="black">2024-09-15</text>
  <line x1="258.66666666666663" y1="194.41416893732952" x2="258.66666666666663" y2="221.66212534059966" stroke="black" stroke-width="1" />
  <rect x="253.86666666666665" y="201.4986376021796" width="9.6" height="18.528610354223815" fill="red" />
  <line x1="258.66666666666663" y1="250" x2="258.66666666666663" y2="255" stroke="black" stroke-width="1" />
  <text x="253.33333333333331" y="275" font-size="12" fill="black">2024-09-18</text>
  <line x1="269.3333333333333" y1="185.1498637602181" x2="269.3333333333333" y2="221.66212534059966" stroke="black" stroke-width="1" />
  <rect x="264.53333333333336" y="191.14441416893752" width="9.6" height="25.613079019073414" fill="green" />
  <line x1="269.3333333333333" y1="250" x2="269.3333333333333" y2="255" stroke="black" stroke-width="1" />
  <text x="264.0" y="275" font-size="12" fill="black">2024-09-19</text>
  <line x1="279.99999999999994" y1="141.55313351498646" x2="279.99999999999994" y2="189.50953678474127" stroke="black" stroke-width="1" />
  <rect x="275.2" y="141.55313351498646" width="9.6" height="16.893732970027084" fill="red" />
  <line x1="279.99999999999994" y1="250" x2="279.99999999999994" y2="255" stroke="black" stroke-width="1" />
  <text x="274.66666666666663" y="275" font-size="12" fill="black">2024-09-20</text>
  <line x1="290.66666666666663" y1="96.32152588555854" x2="290.66666666666663" y2="150.81743869209788" stroke="black" stroke-width="1" />
  <rect x="285.8666666666667" y="127.38419618528629" width="9.6" height="23.433242506811588" fill="green" />
  <line x1="290.66666666666663" y1="250" x2="290.66666666666663" y2="255" stroke="black" stroke-width="1" />
  <text x="285.3333333333333" y="275" font-size="12" fill="black">2024-09-21</text>
  <line x1="301.3333333333333" y1="127.38419618528629" x2="301.3333333333333" y2="172.07084468664863" stroke="black" stroke-width="1" />
  <rect x="296.53333333333336" y="127.92915531335139" width="9.6" height="33.78746594005465" fill="red" />
  <line x1="301.3333333333333" y1="250" x2="301.3333333333333" y2="255" stroke="black" stroke-width="1" />
  <text x="296.0" y="275" font-size="12" fill="black">2024-09-22</text>
  <line x1="311.99999999999994" y1="151.36239782016344" x2="311.99999999999994" y2="179.70027247956378" stroke="black" stroke-width="1" />
  <rect x="307.2" y="160.62670299727534" width="9.6" height="19.073569482288423" fill="red" />
  <line x1="311.99999999999994" y1="250" x2="311.99999999999994" y2="255" stroke="black" stroke-width="1" />
  <text x="306.66666666666663" y="275" font-size="12" fill="black">2024-09-25</text>
  <line x1="322.66666666666663" y1="131.19891008174386" x2="322.66666666666663" y2="162.26158038147162" stroke="black" stroke-width="1" />
  <rect x="317.8666666666667" y="138.82833787465955" width="9.6" height="23.43324250681207" fill="green" />
  <line x1="322.66666666666663" y1="250" x2="322.66666666666663" y2="255" stroke="black" stroke-width="1" />
  <text x="317.3333333333333" y="275" font-size="12" fill="black">2024-09-26</text>
  <line x1="333.3333333333333" y1="123.56948228882821" x2="333.3333333333333" y2="147.0027247956403" stroke="black" stroke-width="1" />
  <rect x="328.53333333333336" y="137.19346049046328" width="9.6" height="1.0899182561306702" fill="green" />
  <line x1="333.3333333333333" y1="250" x2="333.3333333333333" y2="255" stroke="black" stroke-width="1" />
  <text x="328.0" y="275" font-size="12" fill="black">2024-09-27</text>
  <line x1="343.99999999999994" y1="94.14168937329723" x2="343.99999999999994" y2="130.1089918256132" stroke="black" stroke-width="1" />
  <rect x="339.2" y="113.76021798365122" width="9.6" height="15.803814713896413" fill="green" />
  <line x1="343.99999999999994" y1="250" x2="343.99999999999994" y2="255" stroke="black" stroke-width="1" />
  <text x="338.66666666666663" y="275" font-size="12" fill="black">2024-09-28</text>
  <line x1="354.66666666666663" y1="50.0" x2="354.66666666666663" y2="109.40054495912804" stroke="black" stroke-width="1" />
  <rect x="349.8666666666667" y="75.06811989100831" width="9.6" height="34.33242506811974" fill="green" />
  <line x1="354.66666666666663" y1="250" x2="354.66666666666663" y2="255" stroke="black" stroke-width="1" />
  <text x="349.3333333333333" y="275" font-size="12" fill="black">2024-09-29</text>
</svg>