<svg width="400" height="300" xmlns="http://www.w3.org/2000/svg">
  <line x1="40" y1="250" x2="360" y2="250" stroke="black" stroke-width="2" />
  <line x1="45.333333333333336" y1="211.18047673098746" x2="45.333333333333336" y2="250.0" stroke="black" stroke-width="1" />
  <rect x="40.53333333333333" y="220.488081725312" width="9.6" height="27.2417707150965" fill="green" />
  <line x1="45.333333333333336" y1="250" x2="45.333333333333336" y2="255" stroke="black" stroke-width="1" />
  <text x="40.0" y="275" font-size="12" fill="black">2024-08-21</text>
  <line x1="56.0" y1="198.69466515323498" x2="56.0" y2="219.80703745743475" stroke="black" stroke-width="1" />
  <rect x="51.199999999999996" y="208.4562996594777" width="9.6" height="10.442678774120376" fill="red" />
  <line x1="56.0" y1="250" x2="56.0" y2="255" stroke="black" stroke-width="1" />
  <text x="50.666666666666664" y="275" font-size="12" fill="black">2024-08-22</text>
  <line x1="66.66666666666666" y1="215.4937570942111" x2="66.66666666666666" y2="235.6980703745742" stroke="black" stroke-width="1" />
  <rect x="61.86666666666666" y="217.082860385925" width="9.6" height="9.534619750283724" fill="red" />
  <line x1="66.66666666666666" y1="250" x2="66.66666666666666" y2="255" stroke="black" stroke-width="1" />
  <text x="61.33333333333333" y="275" font-size="12" fill="black">2024-08-23</text>
  <line x1="77.33333333333333" y1="222.9852440408625" x2="77.33333333333333" y2="242.28149829738916" stroke="black" stroke-width="1" />
  <rect x="72.53333333333333" y="225.02837684449483" width="9.6" height="3.859250851305413" fill="green" />
  <line x1="77.33333333333333" y1="250" x2="77.33333333333333" y2="255" stroke="black" stroke-width="1" />
  <text x="72.0" y="275" font-size="12" fill="black">2024-08-24</text>
  <line x1="87.99999999999999" y1="209.13734392735515" x2="87.99999999999999" y2="230.47673098751412" stroke="black" stroke-width="1" />
  <rect x="83.19999999999999" y="216.17480136208854" width="9.6" height="10.442678774120173" fill="green" />
  <line x1="87.99999999999999" y1="250" x2="87.99999999999999" y2="255" stroke="black" stroke-width="1" />
  <text x="82.66666666666666" y="275" font-size="12" fill="black">2024-08-25</text>
  <line x1="98.66666666666666" y1="212.54256526674234" x2="98.66666666666666" y2="229.34165720771847" stroke="black" stroke-width="1" />
  <rect x="93.86666666666666" y="218.67196367763887" width="9.6" height="1" fill="red" />
  <line x1="98.66666666666666" y1="250" x2="98.66666666666666" y2="255" stroke="black" stroke-width="1" />
  <text x="93.33333333333333" y="275" font-size="12" fill="black">2024-08-28</text>
  <line x1="109.33333333333333" y1="192.56526674233822" x2="109.33333333333333" y2="222.9852440408625" stroke="black" stroke-width="1" />
  <rect x="104.53333333333333" y="209.13734392735515" width="9.6" height="9.761634506242938" fill="green" />
  <line x1="109.33333333333333" y1="250" x2="109.33333333333333" y2="255" stroke="black" stroke-width="1" />
  <text x="104.0" y="275" font-size="12" fill="black">2024-08-29</text>
  <line x1="119.99999999999999" y1="193.24631101021566" x2="119.99999999999999" y2="214.35868331441543" stroke="black" stroke-width="1" />
  <rect x="115.19999999999999" y="198.69466515323498" width="9.6" height="15.43700340522125" fill="green" />
  <line x1="119.99999999999999" y1="250" x2="119.99999999999999" y2="255" stroke="black" stroke-width="1" />
  <text x="114.66666666666666" y="275" font-size="12" fill="black">2024-08-30</text>
  <line x1="130.66666666666666" y1="50.0" x2="130.66666666666666" y2="205.27809307604994" stroke="black" stroke-width="1" />
  <rect x="125.86666666666666" y="111.52099886492618" width="9.6" height="87.62769580022702" fill="green" />
  <line x1="130.66666666666666" y1="250" x2="130.66666666666666" y2="255" stroke="black" stroke-width="1" />
  <text x="125.33333333333333" y="275" font-size="12" fill="black">2024-08-31</text>
  <line x1="141.33333333333334" y1="97.90011350737802" x2="141.33333333333334" y2="134.90351872871727" stroke="black" stroke-width="1" />
  <rect x="136.53333333333333" y="112.42905788876263" width="9.6" height="7.945516458569838" fill="green" />
  <line x1="141.33333333333334" y1="250" x2="141.33333333333334" y2="255" stroke="black" stroke-width="1" />
  <text x="136.0" y="275" font-size="12" fill="black">2024-09-01</text>
  <line x1="152.0" y1="105.39160045402943" x2="152.0" y2="127.86606129398407" stroke="black" stroke-width="1" />
  <rect x="147.2" y="105.84562996594767" width="9.6" height="12.485811577752688" fill="green" />
  <line x1="152.0" y1="250" x2="152.0" y2="255" stroke="black" stroke-width="1" />
  <text x="146.66666666666666" y="275" font-size="12" fill="black">2024-09-04</text>
  <line x1="162.66666666666666" y1="93.13280363223598" x2="162.66666666666666" y2="121.05561861520991" stroke="black" stroke-width="1" />
  <rect x="157.86666666666665" y="110.1589103291713" width="9.6" height="4.086265607264425" fill="red" />
  <line x1="162.66666666666666" y1="250" x2="162.66666666666666" y2="255" stroke="black" stroke-width="1" />
  <text x="157.33333333333331" y="275" font-size="12" fill="black">2024-09-05</text>
  <line x1="173.33333333333334" y1="112.88308740068106" x2="173.33333333333334" y2="136.71963677639036" stroke="black" stroke-width="1" />
  <rect x="168.53333333333333" y="126.04994324631097" width="9.6" height="6.129398410896737" fill="green" />
  <line x1="173.33333333333334" y1="250" x2="173.33333333333334" y2="255" stroke="black" stroke-width="1" />
  <text x="168.0" y="275" font-size="12" fill="black">2024-09-06</text>
  <line x1="184.0" y1="116.96935300794547" x2="184.0" y2="138.53575482406347" stroke="black" stroke-width="1" />
  <rect x="179.2" y="133.3144154370034" width="9.6" height="1" fill="red" />
  <line x1="184.0" y1="250" x2="184.0" y2="255" stroke="black" stroke-width="1" />
  <text x="178.66666666666666" y="275" font-size="12" fill="black">2024-09-07</text>
  <line x1="194.66666666666666" y1="147.38933030646996" x2="194.66666666666666" y2="173.04199772985237" stroke="black" stroke-width="1" />
  <rect x="189.86666666666665" y="147.8433598183882" width="9.6" height="24.29057888762774" fill="red" />
  <line x1="194.66666666666666" y1="250" x2="194.66666666666666" y2="255" stroke="black" stroke-width="1" />
  <text x="189.33333333333331" y="275" font-size="12" fill="black">2024-09-08</text>
  <line x1="205.33333333333334" y1="160.10215664018145" x2="205.33333333333334" y2="175.0851305334847" stroke="black" stroke-width="1" />
  <rect x="200.53333333333333" y="166.00454029511917" width="9.6" height="6.129398410896737" fill="green" />
  <line x1="205.33333333333334" y1="250" x2="205.33333333333334" y2="255" stroke="black" stroke-width="1" />
  <text x="200.0" y="275" font-size="12" fill="black">2024-09-11</text>
  <line x1="216.0" y1="162.14528944381377" x2="216.0" y2="193.24631101021566" stroke="black" stroke-width="1" />
  <rect x="211.2" y="172.36095346197493" width="9.6" height="12.485811577752688" fill="red" />
  <line x1="216.0" y1="250" x2="216.0" y2="255" stroke="black" stroke-width="1" />
  <text x="210.66666666666666" y="275" font-size="12" fill="black">2024-09-12</text>
  <line x1="226.66666666666666" y1="185.75482406356406" x2="226.66666666666666" y2="215.7207718501701" stroke="black" stroke-width="1" />
  <rect x="221.86666666666665" y="188.2519863791146" width="9.6" height="18.842224744608437" fill="red" />
  <line x1="226.66666666666666" y1="250" x2="226.66666666666666" y2="255" stroke="black" stroke-width="1" />
  <text x="221.33333333333331" y="275" font-size="12" fill="black">2024-09-13</text>
  <line x1="237.33333333333334" y1="175.0851305334847" x2="237.33333333333334" y2="210.49943246311003" stroke="black" stroke-width="1" />
  <rect x="232.53333333333333" y="202.32690124858118" width="9.6" height="2.0431328036321115" fill="red" />
  <line x1="237.33333333333334" y1="250" x2="237.33333333333334" y2="255" stroke="black" stroke-width="1" />
  <text x="232.0" y="275" font-size="12" fill="black">2024-09-14</text>
  <line x1="248.0" y1="187.79795686719638" x2="248.0" y2="207.54824063564126" stroke="black" stroke-width="1" />
  <rect x="243.2" y="196.8785471055619" width="9.6" height="3.6322360953462" fill="red" />
  <line x1="248.0" y1="250" x2="248.0" y2="255" stroke="black" stroke-width="1" />
  <text x="242.66666666666666" y="275" font-size="12" fill="black">2024-09-15</text>
  <line x1="258.66666666666663" y1="175.53916004540292" x2="258.66666666666663" y2="209.8183881952326" stroke="black" stroke-width="1" />
  <rect x="253.86666666666665" y="194.60839954597034" width="9.6" height="15.209988649262238" fill="green" />
  <line x1="258.66666666666663" y1="250" x2="258.66666666666663" y2="255" stroke="black" stroke-width="1" />
  <text x="253.33333333333331" y="275" font-size="12" fill="black">2024-09-18</text>
  <line x1="269.3333333333333" y1="184.39273552780918" x2="269.3333333333333" y2="202.32690124858118" stroke="black" stroke-width="1" />
  <rect x="264.53333333333336" y="193.9273552780929" width="9.6" height="1" fill="green" />
  <line x1="269.3333333333333" y1="250" x2="269.3333333333333" y2="255" stroke="black" stroke-width="1" />
  <text x="264.0" y="275" font-size="12" fill="black">2024-09-19</text>
  <line x1="279.99999999999994" y1="192.11123723041982" x2="279.99999999999994" y2="211.63450624290567" stroke="black" stroke-width="1" />
  <rect x="275.2" y="193.9273552780929" width="9.6" height="8.17253121452905" fill="red" />
  <line x1="279.99999999999994" y1="250" x2="279.99999999999994" y2="255" stroke="black" stroke-width="1" />
  <text x="274.66666666666663" y="275" font-size="12" fill="black">2024-09-20</text>
  <line x1="290.66666666666663" y1="185.98183881952326" x2="290.66666666666663" y2="208.4562996594777" stroke="black" stroke-width="1" />
  <rect x="285.8666666666667" y="186.4358683314415" width="9.6" height="1.3620885357548753" fill="green" />
  <line x1="290.66666666666663" y1="250" x2="290.66666666666663" y2="255" stroke="black" stroke-width="1" />
  <text x="285.3333333333333" y="275" font-size="12" fill="black">2024-09-21</text>
  <line x1="301.3333333333333" y1="180.30646992054477" x2="301.3333333333333" y2="204.5970488081725" stroke="black" stroke-width="1" />
  <rect x="296.53333333333336" y="186.4358683314415" width="9.6" height="2.724177071509549" fill="red" />
  <line x1="301.3333333333333" y1="250" x2="301.3333333333333" y2="255" stroke="black" stroke-width="1" />
  <text x="296.0" y="275" font-size="12" fill="black">2024-09-22</text>
  <line x1="311.99999999999994" y1="163.96140749148685" x2="311.99999999999994" y2="188.02497162315538" stroke="black" stroke-width="1" />
  <rect x="307.2" y="170.3178206583428" width="9.6" height="9.534619750283724" fill="green" />
  <line x1="311.99999999999994" y1="250" x2="311.99999999999994" y2="255" stroke="black" stroke-width="1" />
  <text x="306.66666666666663" y="275" font-size="12" fill="black">2024-09-25</text>
  <line x1="322.66666666666663" y1="142.62202043132788" x2="322.66666666666663" y2="166.2315550510782" stroke="black" stroke-width="1" />
  <rect x="317.8666666666667" y="143.98410896708276" width="9.6" height="19.750283768444888" fill="green" />
  <line x1="322.66666666666663" y1="250" x2="322.66666666666663" y2="255" stroke="black" stroke-width="1" />
  <text x="317.3333333333333" y="275" font-size="12" fill="black">2024-09-26</text>
  <line x1="333.3333333333333" y1="127.18501702610665" x2="333.3333333333333" y2="149.65947786606128" stroke="black" stroke-width="1" />
  <rect x="328.53333333333336" y="132.40635641316675" width="9.6" height="13.166855845630126" fill="green" />
  <line x1="333.3333333333333" y1="250" x2="333.3333333333333" y2="255" stroke="black" stroke-width="1" />
  <text x="328.0" y="275" font-size="12" fill="black">2024-09-27</text>
  <line x1="343.99999999999994" y1="116.06129398410883" x2="343.99999999999994" y2="132.86038592508515" stroke="black" stroke-width="1" />
  <rect x="339.2" y="125.14188422247433" width="9.6" height="1" fill="red" />
  <line x1="343.99999999999994" y1="250" x2="343.99999999999994" y2="255" stroke="black" stroke-width="1" />
  <text x="338.66666666666663" y="275" font-size="12" fill="black">2024-09-28</text>
  <line x1="354.66666666666663" y1="120.60158910329167" x2="354.66666666666663" y2="146.70828603859252" stroke="black" stroke-width="1" />
  <rect x="349.8666666666667" y="128.0930760499433" width="9.6" height="6.129398410896536" fill="green" />
  <line x1="354.66666666666663" y1="250" x2="354.66666666666663" y2="255" stroke="black" stroke-width="1" />
  <text x="349.3333333333333" y="275" font-size="12" fill="black">2024-09-29</text>
</svg>