<svg width="400" height="300" xmlns="http://www.w3.org/2000/svg">
  <line x1="40" y1="250" x2="360" y2="250" stroke="black" stroke-width="2" />
  <line x1="45.333333333333336" y1="158.6206896551724" x2="45.333333333333336" y2="178.44827586206884" stroke="black" stroke-width="1" />
  <rect x="40.53333333333333" y="158.6206896551724" width="9.6" height="19.827586206896413" fill="green" />
  <line x1="45.333333333333336" y1="250" x2="45.333333333333336" y2="255" stroke="black" stroke-width="1" />
  <text x="40.0" y="275" font-size="12" fill="black">2024-08-21</text>
  <line x1="56.0" y1="162.9310344827586" x2="56.0" y2="162.9310344827586" stroke="black" stroke-width="1" />
  <rect x="51.199999999999996" y="162.9310344827586" width="9.6" height="1" fill="red" />
  <line x1="56.0" y1="250" x2="56.0" y2="255" stroke="black" stroke-width="1" />
  <text x="50.666666666666664" y="275" font-size="12" fill="black">2024-08-22</text>
  <line x1="66.66666666666666" y1="143.10344827586198" x2="66.66666666666666" y2="167.24137931034483" stroke="black" stroke-width="1" />
  <rect x="61.86666666666666" y="143.10344827586198" width="9.6" height="24.137931034482868" fill="green" />
  <line x1="66.66666666666666" y1="250" x2="66.66666666666666" y2="255" stroke="black" stroke-width="1" />
  <text x="61.33333333333333" y="275" font-size="12" fill="black">2024-08-23</text>
  <line x1="77.33333333333333" y1="138.79310344827576" x2="77.33333333333333" y2="150.8620689655172" stroke="black" stroke-width="1" />
  <rect x="72.53333333333333" y="150.0" width="9.6" height="1" fill="red" />
  <line x1="77.33333333333333" y1="250" x2="77.33333333333333" y2="255" stroke="black" stroke-width="1" />
  <text x="72.0" y="275" font-size="12" fill="black">2024-08-24</text>
  <line x1="87.99999999999999" y1="153.448275862069" x2="87.99999999999999" y2="153.448275862069" stroke="black" stroke-width="1" />
  <rect x="83.19999999999999" y="153.448275862069" width="9.6" height="1" fill="red" />
  <line x1="87.99999999999999" y1="250" x2="87.99999999999999" y2="255" stroke="black" stroke-width="1" />
  <text x="82.66666666666666" y="275" font-size="12" fill="black">2024-08-25</text>
  <line x1="98.66666666666666" y1="112.06896551724131" x2="98.66666666666666" y2="131.89655172413796" stroke="black" stroke-width="1" />
  <rect x="93.86666666666666" y="112.06896551724131" width="9.6" height="19.827586206896658" fill="green" />
  <line x1="98.66666666666666" y1="250" x2="98.66666666666666" y2="255" stroke="black" stroke-width="1" />
  <text x="93.33333333333333" y="275" font-size="12" fill="black">2024-08-28</text>
  <line x1="109.33333333333333" y1="122.41379310344811" x2="109.33333333333333" y2="131.89655172413796" stroke="black" stroke-width="1" />
  <rect x="104.53333333333333" y="122.41379310344811" width="9.6" height="4.310344827586209" fill="green" />
  <line x1="109.33333333333333" y1="250" x2="109.33333333333333" y2="255" stroke="black" stroke-width="1" />
  <text x="104.0" y="275" font-size="12" fill="black">2024-08-29</text>
  <line x1="119.99999999999999" y1="121.55172413793093" x2="119.99999999999999" y2="143.10344827586198" stroke="black" stroke-width="1" />
  <rect x="115.19999999999999" y="121.55172413793093" width="9.6" height="21.551724137931046" fill="red" />
  <line x1="119.99999999999999" y1="250" x2="119.99999999999999" y2="255" stroke="black" stroke-width="1" />
  <text x="114.66666666666666" y="275" font-size="12" fill="black">2024-08-30</text>
  <line x1="130.66666666666666" y1="143.96551724137916" x2="130.66666666666666" y2="148.27586206896535" stroke="black" stroke-width="1" />
  <rect x="125.86666666666666" y="143.96551724137916" width="9.6" height="1" fill="red" />
  <line x1="130.66666666666666" y1="250" x2="130.66666666666666" y2="255" stroke="black" stroke-width="1" />
  <text x="125.33333333333333" y="275" font-size="12" fill="black">2024-08-31</text>
  <line x1="141.33333333333334" y1="113.7931034482757" x2="141.33333333333334" y2="135.34482758620675" stroke="black" stroke-width="1" />
  <rect x="136.53333333333333" y="121.55172413793093" width="9.6" height="13.79310344827582" fill="green" />
  <line x1="141.33333333333334" y1="250" x2="141.33333333333334" y2="255" stroke="black" stroke-width="1" />
  <text x="136.0" y="275" font-size="12" fill="black">2024-09-01</text>
  <line x1="152.0" y1="124.13793103448275" x2="152.0" y2="131.03448275862053" stroke="black" stroke-width="1" />
  <rect x="147.2" y="124.13793103448275" width="9.6" height="6.896551724137788" fill="green" />
  <line x1="152.0" y1="250" x2="152.0" y2="255" stroke="black" stroke-width="1" />
  <text x="146.66666666666666" y="275" font-size="12" fill="black">2024-09-04</text>
  <line x1="162.66666666666666" y1="120.68965517241372" x2="162.66666666666666" y2="127.58620689655176" stroke="black" stroke-width="1" />
  <rect x="157.86666666666665" y="126.72413793103432" width="9.6" height="1" fill="red" />
  <line x1="162.66666666666666" y1="250" x2="162.66666666666666" y2="255" stroke="black" stroke-width="1" />
  <text x="157.33333333333331" y="275" font-size="12" fill="black">2024-09-05</text>
  <line x1="173.33333333333334" y1="152.58620689655157" x2="173.33333333333334" y2="163.79310344827582" stroke="black" stroke-width="1" />
  <rect x="168.53333333333333" y="163.79310344827582" width="9.6" height="1" fill="red" />
  <line x1="173.33333333333334" y1="250" x2="173.33333333333334" y2="255" stroke="black" stroke-width="1" />
  <text x="168.0" y="275" font-size="12" fill="black">2024-09-06</text>
  <line x1="184.0" y1="137.06896551724137" x2="184.0" y2="162.06896551724145" stroke="black" stroke-width="1" />
  <rect x="179.2" y="143.10344827586198" width="9.6" height="18.965517241379466" fill="green" />
  <line x1="184.0" y1="250" x2="184.0" y2="255" stroke="black" stroke-width="1" />
  <text x="178.66666666666666" y="275" font-size="12" fill="black">2024-09-07</text>
  <line x1="194.66666666666666" y1="135.34482758620675" x2="194.66666666666666" y2="135.34482758620675" stroke="black" stroke-width="1" />
  <rect x="189.86666666666665" y="135.34482758620675" width="9.6" height="1" fill="red" />
  <line x1="194.66666666666666" y1="250" x2="194.66666666666666" y2="255" stroke="black" stroke-width="1" />
  <text x="189.33333333333331" y="275" font-size="12" fill="black">2024-09-08</text>
  <line x1="205.33333333333334" y1="145.68965517241378" x2="205.33333333333334" y2="181.03448275862064" stroke="black" stroke-width="1" />
  <rect x="200.53333333333333" y="146.551724137931" width="9.6" height="34.48275862068967" fill="red" />
  <line x1="205.33333333333334" y1="250" x2="205.33333333333334" y2="255" stroke="black" stroke-width="1" />
  <text x="200.0" y="275" font-size="12" fill="black">2024-09-11</text>
  <line x1="216.0" y1="163.79310344827582" x2="216.0" y2="169.8275862068964" stroke="black" stroke-width="1" />
  <rect x="211.2" y="168.10344827586204" width="9.6" height="1" fill="green" />
  <line x1="216.0" y1="250" x2="216.0" y2="255" stroke="black" stroke-width="1" />
  <text x="210.66666666666666" y="275" font-size="12" fill="black">2024-09-12</text>
  <line x1="226.66666666666666" y1="174.13793103448262" x2="226.66666666666666" y2="174.13793103448262" stroke="black" stroke-width="1" />
  <rect x="221.86666666666665" y="174.13793103448262" width="9.6" height="1" fill="red" />
  <line x1="226.66666666666666" y1="250" x2="226.66666666666666" y2="255" stroke="black" stroke-width="1" />
  <text x="221.33333333333331" y="275" font-size="12" fill="black">2024-09-13</text>
  <line x1="237.33333333333334" y1="149.1379310344828" x2="237.33333333333334" y2="163.79310344827582" stroke="black" stroke-width="1" />
  <rect x="232.53333333333333" y="155.1724137931034" width="9.6" height="8.620689655172418" fill="green" />
  <line x1="237.33333333333334" y1="250" x2="237.33333333333334" y2="255" stroke="black" stroke-width="1" />
  <text x="232.0" y="275" font-size="12" fill="black">2024-09-14</text>
  <line x1="248.0" y1="152.58620689655157" x2="248.0" y2="152.58620689655157" stroke="black" stroke-width="1" />
  <rect x="243.2" y="152.58620689655157" width="9.6" height="1" fill="red" />
  <line x1="248.0" y1="250" x2="248.0" y2="255" stroke="black" stroke-width="1" />
  <text x="242.66666666666666" y="275" font-size="12" fill="black">2024-09-15</text>
  <line x1="258.66666666666663" y1="132.75862068965517" x2="258.66666666666663" y2="143.96551724137916" stroke="black" stroke-width="1" />
  <rect x="253.86666666666665" y="132.75862068965517" width="9.6" height="8.620689655172418" fill="green" />
  <line x1="258.66666666666663" y1="250" x2="258.66666666666663" y2="255" stroke="black" stroke-width="1" />
  <text x="253.33333333333331" y="275" font-size="12" fill="black">2024-09-18</text>
  <line x1="269.3333333333333" y1="105.17241379310329" x2="269.3333333333333" y2="133.62068965517236" stroke="black" stroke-width="1" />
  <rect x="264.53333333333336" y="105.17241379310329" width="9.6" height="28.448275862069078" fill="green" />
  <line x1="269.3333333333333" y1="250" x2="269.3333333333333" y2="255" stroke="black" stroke-width="1" />
  <text x="264.0" y="275" font-size="12" fill="black">2024-09-19</text>
  <line x1="279.99999999999994" y1="90.51724137931026" x2="279.99999999999994" y2="115.51724137931032" stroke="black" stroke-width="1" />
  <rect x="275.2" y="99.13793103448268" width="9.6" height="16.379310344827644" fill="green" />
  <line x1="279.99999999999994" y1="250" x2="279.99999999999994" y2="255" stroke="black" stroke-width="1" />
  <text x="274.66666666666663" y="275" font-size="12" fill="black">2024-09-20</text>
  <line x1="290.66666666666663" y1="50.0" x2="290.66666666666663" y2="93.96551724137927" stroke="black" stroke-width="1" />
  <rect x="285.8666666666667" y="56.896551724137794" width="9.6" height="37.068965517241494" fill="green" />
  <line x1="290.66666666666663" y1="250" x2="290.66666666666663" y2="255" stroke="black" stroke-width="1" />
  <text x="285.3333333333333" y="275" font-size="12" fill="black">2024-09-21</text>
  <line x1="301.3333333333333" y1="60.344827586206804" x2="301.3333333333333" y2="79.31034482758602" stroke="black" stroke-width="1" />
  <rect x="296.53333333333336" y="62.068965517241196" width="9.6" height="17.241379310344836" fill="red" />
  <line x1="301.3333333333333" y1="250" x2="301.3333333333333" y2="255" stroke="black" stroke-width="1" />
  <text x="296.0" y="275" font-size="12" fill="black">2024-09-22</text>
  <line x1="311.99999999999994" y1="98.2758620689655" x2="311.99999999999994" y2="211.20689655172413" stroke="black" stroke-width="1" />
  <rect x="307.2" y="98.2758620689655" width="9.6" height="107.75862068965523" fill="red" />
  <line x1="311.99999999999994" y1="250" x2="311.99999999999994" y2="255" stroke="black" stroke-width="1" />
  <text x="306.66666666666663" y="275" font-size="12" fill="black">2024-09-25</text>
  <line x1="322.66666666666663" y1="212.93103448275863" x2="322.66666666666663" y2="249.13793103448282" stroke="black" stroke-width="1" />
  <rect x="317.8666666666667" y="217.24137931034483" width="9.6" height="6.89655172413791" fill="red" />
  <line x1="322.66666666666663" y1="250" x2="322.66666666666663" y2="255" stroke="black" stroke-width="1" />
  <text x="317.3333333333333" y="275" font-size="12" fill="black">2024-09-26</text>
  <line x1="333.3333333333333" y1="220.68965517241372" x2="333.3333333333333" y2="250.0" stroke="black" stroke-width="1" />
  <rect x="328.53333333333336" y="220.68965517241372" width="9.6" height="8.620689655172418" fill="green" />
  <line x1="333.3333333333333" y1="250" x2="333.3333333333333" y2="255" stroke="black" stroke-width="1" />
  <text x="328.0" y="275" font-size="12" fill="black">2024-09-27</text>
  <line x1="343.99999999999994" y1="168.96551724137922" x2="343.99999999999994" y2="213.79310344827582" stroke="black" stroke-width="1" />
  <rect x="339.2" y="174.13793103448262" width="9.6" height="39.655172413793196" fill="green" />
  <line x1="343.99999999999994" y1="250" x2="343.99999999999994" y2="255" stroke="black" stroke-width="1" />
  <text x="338.66666666666663" y="275" font-size="12" fill="black">2024-09-28</text>
  <line x1="354.66666666666663" y1="162.06896551724145" x2="354.66666666666663" y2="174.13793103448262" stroke="black" stroke-width="1" />
  <rect x="349.8666666666667" y="167.24137931034483" width="9.6" height="6.896551724137788" fill="red" />
  <line x1="354.66666666666663" y1="250" x2="354.66666666666663" y2="255" stroke="black" stroke-width="1" />
  <text x="349.3333333333333" y="275" font-size="12" fill="black">2024-09-29</text>
</svg>