<svg width="400" height="300" xmlns="http://www.w3.org/2000/svg">
  <line x1="40" y1="250" x2="360" y2="250" stroke="black" stroke-width="2" />
  <line x1="45.333333333333336" y1="91.30649950511378" x2="45.333333333333336" y2="116.51270207852187" stroke="black" stroke-width="1" />
  <rect x="40.53333333333333" y="94.07786209171888" width="9.6" height="17.41999340151766" fill="green" />
  <line x1="45.333333333333336" y1="250" x2="45.333333333333336" y2="255" stroke="black" stroke-width="1" />
  <text x="40.0" y="275" font-size="12" fill="black">2024-08-18</text>
  <line x1="56.0" y1="58.31408775981518" x2="56.0" y2="101.73210161662814" stroke="black" stroke-width="1" />
  <rect x="51.199999999999996" y="58.31408775981518" width="9.6" height="37.743319036621585" fill="green" />
  <line x1="56.0" y1="250" x2="56.0" y2="255" stroke="black" stroke-width="1" />
  <text x="50.666666666666664" y="275" font-size="12" fill="black">2024-08-21</text>
  <line x1="66.66666666666666" y1="59.10590564170238" x2="66.66666666666666" y2="85.43385021445064" stroke="black" stroke-width="1" />
  <rect x="61.86666666666666" y="68.87165951831071" width="9.6" height="7.588254701418714" fill="red" />
  <line x1="66.66666666666666" y1="250" x2="66.66666666666666" y2="255" stroke="black" stroke-width="1" />
  <text x="61.33333333333333" y="275" font-size="12" fill="black">2024-08-22</text>
  <line x1="77.33333333333333" y1="62.60310128670406" x2="77.33333333333333" y2="80.35301880567468" stroke="black" stroke-width="1" />
  <rect x="72.53333333333333" y="68.21181128340476" width="9.6" height="7.819201583635782" fill="green" />
  <line x1="77.33333333333333" y1="250" x2="77.33333333333333" y2="255" stroke="black" stroke-width="1" />
  <text x="72.0" y="275" font-size="12" fill="black">2024-08-23</text>
  <line x1="87.99999999999999" y1="53.36522599802041" x2="87.99999999999999" y2="103.8436159683273" stroke="black" stroke-width="1" />
  <rect x="83.19999999999999" y="58.18211811283393" width="9.6" height="41.43846915209514" fill="red" />
  <line x1="87.99999999999999" y1="250" x2="87.99999999999999" y2="255" stroke="black" stroke-width="1" />
  <text x="82.66666666666666" y="275" font-size="12" fill="black">2024-08-24</text>
  <line x1="98.66666666666666" y1="60.953480699439126" x2="98.66666666666666" y2="89.85483338832066" stroke="black" stroke-width="1" />
  <rect x="93.86666666666666" y="62.471131639722785" width="9.6" height="23.160673045199648" fill="green" />
  <line x1="98.66666666666666" y1="250" x2="98.66666666666666" y2="255" stroke="black" stroke-width="1" />
  <text x="93.33333333333333" y="275" font-size="12" fill="black">2024-08-25</text>
  <line x1="109.33333333333333" y1="50.0" x2="109.33333333333333" y2="95.46354338502138" stroke="black" stroke-width="1" />
  <rect x="104.53333333333333" y="61.15143516991091" width="9.6" height="20.52128010557572" fill="red" />
  <line x1="109.33333333333333" y1="250" x2="109.33333333333333" y2="255" stroke="black" stroke-width="1" />
  <text x="104.0" y="275" font-size="12" fill="black">2024-08-28</text>
  <line x1="119.99999999999999" y1="63.59287363906304" x2="119.99999999999999" y2="98.69679973606071" stroke="black" stroke-width="1" />
  <rect x="115.19999999999999" y="69.53150775321663" width="9.6" height="21.44506763444418" fill="green" />
  <line x1="119.99999999999999" y1="250" x2="119.99999999999999" y2="255" stroke="black" stroke-width="1" />
  <text x="114.66666666666666" y="275" font-size="12" fill="black">2024-08-29</text>
  <line x1="130.66666666666666" y1="69.33355328274484" x2="130.66666666666666" y2="106.87891784889473" stroke="black" stroke-width="1" />
  <rect x="125.86666666666666" y="70.71923457604743" width="9.6" height="16.56219069613993" fill="red" />
  <line x1="130.66666666666666" y1="250" x2="130.66666666666666" y2="255" stroke="black" stroke-width="1" />
  <text x="125.33333333333333" y="275" font-size="12" fill="black">2024-08-30</text>
  <line x1="141.33333333333334" y1="95.06763444407778" x2="141.33333333333334" y2="146.0079181788189" stroke="black" stroke-width="1" />
  <rect x="136.53333333333333" y="115.35796766743644" width="9.6" height="24.843286044209844" fill="red" />
  <line x1="141.33333333333334" y1="250" x2="141.33333333333334" y2="255" stroke="black" stroke-width="1" />
  <text x="136.0" y="275" font-size="12" fill="black">2024-08-31</text>
  <line x1="152.0" y1="112.75156713955786" x2="152.0" y2="142.6426921807984" stroke="black" stroke-width="1" />
  <rect x="147.2" y="127.40019795447044" width="9.6" height="1.0557571758495325" fill="red" />
  <line x1="152.0" y1="250" x2="152.0" y2="255" stroke="black" stroke-width="1" />
  <text x="146.66666666666666" y="275" font-size="12" fill="black">2024-09-01</text>
  <line x1="162.66666666666666" y1="149.30715935334877" x2="162.66666666666666" y2="208.16562190696135" stroke="black" stroke-width="1" />
  <rect x="157.86666666666665" y="150.6268558231606" width="9.6" height="52.85384361596838" fill="red" />
  <line x1="162.66666666666666" y1="250" x2="162.66666666666666" y2="255" stroke="black" stroke-width="1" />
  <text x="157.33333333333331" y="275" font-size="12" fill="black">2024-09-05</text>
  <line x1="173.33333333333334" y1="168.7066974595843" x2="173.33333333333334" y2="229.08281095348067" stroke="black" stroke-width="1" />
  <rect x="168.53333333333333" y="215.29198284394593" width="9.6" height="5.278785879247756" fill="green" />
  <line x1="173.33333333333334" y1="250" x2="173.33333333333334" y2="255" stroke="black" stroke-width="1" />
  <text x="168.0" y="275" font-size="12" fill="black">2024-09-06</text>
  <line x1="184.0" y1="192.59320356318042" x2="184.0" y2="224.85978225008245" stroke="black" stroke-width="1" />
  <rect x="179.2" y="208.69350049488622" width="9.6" height="14.681623226657836" fill="green" />
  <line x1="184.0" y1="250" x2="184.0" y2="255" stroke="black" stroke-width="1" />
  <text x="178.66666666666666" y="275" font-size="12" fill="black">2024-09-07</text>
  <line x1="194.66666666666666" y1="202.49092708677" x2="194.66666666666666" y2="250.0" stroke="black" stroke-width="1" />
  <rect x="189.86666666666665" y="203.21676014516657" width="9.6" height="34.378093038601186" fill="red" />
  <line x1="194.66666666666666" y1="250" x2="194.66666666666666" y2="255" stroke="black" stroke-width="1" />
  <text x="189.33333333333331" y="275" font-size="12" fill="black">2024-09-08</text>
  <line x1="205.33333333333334" y1="213.0484988452656" x2="205.33333333333334" y2="231.9201583635764" stroke="black" stroke-width="1" />
  <rect x="200.53333333333333" y="213.57637743319037" width="9.6" height="10.491586935004975" fill="green" />
  <line x1="205.33333333333334" y1="250" x2="205.33333333333334" y2="255" stroke="black" stroke-width="1" />
  <text x="200.0" y="275" font-size="12" fill="black">2024-09-11</text>
  <line x1="216.0" y1="194.24282415044536" x2="216.0" y2="223.6060706037611" stroke="black" stroke-width="1" />
  <rect x="211.2" y="202.82085120422306" width="9.6" height="1.9135598812272658" fill="green" />
  <line x1="216.0" y1="250" x2="216.0" y2="255" stroke="black" stroke-width="1" />
  <text x="210.66666666666666" y="275" font-size="12" fill="black">2024-09-12</text>
  <line x1="226.66666666666666" y1="142.84064665127022" x2="226.66666666666666" y2="207.30781920158364" stroke="black" stroke-width="1" />
  <rect x="221.86666666666665" y="144.68822170900694" width="9.6" height="49.62058726492906" fill="green" />
  <line x1="226.66666666666666" y1="250" x2="226.66666666666666" y2="255" stroke="black" stroke-width="1" />
  <text x="221.33333333333331" y="275" font-size="12" fill="black">2024-09-13</text>
  <line x1="237.33333333333334" y1="119.08611019465516" x2="237.33333333333334" y2="154.7838997030683" stroke="black" stroke-width="1" />
  <rect x="232.53333333333333" y="129.97360607060375" width="9.6" height="15.176509402837334" fill="green" />
  <line x1="237.33333333333334" y1="250" x2="237.33333333333334" y2="255" stroke="black" stroke-width="1" />
  <text x="232.0" y="275" font-size="12" fill="black">2024-09-14</text>
  <line x1="248.0" y1="124.59584295612008" x2="248.0" y2="140.13526888815574" stroke="black" stroke-width="1" />
  <rect x="243.2" y="130.23754536456616" width="9.6" height="1" fill="green" />
  <line x1="248.0" y1="250" x2="248.0" y2="255" stroke="black" stroke-width="1" />
  <text x="242.66666666666666" y="275" font-size="12" fill="black">2024-09-15</text>
  <line x1="258.66666666666663" y1="136.30814912570102" x2="258.66666666666663" y2="161.5143516991092" stroke="black" stroke-width="1" />
  <rect x="253.86666666666665" y="145.48003959089402" width="9.6" height="1" fill="red" />
  <line x1="258.66666666666663" y1="250" x2="258.66666666666663" y2="255" stroke="black" stroke-width="1" />
  <text x="253.33333333333331" y="275" font-size="12" fill="black">2024-09-18</text>
  <line x1="269.3333333333333" y1="132.21709006928404" x2="269.3333333333333" y2="158.41306499505112" stroke="black" stroke-width="1" />
  <rect x="264.53333333333336" y="136.37413394919167" width="9.6" height="17.024084460574063" fill="red" />
  <line x1="269.3333333333333" y1="250" x2="269.3333333333333" y2="255" stroke="black" stroke-width="1" />
  <text x="264.0" y="275" font-size="12" fill="black">2024-09-19</text>
  <line x1="279.99999999999994" y1="139.47542065324973" x2="279.99999999999994" y2="169.0366215770373" stroke="black" stroke-width="1" />
  <rect x="275.2" y="151.4186737050478" width="9.6" height="16.628175519630464" fill="red" />
  <line x1="279.99999999999994" y1="250" x2="279.99999999999994" y2="255" stroke="black" stroke-width="1" />
  <text x="274.66666666666663" y="275" font-size="12" fill="black">2024-09-20</text>
  <line x1="290.66666666666663" y1="126.5423952490927" x2="290.66666666666663" y2="142.4447377103266" stroke="black" stroke-width="1" />
  <rect x="285.8666666666667" y="138.35367865390955" width="9.6" height="3.431210821511121" fill="green" />
  <line x1="290.66666666666663" y1="250" x2="290.66666666666663" y2="255" stroke="black" stroke-width="1" />
  <text x="285.3333333333333" y="275" font-size="12" fill="black">2024-09-21</text>
  <line x1="301.3333333333333" y1="133.417354008578" x2="301.3333333333333" y2="154.71725503134275" stroke="black" stroke-width="1" />
  <rect x="296.53333333333336" y="143.69844935664793" width="9.6" height="6.994391290003317" fill="red" />
  <line x1="301.3333333333333" y1="250" x2="301.3333333333333" y2="255" stroke="black" stroke-width="1" />
  <text x="296.0" y="275" font-size="12" fill="black">2024-09-22</text>
  <line x1="311.99999999999994" y1="144.16034312108218" x2="311.99999999999994" y2="158.21511052457933" stroke="black" stroke-width="1" />
  <rect x="307.2" y="147.06367535466842" width="9.6" height="1.9135598812272658" fill="red" />
  <line x1="311.99999999999994" y1="250" x2="311.99999999999994" y2="255" stroke="black" stroke-width="1" />
  <text x="306.66666666666663" y="275" font-size="12" fill="black">2024-09-25</text>
  <line x1="322.66666666666663" y1="112.42164302210492" x2="322.66666666666663" y2="154.7838997030683" stroke="black" stroke-width="1" />
  <rect x="317.8666666666667" y="118.5582316067304" width="9.6" height="28.7363906301551" fill="green" />
  <line x1="322.66666666666663" y1="250" x2="322.66666666666663" y2="255" stroke="black" stroke-width="1" />
  <text x="317.3333333333333" y="275" font-size="12" fill="black">2024-09-26</text>
  <line x1="333.3333333333333" y1="91.70240844605738" x2="333.3333333333333" y2="113.67535466842622" stroke="black" stroke-width="1" />
  <rect x="328.53333333333336" y="101.13823820521273" width="9.6" height="9.831738700099041" fill="green" />
  <line x1="333.3333333333333" y1="250" x2="333.3333333333333" y2="255" stroke="black" stroke-width="1" />
  <text x="328.0" y="275" font-size="12" fill="black">2024-09-27</text>
  <line x1="343.99999999999994" y1="73.7215440448696" x2="343.99999999999994" y2="112.42164302210492" stroke="black" stroke-width="1" />
  <rect x="339.2" y="79.42923127680632" width="9.6" height="18.211811283404764" fill="red" />
  <line x1="343.99999999999994" y1="250" x2="343.99999999999994" y2="255" stroke="black" stroke-width="1" />
  <text x="338.66666666666663" y="275" font-size="12" fill="black">2024-09-28</text>
  <line x1="354.66666666666663" y1="97.7070273837017" x2="354.66666666666663" y2="129.18178818871655" stroke="black" stroke-width="1" />
  <rect x="349.8666666666667" y="98.1029363246453" width="9.6" height="16.958099637083432" fill="red" />
  <line x1="354.66666666666663" y1="250" x2="354.66666666666663" y2="255" stroke="black" stroke-width="1" />
  <text x="349.3333333333333" y="275" font-size="12" fill="black">2024-09-29</text>
</svg>