<svg width="400" height="300" xmlns="http://www.w3.org/2000/svg">
  <line x1="40" y1="250" x2="360" y2="250" stroke="black" stroke-width="2" />
  <line x1="45.333333333333336" y1="205.85585585585565" x2="45.333333333333336" y2="240.5405405405405" stroke="black" stroke-width="1" />
  <rect x="40.53333333333333" y="209.00900900900882" width="9.6" height="1" fill="green" />
  <line x1="45.333333333333336" y1="250" x2="45.333333333333336" y2="255" stroke="black" stroke-width="1" />
  <text x="40.0" y="275" font-size="12" fill="black">2024-08-21</text>
  <line x1="56.0" y1="195.49549549549545" x2="56.0" y2="214.41441441441444" stroke="black" stroke-width="1" />
  <rect x="51.199999999999996" y="209.00900900900882" width="9.6" height="4.50450450450457" fill="red" />
  <line x1="56.0" y1="250" x2="56.0" y2="255" stroke="black" stroke-width="1" />
  <text x="50.666666666666664" y="275" font-size="12" fill="black">2024-08-22</text>
  <line x1="66.66666666666666" y1="200.0" x2="66.66666666666666" y2="225.6756756756757" stroke="black" stroke-width="1" />
  <rect x="61.86666666666666" y="217.11711711711692" width="9.6" height="1.351351351351403" fill="green" />
  <line x1="66.66666666666666" y1="250" x2="66.66666666666666" y2="255" stroke="black" stroke-width="1" />
  <text x="61.33333333333333" y="275" font-size="12" fill="black">2024-08-23</text>
  <line x1="77.33333333333333" y1="199.09909909909896" x2="77.33333333333333" y2="222.07207207207185" stroke="black" stroke-width="1" />
  <rect x="72.53333333333333" y="210.36036036036023" width="9.6" height="4.50450450450457" fill="green" />
  <line x1="77.33333333333333" y1="250" x2="77.33333333333333" y2="255" stroke="black" stroke-width="1" />
  <text x="72.0" y="275" font-size="12" fill="black">2024-08-24</text>
  <line x1="87.99999999999999" y1="200.0" x2="87.99999999999999" y2="216.2162162162162" stroke="black" stroke-width="1" />
  <rect x="83.19999999999999" y="207.65765765765775" width="9.6" height="2.7027027027024864" fill="green" />
  <line x1="87.99999999999999" y1="250" x2="87.99999999999999" y2="255" stroke="black" stroke-width="1" />
  <text x="82.66666666666666" y="275" font-size="12" fill="black">2024-08-25</text>
  <line x1="98.66666666666666" y1="199.09909909909896" x2="98.66666666666666" y2="214.41441441441444" stroke="black" stroke-width="1" />
  <rect x="93.86666666666666" y="209.4594594594595" width="9.6" height="1" fill="red" />
  <line x1="98.66666666666666" y1="250" x2="98.66666666666666" y2="255" stroke="black" stroke-width="1" />
  <text x="93.33333333333333" y="275" font-size="12" fill="black">2024-08-28</text>
  <line x1="109.33333333333333" y1="197.2972972972972" x2="109.33333333333333" y2="219.36936936936937" stroke="black" stroke-width="1" />
  <rect x="104.53333333333333" y="207.65765765765775" width="9.6" height="5.4054054054052925" fill="green" />
  <line x1="109.33333333333333" y1="250" x2="109.33333333333333" y2="255" stroke="black" stroke-width="1" />
  <text x="104.0" y="275" font-size="12" fill="black">2024-08-29</text>
  <line x1="119.99999999999999" y1="180.18018018017995" x2="119.99999999999999" y2="212.61261261261268" stroke="black" stroke-width="1" />
  <rect x="115.19999999999999" y="195.9459459459458" width="9.6" height="11.711711711711947" fill="green" />
  <line x1="119.99999999999999" y1="250" x2="119.99999999999999" y2="255" stroke="black" stroke-width="1" />
  <text x="114.66666666666666" y="275" font-size="12" fill="black">2024-08-30</text>
  <line x1="130.66666666666666" y1="155.4054054054053" x2="130.66666666666666" y2="194.59459459459438" stroke="black" stroke-width="1" />
  <rect x="125.86666666666666" y="165.31531531531516" width="9.6" height="29.279279279279226" fill="green" />
  <line x1="130.66666666666666" y1="250" x2="130.66666666666666" y2="255" stroke="black" stroke-width="1" />
  <text x="125.33333333333333" y="275" font-size="12" fill="black">2024-08-31</text>
  <line x1="141.33333333333334" y1="148.6486486486486" x2="141.33333333333334" y2="171.17117117117112" stroke="black" stroke-width="1" />
  <rect x="136.53333333333333" y="148.6486486486486" width="9.6" height="16.666666666666558" fill="green" />
  <line x1="141.33333333333334" y1="250" x2="141.33333333333334" y2="255" stroke="black" stroke-width="1" />
  <text x="136.0" y="275" font-size="12" fill="black">2024-09-01</text>
  <line x1="152.0" y1="139.1891891891891" x2="152.0" y2="157.6576576576574" stroke="black" stroke-width="1" />
  <rect x="147.2" y="139.63963963963948" width="9.6" height="9.459459459459502" fill="green" />
  <line x1="152.0" y1="250" x2="152.0" y2="255" stroke="black" stroke-width="1" />
  <text x="146.66666666666666" y="275" font-size="12" fill="black">2024-09-04</text>
  <line x1="162.66666666666666" y1="109.00900900900882" x2="162.66666666666666" y2="145.9459459459458" stroke="black" stroke-width="1" />
  <rect x="157.86666666666665" y="115.76576576576554" width="9.6" height="23.873873873873936" fill="green" />
  <line x1="162.66666666666666" y1="250" x2="162.66666666666666" y2="255" stroke="black" stroke-width="1" />
  <text x="157.33333333333331" y="275" font-size="12" fill="black">2024-09-05</text>
  <line x1="173.33333333333334" y1="129.27927927927925" x2="173.33333333333334" y2="144.14414414414404" stroke="black" stroke-width="1" />
  <rect x="168.53333333333333" y="131.53153153153136" width="9.6" height="1.351351351351403" fill="red" />
  <line x1="173.33333333333334" y1="250" x2="173.33333333333334" y2="255" stroke="black" stroke-width="1" />
  <text x="168.0" y="275" font-size="12" fill="black">2024-09-06</text>
  <line x1="184.0" y1="123.87387387387362" x2="184.0" y2="137.8378378378377" stroke="black" stroke-width="1" />
  <rect x="179.2" y="129.27927927927925" width="9.6" height="3.603603603603528" fill="green" />
  <line x1="184.0" y1="250" x2="184.0" y2="255" stroke="black" stroke-width="1" />
  <text x="178.66666666666666" y="275" font-size="12" fill="black">2024-09-07</text>
  <line x1="194.66666666666666" y1="115.76576576576554" x2="194.66666666666666" y2="142.79279279279262" stroke="black" stroke-width="1" />
  <rect x="189.86666666666665" y="137.38738738738732" width="9.6" height="1" fill="red" />
  <line x1="194.66666666666666" y1="250" x2="194.66666666666666" y2="255" stroke="black" stroke-width="1" />
  <text x="189.33333333333331" y="275" font-size="12" fill="black">2024-09-08</text>
  <line x1="205.33333333333334" y1="107.20720720720706" x2="205.33333333333334" y2="136.93693693693697" stroke="black" stroke-width="1" />
  <rect x="200.53333333333333" y="112.16216216216199" width="9.6" height="20.720720720720767" fill="green" />
  <line x1="205.33333333333334" y1="250" x2="205.33333333333334" y2="255" stroke="black" stroke-width="1" />
  <text x="200.0" y="275" font-size="12" fill="black">2024-09-11</text>
  <line x1="216.0" y1="100.45045045045038" x2="216.0" y2="133.7837837837838" stroke="black" stroke-width="1" />
  <rect x="211.2" y="115.76576576576554" width="9.6" height="17.5675675675676" fill="red" />
  <line x1="216.0" y1="250" x2="216.0" y2="255" stroke="black" stroke-width="1" />
  <text x="210.66666666666666" y="275" font-size="12" fill="black">2024-09-12</text>
  <line x1="226.66666666666666" y1="102.25225225225213" x2="226.66666666666666" y2="231.98198198198205" stroke="black" stroke-width="1" />
  <rect x="221.86666666666665" y="102.25225225225213" width="9.6" height="92.79279279279294" fill="red" />
  <line x1="226.66666666666666" y1="250" x2="226.66666666666666" y2="255" stroke="black" stroke-width="1" />
  <text x="221.33333333333331" y="275" font-size="12" fill="black">2024-09-13</text>
  <line x1="237.33333333333334" y1="149.09909909909896" x2="237.33333333333334" y2="195.49549549549545" stroke="black" stroke-width="1" />
  <rect x="232.53333333333333" y="181.08108108108098" width="9.6" height="6.756756756756696" fill="red" />
  <line x1="237.33333333333334" y1="250" x2="237.33333333333334" y2="255" stroke="black" stroke-width="1" />
  <text x="232.0" y="275" font-size="12" fill="black">2024-09-14</text>
  <line x1="248.0" y1="195.49549549549545" x2="248.0" y2="250.0" stroke="black" stroke-width="1" />
  <rect x="243.2" y="198.6486486486486" width="9.6" height="21.171171171171128" fill="red" />
  <line x1="248.0" y1="250" x2="248.0" y2="255" stroke="black" stroke-width="1" />
  <text x="242.66666666666666" y="275" font-size="12" fill="black">2024-09-15</text>
  <line x1="258.66666666666663" y1="186.48648648648629" x2="258.66666666666663" y2="228.3783783783782" stroke="black" stroke-width="1" />
  <rect x="253.86666666666665" y="188.28828828828807" width="9.6" height="31.531531531531673" fill="green" />
  <line x1="258.66666666666663" y1="250" x2="258.66666666666663" y2="255" stroke="black" stroke-width="1" />
  <text x="253.33333333333331" y="275" font-size="12" fill="black">2024-09-18</text>
  <line x1="269.3333333333333" y1="172.52252252252254" x2="269.3333333333333" y2="213.06306306306303" stroke="black" stroke-width="1" />
  <rect x="264.53333333333336" y="181.98198198198205" width="9.6" height="24.324324324324298" fill="red" />
  <line x1="269.3333333333333" y1="250" x2="269.3333333333333" y2="255" stroke="black" stroke-width="1" />
  <text x="264.0" y="275" font-size="12" fill="black">2024-09-19</text>
  <line x1="279.99999999999994" y1="186.93693693693697" x2="279.99999999999994" y2="206.30630630630634" stroke="black" stroke-width="1" />
  <rect x="275.2" y="195.49549549549545" width="9.6" height="10.360360360360223" fill="green" />
  <line x1="279.99999999999994" y1="250" x2="279.99999999999994" y2="255" stroke="black" stroke-width="1" />
  <text x="274.66666666666663" y="275" font-size="12" fill="black">2024-09-20</text>
  <line x1="290.66666666666663" y1="177.47747747747746" x2="290.66666666666663" y2="202.70270270270248" stroke="black" stroke-width="1" />
  <rect x="285.8666666666667" y="182.4324324324324" width="9.6" height="3.603603603603528" fill="red" />
  <line x1="290.66666666666663" y1="250" x2="290.66666666666663" y2="255" stroke="black" stroke-width="1" />
  <text x="285.3333333333333" y="275" font-size="12" fill="black">2024-09-21</text>
  <line x1="301.3333333333333" y1="168.01801801801798" x2="301.3333333333333" y2="194.59459459459438" stroke="black" stroke-width="1" />
  <rect x="296.53333333333336" y="183.7837837837838" width="9.6" height="2.2522522522521253" fill="green" />
  <line x1="301.3333333333333" y1="250" x2="301.3333333333333" y2="255" stroke="black" stroke-width="1" />
  <text x="296.0" y="275" font-size="12" fill="black">2024-09-22</text>
  <line x1="311.99999999999994" y1="168.01801801801798" x2="311.99999999999994" y2="198.19819819819824" stroke="black" stroke-width="1" />
  <rect x="307.2" y="183.7837837837838" width="9.6" height="4.054054054053889" fill="green" />
  <line x1="311.99999999999994" y1="250" x2="311.99999999999994" y2="255" stroke="black" stroke-width="1" />
  <text x="306.66666666666663" y="275" font-size="12" fill="black">2024-09-25</text>
  <line x1="322.66666666666663" y1="166.2162162162162" x2="322.66666666666663" y2="214.41441441441444" stroke="black" stroke-width="1" />
  <rect x="317.8666666666667" y="170.2702702702701" width="9.6" height="20.720720720720767" fill="red" />
  <line x1="322.66666666666663" y1="250" x2="322.66666666666663" y2="255" stroke="black" stroke-width="1" />
  <text x="317.3333333333333" y="275" font-size="12" fill="black">2024-09-26</text>
  <line x1="333.3333333333333" y1="66.21621621621622" x2="333.3333333333333" y2="143.243243243243" stroke="black" stroke-width="1" />
  <rect x="328.53333333333336" y="67.5675675675673" width="9.6" height="45.495495495495746" fill="green" />
  <line x1="333.3333333333333" y1="250" x2="333.3333333333333" y2="255" stroke="black" stroke-width="1" />
  <text x="328.0" y="275" font-size="12" fill="black">2024-09-27</text>
  <line x1="343.99999999999994" y1="50.00000000000003" x2="343.99999999999994" y2="98.19819819819793" stroke="black" stroke-width="1" />
  <rect x="339.2" y="67.5675675675673" width="9.6" height="9.909909909910184" fill="red" />
  <line x1="343.99999999999994" y1="250" x2="343.99999999999994" y2="255" stroke="black" stroke-width="1" />
  <text x="338.66666666666663" y="275" font-size="12" fill="black">2024-09-28</text>
  <line x1="354.66666666666663" y1="63.5135135135134" x2="354.66666666666663" y2="107.20720720720706" stroke="black" stroke-width="1" />
  <rect x="349.8666666666667" y="77.47747747747749" width="9.6" height="27.927927927927826" fill="red" />
  <line x1="354.66666666666663" y1="250" x2="354.66666666666663" y2="255" stroke="black" stroke-width="1" />
  <text x="349.3333333333333" y="275" font-size="12" fill="black">2024-09-29</text>
</svg>