<svg width="400" height="300" xmlns="http://www.w3.org/2000/svg">
  <line x1="40" y1="250" x2="360" y2="250" stroke="black" stroke-width="2" />
  <line x1="45.333333333333336" y1="184.68468468468467" x2="45.333333333333336" y2="206.75675675675672" stroke="black" stroke-width="1" />
  <rect x="40.53333333333333" y="190.9909909909911" width="9.6" height="12.612612612612624" fill="green" />
  <line x1="45.333333333333336" y1="250" x2="45.333333333333336" y2="255" stroke="black" stroke-width="1" />
  <text x="40.0" y="275" font-size="12" fill="black">2024-08-21</text>
  <line x1="56.0" y1="177.92792792792784" x2="56.0" y2="204.05405405405412" stroke="black" stroke-width="1" />
  <rect x="51.199999999999996" y="189.63963963963968" width="9.6" height="14.414414414414429" fill="red" />
  <line x1="56.0" y1="250" x2="56.0" y2="255" stroke="black" stroke-width="1" />
  <text x="50.666666666666664" y="275" font-size="12" fill="black">2024-08-22</text>
  <line x1="66.66666666666666" y1="151.8018018018018" x2="66.66666666666666" y2="198.1981981981983" stroke="black" stroke-width="1" />
  <rect x="61.86666666666666" y="154.054054054054" width="9.6" height="44.144144144144285" fill="green" />
  <line x1="66.66666666666666" y1="250" x2="66.66666666666666" y2="255" stroke="black" stroke-width="1" />
  <text x="61.33333333333333" y="275" font-size="12" fill="black">2024-08-23</text>
  <line x1="77.33333333333333" y1="153.60360360360363" x2="77.33333333333333" y2="183.33333333333326" stroke="black" stroke-width="1" />
  <rect x="72.53333333333333" y="154.054054054054" width="9.6" height="12.612612612612624" fill="red" />
  <line x1="77.33333333333333" y1="250" x2="77.33333333333333" y2="255" stroke="black" stroke-width="1" />
  <text x="72.0" y="275" font-size="12" fill="black">2024-08-24</text>
  <line x1="87.99999999999999" y1="145.945945945946" x2="87.99999999999999" y2="164.86486486486484" stroke="black" stroke-width="1" />
  <rect x="83.19999999999999" y="147.2972972972974" width="9.6" height="15.76576576576563" fill="green" />
  <line x1="87.99999999999999" y1="250" x2="87.99999999999999" y2="255" stroke="black" stroke-width="1" />
  <text x="82.66666666666666" y="275" font-size="12" fill="black">2024-08-25</text>
  <line x1="98.66666666666666" y1="147.2972972972974" x2="98.66666666666666" y2="166.21621621621625" stroke="black" stroke-width="1" />
  <rect x="93.86666666666666" y="147.2972972972974" width="9.6" height="6.756756756756613" fill="red" />
  <line x1="98.66666666666666" y1="250" x2="98.66666666666666" y2="255" stroke="black" stroke-width="1" />
  <text x="93.33333333333333" y="275" font-size="12" fill="black">2024-08-28</text>
  <line x1="109.33333333333333" y1="142.3423423423424" x2="109.33333333333333" y2="152.7027027027026" stroke="black" stroke-width="1" />
  <rect x="104.53333333333333" y="147.74774774774778" width="9.6" height="2.2522522522522044" fill="red" />
  <line x1="109.33333333333333" y1="250" x2="109.33333333333333" y2="255" stroke="black" stroke-width="1" />
  <text x="104.0" y="275" font-size="12" fill="black">2024-08-29</text>
  <line x1="119.99999999999999" y1="149.0990990990992" x2="119.99999999999999" y2="174.77477477477487" stroke="black" stroke-width="1" />
  <rect x="115.19999999999999" y="150.900900900901" width="9.6" height="11.261261261261222" fill="red" />
  <line x1="119.99999999999999" y1="250" x2="119.99999999999999" y2="255" stroke="black" stroke-width="1" />
  <text x="114.66666666666666" y="275" font-size="12" fill="black">2024-08-30</text>
  <line x1="130.66666666666666" y1="151.8018018018018" x2="130.66666666666666" y2="164.41441441441444" stroke="black" stroke-width="1" />
  <rect x="125.86666666666666" y="162.16216216216225" width="9.6" height="1" fill="red" />
  <line x1="130.66666666666666" y1="250" x2="130.66666666666666" y2="255" stroke="black" stroke-width="1" />
  <text x="125.33333333333333" y="275" font-size="12" fill="black">2024-08-31</text>
  <line x1="141.33333333333334" y1="146.8468468468468" x2="141.33333333333334" y2="165.31531531531522" stroke="black" stroke-width="1" />
  <rect x="136.53333333333333" y="156.30630630630623" width="9.6" height="2.2522522522524047" fill="green" />
  <line x1="141.33333333333334" y1="250" x2="141.33333333333334" y2="255" stroke="black" stroke-width="1" />
  <text x="136.0" y="275" font-size="12" fill="black">2024-09-01</text>
  <line x1="152.0" y1="151.8018018018018" x2="152.0" y2="174.77477477477487" stroke="black" stroke-width="1" />
  <rect x="147.2" y="151.8018018018018" width="9.6" height="4.504504504504409" fill="green" />
  <line x1="152.0" y1="250" x2="152.0" y2="255" stroke="black" stroke-width="1" />
  <text x="146.66666666666666" y="275" font-size="12" fill="black">2024-09-04</text>
  <line x1="162.66666666666666" y1="151.8018018018018" x2="162.66666666666666" y2="218.91891891891893" stroke="black" stroke-width="1" />
  <rect x="157.86666666666665" y="151.8018018018018" width="9.6" height="57.657657657657715" fill="red" />
  <line x1="162.66666666666666" y1="250" x2="162.66666666666666" y2="255" stroke="black" stroke-width="1" />
  <text x="157.33333333333331" y="275" font-size="12" fill="black">2024-09-05</text>
  <line x1="173.33333333333334" y1="211.26126126126132" x2="173.33333333333334" y2="233.78378378378378" stroke="black" stroke-width="1" />
  <rect x="168.53333333333333" y="225.22522522522516" width="9.6" height="8.558558558558618" fill="red" />
  <line x1="173.33333333333334" y1="250" x2="173.33333333333334" y2="255" stroke="black" stroke-width="1" />
  <text x="168.0" y="275" font-size="12" fill="black">2024-09-06</text>
  <line x1="184.0" y1="218.46846846846853" x2="184.0" y2="248.6486486486486" stroke="black" stroke-width="1" />
  <rect x="179.2" y="222.07207207207216" width="9.6" height="11.711711711711622" fill="green" />
  <line x1="184.0" y1="250" x2="184.0" y2="255" stroke="black" stroke-width="1" />
  <text x="178.66666666666666" y="275" font-size="12" fill="black">2024-09-07</text>
  <line x1="194.66666666666666" y1="217.11711711711712" x2="194.66666666666666" y2="250.0" stroke="black" stroke-width="1" />
  <rect x="189.86666666666665" y="222.07207207207216" width="9.6" height="27.477477477477454" fill="red" />
  <line x1="194.66666666666666" y1="250" x2="194.66666666666666" y2="255" stroke="black" stroke-width="1" />
  <text x="189.33333333333331" y="275" font-size="12" fill="black">2024-09-08</text>
  <line x1="205.33333333333334" y1="232.88288288288297" x2="205.33333333333334" y2="245.4954954954956" stroke="black" stroke-width="1" />
  <rect x="200.53333333333333" y="237.38738738738738" width="9.6" height="6.756756756756813" fill="green" />
  <line x1="205.33333333333334" y1="250" x2="205.33333333333334" y2="255" stroke="black" stroke-width="1" />
  <text x="200.0" y="275" font-size="12" fill="black">2024-09-11</text>
  <line x1="216.0" y1="224.32432432432435" x2="216.0" y2="242.7927927927928" stroke="black" stroke-width="1" />
  <rect x="211.2" y="235.13513513513516" width="9.6" height="6.306306306306213" fill="green" />
  <line x1="216.0" y1="250" x2="216.0" y2="255" stroke="black" stroke-width="1" />
  <text x="210.66666666666666" y="275" font-size="12" fill="black">2024-09-12</text>
  <line x1="226.66666666666666" y1="208.10810810810813" x2="226.66666666666666" y2="250.0" stroke="black" stroke-width="1" />
  <rect x="221.86666666666665" y="235.13513513513516" width="9.6" height="11.261261261261222" fill="red" />
  <line x1="226.66666666666666" y1="250" x2="226.66666666666666" y2="255" stroke="black" stroke-width="1" />
  <text x="221.33333333333331" y="275" font-size="12" fill="black">2024-09-13</text>
  <line x1="237.33333333333334" y1="208.5585585585585" x2="237.33333333333334" y2="242.7927927927928" stroke="black" stroke-width="1" />
  <rect x="232.53333333333333" y="236.48648648648657" width="9.6" height="2.7027027027026054" fill="green" />
  <line x1="237.33333333333334" y1="250" x2="237.33333333333334" y2="255" stroke="black" stroke-width="1" />
  <text x="232.0" y="275" font-size="12" fill="black">2024-09-14</text>
  <line x1="248.0" y1="209.9099099099099" x2="248.0" y2="234.23423423423418" stroke="black" stroke-width="1" />
  <rect x="243.2" y="219.36936936936934" width="9.6" height="14.86486486486483" fill="green" />
  <line x1="248.0" y1="250" x2="248.0" y2="255" stroke="black" stroke-width="1" />
  <text x="242.66666666666666" y="275" font-size="12" fill="black">2024-09-15</text>
  <line x1="258.66666666666663" y1="210.81081081081072" x2="258.66666666666663" y2="225.67567567567576" stroke="black" stroke-width="1" />
  <rect x="253.86666666666665" y="217.11711711711712" width="9.6" height="5.855855855855811" fill="red" />
  <line x1="258.66666666666663" y1="250" x2="258.66666666666663" y2="255" stroke="black" stroke-width="1" />
  <text x="253.33333333333331" y="275" font-size="12" fill="black">2024-09-18</text>
  <line x1="269.3333333333333" y1="187.3873873873875" x2="269.3333333333333" y2="225.22522522522516" stroke="black" stroke-width="1" />
  <rect x="264.53333333333336" y="194.5945945945947" width="9.6" height="28.828828828828655" fill="green" />
  <line x1="269.3333333333333" y1="250" x2="269.3333333333333" y2="255" stroke="black" stroke-width="1" />
  <text x="264.0" y="275" font-size="12" fill="black">2024-09-19</text>
  <line x1="279.99999999999994" y1="185.58558558558568" x2="279.99999999999994" y2="204.95495495495493" stroke="black" stroke-width="1" />
  <rect x="275.2" y="186.03603603603608" width="9.6" height="2.7027027027026054" fill="green" />
  <line x1="279.99999999999994" y1="250" x2="279.99999999999994" y2="255" stroke="black" stroke-width="1" />
  <text x="274.66666666666663" y="275" font-size="12" fill="black">2024-09-20</text>
  <line x1="290.66666666666663" y1="139.6396396396396" x2="290.66666666666663" y2="178.37837837837844" stroke="black" stroke-width="1" />
  <rect x="285.8666666666667" y="147.2972972972974" width="9.6" height="15.76576576576563" fill="green" />
  <line x1="290.66666666666663" y1="250" x2="290.66666666666663" y2="255" stroke="black" stroke-width="1" />
  <text x="285.3333333333333" y="275" font-size="12" fill="black">2024-09-21</text>
  <line x1="301.3333333333333" y1="141.44144144144138" x2="301.3333333333333" y2="172.97297297297305" stroke="black" stroke-width="1" />
  <rect x="296.53333333333336" y="142.3423423423424" width="9.6" height="30.18018018018006" fill="red" />
  <line x1="301.3333333333333" y1="250" x2="301.3333333333333" y2="255" stroke="black" stroke-width="1" />
  <text x="296.0" y="275" font-size="12" fill="black">2024-09-22</text>
  <line x1="311.99999999999994" y1="159.45945945945942" x2="311.99999999999994" y2="180.63063063063066" stroke="black" stroke-width="1" />
  <rect x="307.2" y="161.2612612612612" width="9.6" height="7.657657657657615" fill="green" />
  <line x1="311.99999999999994" y1="250" x2="311.99999999999994" y2="255" stroke="black" stroke-width="1" />
  <text x="306.66666666666663" y="275" font-size="12" fill="black">2024-09-25</text>
  <line x1="322.66666666666663" y1="92.79279279279288" x2="322.66666666666663" y2="133.78378378378378" stroke="black" stroke-width="1" />
  <rect x="317.8666666666667" y="110.36036036036032" width="9.6" height="16.21621621621623" fill="green" />
  <line x1="322.66666666666663" y1="250" x2="322.66666666666663" y2="255" stroke="black" stroke-width="1" />
  <text x="317.3333333333333" y="275" font-size="12" fill="black">2024-09-26</text>
  <line x1="333.3333333333333" y1="93.24324324324328" x2="333.3333333333333" y2="116.21621621621614" stroke="black" stroke-width="1" />
  <rect x="328.53333333333336" y="104.50450450450452" width="9.6" height="3.153153153153206" fill="green" />
  <line x1="333.3333333333333" y1="250" x2="333.3333333333333" y2="255" stroke="black" stroke-width="1" />
  <text x="328.0" y="275" font-size="12" fill="black">2024-09-27</text>
  <line x1="343.99999999999994" y1="55.85585585585582" x2="343.99999999999994" y2="88.73873873873868" stroke="black" stroke-width="1" />
  <rect x="339.2" y="72.07207207207205" width="9.6" height="12.162162162162224" fill="green" />
  <line x1="343.99999999999994" y1="250" x2="343.99999999999994" y2="255" stroke="black" stroke-width="1" />
  <text x="338.66666666666663" y="275" font-size="12" fill="black">2024-09-28</text>
  <line x1="354.66666666666663" y1="50.0" x2="354.66666666666663" y2="68.46846846846844" stroke="black" stroke-width="1" />
  <rect x="349.8666666666667" y="54.054054054054006" width="9.6" height="9.90990990991002" fill="green" />
  <line x1="354.66666666666663" y1="250" x2="354.66666666666663" y2="255" stroke="black" stroke-width="1" />
  <text x="349.3333333333333" y="275" font-size="12" fill="black">2024-09-29</text>
</svg>