<svg width="400" height="300" xmlns="http://www.w3.org/2000/svg">
  <line x1="40" y1="250" x2="360" y2="250" stroke="black" stroke-width="2" />
  <line x1="45.333333333333336" y1="175.7918552036199" x2="45.333333333333336" y2="206.0923076923079" stroke="black" stroke-width="1" />
  <rect x="40.53333333333333" y="178.68778280542978" width="9.6" height="1.8099547511311216" fill="green" />
  <line x1="45.333333333333336" y1="250" x2="45.333333333333336" y2="255" stroke="black" stroke-width="1" />
  <text x="40.0" y="275" font-size="12" fill="black">2024-08-18</text>
  <line x1="56.0" y1="154.07239819004542" x2="56.0" y2="181.94570135746613" stroke="black" stroke-width="1" />
  <rect x="51.199999999999996" y="156.9683257918553" width="9.6" height="20.995475113122144" fill="green" />
  <line x1="56.0" y1="250" x2="56.0" y2="255" stroke="black" stroke-width="1" />
  <text x="50.666666666666664" y="275" font-size="12" fill="black">2024-08-21</text>
  <line x1="66.66666666666666" y1="116.96832579185511" x2="66.66666666666666" y2="180.85972850678735" stroke="black" stroke-width="1" />
  <rect x="61.86666666666666" y="120.22624434389144" width="9.6" height="41.99095022624429" fill="green" />
  <line x1="66.66666666666666" y1="250" x2="66.66666666666666" y2="255" stroke="black" stroke-width="1" />
  <text x="61.33333333333333" y="275" font-size="12" fill="black">2024-08-22</text>
  <line x1="77.33333333333333" y1="102.66968325791856" x2="77.33333333333333" y2="142.41809954751142" stroke="black" stroke-width="1" />
  <rect x="72.53333333333333" y="118.59728506787326" width="9.6" height="13.212669683257754" fill="red" />
  <line x1="77.33333333333333" y1="250" x2="77.33333333333333" y2="255" stroke="black" stroke-width="1" />
  <text x="72.0" y="275" font-size="12" fill="black">2024-08-23</text>
  <line x1="87.99999999999999" y1="116.06334841628927" x2="87.99999999999999" y2="141.0407239819006" stroke="black" stroke-width="1" />
  <rect x="83.19999999999999" y="120.58823529411734" width="9.6" height="1.6289592760181637" fill="red" />
  <line x1="87.99999999999999" y1="250" x2="87.99999999999999" y2="255" stroke="black" stroke-width="1" />
  <text x="82.66666666666666" y="275" font-size="12" fill="black">2024-08-24</text>
  <line x1="98.66666666666666" y1="105.20361990950204" x2="98.66666666666666" y2="159.68325791855224" stroke="black" stroke-width="1" />
  <rect x="93.86666666666666" y="106.10859728506784" width="9.6" height="13.755656108597142" fill="red" />
  <line x1="98.66666666666666" y1="250" x2="98.66666666666666" y2="255" stroke="black" stroke-width="1" />
  <text x="93.33333333333333" y="275" font-size="12" fill="black">2024-08-25</text>
  <line x1="109.33333333333333" y1="102.30769230769215" x2="109.33333333333333" y2="122.39819004524898" stroke="black" stroke-width="1" />
  <rect x="104.53333333333333" y="111.7194570135747" width="9.6" height="6.334841628959183" fill="red" />
  <line x1="109.33333333333333" y1="250" x2="109.33333333333333" y2="255" stroke="black" stroke-width="1" />
  <text x="104.0" y="275" font-size="12" fill="black">2024-08-28</text>
  <line x1="119.99999999999999" y1="101.5837104072398" x2="119.99999999999999" y2="144.29864253393643" stroke="black" stroke-width="1" />
  <rect x="115.19999999999999" y="111.90045248868765" width="9.6" height="18.280542986425203" fill="red" />
  <line x1="119.99999999999999" y1="250" x2="119.99999999999999" y2="255" stroke="black" stroke-width="1" />
  <text x="114.66666666666666" y="275" font-size="12" fill="black">2024-08-29</text>
  <line x1="130.66666666666666" y1="122.15927601809945" x2="130.66666666666666" y2="165.47511312217205" stroke="black" stroke-width="1" />
  <rect x="125.86666666666666" y="125.6561085972848" width="9.6" height="29.502262443439392" fill="red" />
  <line x1="130.66666666666666" y1="250" x2="130.66666666666666" y2="255" stroke="black" stroke-width="1" />
  <text x="125.33333333333333" y="275" font-size="12" fill="black">2024-08-30</text>
  <line x1="141.33333333333334" y1="154.43438914027132" x2="141.33333333333334" y2="191.53846153846163" stroke="black" stroke-width="1" />
  <rect x="136.53333333333333" y="158.0542986425341" width="9.6" height="30.226244343891224" fill="red" />
  <line x1="141.33333333333334" y1="250" x2="141.33333333333334" y2="255" stroke="black" stroke-width="1" />
  <text x="136.0" y="275" font-size="12" fill="black">2024-08-31</text>
  <line x1="152.0" y1="161.67420814479632" x2="152.0" y2="203.48416289592765" stroke="black" stroke-width="1" />
  <rect x="147.2" y="173.9819004524888" width="9.6" height="14.841628959275917" fill="green" />
  <line x1="152.0" y1="250" x2="152.0" y2="255" stroke="black" stroke-width="1" />
  <text x="146.66666666666666" y="275" font-size="12" fill="black">2024-09-01</text>
  <line x1="162.66666666666666" y1="83.30316742081459" x2="162.66666666666666" y2="192.08144796380103" stroke="black" stroke-width="1" />
  <rect x="157.86666666666665" y="89.63800904977379" width="9.6" height="93.39366515837112" fill="green" />
  <line x1="162.66666666666666" y1="250" x2="162.66666666666666" y2="255" stroke="black" stroke-width="1" />
  <text x="157.33333333333331" y="275" font-size="12" fill="black">2024-09-05</text>
  <line x1="173.33333333333334" y1="51.44796380090469" x2="173.33333333333334" y2="112.26244343891409" stroke="black" stroke-width="1" />
  <rect x="168.53333333333333" y="71.90045248868745" width="9.6" height="11.221719457013675" fill="green" />
  <line x1="173.33333333333334" y1="250" x2="173.33333333333334" y2="255" stroke="black" stroke-width="1" />
  <text x="168.0" y="275" font-size="12" fill="black">2024-09-06</text>
  <line x1="184.0" y1="50.0" x2="184.0" y2="89.99999999999969" stroke="black" stroke-width="1" />
  <rect x="179.2" y="57.782805429863885" width="9.6" height="10.316742081448371" fill="green" />
  <line x1="184.0" y1="250" x2="184.0" y2="255" stroke="black" stroke-width="1" />
  <text x="178.66666666666666" y="275" font-size="12" fill="black">2024-09-07</text>
  <line x1="194.66666666666666" y1="70.81447963800866" x2="194.66666666666666" y2="99.41176470588223" stroke="black" stroke-width="1" />
  <rect x="189.86666666666665" y="91.44796380090489" width="9.6" height="1.8099547511311216" fill="red" />
  <line x1="194.66666666666666" y1="250" x2="194.66666666666666" y2="255" stroke="black" stroke-width="1" />
  <text x="189.33333333333331" y="275" font-size="12" fill="black">2024-09-08</text>
  <line x1="205.33333333333334" y1="67.01357466063348" x2="205.33333333333334" y2="120.13574660633495" stroke="black" stroke-width="1" />
  <rect x="200.53333333333333" y="77.87330316742072" width="9.6" height="20.633484162895712" fill="green" />
  <line x1="205.33333333333334" y1="250" x2="205.33333333333334" y2="255" stroke="black" stroke-width="1" />
  <text x="200.0" y="275" font-size="12" fill="black">2024-09-11</text>
  <line x1="216.0" y1="61.40271493212663" x2="216.0" y2="87.82805429864266" stroke="black" stroke-width="1" />
  <rect x="211.2" y="69.54751131221693" width="9.6" height="15.203619909502347" fill="red" />
  <line x1="216.0" y1="250" x2="216.0" y2="255" stroke="black" stroke-width="1" />
  <text x="210.66666666666666" y="275" font-size="12" fill="black">2024-09-12</text>
  <line x1="226.66666666666666" y1="85.83710407239806" x2="226.66666666666666" y2="146.01809954751107" stroke="black" stroke-width="1" />
  <rect x="221.86666666666665" y="91.44796380090489" width="9.6" height="30.045248868778266" fill="red" />
  <line x1="226.66666666666666" y1="250" x2="226.66666666666666" y2="255" stroke="black" stroke-width="1" />
  <text x="221.33333333333331" y="275" font-size="12" fill="black">2024-09-13</text>
  <line x1="237.33333333333334" y1="86.92307692307685" x2="237.33333333333334" y2="154.6153846153848" stroke="black" stroke-width="1" />
  <rect x="232.53333333333333" y="94.88687782805417" width="9.6" height="26.60633484162898" fill="green" />
  <line x1="237.33333333333334" y1="250" x2="237.33333333333334" y2="255" stroke="black" stroke-width="1" />
  <text x="232.0" y="275" font-size="12" fill="black">2024-09-14</text>
  <line x1="248.0" y1="82.03619909502234" x2="248.0" y2="110.90497737556535" stroke="black" stroke-width="1" />
  <rect x="243.2" y="91.35746606334843" width="9.6" height="1.5384615384611704" fill="red" />
  <line x1="248.0" y1="250" x2="248.0" y2="255" stroke="black" stroke-width="1" />
  <text x="242.66666666666666" y="275" font-size="12" fill="black">2024-09-15</text>
  <line x1="258.66666666666663" y1="55.52036199094985" x2="258.66666666666663" y2="111.1764705882353" stroke="black" stroke-width="1" />
  <rect x="253.86666666666665" y="63.21266968325776" width="9.6" height="32.398190045248775" fill="red" />
  <line x1="258.66666666666663" y1="250" x2="258.66666666666663" y2="255" stroke="black" stroke-width="1" />
  <text x="253.33333333333331" y="275" font-size="12" fill="black">2024-09-18</text>
  <line x1="269.3333333333333" y1="79.68325791855185" x2="269.3333333333333" y2="112.0814479638006" stroke="black" stroke-width="1" />
  <rect x="264.53333333333336" y="99.41176470588223" width="9.6" height="2.3529411764705097" fill="red" />
  <line x1="269.3333333333333" y1="250" x2="269.3333333333333" y2="255" stroke="black" stroke-width="1" />
  <text x="264.0" y="275" font-size="12" fill="black">2024-09-19</text>
  <line x1="279.99999999999994" y1="80.22624434389121" x2="279.99999999999994" y2="145.92760180995458" stroke="black" stroke-width="1" />
  <rect x="275.2" y="101.94570135746571" width="9.6" height="29.864253393665308" fill="red" />
  <line x1="279.99999999999994" y1="250" x2="279.99999999999994" y2="255" stroke="black" stroke-width="1" />
  <text x="274.66666666666663" y="275" font-size="12" fill="black">2024-09-20</text>
  <line x1="290.66666666666663" y1="113.52941176470583" x2="290.66666666666663" y2="150.99547511312204" stroke="black" stroke-width="1" />
  <rect x="285.8666666666667" y="122.03619909502255" width="9.6" height="19.72850678733041" fill="red" />
  <line x1="290.66666666666663" y1="250" x2="290.66666666666663" y2="255" stroke="black" stroke-width="1" />
  <text x="285.3333333333333" y="275" font-size="12" fill="black">2024-09-21</text>
  <line x1="301.3333333333333" y1="157.8733031674206" x2="301.3333333333333" y2="222.12669683257928" stroke="black" stroke-width="1" />
  <rect x="296.53333333333336" y="179.5927601809956" width="9.6" height="25.158371040723775" fill="red" />
  <line x1="301.3333333333333" y1="250" x2="301.3333333333333" y2="255" stroke="black" stroke-width="1" />
  <text x="296.0" y="275" font-size="12" fill="black">2024-09-22</text>
  <line x1="311.99999999999994" y1="154.79638009049773" x2="311.99999999999994" y2="212.9864253393667" stroke="black" stroke-width="1" />
  <rect x="307.2" y="187.9185520361989" width="9.6" height="22.44343891402735" fill="green" />
  <line x1="311.99999999999994" y1="250" x2="311.99999999999994" y2="255" stroke="black" stroke-width="1" />
  <text x="306.66666666666663" y="275" font-size="12" fill="black">2024-09-25</text>
  <line x1="322.66666666666663" y1="197.14932126696846" x2="322.66666666666663" y2="235.1583710407241" stroke="black" stroke-width="1" />
  <rect x="317.8666666666667" y="208.19004524886867" width="9.6" height="19.366515837104494" fill="red" />
  <line x1="322.66666666666663" y1="250" x2="322.66666666666663" y2="255" stroke="black" stroke-width="1" />
  <text x="317.3333333333333" y="275" font-size="12" fill="black">2024-09-26</text>
  <line x1="333.3333333333333" y1="212.26244343891435" x2="333.3333333333333" y2="248.51040723981893" stroke="black" stroke-width="1" />
  <rect x="328.53333333333336" y="218.86877828054295" width="9.6" height="18.099547511312245" fill="red" />
  <line x1="333.3333333333333" y1="250" x2="333.3333333333333" y2="255" stroke="black" stroke-width="1" />
  <text x="328.0" y="275" font-size="12" fill="black">2024-09-27</text>
  <line x1="343.99999999999994" y1="208.00904977375572" x2="343.99999999999994" y2="250.0" stroke="black" stroke-width="1" />
  <rect x="339.2" y="231.7194570135748" width="9.6" height="8.506787330316735" fill="green" />
  <line x1="343.99999999999994" y1="250" x2="343.99999999999994" y2="255" stroke="black" stroke-width="1" />
  <text x="338.66666666666663" y="275" font-size="12" fill="black">2024-09-28</text>
  <line x1="354.66666666666663" y1="196.33484162895914" x2="354.66666666666663" y2="231.90045248868776" stroke="black" stroke-width="1" />
  <rect x="349.8666666666667" y="226.10859728506796" width="9.6" height="1" fill="green" />
  <line x1="354.66666666666663" y1="250" x2="354.66666666666663" y2="255" stroke="black" stroke-width="1" />
  <text x="349.3333333333333" y="275" font-size="12" fill="black">2024-09-29</text>
</svg>