<svg width="400" height="300" xmlns="http://www.w3.org/2000/svg">
  <line x1="40" y1="250" x2="360" y2="250" stroke="black" stroke-width="2" />
  <line x1="45.333333333333336" y1="222.172351885099" x2="45.333333333333336" y2="250.0" stroke="black" stroke-width="1" />
  <rect x="40.53333333333333" y="230.4308797127473" width="9.6" height="1.2567324955115486" fill="green" />
  <line x1="45.333333333333336" y1="250" x2="45.333333333333336" y2="255" stroke="black" stroke-width="1" />
  <text x="40.0" y="275" font-size="12" fill="black">2024-08-18</text>
  <line x1="56.0" y1="206.28366247755827" x2="56.0" y2="225.4039497307006" stroke="black" stroke-width="1" />
  <rect x="51.199999999999996" y="220.91561938958748" width="9.6" height="4.30879712746824" fill="green" />
  <line x1="56.0" y1="250" x2="56.0" y2="255" stroke="black" stroke-width="1" />
  <text x="50.666666666666664" y="275" font-size="12" fill="black">2024-08-21</text>
  <line x1="66.66666666666666" y1="182.49551166965898" x2="66.66666666666666" y2="226.48114901256724" stroke="black" stroke-width="1" />
  <rect x="61.86666666666666" y="185.18850987432694" width="9.6" height="29.443447037701766" fill="green" />
  <line x1="66.66666666666666" y1="250" x2="66.66666666666666" y2="255" stroke="black" stroke-width="1" />
  <text x="61.33333333333333" y="275" font-size="12" fill="black">2024-08-22</text>
  <line x1="77.33333333333333" y1="158.6175942549375" x2="77.33333333333333" y2="199.73070017953347" stroke="black" stroke-width="1" />
  <rect x="72.53333333333333" y="189.13824057450645" width="9.6" height="1" fill="red" />
  <line x1="77.33333333333333" y1="250" x2="77.33333333333333" y2="255" stroke="black" stroke-width="1" />
  <text x="72.0" y="275" font-size="12" fill="black">2024-08-23</text>
  <line x1="87.99999999999999" y1="170.28725314183117" x2="87.99999999999999" y2="207.98922800718174" stroke="black" stroke-width="1" />
  <rect x="83.19999999999999" y="176.7504488330343" width="9.6" height="13.105924596050102" fill="red" />
  <line x1="87.99999999999999" y1="250" x2="87.99999999999999" y2="255" stroke="black" stroke-width="1" />
  <text x="82.66666666666666" y="275" font-size="12" fill="black">2024-08-24</text>
  <line x1="98.66666666666666" y1="190.57450628366237" x2="98.66666666666666" y2="223.96768402154416" stroke="black" stroke-width="1" />
  <rect x="93.86666666666666" y="191.65170556552954" width="9.6" height="15.79892280071858" fill="red" />
  <line x1="98.66666666666666" y1="250" x2="98.66666666666666" y2="255" stroke="black" stroke-width="1" />
  <text x="93.33333333333333" y="275" font-size="12" fill="black">2024-08-25</text>
  <line x1="109.33333333333333" y1="175.13464991023352" x2="109.33333333333333" y2="215.97845601436293" stroke="black" stroke-width="1" />
  <rect x="104.53333333333333" y="186.26570915619413" width="9.6" height="29.712746858168817" fill="green" />
  <line x1="109.33333333333333" y1="250" x2="109.33333333333333" y2="255" stroke="black" stroke-width="1" />
  <text x="104.0" y="275" font-size="12" fill="black">2024-08-28</text>
  <line x1="119.99999999999999" y1="172.8007181328548" x2="119.99999999999999" y2="209.06642728904842" stroke="black" stroke-width="1" />
  <rect x="115.19999999999999" y="177.64811490125663" width="9.6" height="28.36624775583509" fill="red" />
  <line x1="119.99999999999999" y1="250" x2="119.99999999999999" y2="255" stroke="black" stroke-width="1" />
  <text x="114.66666666666666" y="275" font-size="12" fill="black">2024-08-29</text>
  <line x1="130.66666666666666" y1="171.00538599640964" x2="130.66666666666666" y2="218.04308797127462" stroke="black" stroke-width="1" />
  <rect x="125.86666666666666" y="202.96229802513503" width="9.6" height="6.463195691202615" fill="red" />
  <line x1="130.66666666666666" y1="250" x2="130.66666666666666" y2="255" stroke="black" stroke-width="1" />
  <text x="125.33333333333333" y="275" font-size="12" fill="black">2024-08-30</text>
  <line x1="141.33333333333334" y1="181.77737881508102" x2="141.33333333333334" y2="211.57989228007202" stroke="black" stroke-width="1" />
  <rect x="136.53333333333333" y="192.01077199281877" width="9.6" height="5.026929982046705" fill="green" />
  <line x1="141.33333333333334" y1="250" x2="141.33333333333334" y2="255" stroke="black" stroke-width="1" />
  <text x="136.0" y="275" font-size="12" fill="black">2024-08-31</text>
  <line x1="152.0" y1="158.79712746858186" x2="152.0" y2="198.11490125673268" stroke="black" stroke-width="1" />
  <rect x="147.2" y="164.90125673249577" width="9.6" height="24.775583482944295" fill="green" />
  <line x1="152.0" y1="250" x2="152.0" y2="255" stroke="black" stroke-width="1" />
  <text x="146.66666666666666" y="275" font-size="12" fill="black">2024-09-01</text>
  <line x1="162.66666666666666" y1="102.78276481149015" x2="162.66666666666666" y2="174.77558348294428" stroke="black" stroke-width="1" />
  <rect x="157.86666666666665" y="111.40035906642714" width="9.6" height="62.6570915619392" fill="green" />
  <line x1="162.66666666666666" y1="250" x2="162.66666666666666" y2="255" stroke="black" stroke-width="1" />
  <text x="157.33333333333331" y="275" font-size="12" fill="black">2024-09-05</text>
  <line x1="173.33333333333334" y1="84.8294434470377" x2="173.33333333333334" y2="127.37881508079008" stroke="black" stroke-width="1" />
  <rect x="168.53333333333333" y="86.62477558348286" width="9.6" height="40.75403949730723" fill="green" />
  <line x1="173.33333333333334" y1="250" x2="173.33333333333334" y2="255" stroke="black" stroke-width="1" />
  <text x="168.0" y="275" font-size="12" fill="black">2024-09-06</text>
  <line x1="184.0" y1="74.95511669658865" x2="184.0" y2="108.70736086175967" stroke="black" stroke-width="1" />
  <rect x="179.2" y="85.00897666068207" width="9.6" height="9.335727109515455" fill="red" />
  <line x1="184.0" y1="250" x2="184.0" y2="255" stroke="black" stroke-width="1" />
  <text x="178.66666666666666" y="275" font-size="12" fill="black">2024-09-07</text>
  <line x1="194.66666666666666" y1="66.1579892280073" x2="194.66666666666666" y2="96.67863554757625" stroke="black" stroke-width="1" />
  <rect x="189.86666666666665" y="89.13824057450645" width="9.6" height="3.052064631956691" fill="red" />
  <line x1="194.66666666666666" y1="250" x2="194.66666666666666" y2="255" stroke="black" stroke-width="1" />
  <text x="189.33333333333331" y="275" font-size="12" fill="black">2024-09-08</text>
  <line x1="205.33333333333334" y1="69.74865350089757" x2="205.33333333333334" y2="108.88689407540403" stroke="black" stroke-width="1" />
  <rect x="200.53333333333333" y="83.75224416517051" width="9.6" height="9.335727109515455" fill="green" />
  <line x1="205.33333333333334" y1="250" x2="205.33333333333334" y2="255" stroke="black" stroke-width="1" />
  <text x="200.0" y="275" font-size="12" fill="black">2024-09-11</text>
  <line x1="216.0" y1="50.0" x2="216.0" y2="86.4452423698385" stroke="black" stroke-width="1" />
  <rect x="211.2" y="52.69299820466796" width="9.6" height="33.75224416517052" fill="green" />
  <line x1="216.0" y1="250" x2="216.0" y2="255" stroke="black" stroke-width="1" />
  <text x="210.66666666666666" y="275" font-size="12" fill="black">2024-09-12</text>
  <line x1="226.66666666666666" y1="66.87612208258525" x2="226.66666666666666" y2="127.37881508079008" stroke="black" stroke-width="1" />
  <rect x="221.86666666666665" y="74.05745062836633" width="9.6" height="48.11490125673268" fill="red" />
  <line x1="226.66666666666666" y1="250" x2="226.66666666666666" y2="255" stroke="black" stroke-width="1" />
  <text x="221.33333333333331" y="275" font-size="12" fill="black">2024-09-13</text>
  <line x1="237.33333333333334" y1="109.76481149012582" x2="237.33333333333334" y2="148.74326750448844" stroke="black" stroke-width="1" />
  <rect x="232.53333333333333" y="122.53141831238774" width="9.6" height="7.719928186714674" fill="red" />
  <line x1="237.33333333333334" y1="250" x2="237.33333333333334" y2="255" stroke="black" stroke-width="1" />
  <text x="232.0" y="275" font-size="12" fill="black">2024-09-14</text>
  <line x1="248.0" y1="111.04129263913842" x2="248.0" y2="142.28007181328533" stroke="black" stroke-width="1" />
  <rect x="243.2" y="119.29982046678617" width="9.6" height="12.74685816876138" fill="green" />
  <line x1="248.0" y1="250" x2="248.0" y2="255" stroke="black" stroke-width="1" />
  <text x="242.66666666666666" y="275" font-size="12" fill="black">2024-09-15</text>
  <line x1="258.66666666666663" y1="61.31059245960495" x2="258.66666666666663" y2="114.99102333931793" stroke="black" stroke-width="1" />
  <rect x="253.86666666666665" y="62.567324955116504" width="9.6" height="45.42190305206471" fill="green" />
  <line x1="258.66666666666663" y1="250" x2="258.66666666666663" y2="255" stroke="black" stroke-width="1" />
  <text x="253.33333333333331" y="275" font-size="12" fill="black">2024-09-18</text>
  <line x1="269.3333333333333" y1="67.41472172351885" x2="269.3333333333333" y2="96.31956912028701" stroke="black" stroke-width="1" />
  <rect x="264.53333333333336" y="73.60861759425492" width="9.6" height="13.375224416517154" fill="red" />
  <line x1="269.3333333333333" y1="250" x2="269.3333333333333" y2="255" stroke="black" stroke-width="1" />
  <text x="264.0" y="275" font-size="12" fill="black">2024-09-19</text>
  <line x1="279.99999999999994" y1="86.62477558348286" x2="279.99999999999994" y2="146.40933572710972" stroke="black" stroke-width="1" />
  <rect x="275.2" y="101.88509874326732" width="9.6" height="20.28725314183169" fill="red" />
  <line x1="279.99999999999994" y1="250" x2="279.99999999999994" y2="255" stroke="black" stroke-width="1" />
  <text x="274.66666666666663" y="275" font-size="12" fill="black">2024-09-20</text>
  <line x1="290.66666666666663" y1="135.8168761220827" x2="290.66666666666663" y2="185.7271095152605" stroke="black" stroke-width="1" />
  <rect x="285.8666666666667" y="140.8438061041294" width="9.6" height="24.05745062836634" fill="red" />
  <line x1="290.66666666666663" y1="250" x2="290.66666666666663" y2="255" stroke="black" stroke-width="1" />
  <text x="285.3333333333333" y="275" font-size="12" fill="black">2024-09-21</text>
  <line x1="301.3333333333333" y1="111.04129263913842" x2="301.3333333333333" y2="165.61938958707373" stroke="black" stroke-width="1" />
  <rect x="296.53333333333336" y="116.78635547576309" width="9.6" height="48.65350089766627" fill="green" />
  <line x1="301.3333333333333" y1="250" x2="301.3333333333333" y2="255" stroke="black" stroke-width="1" />
  <text x="296.0" y="275" font-size="12" fill="black">2024-09-22</text>
  <line x1="311.99999999999994" y1="99.4614003590664" x2="311.99999999999994" y2="146.04847396768398" stroke="black" stroke-width="1" />
  <rect x="307.2" y="120.55655296229824" width="9.6" height="4.30879712746824" fill="red" />
  <line x1="311.99999999999994" y1="250" x2="311.99999999999994" y2="255" stroke="black" stroke-width="1" />
  <text x="306.66666666666663" y="275" font-size="12" fill="black">2024-09-25</text>
  <line x1="322.66666666666663" y1="111.75942549371638" x2="322.66666666666663" y2="145.60143626570908" stroke="black" stroke-width="1" />
  <rect x="317.8666666666667" y="134.38061041292627" width="9.6" height="6.463195691203126" fill="green" />
  <line x1="322.66666666666663" y1="250" x2="322.66666666666663" y2="255" stroke="black" stroke-width="1" />
  <text x="317.3333333333333" y="275" font-size="12" fill="black">2024-09-26</text>
  <line x1="333.3333333333333" y1="108.5278276481148" x2="333.3333333333333" y2="155.5655296229803" stroke="black" stroke-width="1" />
  <rect x="328.53333333333336" y="119.47935368043105" width="9.6" height="32.49551166965897" fill="red" />
  <line x1="333.3333333333333" y1="250" x2="333.3333333333333" y2="255" stroke="black" stroke-width="1" />
  <text x="328.0" y="275" font-size="12" fill="black">2024-09-27</text>
  <line x1="343.99999999999994" y1="109.78456014362635" x2="343.99999999999994" y2="168.1328545780968" stroke="black" stroke-width="1" />
  <rect x="339.2" y="134.9192100538599" width="9.6" height="30.700179533213824" fill="green" />
  <line x1="343.99999999999994" y1="250" x2="343.99999999999994" y2="255" stroke="black" stroke-width="1" />
  <text x="338.66666666666663" y="275" font-size="12" fill="black">2024-09-28</text>
  <line x1="354.66666666666663" y1="112.74685816876138" x2="354.66666666666663" y2="146.22980251346485" stroke="black" stroke-width="1" />
  <rect x="349.8666666666667" y="128.815080789946" width="9.6" height="9.694793536804688" fill="green" />
  <line x1="354.66666666666663" y1="250" x2="354.66666666666663" y2="255" stroke="black" stroke-width="1" />
  <text x="349.3333333333333" y="275" font-size="12" fill="black">2024-09-29</text>
</svg>