<svg width="400" height="300" xmlns="http://www.w3.org/2000/svg">
  <line x1="40" y1="250" x2="360" y2="250" stroke="black" stroke-width="2" />
  <line x1="45.333333333333336" y1="100.22421524663696" x2="45.333333333333336" y2="137.8923766816144" stroke="black" stroke-width="1" />
  <rect x="40.53333333333333" y="111.8834080717489" width="9.6" height="25.112107623318476" fill="green" />
  <line x1="45.333333333333336" y1="250" x2="45.333333333333336" y2="255" stroke="black" stroke-width="1" />
  <text x="40.0" y="275" font-size="12" fill="black">2024-08-21</text>
  <line x1="56.0" y1="92.15246636771312" x2="56.0" y2="110.08968609865482" stroke="black" stroke-width="1" />
  <rect x="51.199999999999996" y="101.12107623318397" width="9.6" height="5.3811659192824575" fill="green" />
  <line x1="56.0" y1="250" x2="56.0" y2="255" stroke="black" stroke-width="1" />
  <text x="50.666666666666664" y="275" font-size="12" fill="black">2024-08-22</text>
  <line x1="66.66666666666666" y1="91.2556053811661" x2="66.66666666666666" y2="113.67713004484321" stroke="black" stroke-width="1" />
  <rect x="61.86666666666666" y="92.15246636771312" width="9.6" height="5.3811659192824575" fill="green" />
  <line x1="66.66666666666666" y1="250" x2="66.66666666666666" y2="255" stroke="black" stroke-width="1" />
  <text x="61.33333333333333" y="275" font-size="12" fill="black">2024-08-23</text>
  <line x1="77.33333333333333" y1="88.56502242152473" x2="77.33333333333333" y2="110.98654708520186" stroke="black" stroke-width="1" />
  <rect x="72.53333333333333" y="92.15246636771312" width="9.6" height="10.762331838564915" fill="red" />
  <line x1="77.33333333333333" y1="250" x2="77.33333333333333" y2="255" stroke="black" stroke-width="1" />
  <text x="72.0" y="275" font-size="12" fill="black">2024-08-24</text>
  <line x1="87.99999999999999" y1="93.04932735426016" x2="87.99999999999999" y2="136.09865470852034" stroke="black" stroke-width="1" />
  <rect x="83.19999999999999" y="93.9461883408072" width="9.6" height="19.730941704036017" fill="green" />
  <line x1="87.99999999999999" y1="250" x2="87.99999999999999" y2="255" stroke="black" stroke-width="1" />
  <text x="82.66666666666666" y="275" font-size="12" fill="black">2024-08-25</text>
  <line x1="98.66666666666666" y1="93.04932735426016" x2="98.66666666666666" y2="114.57399103139025" stroke="black" stroke-width="1" />
  <rect x="93.86666666666666" y="93.9461883408072" width="9.6" height="12.556053811659238" fill="red" />
  <line x1="98.66666666666666" y1="250" x2="98.66666666666666" y2="255" stroke="black" stroke-width="1" />
  <text x="93.33333333333333" y="275" font-size="12" fill="black">2024-08-28</text>
  <line x1="109.33333333333333" y1="96.63677130044854" x2="109.33333333333333" y2="106.50224215246644" stroke="black" stroke-width="1" />
  <rect x="104.53333333333333" y="99.32735426008966" width="9.6" height="6.278026905829746" fill="green" />
  <line x1="109.33333333333333" y1="250" x2="109.33333333333333" y2="255" stroke="black" stroke-width="1" />
  <text x="104.0" y="275" font-size="12" fill="black">2024-08-29</text>
  <line x1="119.99999999999999" y1="86.77130044843068" x2="119.99999999999999" y2="105.6053811659194" stroke="black" stroke-width="1" />
  <rect x="115.19999999999999" y="102.91479820627805" width="9.6" height="2.690582959641356" fill="red" />
  <line x1="119.99999999999999" y1="250" x2="119.99999999999999" y2="255" stroke="black" stroke-width="1" />
  <text x="114.66666666666666" y="275" font-size="12" fill="black">2024-08-30</text>
  <line x1="130.66666666666666" y1="93.04932735426016" x2="130.66666666666666" y2="110.08968609865482" stroke="black" stroke-width="1" />
  <rect x="125.86666666666666" y="98.43049327354262" width="9.6" height="11.659192825112203" fill="green" />
  <line x1="130.66666666666666" y1="250" x2="130.66666666666666" y2="255" stroke="black" stroke-width="1" />
  <text x="125.33333333333333" y="275" font-size="12" fill="black">2024-08-31</text>
  <line x1="141.33333333333334" y1="79.5964125560539" x2="141.33333333333334" y2="115.47085201793729" stroke="black" stroke-width="1" />
  <rect x="136.53333333333333" y="79.5964125560539" width="9.6" height="23.318385650224155" fill="green" />
  <line x1="141.33333333333334" y1="250" x2="141.33333333333334" y2="255" stroke="black" stroke-width="1" />
  <text x="136.0" y="275" font-size="12" fill="black">2024-09-01</text>
  <line x1="152.0" y1="50.0" x2="152.0" y2="89.46188340807177" stroke="black" stroke-width="1" />
  <rect x="147.2" y="60.76233183856516" width="9.6" height="4.484304932735424" fill="red" />
  <line x1="152.0" y1="250" x2="152.0" y2="255" stroke="black" stroke-width="1" />
  <text x="146.66666666666666" y="275" font-size="12" fill="black">2024-09-04</text>
  <line x1="162.66666666666666" y1="70.62780269058305" x2="162.66666666666666" y2="145.9641255605382" stroke="black" stroke-width="1" />
  <rect x="157.86666666666665" y="82.28699551569525" width="9.6" height="60.986547085201614" fill="red" />
  <line x1="162.66666666666666" y1="250" x2="162.66666666666666" y2="255" stroke="black" stroke-width="1" />
  <text x="157.33333333333331" y="275" font-size="12" fill="black">2024-09-05</text>
  <line x1="173.33333333333334" y1="156.72645739910314" x2="173.33333333333334" y2="197.08520179372195" stroke="black" stroke-width="1" />
  <rect x="168.53333333333333" y="159.4170403587445" width="9.6" height="18.834080717488728" fill="green" />
  <line x1="173.33333333333334" y1="250" x2="173.33333333333334" y2="255" stroke="black" stroke-width="1" />
  <text x="168.0" y="275" font-size="12" fill="black">2024-09-06</text>
  <line x1="184.0" y1="157.62331838565018" x2="184.0" y2="183.63228699551567" stroke="black" stroke-width="1" />
  <rect x="179.2" y="159.4170403587445" width="9.6" height="17.937219730941695" fill="red" />
  <line x1="184.0" y1="250" x2="184.0" y2="255" stroke="black" stroke-width="1" />
  <text x="178.66666666666666" y="275" font-size="12" fill="black">2024-09-07</text>
  <line x1="194.66666666666666" y1="149.5515695067266" x2="194.66666666666666" y2="202.4663677130044" stroke="black" stroke-width="1" />
  <rect x="189.86666666666665" y="177.3542600896862" width="9.6" height="23.318385650224155" fill="red" />
  <line x1="194.66666666666666" y1="250" x2="194.66666666666666" y2="255" stroke="black" stroke-width="1" />
  <text x="189.33333333333331" y="275" font-size="12" fill="black">2024-09-08</text>
  <line x1="205.33333333333334" y1="171.97309417040373" x2="205.33333333333334" y2="202.4663677130044" stroke="black" stroke-width="1" />
  <rect x="200.53333333333333" y="193.49775784753356" width="9.6" height="7.1748878923767805" fill="green" />
  <line x1="205.33333333333334" y1="250" x2="205.33333333333334" y2="255" stroke="black" stroke-width="1" />
  <text x="200.0" y="275" font-size="12" fill="black">2024-09-11</text>
  <line x1="216.0" y1="168.38565022421534" x2="216.0" y2="201.56950672645738" stroke="black" stroke-width="1" />
  <rect x="211.2" y="169.28251121076238" width="9.6" height="19.730941704035764" fill="red" />
  <line x1="216.0" y1="250" x2="216.0" y2="255" stroke="black" stroke-width="1" />
  <text x="210.66666666666666" y="275" font-size="12" fill="black">2024-09-12</text>
  <line x1="226.66666666666666" y1="177.3542600896862" x2="226.66666666666666" y2="212.33183856502254" stroke="black" stroke-width="1" />
  <rect x="221.86666666666665" y="189.01345291479814" width="9.6" height="15.246636771300594" fill="red" />
  <line x1="226.66666666666666" y1="250" x2="226.66666666666666" y2="255" stroke="black" stroke-width="1" />
  <text x="221.33333333333331" y="275" font-size="12" fill="black">2024-09-13</text>
  <line x1="237.33333333333334" y1="176.45739910313915" x2="237.33333333333334" y2="209.6412556053812" stroke="black" stroke-width="1" />
  <rect x="232.53333333333333" y="185.42600896861" width="9.6" height="8.07174887892356" fill="red" />
  <line x1="237.33333333333334" y1="250" x2="237.33333333333334" y2="255" stroke="black" stroke-width="1" />
  <text x="232.0" y="275" font-size="12" fill="black">2024-09-14</text>
  <line x1="248.0" y1="178.25112107623323" x2="248.0" y2="221.3004484304934" stroke="black" stroke-width="1" />
  <rect x="243.2" y="182.73542600896866" width="9.6" height="32.286995515695004" fill="red" />
  <line x1="248.0" y1="250" x2="248.0" y2="255" stroke="black" stroke-width="1" />
  <text x="242.66666666666666" y="275" font-size="12" fill="black">2024-09-15</text>
  <line x1="258.66666666666663" y1="208.74439461883415" x2="258.66666666666663" y2="250.0" stroke="black" stroke-width="1" />
  <rect x="253.86666666666665" y="212.33183856502254" width="9.6" height="31.390134529147968" fill="red" />
  <line x1="258.66666666666663" y1="250" x2="258.66666666666663" y2="255" stroke="black" stroke-width="1" />
  <text x="253.33333333333331" y="275" font-size="12" fill="black">2024-09-18</text>
  <line x1="269.3333333333333" y1="202.4663677130044" x2="269.3333333333333" y2="236.54708520179372" stroke="black" stroke-width="1" />
  <rect x="264.53333333333336" y="218.60986547085204" width="9.6" height="17.937219730941695" fill="green" />
  <line x1="269.3333333333333" y1="250" x2="269.3333333333333" y2="255" stroke="black" stroke-width="1" />
  <text x="264.0" y="275" font-size="12" fill="black">2024-09-19</text>
  <line x1="279.99999999999994" y1="219.50672645739905" x2="279.99999999999994" y2="239.2376681614351" stroke="black" stroke-width="1" />
  <rect x="275.2" y="219.50672645739905" width="9.6" height="15.246636771300594" fill="red" />
  <line x1="279.99999999999994" y1="250" x2="279.99999999999994" y2="255" stroke="black" stroke-width="1" />
  <text x="274.66666666666663" y="275" font-size="12" fill="black">2024-09-20</text>
  <line x1="290.66666666666663" y1="144.1704035874439" x2="290.66666666666663" y2="217.713004484305" stroke="black" stroke-width="1" />
  <rect x="285.8666666666667" y="152.2421524663677" width="9.6" height="53.81165919282509" fill="green" />
  <line x1="290.66666666666663" y1="250" x2="290.66666666666663" y2="255" stroke="black" stroke-width="1" />
  <text x="285.3333333333333" y="275" font-size="12" fill="black">2024-09-21</text>
  <line x1="301.3333333333333" y1="138.78923766816143" x2="301.3333333333333" y2="188.1165919282511" stroke="black" stroke-width="1" />
  <rect x="296.53333333333336" y="152.2421524663677" width="9.6" height="26.00896860986551" fill="red" />
  <line x1="301.3333333333333" y1="250" x2="301.3333333333333" y2="255" stroke="black" stroke-width="1" />
  <text x="296.0" y="275" font-size="12" fill="black">2024-09-22</text>
  <line x1="311.99999999999994" y1="162.1076233183856" x2="311.99999999999994" y2="186.32286995515705" stroke="black" stroke-width="1" />
  <rect x="307.2" y="178.25112107623323" width="9.6" height="3.5874439461883902" fill="red" />
  <line x1="311.99999999999994" y1="250" x2="311.99999999999994" y2="255" stroke="black" stroke-width="1" />
  <text x="306.66666666666663" y="275" font-size="12" fill="black">2024-09-25</text>
  <line x1="322.66666666666663" y1="154.93273542600906" x2="322.66666666666663" y2="204.26008968609872" stroke="black" stroke-width="1" />
  <rect x="317.8666666666667" y="154.93273542600906" width="9.6" height="43.049327354259916" fill="red" />
  <line x1="322.66666666666663" y1="250" x2="322.66666666666663" y2="255" stroke="black" stroke-width="1" />
  <text x="317.3333333333333" y="275" font-size="12" fill="black">2024-09-26</text>
  <line x1="333.3333333333333" y1="172.86995515695077" x2="333.3333333333333" y2="214.12556053811662" stroke="black" stroke-width="1" />
  <rect x="328.53333333333336" y="172.86995515695077" width="9.6" height="39.46188340807178" fill="green" />
  <line x1="333.3333333333333" y1="250" x2="333.3333333333333" y2="255" stroke="black" stroke-width="1" />
  <text x="328.0" y="275" font-size="12" fill="black">2024-09-27</text>
  <line x1="343.99999999999994" y1="115.47085201793729" x2="343.99999999999994" y2="151.34529147982067" stroke="black" stroke-width="1" />
  <rect x="339.2" y="128.0269058295965" width="9.6" height="23.318385650224155" fill="green" />
  <line x1="343.99999999999994" y1="250" x2="343.99999999999994" y2="255" stroke="black" stroke-width="1" />
  <text x="338.66666666666663" y="275" font-size="12" fill="black">2024-09-28</text>
  <line x1="354.66666666666663" y1="118.16143497757864" x2="354.66666666666663" y2="147.7578475336323" stroke="black" stroke-width="1" />
  <rect x="349.8666666666667" y="140.58295964125574" width="9.6" height="2.6905829596411013" fill="red" />
  <line x1="354.66666666666663" y1="250" x2="354.66666666666663" y2="255" stroke="black" stroke-width="1" />
  <text x="349.3333333333333" y="275" font-size="12" fill="black">2024-09-29</text>
</svg>