<svg width="400" height="300" xmlns="http://www.w3.org/2000/svg">
  <line x1="40" y1="250" x2="360" y2="250" stroke="black" stroke-width="2" />
  <line x1="45.333333333333336" y1="130.8604324205171" x2="45.333333333333336" y2="151.93575789182222" stroke="black" stroke-width="1" />
  <rect x="40.53333333333333" y="134.57011981214987" width="9.6" height="6.2365759047740745" fill="green" />
  <line x1="45.333333333333336" y1="250" x2="45.333333333333336" y2="255" stroke="black" stroke-width="1" />
  <text x="40.0" y="275" font-size="12" fill="black">2024-08-18</text>
  <line x1="56.0" y1="121.23675063642645" x2="56.0" y2="141.45185874155572" stroke="black" stroke-width="1" />
  <rect x="51.199999999999996" y="121.2905142218124" width="9.6" height="12.258097468003806" fill="green" />
  <line x1="56.0" y1="250" x2="56.0" y2="255" stroke="black" stroke-width="1" />
  <text x="50.666666666666664" y="275" font-size="12" fill="black">2024-08-21</text>
  <line x1="66.66666666666666" y1="120.64535119718059" x2="66.66666666666666" y2="144.6776738647148" stroke="black" stroke-width="1" />
  <rect x="61.86666666666666" y="123.60234839340967" width="9.6" height="16.720475055040552" fill="red" />
  <line x1="66.66666666666666" y1="250" x2="66.66666666666666" y2="255" stroke="black" stroke-width="1" />
  <text x="61.33333333333333" y="275" font-size="12" fill="black">2024-08-22</text>
  <line x1="77.33333333333333" y1="138.7099158868707" x2="77.33333333333333" y2="154.62393716112132" stroke="black" stroke-width="1" />
  <rect x="72.53333333333333" y="144.30132876701265" width="9.6" height="1" fill="red" />
  <line x1="77.33333333333333" y1="250" x2="77.33333333333333" y2="255" stroke="black" stroke-width="1" />
  <text x="72.0" y="275" font-size="12" fill="black">2024-08-23</text>
  <line x1="87.99999999999999" y1="132.68839432364064" x2="87.99999999999999" y2="164.89278196984407" stroke="black" stroke-width="1" />
  <rect x="83.19999999999999" y="142.1507853515735" width="9.6" height="15.645203347320967" fill="red" />
  <line x1="87.99999999999999" y1="250" x2="87.99999999999999" y2="255" stroke="black" stroke-width="1" />
  <text x="82.66666666666666" y="275" font-size="12" fill="black">2024-08-24</text>
  <line x1="98.66666666666666" y1="120.10771534332065" x2="98.66666666666666" y2="146.45187218245212" stroke="black" stroke-width="1" />
  <rect x="93.86666666666666" y="128.7098890050779" width="9.6" height="10.806480662582382" fill="green" />
  <line x1="98.66666666666666" y1="250" x2="98.66666666666666" y2="255" stroke="black" stroke-width="1" />
  <text x="93.33333333333333" y="275" font-size="12" fill="black">2024-08-25</text>
  <line x1="109.33333333333333" y1="110.96790582770373" x2="109.33333333333333" y2="132.79592149441254" stroke="black" stroke-width="1" />
  <rect x="104.53333333333333" y="121.82815007567234" width="9.6" height="7.204320441721486" fill="green" />
  <line x1="109.33333333333333" y1="250" x2="109.33333333333333" y2="255" stroke="black" stroke-width="1" />
  <text x="104.0" y="275" font-size="12" fill="black">2024-08-28</text>
  <line x1="119.99999999999999" y1="126.23676407732285" x2="119.99999999999999" y2="153.44113828262988" stroke="black" stroke-width="1" />
  <rect x="115.19999999999999" y="127.63461729735833" width="9.6" height="24.462431350621983" fill="green" />
  <line x1="119.99999999999999" y1="250" x2="119.99999999999999" y2="255" stroke="black" stroke-width="1" />
  <text x="114.66666666666666" y="275" font-size="12" fill="black">2024-08-29</text>
  <line x1="130.66666666666666" y1="122.36578592953198" x2="130.66666666666666" y2="164.40890970137008" stroke="black" stroke-width="1" />
  <rect x="125.86666666666666" y="140.37658703383616" width="9.6" height="15.752730518092834" fill="red" />
  <line x1="130.66666666666666" y1="250" x2="130.66666666666666" y2="255" stroke="black" stroke-width="1" />
  <text x="125.33333333333333" y="275" font-size="12" fill="black">2024-08-30</text>
  <line x1="141.33333333333334" y1="85.9678386232221" x2="141.33333333333334" y2="170.21537692305637" stroke="black" stroke-width="1" />
  <rect x="136.53333333333333" y="91.02161564950441" width="9.6" height="75.26901954037514" fill="red" />
  <line x1="141.33333333333334" y1="250" x2="141.33333333333334" y2="255" stroke="black" stroke-width="1" />
  <text x="136.0" y="275" font-size="12" fill="black">2024-08-31</text>
  <line x1="152.0" y1="154.8927550880513" x2="152.0" y2="198.60255000685484" stroke="black" stroke-width="1" />
  <rect x="147.2" y="163.9788010182823" width="9.6" height="24.408667765235897" fill="red" />
  <line x1="152.0" y1="250" x2="152.0" y2="255" stroke="black" stroke-width="1" />
  <text x="146.66666666666666" y="275" font-size="12" fill="black">2024-09-01</text>
  <line x1="162.66666666666666" y1="184.14014553802565" x2="162.66666666666666" y2="222.04347323514318" stroke="black" stroke-width="1" />
  <rect x="157.86666666666665" y="189.8928491743257" width="9.6" height="24.516194936007917" fill="red" />
  <line x1="162.66666666666666" y1="250" x2="162.66666666666666" y2="255" stroke="black" stroke-width="1" />
  <text x="157.33333333333331" y="275" font-size="12" fill="black">2024-09-05</text>
  <line x1="173.33333333333334" y1="206.77461498552418" x2="173.33333333333334" y2="230.0004838722685" stroke="black" stroke-width="1" />
  <rect x="168.53333333333333" y="216.45206035500092" width="9.6" height="6.505393831703894" fill="green" />
  <line x1="173.33333333333334" y1="250" x2="173.33333333333334" y2="255" stroke="black" stroke-width="1" />
  <text x="168.0" y="275" font-size="12" fill="black">2024-09-06</text>
  <line x1="184.0" y1="212.04398398920426" x2="184.0" y2="230.8607012384442" stroke="black" stroke-width="1" />
  <rect x="179.2" y="224.83917967521415" width="9.6" height="1" fill="green" />
  <line x1="184.0" y1="250" x2="184.0" y2="255" stroke="black" stroke-width="1" />
  <text x="178.66666666666666" y="275" font-size="12" fill="black">2024-09-07</text>
  <line x1="194.66666666666666" y1="203.97890854545307" x2="194.66666666666666" y2="250.0" stroke="black" stroke-width="1" />
  <rect x="189.86666666666665" y="216.129478842685" width="9.6" height="20.26887169051536" fill="red" />
  <line x1="194.66666666666666" y1="250" x2="194.66666666666666" y2="255" stroke="black" stroke-width="1" />
  <text x="189.33333333333331" y="275" font-size="12" fill="black">2024-09-08</text>
  <line x1="205.33333333333334" y1="207.41977801015585" x2="205.33333333333334" y2="232.09726370232173" stroke="black" stroke-width="1" />
  <rect x="200.53333333333333" y="222.79616343054684" width="9.6" height="3.978505318562735" fill="red" />
  <line x1="205.33333333333334" y1="250" x2="205.33333333333334" y2="255" stroke="black" stroke-width="1" />
  <text x="200.0" y="275" font-size="12" fill="black">2024-09-11</text>
  <line x1="216.0" y1="218.28002225812432" x2="216.0" y2="239.94137081013656" stroke="black" stroke-width="1" />
  <rect x="211.2" y="219.40905755122998" width="9.6" height="5.215067782440272" fill="red" />
  <line x1="216.0" y1="250" x2="216.0" y2="255" stroke="black" stroke-width="1" />
  <text x="210.66666666666666" y="275" font-size="12" fill="black">2024-09-12</text>
  <line x1="226.66666666666666" y1="203.87138137468105" x2="226.66666666666666" y2="246.91397019884457" stroke="black" stroke-width="1" />
  <rect x="221.86666666666665" y="206.29074271705034" width="9.6" height="25.5914666437275" fill="green" />
  <line x1="226.66666666666666" y1="250" x2="226.66666666666666" y2="255" stroke="black" stroke-width="1" />
  <text x="221.33333333333331" y="275" font-size="12" fill="black">2024-09-13</text>
  <line x1="237.33333333333334" y1="181.7207841956565" x2="237.33333333333334" y2="206.29074271705034" stroke="black" stroke-width="1" />
  <rect x="232.53333333333333" y="185.86058027037703" width="9.6" height="10.645189906424582" fill="green" />
  <line x1="237.33333333333334" y1="250" x2="237.33333333333334" y2="255" stroke="black" stroke-width="1" />
  <text x="232.0" y="275" font-size="12" fill="black">2024-09-14</text>
  <line x1="248.0" y1="167.2583797268273" x2="248.0" y2="190.83371191858043" stroke="black" stroke-width="1" />
  <rect x="243.2" y="179.4089500240592" width="9.6" height="10.914007833354402" fill="green" />
  <line x1="248.0" y1="250" x2="248.0" y2="255" stroke="black" stroke-width="1" />
  <text x="242.66666666666666" y="275" font-size="12" fill="black">2024-09-15</text>
  <line x1="258.66666666666663" y1="161.98954835900093" x2="258.66666666666663" y2="179.4089500240592" stroke="black" stroke-width="1" />
  <rect x="253.86666666666665" y="166.8282710437392" width="9.6" height="12.580678980320016" fill="green" />
  <line x1="258.66666666666663" y1="250" x2="258.66666666666663" y2="255" stroke="black" stroke-width="1" />
  <text x="253.33333333333331" y="275" font-size="12" fill="black">2024-09-18</text>
  <line x1="269.3333333333333" y1="153.60242903878768" x2="269.3333333333333" y2="178.38744190172557" stroke="black" stroke-width="1" />
  <rect x="264.53333333333336" y="157.09706208887638" width="9.6" height="18.97854564125189" fill="red" />
  <line x1="269.3333333333333" y1="250" x2="269.3333333333333" y2="255" stroke="black" stroke-width="1" />
  <text x="264.0" y="275" font-size="12" fill="black">2024-09-19</text>
  <line x1="279.99999999999994" y1="171.0755942892319" x2="279.99999999999994" y2="198.81760434839873" stroke="black" stroke-width="1" />
  <rect x="275.2" y="171.72075731386371" width="9.6" height="19.193599982795625" fill="red" />
  <line x1="279.99999999999994" y1="250" x2="279.99999999999994" y2="255" stroke="black" stroke-width="1" />
  <text x="274.66666666666663" y="275" font-size="12" fill="black">2024-09-20</text>
  <line x1="290.66666666666663" y1="98.92486270124365" x2="290.66666666666663" y2="160.6992223097373" stroke="black" stroke-width="1" />
  <rect x="285.8666666666667" y="118.01093551326741" width="9.6" height="28.333409498412546" fill="green" />
  <line x1="290.66666666666663" y1="250" x2="290.66666666666663" y2="255" stroke="black" stroke-width="1" />
  <text x="285.3333333333333" y="275" font-size="12" fill="black">2024-09-21</text>
  <line x1="301.3333333333333" y1="94.73130304113718" x2="301.3333333333333" y2="143.1185298885212" stroke="black" stroke-width="1" />
  <rect x="296.53333333333336" y="113.65608509700283" width="9.6" height="4.247323245492708" fill="green" />
  <line x1="301.3333333333333" y1="250" x2="301.3333333333333" y2="255" stroke="black" stroke-width="1" />
  <text x="296.0" y="275" font-size="12" fill="black">2024-09-22</text>
  <line x1="311.99999999999994" y1="106.88187333836913" x2="311.99999999999994" y2="138.17228003301074" stroke="black" stroke-width="1" />
  <rect x="307.2" y="111.23672375463369" width="9.6" height="16.344129957338712" fill="red" />
  <line x1="311.99999999999994" y1="250" x2="311.99999999999994" y2="255" stroke="black" stroke-width="1" />
  <text x="306.66666666666663" y="275" font-size="12" fill="black">2024-09-25</text>
  <line x1="322.66666666666663" y1="83.22589576853704" x2="322.66666666666663" y2="116.39802795168788" stroke="black" stroke-width="1" />
  <rect x="317.8666666666667" y="94.08614001650537" width="9.6" height="3.27957870854499" fill="green" />
  <line x1="322.66666666666663" y1="250" x2="322.66666666666663" y2="255" stroke="black" stroke-width="1" />
  <text x="317.3333333333333" y="275" font-size="12" fill="black">2024-09-26</text>
  <line x1="333.3333333333333" y1="58.54841007637103" x2="333.3333333333333" y2="99.763574633265" stroke="black" stroke-width="1" />
  <rect x="328.53333333333336" y="74.46243135062198" width="9.6" height="19.569945080497465" fill="green" />
  <line x1="333.3333333333333" y1="250" x2="333.3333333333333" y2="255" stroke="black" stroke-width="1" />
  <text x="328.0" y="275" font-size="12" fill="black">2024-09-27</text>
  <line x1="343.99999999999994" y1="50.0" x2="343.99999999999994" y2="81.8818061338875" stroke="black" stroke-width="1" />
  <rect x="339.2" y="63.49465993188147" width="9.6" height="1.9892526592813675" fill="red" />
  <line x1="343.99999999999994" y1="250" x2="343.99999999999994" y2="255" stroke="black" stroke-width="1" />
  <text x="338.66666666666663" y="275" font-size="12" fill="black">2024-09-28</text>
  <line x1="354.66666666666663" y1="54.30108683087863" x2="354.66666666666663" y2="69.24682593232782" stroke="black" stroke-width="1" />
  <rect x="349.8666666666667" y="60.75271707719645" width="9.6" height="2.043016244667301" fill="green" />
  <line x1="354.66666666666663" y1="250" x2="354.66666666666663" y2="255" stroke="black" stroke-width="1" />
  <text x="349.3333333333333" y="275" font-size="12" fill="black">2024-09-29</text>
</svg>