<svg width="400" height="300" xmlns="http://www.w3.org/2000/svg">
  <line x1="40" y1="250" x2="360" y2="250" stroke="black" stroke-width="2" />
  <line x1="45.333333333333336" y1="157.142857142857" x2="45.333333333333336" y2="186.60714285714263" stroke="black" stroke-width="1" />
  <rect x="40.53333333333333" y="173.2142857142856" width="9.6" height="1.785714285714569" fill="green" />
  <line x1="45.333333333333336" y1="250" x2="45.333333333333336" y2="255" stroke="black" stroke-width="1" />
  <text x="40.0" y="275" font-size="12" fill="black">2024-08-21</text>
  <line x1="56.0" y1="159.82142857142856" x2="56.0" y2="201.78571428571425" stroke="black" stroke-width="1" />
  <rect x="51.199999999999996" y="171.42857142857167" width="9.6" height="25.892857142857125" fill="red" />
  <line x1="56.0" y1="250" x2="56.0" y2="255" stroke="black" stroke-width="1" />
  <text x="50.666666666666664" y="275" font-size="12" fill="black">2024-08-22</text>
  <line x1="66.66666666666666" y1="183.03571428571414" x2="66.66666666666666" y2="206.25000000000034" stroke="black" stroke-width="1" />
  <rect x="61.86666666666666" y="197.32142857142878" width="9.6" height="7.142857142857007" fill="red" />
  <line x1="66.66666666666666" y1="250" x2="66.66666666666666" y2="255" stroke="black" stroke-width="1" />
  <text x="61.33333333333333" y="275" font-size="12" fill="black">2024-08-23</text>
  <line x1="77.33333333333333" y1="201.78571428571425" x2="77.33333333333333" y2="241.96428571428604" stroke="black" stroke-width="1" />
  <rect x="72.53333333333333" y="211.6071428571428" width="9.6" height="25.00000000000016" fill="red" />
  <line x1="77.33333333333333" y1="250" x2="77.33333333333333" y2="255" stroke="black" stroke-width="1" />
  <text x="72.0" y="275" font-size="12" fill="black">2024-08-24</text>
  <line x1="87.99999999999999" y1="213.39285714285737" x2="87.99999999999999" y2="243.74999999999997" stroke="black" stroke-width="1" />
  <rect x="83.19999999999999" y="220.53571428571436" width="9.6" height="14.285714285714649" fill="green" />
  <line x1="87.99999999999999" y1="250" x2="87.99999999999999" y2="255" stroke="black" stroke-width="1" />
  <text x="82.66666666666666" y="275" font-size="12" fill="black">2024-08-25</text>
  <line x1="98.66666666666666" y1="221.42857142857133" x2="98.66666666666666" y2="241.96428571428604" stroke="black" stroke-width="1" />
  <rect x="93.86666666666666" y="232.14285714285748" width="9.6" height="7.142857142857007" fill="green" />
  <line x1="98.66666666666666" y1="250" x2="98.66666666666666" y2="255" stroke="black" stroke-width="1" />
  <text x="93.33333333333333" y="275" font-size="12" fill="black">2024-08-28</text>
  <line x1="109.33333333333333" y1="222.32142857142895" x2="109.33333333333333" y2="244.64285714285757" stroke="black" stroke-width="1" />
  <rect x="104.53333333333333" y="227.6785714285714" width="9.6" height="7.1428571428576415" fill="green" />
  <line x1="109.33333333333333" y1="250" x2="109.33333333333333" y2="255" stroke="black" stroke-width="1" />
  <text x="104.0" y="275" font-size="12" fill="black">2024-08-29</text>
  <line x1="119.99999999999999" y1="207.14285714285734" x2="119.99999999999999" y2="238.3928571428575" stroke="black" stroke-width="1" />
  <rect x="115.19999999999999" y="225.00000000000048" width="9.6" height="2.6785714285709017" fill="green" />
  <line x1="119.99999999999999" y1="250" x2="119.99999999999999" y2="255" stroke="black" stroke-width="1" />
  <text x="114.66666666666666" y="275" font-size="12" fill="black">2024-08-30</text>
  <line x1="130.66666666666666" y1="208.92857142857127" x2="130.66666666666666" y2="246.4285714285715" stroke="black" stroke-width="1" />
  <rect x="125.86666666666666" y="219.6428571428574" width="9.6" height="14.285714285714015" fill="red" />
  <line x1="130.66666666666666" y1="250" x2="130.66666666666666" y2="255" stroke="black" stroke-width="1" />
  <text x="125.33333333333333" y="275" font-size="12" fill="black">2024-08-31</text>
  <line x1="141.33333333333334" y1="224.1071428571429" x2="141.33333333333334" y2="250.0" stroke="black" stroke-width="1" />
  <rect x="136.53333333333333" y="225.00000000000048" width="9.6" height="12.499999999999446" fill="green" />
  <line x1="141.33333333333334" y1="250" x2="141.33333333333334" y2="255" stroke="black" stroke-width="1" />
  <text x="136.0" y="275" font-size="12" fill="black">2024-09-01</text>
  <line x1="152.0" y1="174.10714285714317" x2="152.0" y2="231.2499999999999" stroke="black" stroke-width="1" />
  <rect x="147.2" y="183.92857142857173" width="9.6" height="41.07142857142874" fill="green" />
  <line x1="152.0" y1="250" x2="152.0" y2="255" stroke="black" stroke-width="1" />
  <text x="146.66666666666666" y="275" font-size="12" fill="black">2024-09-04</text>
  <line x1="162.66666666666666" y1="158.03571428571462" x2="162.66666666666666" y2="196.42857142857181" stroke="black" stroke-width="1" />
  <rect x="157.86666666666665" y="175.00000000000017" width="9.6" height="6.25000000000004" fill="green" />
  <line x1="162.66666666666666" y1="250" x2="162.66666666666666" y2="255" stroke="black" stroke-width="1" />
  <text x="157.33333333333331" y="275" font-size="12" fill="black">2024-09-05</text>
  <line x1="173.33333333333334" y1="190.1785714285718" x2="173.33333333333334" y2="223.2142857142859" stroke="black" stroke-width="1" />
  <rect x="168.53333333333333" y="198.21428571428575" width="9.6" height="15.178571428571615" fill="green" />
  <line x1="173.33333333333334" y1="250" x2="173.33333333333334" y2="255" stroke="black" stroke-width="1" />
  <text x="168.0" y="275" font-size="12" fill="black">2024-09-06</text>
  <line x1="184.0" y1="145.53571428571453" x2="184.0" y2="205.35714285714275" stroke="black" stroke-width="1" />
  <rect x="179.2" y="178.57142857142867" width="9.6" height="16.071428571428584" fill="green" />
  <line x1="184.0" y1="250" x2="184.0" y2="255" stroke="black" stroke-width="1" />
  <text x="178.66666666666666" y="275" font-size="12" fill="black">2024-09-07</text>
  <line x1="194.66666666666666" y1="179.4642857142856" x2="194.66666666666666" y2="218.75000000000043" stroke="black" stroke-width="1" />
  <rect x="189.86666666666665" y="187.50000000000023" width="9.6" height="14.285714285714015" fill="red" />
  <line x1="194.66666666666666" y1="250" x2="194.66666666666666" y2="255" stroke="black" stroke-width="1" />
  <text x="189.33333333333331" y="275" font-size="12" fill="black">2024-09-08</text>
  <line x1="205.33333333333334" y1="161.60714285714312" x2="205.33333333333334" y2="211.6071428571428" stroke="black" stroke-width="1" />
  <rect x="200.53333333333333" y="181.2500000000002" width="9.6" height="26.785714285714093" fill="green" />
  <line x1="205.33333333333334" y1="250" x2="205.33333333333334" y2="255" stroke="black" stroke-width="1" />
  <text x="200.0" y="275" font-size="12" fill="black">2024-09-11</text>
  <line x1="216.0" y1="147.32142857142844" x2="216.0" y2="190.1785714285718" stroke="black" stroke-width="1" />
  <rect x="211.2" y="179.4642857142856" width="9.6" height="1.785714285714569" fill="green" />
  <line x1="216.0" y1="250" x2="216.0" y2="255" stroke="black" stroke-width="1" />
  <text x="210.66666666666666" y="275" font-size="12" fill="black">2024-09-12</text>
  <line x1="226.66666666666666" y1="175.8928571428571" x2="226.66666666666666" y2="224.1071428571429" stroke="black" stroke-width="1" />
  <rect x="221.86666666666665" y="179.4642857142856" width="9.6" height="25.892857142857125" fill="red" />
  <line x1="226.66666666666666" y1="250" x2="226.66666666666666" y2="255" stroke="black" stroke-width="1" />
  <text x="221.33333333333331" y="275" font-size="12" fill="black">2024-09-13</text>
  <line x1="237.33333333333334" y1="124.99999999999984" x2="237.33333333333334" y2="183.92857142857173" stroke="black" stroke-width="1" />
  <rect x="232.53333333333333" y="141.07142857142844" width="9.6" height="42.85714285714331" fill="green" />
  <line x1="237.33333333333334" y1="250" x2="237.33333333333334" y2="255" stroke="black" stroke-width="1" />
  <text x="232.0" y="275" font-size="12" fill="black">2024-09-14</text>
  <line x1="248.0" y1="109.82142857142821" x2="248.0" y2="137.49999999999991" stroke="black" stroke-width="1" />
  <rect x="243.2" y="127.67857142857137" width="9.6" height="8.928571428571576" fill="green" />
  <line x1="248.0" y1="250" x2="248.0" y2="255" stroke="black" stroke-width="1" />
  <text x="242.66666666666666" y="275" font-size="12" fill="black">2024-09-15</text>
  <line x1="258.66666666666663" y1="83.03571428571414" x2="258.66666666666663" y2="136.60714285714295" stroke="black" stroke-width="1" />
  <rect x="253.86666666666665" y="84.8214285714287" width="9.6" height="50.89285714285729" fill="green" />
  <line x1="258.66666666666663" y1="250" x2="258.66666666666663" y2="255" stroke="black" stroke-width="1" />
  <text x="253.33333333333331" y="275" font-size="12" fill="black">2024-09-18</text>
  <line x1="269.3333333333333" y1="53.5714285714285" x2="269.3333333333333" y2="85.71428571428567" stroke="black" stroke-width="1" />
  <rect x="264.53333333333336" y="56.25000000000003" width="9.6" height="26.785714285714093" fill="green" />
  <line x1="269.3333333333333" y1="250" x2="269.3333333333333" y2="255" stroke="black" stroke-width="1" />
  <text x="264.0" y="275" font-size="12" fill="black">2024-09-19</text>
  <line x1="279.99999999999994" y1="89.28571428571416" x2="279.99999999999994" y2="171.42857142857167" stroke="black" stroke-width="1" />
  <rect x="275.2" y="109.82142857142821" width="9.6" height="30.35714285714323" fill="red" />
  <line x1="279.99999999999994" y1="250" x2="279.99999999999994" y2="255" stroke="black" stroke-width="1" />
  <text x="274.66666666666663" y="275" font-size="12" fill="black">2024-09-20</text>
  <line x1="290.66666666666663" y1="88.3928571428572" x2="290.66666666666663" y2="132.14285714285683" stroke="black" stroke-width="1" />
  <rect x="285.8666666666667" y="97.32142857142816" width="9.6" height="30.35714285714323" fill="green" />
  <line x1="290.66666666666663" y1="250" x2="290.66666666666663" y2="255" stroke="black" stroke-width="1" />
  <text x="285.3333333333333" y="275" font-size="12" fill="black">2024-09-21</text>
  <line x1="301.3333333333333" y1="93.74999999999963" x2="301.3333333333333" y2="206.25000000000034" stroke="black" stroke-width="1" />
  <rect x="296.53333333333336" y="99.99999999999969" width="9.6" height="87.50000000000055" fill="red" />
  <line x1="301.3333333333333" y1="250" x2="301.3333333333333" y2="255" stroke="black" stroke-width="1" />
  <text x="296.0" y="275" font-size="12" fill="black">2024-09-22</text>
  <line x1="311.99999999999994" y1="125.89285714285681" x2="311.99999999999994" y2="180.35714285714323" stroke="black" stroke-width="1" />
  <rect x="307.2" y="146.4285714285715" width="9.6" height="14.285714285714015" fill="green" />
  <line x1="311.99999999999994" y1="250" x2="311.99999999999994" y2="255" stroke="black" stroke-width="1" />
  <text x="306.66666666666663" y="275" font-size="12" fill="black">2024-09-25</text>
  <line x1="322.66666666666663" y1="120.53571428571436" x2="322.66666666666663" y2="152.67857142857153" stroke="black" stroke-width="1" />
  <rect x="317.8666666666667" y="127.67857142857137" width="9.6" height="5.357142857143073" fill="red" />
  <line x1="322.66666666666663" y1="250" x2="322.66666666666663" y2="255" stroke="black" stroke-width="1" />
  <text x="317.3333333333333" y="275" font-size="12" fill="black">2024-09-26</text>
  <line x1="333.3333333333333" y1="91.9642857142857" x2="333.3333333333333" y2="132.14285714285683" stroke="black" stroke-width="1" />
  <rect x="328.53333333333336" y="109.82142857142821" width="9.6" height="19.64285714285772" fill="green" />
  <line x1="333.3333333333333" y1="250" x2="333.3333333333333" y2="255" stroke="black" stroke-width="1" />
  <text x="328.0" y="275" font-size="12" fill="black">2024-09-27</text>
  <line x1="343.99999999999994" y1="68.75000000000011" x2="343.99999999999994" y2="108.03571428571428" stroke="black" stroke-width="1" />
  <rect x="339.2" y="76.78571428571408" width="9.6" height="23.21428571428559" fill="green" />
  <line x1="343.99999999999994" y1="250" x2="343.99999999999994" y2="255" stroke="black" stroke-width="1" />
  <text x="338.66666666666663" y="275" font-size="12" fill="black">2024-09-28</text>
  <line x1="354.66666666666663" y1="50.0" x2="354.66666666666663" y2="94.64285714285725" stroke="black" stroke-width="1" />
  <rect x="349.8666666666667" y="73.21428571428558" width="9.6" height="4.464285714285471" fill="green" />
  <line x1="354.66666666666663" y1="250" x2="354.66666666666663" y2="255" stroke="black" stroke-width="1" />
  <text x="349.3333333333333" y="275" font-size="12" fill="black">2024-09-29</text>
</svg>