<svg width="400" height="300" xmlns="http://www.w3.org/2000/svg">
  <line x1="40" y1="250" x2="360" y2="250" stroke="black" stroke-width="2" />
  <line x1="45.333333333333336" y1="130.37383177570086" x2="45.333333333333336" y2="186.44859813084116" stroke="black" stroke-width="1" />
  <rect x="40.53333333333333" y="138.78504672897188" width="9.6" height="42.99065420560755" fill="green" />
  <line x1="45.333333333333336" y1="250" x2="45.333333333333336" y2="255" stroke="black" stroke-width="1" />
  <text x="40.0" y="275" font-size="12" fill="black">2024-08-21</text>
  <line x1="56.0" y1="112.61682242990636" x2="56.0" y2="133.17757009345797" stroke="black" stroke-width="1" />
  <rect x="51.199999999999996" y="116.35514018691595" width="9.6" height="16.822429906542027" fill="green" />
  <line x1="56.0" y1="250" x2="56.0" y2="255" stroke="black" stroke-width="1" />
  <text x="50.666666666666664" y="275" font-size="12" fill="black">2024-08-22</text>
  <line x1="66.66666666666666" y1="91.12149532710256" x2="66.66666666666666" y2="116.35514018691595" stroke="black" stroke-width="1" />
  <rect x="61.86666666666666" y="100.46728971962608" width="9.6" height="15.887850467289875" fill="green" />
  <line x1="66.66666666666666" y1="250" x2="66.66666666666666" y2="255" stroke="black" stroke-width="1" />
  <text x="61.33333333333333" y="275" font-size="12" fill="black">2024-08-23</text>
  <line x1="77.33333333333333" y1="107.00934579439246" x2="77.33333333333333" y2="141.588785046729" stroke="black" stroke-width="1" />
  <rect x="72.53333333333333" y="109.81308411214957" width="9.6" height="13.084112149532428" fill="red" />
  <line x1="77.33333333333333" y1="250" x2="77.33333333333333" y2="255" stroke="black" stroke-width="1" />
  <text x="72.0" y="275" font-size="12" fill="black">2024-08-24</text>
  <line x1="87.99999999999999" y1="97.66355140186897" x2="87.99999999999999" y2="126.6355140186916" stroke="black" stroke-width="1" />
  <rect x="83.19999999999999" y="100.46728971962608" width="9.6" height="22.429906542055924" fill="green" />
  <line x1="87.99999999999999" y1="250" x2="87.99999999999999" y2="255" stroke="black" stroke-width="1" />
  <text x="82.66666666666666" y="275" font-size="12" fill="black">2024-08-25</text>
  <line x1="98.66666666666666" y1="52.80373831775677" x2="98.66666666666666" y2="119.15887850467274" stroke="black" stroke-width="1" />
  <rect x="93.86666666666666" y="80.84112149532695" width="9.6" height="22.429906542056255" fill="green" />
  <line x1="98.66666666666666" y1="250" x2="98.66666666666666" y2="255" stroke="black" stroke-width="1" />
  <text x="93.33333333333333" y="275" font-size="12" fill="black">2024-08-28</text>
  <line x1="109.33333333333333" y1="66.82242990654203" x2="109.33333333333333" y2="90.18691588785043" stroke="black" stroke-width="1" />
  <rect x="104.53333333333333" y="74.29906542056057" width="9.6" height="15.887850467289875" fill="red" />
  <line x1="109.33333333333333" y1="250" x2="109.33333333333333" y2="255" stroke="black" stroke-width="1" />
  <text x="104.0" y="275" font-size="12" fill="black">2024-08-29</text>
  <line x1="119.99999999999999" y1="78.03738317757015" x2="119.99999999999999" y2="113.55140186915884" stroke="black" stroke-width="1" />
  <rect x="115.19999999999999" y="92.05607476635507" width="9.6" height="14.018691588784911" fill="red" />
  <line x1="119.99999999999999" y1="250" x2="119.99999999999999" y2="255" stroke="black" stroke-width="1" />
  <text x="114.66666666666666" y="275" font-size="12" fill="black">2024-08-30</text>
  <line x1="130.66666666666666" y1="74.29906542056057" x2="130.66666666666666" y2="105.14018691588782" stroke="black" stroke-width="1" />
  <rect x="125.86666666666666" y="93.9252336448597" width="9.6" height="11.214953271028127" fill="green" />
  <line x1="130.66666666666666" y1="250" x2="130.66666666666666" y2="255" stroke="black" stroke-width="1" />
  <text x="125.33333333333333" y="275" font-size="12" fill="black">2024-08-31</text>
  <line x1="141.33333333333334" y1="60.28037383177565" x2="141.33333333333334" y2="92.99065420560754" stroke="black" stroke-width="1" />
  <rect x="136.53333333333333" y="64.01869158878492" width="9.6" height="25.233644859813037" fill="green" />
  <line x1="141.33333333333334" y1="250" x2="141.33333333333334" y2="255" stroke="black" stroke-width="1" />
  <text x="136.0" y="275" font-size="12" fill="black">2024-09-01</text>
  <line x1="152.0" y1="50.0" x2="152.0" y2="80.84112149532695" stroke="black" stroke-width="1" />
  <rect x="147.2" y="67.75700934579416" width="9.6" height="1" fill="green" />
  <line x1="152.0" y1="250" x2="152.0" y2="255" stroke="black" stroke-width="1" />
  <text x="146.66666666666666" y="275" font-size="12" fill="black">2024-09-04</text>
  <line x1="162.66666666666666" y1="54.672897196261744" x2="162.66666666666666" y2="131.30841121495303" stroke="black" stroke-width="1" />
  <rect x="157.86666666666665" y="68.69158878504666" width="9.6" height="46.72897196261681" fill="red" />
  <line x1="162.66666666666666" y1="250" x2="162.66666666666666" y2="255" stroke="black" stroke-width="1" />
  <text x="157.33333333333331" y="275" font-size="12" fill="black">2024-09-05</text>
  <line x1="173.33333333333334" y1="150.0" x2="173.33333333333334" y2="186.44859813084116" stroke="black" stroke-width="1" />
  <rect x="168.53333333333333" y="155.60747663551388" width="9.6" height="20.56074766355129" fill="red" />
  <line x1="173.33333333333334" y1="250" x2="173.33333333333334" y2="255" stroke="black" stroke-width="1" />
  <text x="168.0" y="275" font-size="12" fill="black">2024-09-06</text>
  <line x1="184.0" y1="148.13084112149537" x2="184.0" y2="183.64485981308405" stroke="black" stroke-width="1" />
  <rect x="179.2" y="175.23364485981304" width="9.6" height="7.476635514018531" fill="green" />
  <line x1="184.0" y1="250" x2="184.0" y2="255" stroke="black" stroke-width="1" />
  <text x="178.66666666666666" y="275" font-size="12" fill="black">2024-09-07</text>
  <line x1="194.66666666666666" y1="179.90654205607478" x2="194.66666666666666" y2="222.89719626168198" stroke="black" stroke-width="1" />
  <rect x="189.86666666666665" y="183.64485981308405" width="9.6" height="36.44859813084116" fill="red" />
  <line x1="194.66666666666666" y1="250" x2="194.66666666666666" y2="255" stroke="black" stroke-width="1" />
  <text x="189.33333333333331" y="275" font-size="12" fill="black">2024-09-08</text>
  <line x1="205.33333333333334" y1="202.33644859813072" x2="205.33333333333334" y2="238.78504672897188" stroke="black" stroke-width="1" />
  <rect x="200.53333333333333" y="220.09345794392522" width="9.6" height="14.018691588784911" fill="red" />
  <line x1="205.33333333333334" y1="250" x2="205.33333333333334" y2="255" stroke="black" stroke-width="1" />
  <text x="200.0" y="275" font-size="12" fill="black">2024-09-11</text>
  <line x1="216.0" y1="215.42056074766347" x2="216.0" y2="246.2616822429904" stroke="black" stroke-width="1" />
  <rect x="211.2" y="236.91588785046724" width="9.6" height="2.8037383177567827" fill="green" />
  <line x1="216.0" y1="250" x2="216.0" y2="255" stroke="black" stroke-width="1" />
  <text x="210.66666666666666" y="275" font-size="12" fill="black">2024-09-12</text>
  <line x1="226.66666666666666" y1="220.09345794392522" x2="226.66666666666666" y2="247.1962616822429" stroke="black" stroke-width="1" />
  <rect x="221.86666666666665" y="235.98130841121477" width="9.6" height="1" fill="green" />
  <line x1="226.66666666666666" y1="250" x2="226.66666666666666" y2="255" stroke="black" stroke-width="1" />
  <text x="221.33333333333331" y="275" font-size="12" fill="black">2024-09-13</text>
  <line x1="237.33333333333334" y1="178.97196261682228" x2="237.33333333333334" y2="219.15887850467274" stroke="black" stroke-width="1" />
  <rect x="232.53333333333333" y="205.14018691588782" width="9.6" height="14.018691588784911" fill="green" />
  <line x1="237.33333333333334" y1="250" x2="237.33333333333334" y2="255" stroke="black" stroke-width="1" />
  <text x="232.0" y="275" font-size="12" fill="black">2024-09-14</text>
  <line x1="248.0" y1="175.23364485981304" x2="248.0" y2="205.14018691588782" stroke="black" stroke-width="1" />
  <rect x="243.2" y="185.5140186915887" width="9.6" height="19.62616822429914" fill="green" />
  <line x1="248.0" y1="250" x2="248.0" y2="255" stroke="black" stroke-width="1" />
  <text x="242.66666666666666" y="275" font-size="12" fill="black">2024-09-15</text>
  <line x1="258.66666666666663" y1="190.18691588785043" x2="258.66666666666663" y2="205.14018691588782" stroke="black" stroke-width="1" />
  <rect x="253.86666666666665" y="192.9906542056072" width="9.6" height="1.8691588785049646" fill="green" />
  <line x1="258.66666666666663" y1="250" x2="258.66666666666663" y2="255" stroke="black" stroke-width="1" />
  <text x="253.33333333333331" y="275" font-size="12" fill="black">2024-09-18</text>
  <line x1="269.3333333333333" y1="152.80373831775677" x2="269.3333333333333" y2="197.66355140186897" stroke="black" stroke-width="1" />
  <rect x="264.53333333333336" y="168.69158878504666" width="9.6" height="20.56074766355129" fill="green" />
  <line x1="269.3333333333333" y1="250" x2="269.3333333333333" y2="255" stroke="black" stroke-width="1" />
  <text x="264.0" y="275" font-size="12" fill="black">2024-09-19</text>
  <line x1="279.99999999999994" y1="141.588785046729" x2="279.99999999999994" y2="174.29906542056057" stroke="black" stroke-width="1" />
  <rect x="275.2" y="150.0" width="9.6" height="19.62616822429881" fill="green" />
  <line x1="279.99999999999994" y1="250" x2="279.99999999999994" y2="255" stroke="black" stroke-width="1" />
  <text x="274.66666666666663" y="275" font-size="12" fill="black">2024-09-20</text>
  <line x1="290.66666666666663" y1="85.51401869158869" x2="290.66666666666663" y2="136.91588785046724" stroke="black" stroke-width="1" />
  <rect x="285.8666666666667" y="129.43925233644836" width="9.6" height="5.60747663551423" fill="red" />
  <line x1="290.66666666666663" y1="250" x2="290.66666666666663" y2="255" stroke="black" stroke-width="1" />
  <text x="285.3333333333333" y="275" font-size="12" fill="black">2024-09-21</text>
  <line x1="301.3333333333333" y1="131.30841121495303" x2="301.3333333333333" y2="235.0467289719626" stroke="black" stroke-width="1" />
  <rect x="296.53333333333336" y="134.11214953271013" width="9.6" height="93.45794392523362" fill="red" />
  <line x1="301.3333333333333" y1="250" x2="301.3333333333333" y2="255" stroke="black" stroke-width="1" />
  <text x="296.0" y="275" font-size="12" fill="black">2024-09-22</text>
  <line x1="311.99999999999994" y1="221.02803738317738" x2="311.99999999999994" y2="250.0" stroke="black" stroke-width="1" />
  <rect x="307.2" y="225.70093457943912" width="9.6" height="13.08411214953276" fill="red" />
  <line x1="311.99999999999994" y1="250" x2="311.99999999999994" y2="255" stroke="black" stroke-width="1" />
  <text x="306.66666666666663" y="275" font-size="12" fill="black">2024-09-25</text>
  <line x1="322.66666666666663" y1="161.2149532710278" x2="322.66666666666663" y2="218.22429906542058" stroke="black" stroke-width="1" />
  <rect x="317.8666666666667" y="175.23364485981304" width="9.6" height="36.44859813084116" fill="green" />
  <line x1="322.66666666666663" y1="250" x2="322.66666666666663" y2="255" stroke="black" stroke-width="1" />
  <text x="317.3333333333333" y="275" font-size="12" fill="black">2024-09-26</text>
  <line x1="333.3333333333333" y1="150.0" x2="333.3333333333333" y2="190.18691588785043" stroke="black" stroke-width="1" />
  <rect x="328.53333333333336" y="155.60747663551388" width="9.6" height="28.971962616822303" fill="green" />
  <line x1="333.3333333333333" y1="250" x2="333.3333333333333" y2="255" stroke="black" stroke-width="1" />
  <text x="328.0" y="275" font-size="12" fill="black">2024-09-27</text>
  <line x1="343.99999999999994" y1="95.79439252336434" x2="343.99999999999994" y2="133.17757009345797" stroke="black" stroke-width="1" />
  <rect x="339.2" y="110.74766355140173" width="9.6" height="1" fill="green" />
  <line x1="343.99999999999994" y1="250" x2="343.99999999999994" y2="255" stroke="black" stroke-width="1" />
  <text x="338.66666666666663" y="275" font-size="12" fill="black">2024-09-28</text>
  <line x1="354.66666666666663" y1="90.18691588785043" x2="354.66666666666663" y2="115.42056074766347" stroke="black" stroke-width="1" />
  <rect x="349.8666666666667" y="107.94392523364459" width="9.6" height="4.672897196261747" fill="red" />
  <line x1="354.66666666666663" y1="250" x2="354.66666666666663" y2="255" stroke="black" stroke-width="1" />
  <text x="349.3333333333333" y="275" font-size="12" fill="black">2024-09-29</text>
</svg>