<svg width="400" height="300" xmlns="http://www.w3.org/2000/svg">
  <line x1="40" y1="250" x2="360" y2="250" stroke="black" stroke-width="2" />
  <line x1="45.333333333333336" y1="191.81879648411086" x2="45.333333333333336" y2="222.24475997295468" stroke="black" stroke-width="1" />
  <rect x="40.53333333333333" y="204.25963488843814" width="9.6" height="16.801893171061526" fill="green" />
  <line x1="45.333333333333336" y1="250" x2="45.333333333333336" y2="255" stroke="black" stroke-width="1" />
  <text x="40.0" y="275" font-size="12" fill="black">2024-08-18</text>
  <line x1="56.0" y1="181.06828938471944" x2="56.0" y2="211.12237998647734" stroke="black" stroke-width="1" />
  <rect x="51.199999999999996" y="181.947261663286" width="9.6" height="19.100743745774192" fill="green" />
  <line x1="56.0" y1="250" x2="56.0" y2="255" stroke="black" stroke-width="1" />
  <text x="50.666666666666664" y="275" font-size="12" fill="black">2024-08-21</text>
  <line x1="66.66666666666666" y1="163.35361730899257" x2="66.66666666666666" y2="192.63015551048005" stroke="black" stroke-width="1" />
  <rect x="61.86666666666666" y="174.6450304259635" width="9.6" height="12.778904665314407" fill="red" />
  <line x1="66.66666666666666" y1="250" x2="66.66666666666666" y2="255" stroke="black" stroke-width="1" />
  <text x="61.33333333333333" y="275" font-size="12" fill="black">2024-08-22</text>
  <line x1="77.33333333333333" y1="175.39080459770113" x2="77.33333333333333" y2="194.9966193373901" stroke="black" stroke-width="1" />
  <rect x="72.53333333333333" y="180.08789722785662" width="9.6" height="2.028397565922998" fill="green" />
  <line x1="77.33333333333333" y1="250" x2="77.33333333333333" y2="255" stroke="black" stroke-width="1" />
  <text x="72.0" y="275" font-size="12" fill="black">2024-08-23</text>
  <line x1="87.99999999999999" y1="174.91548343475318" x2="87.99999999999999" y2="223.86747802569306" stroke="black" stroke-width="1" />
  <rect x="83.19999999999999" y="178.22853279242736" width="9.6" height="44.48951994590939" fill="red" />
  <line x1="87.99999999999999" y1="250" x2="87.99999999999999" y2="255" stroke="black" stroke-width="1" />
  <text x="82.66666666666666" y="275" font-size="12" fill="black">2024-08-24</text>
  <line x1="98.66666666666666" y1="186.13928329952674" x2="98.66666666666666" y2="210.71670047329275" stroke="black" stroke-width="1" />
  <rect x="93.86666666666666" y="190.0608519269777" width="9.6" height="19.827586206896488" fill="green" />
  <line x1="98.66666666666666" y1="250" x2="98.66666666666666" y2="255" stroke="black" stroke-width="1" />
  <text x="93.33333333333333" y="275" font-size="12" fill="black">2024-08-25</text>
  <line x1="109.33333333333333" y1="194.21906693711966" x2="109.33333333333333" y2="221.5348208248817" stroke="black" stroke-width="1" />
  <rect x="104.53333333333333" y="195.368492224476" width="9.6" height="18.72887085868828" fill="red" />
  <line x1="109.33333333333333" y1="250" x2="109.33333333333333" y2="255" stroke="black" stroke-width="1" />
  <text x="104.0" y="275" font-size="12" fill="black">2024-08-28</text>
  <line x1="119.99999999999999" y1="205.81473968897905" x2="119.99999999999999" y2="235.29411764705884" stroke="black" stroke-width="1" />
  <rect x="115.19999999999999" y="213.96213657876945" width="9.6" height="13.657876943880975" fill="red" />
  <line x1="119.99999999999999" y1="250" x2="119.99999999999999" y2="255" stroke="black" stroke-width="1" />
  <text x="114.66666666666666" y="275" font-size="12" fill="black">2024-08-29</text>
  <line x1="130.66666666666666" y1="218.7288708586883" x2="130.66666666666666" y2="250.0" stroke="black" stroke-width="1" />
  <rect x="125.86666666666666" y="225.89587559161598" width="9.6" height="13.42123056118999" fill="red" />
  <line x1="130.66666666666666" y1="250" x2="130.66666666666666" y2="255" stroke="black" stroke-width="1" />
  <text x="125.33333333333333" y="275" font-size="12" fill="black">2024-08-30</text>
  <line x1="141.33333333333334" y1="208.4178498985802" x2="141.33333333333334" y2="238.57336037863422" stroke="black" stroke-width="1" />
  <rect x="136.53333333333333" y="225.62542258282622" width="9.6" height="11.899932386747839" fill="red" />
  <line x1="141.33333333333334" y1="250" x2="141.33333333333334" y2="255" stroke="black" stroke-width="1" />
  <text x="136.0" y="275" font-size="12" fill="black">2024-08-31</text>
  <line x1="152.0" y1="209.49932386747804" x2="152.0" y2="234.9898580121704" stroke="black" stroke-width="1" />
  <rect x="147.2" y="211.0547667342799" width="9.6" height="18.526031102096074" fill="green" />
  <line x1="152.0" y1="250" x2="152.0" y2="255" stroke="black" stroke-width="1" />
  <text x="146.66666666666666" y="275" font-size="12" fill="black">2024-09-01</text>
  <line x1="162.66666666666666" y1="191.46619337390126" x2="162.66666666666666" y2="226.16632860040573" stroke="black" stroke-width="1" />
  <rect x="157.86666666666665" y="207.1670047329277" width="9.6" height="15.753887762001343" fill="red" />
  <line x1="162.66666666666666" y1="250" x2="162.66666666666666" y2="255" stroke="black" stroke-width="1" />
  <text x="157.33333333333331" y="275" font-size="12" fill="black">2024-09-05</text>
  <line x1="173.33333333333334" y1="183.63759296822178" x2="173.33333333333334" y2="223.0223123732252" stroke="black" stroke-width="1" />
  <rect x="168.53333333333333" y="193.1372549019608" width="9.6" height="29.817444219066918" fill="green" />
  <line x1="173.33333333333334" y1="250" x2="173.33333333333334" y2="255" stroke="black" stroke-width="1" />
  <text x="168.0" y="275" font-size="12" fill="black">2024-09-06</text>
  <line x1="184.0" y1="140.43272481406356" x2="184.0" y2="183.53617308992563" stroke="black" stroke-width="1" />
  <rect x="179.2" y="156.76132521974313" width="9.6" height="22.58282623394178" fill="green" />
  <line x1="184.0" y1="250" x2="184.0" y2="255" stroke="black" stroke-width="1" />
  <text x="178.66666666666666" y="275" font-size="12" fill="black">2024-09-07</text>
  <line x1="194.66666666666666" y1="145.16565246788372" x2="194.66666666666666" y2="223.22515212981747" stroke="black" stroke-width="1" />
  <rect x="189.86666666666665" y="148.54631507775525" width="9.6" height="73.93509127789049" fill="red" />
  <line x1="194.66666666666666" y1="250" x2="194.66666666666666" y2="255" stroke="black" stroke-width="1" />
  <text x="189.33333333333331" y="275" font-size="12" fill="black">2024-09-08</text>
  <line x1="205.33333333333334" y1="191.58215010141987" x2="205.33333333333334" y2="212.54225828262344" stroke="black" stroke-width="1" />
  <rect x="200.53333333333333" y="203.75253549695736" width="9.6" height="1" fill="green" />
  <line x1="205.33333333333334" y1="250" x2="205.33333333333334" y2="255" stroke="black" stroke-width="1" />
  <text x="200.0" y="275" font-size="12" fill="black">2024-09-11</text>
  <line x1="216.0" y1="169.50642325895876" x2="216.0" y2="195.7481406355646" stroke="black" stroke-width="1" />
  <rect x="211.2" y="170.28397565922927" width="9.6" height="20.622041920216343" fill="green" />
  <line x1="216.0" y1="250" x2="216.0" y2="255" stroke="black" stroke-width="1" />
  <text x="210.66666666666666" y="275" font-size="12" fill="black">2024-09-12</text>
  <line x1="226.66666666666666" y1="162.5084516565247" x2="226.66666666666666" y2="201.95977011494256" stroke="black" stroke-width="1" />
  <rect x="221.86666666666665" y="163.65787694388104" width="9.6" height="12.102772143340042" fill="green" />
  <line x1="226.66666666666666" y1="250" x2="226.66666666666666" y2="255" stroke="black" stroke-width="1" />
  <text x="221.33333333333331" y="275" font-size="12" fill="black">2024-09-13</text>
  <line x1="237.33333333333334" y1="152.43407707910757" x2="237.33333333333334" y2="178.19472616632856" stroke="black" stroke-width="1" />
  <rect x="232.53333333333333" y="157.97836375929683" width="9.6" height="17.410412440838424" fill="green" />
  <line x1="237.33333333333334" y1="250" x2="237.33333333333334" y2="255" stroke="black" stroke-width="1" />
  <text x="232.0" y="275" font-size="12" fill="black">2024-09-14</text>
  <line x1="248.0" y1="148.30966869506426" x2="248.0" y2="169.7768762677485" stroke="black" stroke-width="1" />
  <rect x="243.2" y="156.3556457065585" width="9.6" height="7.741717376605789" fill="green" />
  <line x1="248.0" y1="250" x2="248.0" y2="255" stroke="black" stroke-width="1" />
  <text x="242.66666666666666" y="275" font-size="12" fill="black">2024-09-15</text>
  <line x1="258.66666666666663" y1="157.47126436781605" x2="258.66666666666663" y2="179.20892494929006" stroke="black" stroke-width="1" />
  <rect x="253.86666666666665" y="159.70250169033127" width="9.6" height="8.519269776876303" fill="red" />
  <line x1="258.66666666666663" y1="250" x2="258.66666666666663" y2="255" stroke="black" stroke-width="1" />
  <text x="253.33333333333331" y="275" font-size="12" fill="black">2024-09-18</text>
  <line x1="269.3333333333333" y1="141.88640973630834" x2="269.3333333333333" y2="168.98816768086544" stroke="black" stroke-width="1" />
  <rect x="264.53333333333336" y="159.19540229885064" width="9.6" height="5.341446923596972" fill="red" />
  <line x1="269.3333333333333" y1="250" x2="269.3333333333333" y2="255" stroke="black" stroke-width="1" />
  <text x="264.0" y="275" font-size="12" fill="black">2024-09-19</text>
  <line x1="279.99999999999994" y1="138.1338742393509" x2="279.99999999999994" y2="167.88370520622044" stroke="black" stroke-width="1" />
  <rect x="275.2" y="157.0317782285328" width="9.6" height="9.770114942528787" fill="red" />
  <line x1="279.99999999999994" y1="250" x2="279.99999999999994" y2="255" stroke="black" stroke-width="1" />
  <text x="274.66666666666663" y="275" font-size="12" fill="black">2024-09-20</text>
  <line x1="290.66666666666663" y1="109.19540229885055" x2="290.66666666666663" y2="150.1352265043949" stroke="black" stroke-width="1" />
  <rect x="285.8666666666667" y="110.2772143340095" width="9.6" height="33.53617308992558" fill="green" />
  <line x1="290.66666666666663" y1="250" x2="290.66666666666663" y2="255" stroke="black" stroke-width="1" />
  <text x="285.3333333333333" y="275" font-size="12" fill="black">2024-09-21</text>
  <line x1="301.3333333333333" y1="110.04056795131842" x2="301.3333333333333" y2="137.32251521298178" stroke="black" stroke-width="1" />
  <rect x="296.53333333333336" y="118.3908045977011" width="9.6" height="11.054766734279955" fill="red" />
  <line x1="301.3333333333333" y1="250" x2="301.3333333333333" y2="255" stroke="black" stroke-width="1" />
  <text x="296.0" y="275" font-size="12" fill="black">2024-09-22</text>
  <line x1="311.99999999999994" y1="89.72278566599053" x2="311.99999999999994" y2="117.03853955375257" stroke="black" stroke-width="1" />
  <rect x="307.2" y="89.72278566599053" width="9.6" height="24.9830966869506" fill="green" />
  <line x1="311.99999999999994" y1="250" x2="311.99999999999994" y2="255" stroke="black" stroke-width="1" />
  <text x="306.66666666666663" y="275" font-size="12" fill="black">2024-09-25</text>
  <line x1="322.66666666666663" y1="65.4158215010142" x2="322.66666666666663" y2="92.93407707910754" stroke="black" stroke-width="1" />
  <rect x="317.8666666666667" y="75.28735632183904" width="9.6" height="1" fill="green" />
  <line x1="322.66666666666663" y1="250" x2="322.66666666666663" y2="255" stroke="black" stroke-width="1" />
  <text x="317.3333333333333" y="275" font-size="12" fill="black">2024-09-26</text>
  <line x1="333.3333333333333" y1="65.88911426639618" x2="333.3333333333333" y2="82.01487491548343" stroke="black" stroke-width="1" />
  <rect x="328.53333333333336" y="65.99053414469242" width="9.6" height="15.145368492224442" fill="green" />
  <line x1="333.3333333333333" y1="250" x2="333.3333333333333" y2="255" stroke="black" stroke-width="1" />
  <text x="328.0" y="275" font-size="12" fill="black">2024-09-27</text>
  <line x1="343.99999999999994" y1="50.0" x2="343.99999999999994" y2="84.55037187288707" stroke="black" stroke-width="1" />
  <rect x="339.2" y="53.88776200135217" width="9.6" height="21.568627450980475" fill="red" />
  <line x1="343.99999999999994" y1="250" x2="343.99999999999994" y2="255" stroke="black" stroke-width="1" />
  <text x="338.66666666666663" y="275" font-size="12" fill="black">2024-09-28</text>
  <line x1="354.66666666666663" y1="53.55003380662606" x2="354.66666666666663" y2="75.79445571331979" stroke="black" stroke-width="1" />
  <rect x="349.8666666666667" y="54.361054766734355" width="9.6" height="10.429344151453616" fill="green" />
  <line x1="354.66666666666663" y1="250" x2="354.66666666666663" y2="255" stroke="black" stroke-width="1" />
  <text x="349.3333333333333" y="275" font-size="12" fill="black">2024-09-29</text>
</svg>