<svg width="400" height="300" xmlns="http://www.w3.org/2000/svg">
  <line x1="40" y1="250" x2="360" y2="250" stroke="black" stroke-width="2" />
  <line x1="45.333333333333336" y1="120.46632124352331" x2="45.333333333333336" y2="154.66321243523333" stroke="black" stroke-width="1" />
  <rect x="40.53333333333333" y="123.57512953367886" width="9.6" height="31.088082901554483" fill="green" />
  <line x1="45.333333333333336" y1="250" x2="45.333333333333336" y2="255" stroke="black" stroke-width="1" />
  <text x="40.0" y="275" font-size="12" fill="black">2024-08-21</text>
  <line x1="56.0" y1="109.06735751295341" x2="56.0" y2="139.11917098445593" stroke="black" stroke-width="1" />
  <rect x="51.199999999999996" y="120.46632124352331" width="9.6" height="18.652849740932616" fill="red" />
  <line x1="56.0" y1="250" x2="56.0" y2="255" stroke="black" stroke-width="1" />
  <text x="50.666666666666664" y="275" font-size="12" fill="black">2024-08-22</text>
  <line x1="66.66666666666666" y1="122.53886010362689" x2="66.66666666666666" y2="145.33678756476704" stroke="black" stroke-width="1" />
  <rect x="61.86666666666666" y="131.86528497409319" width="9.6" height="4.145077720207534" fill="green" />
  <line x1="66.66666666666666" y1="250" x2="66.66666666666666" y2="255" stroke="black" stroke-width="1" />
  <text x="61.33333333333333" y="275" font-size="12" fill="black">2024-08-23</text>
  <line x1="77.33333333333333" y1="120.46632124352331" x2="77.33333333333333" y2="144.30051813471505" stroke="black" stroke-width="1" />
  <rect x="72.53333333333333" y="136.01036269430074" width="9.6" height="8.290155440414333" fill="green" />
  <line x1="77.33333333333333" y1="250" x2="77.33333333333333" y2="255" stroke="black" stroke-width="1" />
  <text x="72.0" y="275" font-size="12" fill="black">2024-08-24</text>
  <line x1="87.99999999999999" y1="112.17616580310897" x2="87.99999999999999" y2="141.1917098445595" stroke="black" stroke-width="1" />
  <rect x="83.19999999999999" y="117.35751295336811" width="9.6" height="22.797927461139782" fill="green" />
  <line x1="87.99999999999999" y1="250" x2="87.99999999999999" y2="255" stroke="black" stroke-width="1" />
  <text x="82.66666666666666" y="275" font-size="12" fill="black">2024-08-25</text>
  <line x1="98.66666666666666" y1="114.24870466321255" x2="98.66666666666666" y2="127.72020725388603" stroke="black" stroke-width="1" />
  <rect x="93.86666666666666" y="115.28497409326417" width="9.6" height="5.181347150259142" fill="green" />
  <line x1="98.66666666666666" y1="250" x2="98.66666666666666" y2="255" stroke="black" stroke-width="1" />
  <text x="93.33333333333333" y="275" font-size="12" fill="black">2024-08-28</text>
  <line x1="109.33333333333333" y1="110.1036269430054" x2="109.33333333333333" y2="125.64766839378244" stroke="black" stroke-width="1" />
  <rect x="104.53333333333333" y="110.1036269430054" width="9.6" height="6.217616580310749" fill="red" />
  <line x1="109.33333333333333" y1="250" x2="109.33333333333333" y2="255" stroke="black" stroke-width="1" />
  <text x="104.0" y="275" font-size="12" fill="black">2024-08-29</text>
  <line x1="119.99999999999999" y1="109.06735751295341" x2="119.99999999999999" y2="123.57512953367886" stroke="black" stroke-width="1" />
  <rect x="115.19999999999999" y="114.24870466321255" width="9.6" height="6.217616580310749" fill="green" />
  <line x1="119.99999999999999" y1="250" x2="119.99999999999999" y2="255" stroke="black" stroke-width="1" />
  <text x="114.66666666666666" y="275" font-size="12" fill="black">2024-08-30</text>
  <line x1="130.66666666666666" y1="93.52331606217635" x2="130.66666666666666" y2="114.24870466321255" stroke="black" stroke-width="1" />
  <rect x="125.86666666666666" y="99.74093264248711" width="9.6" height="14.507772020725449" fill="green" />
  <line x1="130.66666666666666" y1="250" x2="130.66666666666666" y2="255" stroke="black" stroke-width="1" />
  <text x="125.33333333333333" y="275" font-size="12" fill="black">2024-08-31</text>
  <line x1="141.33333333333334" y1="86.26943005181363" x2="141.33333333333334" y2="101.81347150259069" stroke="black" stroke-width="1" />
  <rect x="136.53333333333333" y="96.63212435233154" width="9.6" height="3.1088082901555585" fill="red" />
  <line x1="141.33333333333334" y1="250" x2="141.33333333333334" y2="255" stroke="black" stroke-width="1" />
  <text x="136.0" y="275" font-size="12" fill="black">2024-09-01</text>
  <line x1="152.0" y1="93.52331606217635" x2="152.0" y2="119.43005181347169" stroke="black" stroke-width="1" />
  <rect x="147.2" y="99.74093264248711" width="9.6" height="4.1450777202071665" fill="red" />
  <line x1="152.0" y1="250" x2="152.0" y2="255" stroke="black" stroke-width="1" />
  <text x="146.66666666666666" y="275" font-size="12" fill="black">2024-09-04</text>
  <line x1="162.66666666666666" y1="83.16062176165806" x2="162.66666666666666" y2="131.86528497409319" stroke="black" stroke-width="1" />
  <rect x="157.86666666666665" y="98.70466321243512" width="9.6" height="31.088082901554483" fill="red" />
  <line x1="162.66666666666666" y1="250" x2="162.66666666666666" y2="255" stroke="black" stroke-width="1" />
  <text x="157.33333333333331" y="275" font-size="12" fill="black">2024-09-05</text>
  <line x1="173.33333333333334" y1="128.756476683938" x2="173.33333333333334" y2="156.7357512953369" stroke="black" stroke-width="1" />
  <rect x="168.53333333333333" y="138.08290155440432" width="9.6" height="13.471502590673474" fill="green" />
  <line x1="173.33333333333334" y1="250" x2="173.33333333333334" y2="255" stroke="black" stroke-width="1" />
  <text x="168.0" y="275" font-size="12" fill="black">2024-09-06</text>
  <line x1="184.0" y1="104.92227979274625" x2="184.0" y2="143.26424870466343" stroke="black" stroke-width="1" />
  <rect x="179.2" y="124.61139896373047" width="9.6" height="15.544041450777424" fill="green" />
  <line x1="184.0" y1="250" x2="184.0" y2="255" stroke="black" stroke-width="1" />
  <text x="178.66666666666666" y="275" font-size="12" fill="black">2024-09-07</text>
  <line x1="194.66666666666666" y1="124.61139896373047" x2="194.66666666666666" y2="151.5544041450778" stroke="black" stroke-width="1" />
  <rect x="189.86666666666665" y="124.61139896373047" width="9.6" height="26.943005181347317" fill="red" />
  <line x1="194.66666666666666" y1="250" x2="194.66666666666666" y2="255" stroke="black" stroke-width="1" />
  <text x="189.33333333333331" y="275" font-size="12" fill="black">2024-09-08</text>
  <line x1="205.33333333333334" y1="134.97409326424875" x2="205.33333333333334" y2="156.7357512953369" stroke="black" stroke-width="1" />
  <rect x="200.53333333333333" y="143.26424870466343" width="9.6" height="8.290155440414333" fill="red" />
  <line x1="205.33333333333334" y1="250" x2="205.33333333333334" y2="255" stroke="black" stroke-width="1" />
  <text x="200.0" y="275" font-size="12" fill="black">2024-09-11</text>
  <line x1="216.0" y1="118.3937823834197" x2="216.0" y2="151.5544041450778" stroke="black" stroke-width="1" />
  <rect x="211.2" y="142.22797927461147" width="9.6" height="9.326424870466308" fill="green" />
  <line x1="216.0" y1="250" x2="216.0" y2="255" stroke="black" stroke-width="1" />
  <text x="210.66666666666666" y="275" font-size="12" fill="black">2024-09-12</text>
  <line x1="226.66666666666666" y1="126.68393782383441" x2="226.66666666666666" y2="155.69948186528495" stroke="black" stroke-width="1" />
  <rect x="221.86666666666665" y="142.22797927461147" width="9.6" height="12.435233160621866" fill="red" />
  <line x1="226.66666666666666" y1="250" x2="226.66666666666666" y2="255" stroke="black" stroke-width="1" />
  <text x="221.33333333333331" y="275" font-size="12" fill="black">2024-09-13</text>
  <line x1="237.33333333333334" y1="121.50259067357527" x2="237.33333333333334" y2="152.59067357512976" stroke="black" stroke-width="1" />
  <rect x="232.53333333333333" y="143.26424870466343" width="9.6" height="3.1088082901551903" fill="green" />
  <line x1="237.33333333333334" y1="250" x2="237.33333333333334" y2="255" stroke="black" stroke-width="1" />
  <text x="232.0" y="275" font-size="12" fill="black">2024-09-14</text>
  <line x1="248.0" y1="123.57512953367886" x2="248.0" y2="142.22797927461147" stroke="black" stroke-width="1" />
  <rect x="243.2" y="132.90155440414517" width="9.6" height="4.1450777202071665" fill="green" />
  <line x1="248.0" y1="250" x2="248.0" y2="255" stroke="black" stroke-width="1" />
  <text x="242.66666666666666" y="275" font-size="12" fill="black">2024-09-15</text>
  <line x1="258.66666666666663" y1="120.46632124352331" x2="258.66666666666663" y2="145.33678756476704" stroke="black" stroke-width="1" />
  <rect x="253.86666666666665" y="130.82901554404157" width="9.6" height="2.0725388601035832" fill="green" />
  <line x1="258.66666666666663" y1="250" x2="258.66666666666663" y2="255" stroke="black" stroke-width="1" />
  <text x="253.33333333333331" y="275" font-size="12" fill="black">2024-09-18</text>
  <line x1="269.3333333333333" y1="81.08808290155449" x2="269.3333333333333" y2="126.68393782383441" stroke="black" stroke-width="1" />
  <rect x="264.53333333333336" y="93.52331606217635" width="9.6" height="33.160621761658064" fill="green" />
  <line x1="269.3333333333333" y1="250" x2="269.3333333333333" y2="255" stroke="black" stroke-width="1" />
  <text x="264.0" y="275" font-size="12" fill="black">2024-09-19</text>
  <line x1="279.99999999999994" y1="88.3419689119172" x2="279.99999999999994" y2="106.99481865284983" stroke="black" stroke-width="1" />
  <rect x="275.2" y="89.37823834196882" width="9.6" height="1.0362694300519757" fill="green" />
  <line x1="279.99999999999994" y1="250" x2="279.99999999999994" y2="255" stroke="black" stroke-width="1" />
  <text x="274.66666666666663" y="275" font-size="12" fill="black">2024-09-20</text>
  <line x1="290.66666666666663" y1="50.0" x2="290.66666666666663" y2="79.01554404145091" stroke="black" stroke-width="1" />
  <rect x="285.8666666666667" y="55.18134715025914" width="9.6" height="23.834196891191755" fill="green" />
  <line x1="290.66666666666663" y1="250" x2="290.66666666666663" y2="255" stroke="black" stroke-width="1" />
  <text x="285.3333333333333" y="275" font-size="12" fill="black">2024-09-21</text>
  <line x1="301.3333333333333" y1="130.82901554404157" x2="301.3333333333333" y2="231.34715025906738" stroke="black" stroke-width="1" />
  <rect x="296.53333333333336" y="134.97409326424875" width="9.6" height="96.37305699481864" fill="red" />
  <line x1="301.3333333333333" y1="250" x2="301.3333333333333" y2="255" stroke="black" stroke-width="1" />
  <text x="296.0" y="275" font-size="12" fill="black">2024-09-22</text>
  <line x1="311.99999999999994" y1="216.83937823834194" x2="311.99999999999994" y2="250.0" stroke="black" stroke-width="1" />
  <rect x="307.2" y="224.09326424870466" width="9.6" height="1" fill="red" />
  <line x1="311.99999999999994" y1="250" x2="311.99999999999994" y2="255" stroke="black" stroke-width="1" />
  <text x="306.66666666666663" y="275" font-size="12" fill="black">2024-09-25</text>
  <line x1="322.66666666666663" y1="198.1865284974093" x2="322.66666666666663" y2="228.2383419689118" stroke="black" stroke-width="1" />
  <rect x="317.8666666666667" y="206.47668393782402" width="9.6" height="7.2538860103627245" fill="red" />
  <line x1="322.66666666666663" y1="250" x2="322.66666666666663" y2="255" stroke="black" stroke-width="1" />
  <text x="317.3333333333333" y="275" font-size="12" fill="black">2024-09-26</text>
  <line x1="333.3333333333333" y1="194.04145077720216" x2="333.3333333333333" y2="219.9481865284975" stroke="black" stroke-width="1" />
  <rect x="328.53333333333336" y="198.1865284974093" width="9.6" height="15.544041450777424" fill="green" />
  <line x1="333.3333333333333" y1="250" x2="333.3333333333333" y2="255" stroke="black" stroke-width="1" />
  <text x="328.0" y="275" font-size="12" fill="black">2024-09-27</text>
  <line x1="343.99999999999994" y1="146.37305699481863" x2="343.99999999999994" y2="195.07772020725412" stroke="black" stroke-width="1" />
  <rect x="339.2" y="152.59067357512976" width="9.6" height="38.34196891191684" fill="green" />
  <line x1="343.99999999999994" y1="250" x2="343.99999999999994" y2="255" stroke="black" stroke-width="1" />
  <text x="338.66666666666663" y="275" font-size="12" fill="black">2024-09-28</text>
  <line x1="354.66666666666663" y1="117.35751295336811" x2="354.66666666666663" y2="151.5544041450778" stroke="black" stroke-width="1" />
  <rect x="349.8666666666667" y="125.64766839378244" width="9.6" height="25.90673575129534" fill="green" />
  <line x1="354.66666666666663" y1="250" x2="354.66666666666663" y2="255" stroke="black" stroke-width="1" />
  <text x="349.3333333333333" y="275" font-size="12" fill="black">2024-09-29</text>
</svg>