<svg width="400" height="300" xmlns="http://www.w3.org/2000/svg">
  <line x1="40" y1="250" x2="360" y2="250" stroke="black" stroke-width="2" />
  <line x1="45.333333333333336" y1="175.36957558416808" x2="45.333333333333336" y2="211.37339055793984" stroke="black" stroke-width="1" />
  <rect x="40.53333333333333" y="178.85073915116863" width="9.6" height="15.450643776824057" fill="red" />
  <line x1="45.333333333333336" y1="250" x2="45.333333333333336" y2="255" stroke="black" stroke-width="1" />
  <text x="40.0" y="275" font-size="12" fill="black">2024-08-18</text>
  <line x1="56.0" y1="167.5011921793041" x2="56.0" y2="197.21030042918437" stroke="black" stroke-width="1" />
  <rect x="51.199999999999996" y="189.05579399141652" width="9.6" height="3.3381020505480725" fill="green" />
  <line x1="56.0" y1="250" x2="56.0" y2="255" stroke="black" stroke-width="1" />
  <text x="50.666666666666664" y="275" font-size="12" fill="black">2024-08-21</text>
  <line x1="66.66666666666666" y1="165.0691463996189" x2="66.66666666666666" y2="204.69718645684316" stroke="black" stroke-width="1" />
  <rect x="61.86666666666666" y="180.1382927992372" width="9.6" height="3.814973772055095" fill="green" />
  <line x1="66.66666666666666" y1="250" x2="66.66666666666666" y2="255" stroke="black" stroke-width="1" />
  <text x="61.33333333333333" y="275" font-size="12" fill="black">2024-08-22</text>
  <line x1="77.33333333333333" y1="167.07200762994773" x2="77.33333333333333" y2="195.49356223175997" stroke="black" stroke-width="1" />
  <rect x="72.53333333333333" y="176.03719599427768" width="9.6" height="16.40438721983756" fill="red" />
  <line x1="77.33333333333333" y1="250" x2="77.33333333333333" y2="255" stroke="black" stroke-width="1" />
  <text x="72.0" y="275" font-size="12" fill="black">2024-08-23</text>
  <line x1="87.99999999999999" y1="169.17024320457784" x2="87.99999999999999" y2="227.96852646638055" stroke="black" stroke-width="1" />
  <rect x="83.19999999999999" y="186.8144969003339" width="9.6" height="2.527420123986514" fill="red" />
  <line x1="87.99999999999999" y1="250" x2="87.99999999999999" y2="255" stroke="black" stroke-width="1" />
  <text x="82.66666666666666" y="275" font-size="12" fill="black">2024-08-24</text>
  <line x1="98.66666666666666" y1="158.41678588459698" x2="98.66666666666666" y2="190.629470672389" stroke="black" stroke-width="1" />
  <rect x="93.86666666666666" y="161.73104434907026" width="9.6" height="16.738197424892636" fill="green" />
  <line x1="98.66666666666666" y1="250" x2="98.66666666666666" y2="255" stroke="black" stroke-width="1" />
  <text x="93.33333333333333" y="275" font-size="12" fill="black">2024-08-25</text>
  <line x1="109.33333333333333" y1="125.58416785884599" x2="109.33333333333333" y2="155.86552217453513" stroke="black" stroke-width="1" />
  <rect x="104.53333333333333" y="144.84978540772568" width="9.6" height="4.387219837863413" fill="red" />
  <line x1="109.33333333333333" y1="250" x2="109.33333333333333" y2="255" stroke="black" stroke-width="1" />
  <text x="104.0" y="275" font-size="12" fill="black">2024-08-28</text>
  <line x1="119.99999999999999" y1="124.3919885550787" x2="119.99999999999999" y2="165.21220791607084" stroke="black" stroke-width="1" />
  <rect x="115.19999999999999" y="138.07820696232716" width="9.6" height="10.109680495946598" fill="red" />
  <line x1="119.99999999999999" y1="250" x2="119.99999999999999" y2="255" stroke="black" stroke-width="1" />
  <text x="114.66666666666666" y="275" font-size="12" fill="black">2024-08-29</text>
  <line x1="130.66666666666666" y1="122.00762994754413" x2="130.66666666666666" y2="164.78302336671445" stroke="black" stroke-width="1" />
  <rect x="125.86666666666666" y="140.27181688125913" width="9.6" height="2.2412970910826258" fill="red" />
  <line x1="130.66666666666666" y1="250" x2="130.66666666666666" y2="255" stroke="black" stroke-width="1" />
  <text x="125.33333333333333" y="275" font-size="12" fill="black">2024-08-30</text>
  <line x1="141.33333333333334" y1="123.10443490701012" x2="141.33333333333334" y2="162.3986647591799" stroke="black" stroke-width="1" />
  <rect x="136.53333333333333" y="128.06390081068184" width="9.6" height="4.244158321412011" fill="green" />
  <line x1="141.33333333333334" y1="250" x2="141.33333333333334" y2="255" stroke="black" stroke-width="1" />
  <text x="136.0" y="275" font-size="12" fill="black">2024-08-31</text>
  <line x1="152.0" y1="120.0286123032906" x2="152.0" y2="151.81211254172626" stroke="black" stroke-width="1" />
  <rect x="147.2" y="134.59704339532658" width="9.6" height="1" fill="green" />
  <line x1="152.0" y1="250" x2="152.0" y2="255" stroke="black" stroke-width="1" />
  <text x="146.66666666666666" y="275" font-size="12" fill="black">2024-09-01</text>
  <line x1="162.66666666666666" y1="84.71673819742514" x2="162.66666666666666" y2="126.87172150691457" stroke="black" stroke-width="1" />
  <rect x="157.86666666666665" y="94.15832141154075" width="9.6" height="29.37529804482575" fill="green" />
  <line x1="162.66666666666666" y1="250" x2="162.66666666666666" y2="255" stroke="black" stroke-width="1" />
  <text x="157.33333333333331" y="275" font-size="12" fill="black">2024-09-05</text>
  <line x1="173.33333333333334" y1="50.0" x2="173.33333333333334" y2="97.97329518359584" stroke="black" stroke-width="1" />
  <rect x="168.53333333333333" y="67.93037672866046" width="9.6" height="19.933237958988766" fill="green" />
  <line x1="173.33333333333334" y1="250" x2="173.33333333333334" y2="255" stroke="black" stroke-width="1" />
  <text x="168.0" y="275" font-size="12" fill="black">2024-09-06</text>
  <line x1="184.0" y1="59.25131139723442" x2="184.0" y2="137.12446351931365" stroke="black" stroke-width="1" />
  <rect x="179.2" y="67.88268955650929" width="9.6" height="41.48783977110173" fill="red" />
  <line x1="184.0" y1="250" x2="184.0" y2="255" stroke="black" stroke-width="1" />
  <text x="178.66666666666666" y="275" font-size="12" fill="black">2024-09-07</text>
  <line x1="194.66666666666666" y1="84.954697186457" x2="194.66666666666666" y2="124.77348593228443" stroke="black" stroke-width="1" />
  <rect x="189.86666666666665" y="102.74201239866497" width="9.6" height="4.816404387219788" fill="green" />
  <line x1="194.66666666666666" y1="250" x2="194.66666666666666" y2="255" stroke="black" stroke-width="1" />
  <text x="189.33333333333331" y="275" font-size="12" fill="black">2024-09-08</text>
  <line x1="205.33333333333334" y1="90.3433476394851" x2="205.33333333333334" y2="205.79399141630915" stroke="black" stroke-width="1" />
  <rect x="200.53333333333333" y="95.87505960896516" width="9.6" height="20.123986647591902" fill="red" />
  <line x1="205.33333333333334" y1="250" x2="205.33333333333334" y2="255" stroke="black" stroke-width="1" />
  <text x="200.0" y="275" font-size="12" fill="black">2024-09-11</text>
  <line x1="216.0" y1="64.97758702908922" x2="216.0" y2="130.06676204101126" stroke="black" stroke-width="1" />
  <rect x="211.2" y="92.48927038626644" width="9.6" height="18.21649976156381" fill="green" />
  <line x1="216.0" y1="250" x2="216.0" y2="255" stroke="black" stroke-width="1" />
  <text x="210.66666666666666" y="275" font-size="12" fill="black">2024-09-12</text>
  <line x1="226.66666666666666" y1="128.87458273724394" x2="226.66666666666666" y2="188.14973772055313" stroke="black" stroke-width="1" />
  <rect x="221.86666666666665" y="136.74296614210795" width="9.6" height="2.9089175011922404" fill="green" />
  <line x1="226.66666666666666" y1="250" x2="226.66666666666666" y2="255" stroke="black" stroke-width="1" />
  <text x="221.33333333333331" y="275" font-size="12" fill="black">2024-09-13</text>
  <line x1="237.33333333333334" y1="133.11874105865542" x2="237.33333333333334" y2="167.93037672865992" stroke="black" stroke-width="1" />
  <rect x="232.53333333333333" y="142.56080114449242" width="9.6" height="1" fill="red" />
  <line x1="237.33333333333334" y1="250" x2="237.33333333333334" y2="255" stroke="black" stroke-width="1" />
  <text x="232.0" y="275" font-size="12" fill="black">2024-09-14</text>
  <line x1="248.0" y1="98.92703862660989" x2="248.0" y2="148.76013352408208" stroke="black" stroke-width="1" />
  <rect x="243.2" y="114.94992846924171" width="9.6" height="15.450643776824057" fill="green" />
  <line x1="248.0" y1="250" x2="248.0" y2="255" stroke="black" stroke-width="1" />
  <text x="242.66666666666666" y="275" font-size="12" fill="black">2024-09-15</text>
  <line x1="258.66666666666663" y1="93.63376251788307" x2="258.66666666666663" y2="146.23271340009558" stroke="black" stroke-width="1" />
  <rect x="253.86666666666665" y="111.70720076299494" width="9.6" height="27.944682880305226" fill="red" />
  <line x1="258.66666666666663" y1="250" x2="258.66666666666663" y2="255" stroke="black" stroke-width="1" />
  <text x="253.33333333333331" y="275" font-size="12" fill="black">2024-09-18</text>
  <line x1="269.3333333333333" y1="151.21602288984263" x2="269.3333333333333" y2="200.4530281354317" stroke="black" stroke-width="1" />
  <rect x="264.53333333333336" y="154.57796852646655" width="9.6" height="38.38817358130636" fill="red" />
  <line x1="269.3333333333333" y1="250" x2="269.3333333333333" y2="255" stroke="black" stroke-width="1" />
  <text x="264.0" y="275" font-size="12" fill="black">2024-09-19</text>
  <line x1="279.99999999999994" y1="161.68335717691963" x2="279.99999999999994" y2="219.909394372914" stroke="black" stroke-width="1" />
  <rect x="275.2" y="180.1382927992372" width="9.6" height="18.073438245111866" fill="green" />
  <line x1="279.99999999999994" y1="250" x2="279.99999999999994" y2="255" stroke="black" stroke-width="1" />
  <text x="274.66666666666663" y="275" font-size="12" fill="black">2024-09-20</text>
  <line x1="290.66666666666663" y1="160.2050548402479" x2="290.66666666666663" y2="209.08440629470658" stroke="black" stroke-width="1" />
  <rect x="285.8666666666667" y="165.4983309489747" width="9.6" height="31.71196948020967" fill="red" />
  <line x1="290.66666666666663" y1="250" x2="290.66666666666663" y2="255" stroke="black" stroke-width="1" />
  <text x="285.3333333333333" y="275" font-size="12" fill="black">2024-09-21</text>
  <line x1="301.3333333333333" y1="188.7696709585121" x2="301.3333333333333" y2="232.59418216499773" stroke="black" stroke-width="1" />
  <rect x="296.53333333333336" y="207.08154506437774" width="9.6" height="15.760610395803269" fill="green" />
  <line x1="301.3333333333333" y1="250" x2="301.3333333333333" y2="255" stroke="black" stroke-width="1" />
  <text x="296.0" y="275" font-size="12" fill="black">2024-09-22</text>
  <line x1="311.99999999999994" y1="185.93228421554636" x2="311.99999999999994" y2="221.38769670958516" stroke="black" stroke-width="1" />
  <rect x="307.2" y="199.97615641392468" width="9.6" height="14.687649022413146" fill="red" />
  <line x1="311.99999999999994" y1="250" x2="311.99999999999994" y2="255" stroke="black" stroke-width="1" />
  <text x="306.66666666666663" y="275" font-size="12" fill="black">2024-09-25</text>
  <line x1="322.66666666666663" y1="196.06580829756828" x2="322.66666666666663" y2="250.0" stroke="black" stroke-width="1" />
  <rect x="317.8666666666667" y="206.17548879351435" width="9.6" height="20.839294229852165" fill="green" />
  <line x1="322.66666666666663" y1="250" x2="322.66666666666663" y2="255" stroke="black" stroke-width="1" />
  <text x="317.3333333333333" y="275" font-size="12" fill="black">2024-09-26</text>
  <line x1="333.3333333333333" y1="177.94468288030524" x2="333.3333333333333" y2="216.2374821173103" stroke="black" stroke-width="1" />
  <rect x="328.53333333333336" y="193.3953266571293" width="9.6" height="7.43919885550814" fill="red" />
  <line x1="333.3333333333333" y1="250" x2="333.3333333333333" y2="255" stroke="black" stroke-width="1" />
  <text x="328.0" y="275" font-size="12" fill="black">2024-09-27</text>
  <line x1="343.99999999999994" y1="199.451597520267" x2="343.99999999999994" y2="226.58559847401068" stroke="black" stroke-width="1" />
  <rect x="339.2" y="207.08154506437774" width="9.6" height="1" fill="red" />
  <line x1="343.99999999999994" y1="250" x2="343.99999999999994" y2="255" stroke="black" stroke-width="1" />
  <text x="338.66666666666663" y="275" font-size="12" fill="black">2024-09-28</text>
  <line x1="354.66666666666663" y1="151.23986647591795" x2="354.66666666666663" y2="199.49928469241766" stroke="black" stroke-width="1" />
  <rect x="349.8666666666667" y="174.41583214115403" width="9.6" height="19.88555078683866" fill="green" />
  <line x1="354.66666666666663" y1="250" x2="354.66666666666663" y2="255" stroke="black" stroke-width="1" />
  <text x="349.3333333333333" y="275" font-size="12" fill="black">2024-09-29</text>
</svg>