<svg width="400" height="300" xmlns="http://www.w3.org/2000/svg">
  <line x1="40" y1="250" x2="360" y2="250" stroke="black" stroke-width="2" />
  <line x1="45.333333333333336" y1="99.612403100775" x2="45.333333333333336" y2="130.62015503875966" stroke="black" stroke-width="1" />
  <rect x="40.53333333333333" y="103.48837209302312" width="9.6" height="21.70542635658925" fill="green" />
  <line x1="45.333333333333336" y1="250" x2="45.333333333333336" y2="255" stroke="black" stroke-width="1" />
  <text x="40.0" y="275" font-size="12" fill="black">2024-08-21</text>
  <line x1="56.0" y1="68.60465116279059" x2="56.0" y2="98.06201550387581" stroke="black" stroke-width="1" />
  <rect x="51.199999999999996" y="78.68217054263548" width="9.6" height="19.379844961240323" fill="green" />
  <line x1="56.0" y1="250" x2="56.0" y2="255" stroke="black" stroke-width="1" />
  <text x="50.666666666666664" y="275" font-size="12" fill="black">2024-08-22</text>
  <line x1="66.66666666666666" y1="64.72868217054247" x2="66.66666666666666" y2="84.10852713178278" stroke="black" stroke-width="1" />
  <rect x="61.86666666666666" y="77.13178294573629" width="9.6" height="1.5503875968991927" fill="green" />
  <line x1="66.66666666666666" y1="250" x2="66.66666666666666" y2="255" stroke="black" stroke-width="1" />
  <text x="61.33333333333333" y="275" font-size="12" fill="black">2024-08-23</text>
  <line x1="77.33333333333333" y1="84.10852713178278" x2="77.33333333333333" y2="118.9922480620153" stroke="black" stroke-width="1" />
  <rect x="72.53333333333333" y="88.75968992248065" width="9.6" height="24.80620155038736" fill="red" />
  <line x1="77.33333333333333" y1="250" x2="77.33333333333333" y2="255" stroke="black" stroke-width="1" />
  <text x="72.0" y="275" font-size="12" fill="black">2024-08-24</text>
  <line x1="87.99999999999999" y1="83.33333333333334" x2="87.99999999999999" y2="108.91472868217042" stroke="black" stroke-width="1" />
  <rect x="83.19999999999999" y="93.41085271317823" width="9.6" height="13.95348837209301" fill="green" />
  <line x1="87.99999999999999" y1="250" x2="87.99999999999999" y2="255" stroke="black" stroke-width="1" />
  <text x="82.66666666666666" y="275" font-size="12" fill="black">2024-08-25</text>
  <line x1="98.66666666666666" y1="68.60465116279059" x2="98.66666666666666" y2="121.31782945736424" stroke="black" stroke-width="1" />
  <rect x="93.86666666666666" y="76.35658914728683" width="9.6" height="42.63565891472849" fill="green" />
  <line x1="98.66666666666666" y1="250" x2="98.66666666666666" y2="255" stroke="black" stroke-width="1" />
  <text x="93.33333333333333" y="275" font-size="12" fill="black">2024-08-28</text>
  <line x1="109.33333333333333" y1="63.178294573643285" x2="109.33333333333333" y2="121.31782945736424" stroke="black" stroke-width="1" />
  <rect x="104.53333333333333" y="77.90697674418601" width="9.6" height="43.41085271317822" fill="red" />
  <line x1="109.33333333333333" y1="250" x2="109.33333333333333" y2="255" stroke="black" stroke-width="1" />
  <text x="104.0" y="275" font-size="12" fill="black">2024-08-29</text>
  <line x1="119.99999999999999" y1="112.01550387596882" x2="119.99999999999999" y2="135.27131782945725" stroke="black" stroke-width="1" />
  <rect x="115.19999999999999" y="121.31782945736424" width="9.6" height="6.976744186046505" fill="red" />
  <line x1="119.99999999999999" y1="250" x2="119.99999999999999" y2="255" stroke="black" stroke-width="1" />
  <text x="114.66666666666666" y="275" font-size="12" fill="black">2024-08-30</text>
  <line x1="130.66666666666666" y1="98.06201550387581" x2="130.66666666666666" y2="126.74418604651156" stroke="black" stroke-width="1" />
  <rect x="125.86666666666666" y="123.64341085271317" width="9.6" height="3.1007751937983854" fill="green" />
  <line x1="130.66666666666666" y1="250" x2="130.66666666666666" y2="255" stroke="black" stroke-width="1" />
  <text x="125.33333333333333" y="275" font-size="12" fill="black">2024-08-31</text>
  <line x1="141.33333333333334" y1="91.0852713178293" x2="141.33333333333334" y2="122.09302325581397" stroke="black" stroke-width="1" />
  <rect x="136.53333333333333" y="101.16279069767447" width="9.6" height="20.930232558139515" fill="green" />
  <line x1="141.33333333333334" y1="250" x2="141.33333333333334" y2="255" stroke="black" stroke-width="1" />
  <text x="136.0" y="275" font-size="12" fill="black">2024-09-01</text>
  <line x1="152.0" y1="58.5271317829457" x2="152.0" y2="118.21705426356587" stroke="black" stroke-width="1" />
  <rect x="147.2" y="74.03100775193789" width="9.6" height="27.131782945736564" fill="green" />
  <line x1="152.0" y1="250" x2="152.0" y2="255" stroke="black" stroke-width="1" />
  <text x="146.66666666666666" y="275" font-size="12" fill="black">2024-09-04</text>
  <line x1="162.66666666666666" y1="50.0" x2="162.66666666666666" y2="105.81395348837205" stroke="black" stroke-width="1" />
  <rect x="157.86666666666665" y="74.03100775193789" width="9.6" height="13.178294573643276" fill="red" />
  <line x1="162.66666666666666" y1="250" x2="162.66666666666666" y2="255" stroke="black" stroke-width="1" />
  <text x="157.33333333333331" y="275" font-size="12" fill="black">2024-09-05</text>
  <line x1="173.33333333333334" y1="116.66666666666666" x2="173.33333333333334" y2="137.59689922480618" stroke="black" stroke-width="1" />
  <rect x="168.53333333333333" y="126.74418604651156" width="9.6" height="10.852713178294625" fill="red" />
  <line x1="173.33333333333334" y1="250" x2="173.33333333333334" y2="255" stroke="black" stroke-width="1" />
  <text x="168.0" y="275" font-size="12" fill="black">2024-09-06</text>
  <line x1="184.0" y1="108.91472868217042" x2="184.0" y2="190.31007751937983" stroke="black" stroke-width="1" />
  <rect x="179.2" y="137.59689922480618" width="9.6" height="37.98449612403091" fill="red" />
  <line x1="184.0" y1="250" x2="184.0" y2="255" stroke="black" stroke-width="1" />
  <text x="178.66666666666666" y="275" font-size="12" fill="black">2024-09-07</text>
  <line x1="194.66666666666666" y1="171.705426356589" x2="194.66666666666666" y2="220.54263565891478" stroke="black" stroke-width="1" />
  <rect x="189.86666666666665" y="175.58139534883708" width="9.6" height="26.35658914728683" fill="red" />
  <line x1="194.66666666666666" y1="250" x2="194.66666666666666" y2="255" stroke="black" stroke-width="1" />
  <text x="189.33333333333331" y="275" font-size="12" fill="black">2024-09-08</text>
  <line x1="205.33333333333334" y1="186.4341085271317" x2="205.33333333333334" y2="229.06976744186048" stroke="black" stroke-width="1" />
  <rect x="200.53333333333333" y="201.93798449612393" width="9.6" height="26.35658914728683" fill="red" />
  <line x1="205.33333333333334" y1="250" x2="205.33333333333334" y2="255" stroke="black" stroke-width="1" />
  <text x="200.0" y="275" font-size="12" fill="black">2024-09-11</text>
  <line x1="216.0" y1="202.71317829457365" x2="216.0" y2="228.29457364341076" stroke="black" stroke-width="1" />
  <rect x="211.2" y="219.76744186046506" width="9.6" height="7.751937984496239" fill="green" />
  <line x1="216.0" y1="250" x2="216.0" y2="255" stroke="black" stroke-width="1" />
  <text x="210.66666666666666" y="275" font-size="12" fill="black">2024-09-12</text>
  <line x1="226.66666666666666" y1="209.68992248062017" x2="226.66666666666666" y2="250.0" stroke="black" stroke-width="1" />
  <rect x="221.86666666666665" y="219.76744186046506" width="9.6" height="23.255813953488442" fill="red" />
  <line x1="226.66666666666666" y1="250" x2="226.66666666666666" y2="255" stroke="black" stroke-width="1" />
  <text x="221.33333333333331" y="275" font-size="12" fill="black">2024-09-13</text>
  <line x1="237.33333333333334" y1="205.81395348837205" x2="237.33333333333334" y2="231.3953488372094" stroke="black" stroke-width="1" />
  <rect x="232.53333333333333" y="222.093023255814" width="9.6" height="9.302325581395433" fill="green" />
  <line x1="237.33333333333334" y1="250" x2="237.33333333333334" y2="255" stroke="black" stroke-width="1" />
  <text x="232.0" y="275" font-size="12" fill="black">2024-09-14</text>
  <line x1="248.0" y1="194.96124031007741" x2="248.0" y2="218.9922480620156" stroke="black" stroke-width="1" />
  <rect x="243.2" y="200.38759689922472" width="9.6" height="18.604651162790866" fill="green" />
  <line x1="248.0" y1="250" x2="248.0" y2="255" stroke="black" stroke-width="1" />
  <text x="242.66666666666666" y="275" font-size="12" fill="black">2024-09-15</text>
  <line x1="258.66666666666663" y1="203.48837209302312" x2="258.66666666666663" y2="218.21705426356587" stroke="black" stroke-width="1" />
  <rect x="253.86666666666665" y="208.13953488372096" width="9.6" height="6.976744186046505" fill="red" />
  <line x1="258.66666666666663" y1="250" x2="258.66666666666663" y2="255" stroke="black" stroke-width="1" />
  <text x="253.33333333333331" y="275" font-size="12" fill="black">2024-09-18</text>
  <line x1="269.3333333333333" y1="184.1085271317828" x2="269.3333333333333" y2="222.86821705426343" stroke="black" stroke-width="1" />
  <rect x="264.53333333333336" y="190.31007751937983" width="9.6" height="29.457364341085214" fill="green" />
  <line x1="269.3333333333333" y1="250" x2="269.3333333333333" y2="255" stroke="black" stroke-width="1" />
  <text x="264.0" y="275" font-size="12" fill="black">2024-09-19</text>
  <line x1="279.99999999999994" y1="176.35658914728683" x2="279.99999999999994" y2="199.61240310077528" stroke="black" stroke-width="1" />
  <rect x="275.2" y="176.35658914728683" width="9.6" height="13.95348837209301" fill="green" />
  <line x1="279.99999999999994" y1="250" x2="279.99999999999994" y2="255" stroke="black" stroke-width="1" />
  <text x="274.66666666666663" y="275" font-size="12" fill="black">2024-09-20</text>
  <line x1="290.66666666666663" y1="114.34108527131775" x2="290.66666666666663" y2="160.0775193798449" stroke="black" stroke-width="1" />
  <rect x="285.8666666666667" y="156.97674418604652" width="9.6" height="3.1007751937983854" fill="green" />
  <line x1="290.66666666666663" y1="250" x2="290.66666666666663" y2="255" stroke="black" stroke-width="1" />
  <text x="285.3333333333333" y="275" font-size="12" fill="black">2024-09-21</text>
  <line x1="301.3333333333333" y1="146.89922480620163" x2="301.3333333333333" y2="225.9689922480621" stroke="black" stroke-width="1" />
  <rect x="296.53333333333336" y="151.55038759689918" width="9.6" height="59.68992248062016" fill="red" />
  <line x1="301.3333333333333" y1="250" x2="301.3333333333333" y2="255" stroke="black" stroke-width="1" />
  <text x="296.0" y="275" font-size="12" fill="black">2024-09-22</text>
  <line x1="311.99999999999994" y1="194.18604651162795" x2="311.99999999999994" y2="225.19379844961236" stroke="black" stroke-width="1" />
  <rect x="307.2" y="201.93798449612393" width="9.6" height="9.302325581395433" fill="green" />
  <line x1="311.99999999999994" y1="250" x2="311.99999999999994" y2="255" stroke="black" stroke-width="1" />
  <text x="306.66666666666663" y="275" font-size="12" fill="black">2024-09-25</text>
  <line x1="322.66666666666663" y1="144.5736434108527" x2="322.66666666666663" y2="177.906976744186" stroke="black" stroke-width="1" />
  <rect x="317.8666666666667" y="155.4263565891473" width="9.6" height="22.480620155038707" fill="green" />
  <line x1="322.66666666666663" y1="250" x2="322.66666666666663" y2="255" stroke="black" stroke-width="1" />
  <text x="317.3333333333333" y="275" font-size="12" fill="black">2024-09-26</text>
  <line x1="333.3333333333333" y1="142.24806201550376" x2="333.3333333333333" y2="194.96124031007741" stroke="black" stroke-width="1" />
  <rect x="328.53333333333336" y="161.6279069767441" width="9.6" height="30.232558139534948" fill="red" />
  <line x1="333.3333333333333" y1="250" x2="333.3333333333333" y2="255" stroke="black" stroke-width="1" />
  <text x="328.0" y="275" font-size="12" fill="black">2024-09-27</text>
  <line x1="343.99999999999994" y1="129.84496124030994" x2="343.99999999999994" y2="174.03100775193792" stroke="black" stroke-width="1" />
  <rect x="339.2" y="139.9224806201551" width="9.6" height="33.333333333333336" fill="green" />
  <line x1="343.99999999999994" y1="250" x2="343.99999999999994" y2="255" stroke="black" stroke-width="1" />
  <text x="338.66666666666663" y="275" font-size="12" fill="black">2024-09-28</text>
  <line x1="354.66666666666663" y1="116.66666666666666" x2="354.66666666666663" y2="156.20155038759677" stroke="black" stroke-width="1" />
  <rect x="349.8666666666667" y="139.9224806201551" width="9.6" height="14.72868217054247" fill="red" />
  <line x1="354.66666666666663" y1="250" x2="354.66666666666663" y2="255" stroke="black" stroke-width="1" />
  <text x="349.3333333333333" y="275" font-size="12" fill="black">2024-09-29</text>
</svg>