<svg width="400" height="300" xmlns="http://www.w3.org/2000/svg">
  <line x1="40" y1="250" x2="360" y2="250" stroke="black" stroke-width="2" />
  <line x1="45.333333333333336" y1="185.99999999999994" x2="45.333333333333336" y2="197.0769230769231" stroke="black" stroke-width="1" />
  <rect x="40.53333333333333" y="187.84615384615387" width="9.6" height="9.230769230769253" fill="green" />
  <line x1="45.333333333333336" y1="250" x2="45.333333333333336" y2="255" stroke="black" stroke-width="1" />
  <text x="40.0" y="275" font-size="12" fill="black">2024-08-21</text>
  <line x1="56.0" y1="178.92307692307685" x2="56.0" y2="192.46153846153842" stroke="black" stroke-width="1" />
  <rect x="51.199999999999996" y="187.23076923076925" width="9.6" height="4.307692307692216" fill="red" />
  <line x1="56.0" y1="250" x2="56.0" y2="255" stroke="black" stroke-width="1" />
  <text x="50.666666666666664" y="275" font-size="12" fill="black">2024-08-22</text>
  <line x1="66.66666666666666" y1="184.4615384615385" x2="66.66666666666666" y2="191.53846153846146" stroke="black" stroke-width="1" />
  <rect x="61.86666666666666" y="184.4615384615385" width="9.6" height="7.076923076922981" fill="green" />
  <line x1="66.66666666666666" y1="250" x2="66.66666666666666" y2="255" stroke="black" stroke-width="1" />
  <text x="61.33333333333333" y="275" font-size="12" fill="black">2024-08-23</text>
  <line x1="77.33333333333333" y1="181.99999999999997" x2="77.33333333333333" y2="191.8461538461538" stroke="black" stroke-width="1" />
  <rect x="72.53333333333333" y="183.23076923076917" width="9.6" height="1.2307692307693139" fill="green" />
  <line x1="77.33333333333333" y1="250" x2="77.33333333333333" y2="255" stroke="black" stroke-width="1" />
  <text x="72.0" y="275" font-size="12" fill="black">2024-08-24</text>
  <line x1="87.99999999999999" y1="181.99999999999997" x2="87.99999999999999" y2="194.92307692307696" stroke="black" stroke-width="1" />
  <rect x="83.19999999999999" y="181.99999999999997" width="9.6" height="2.7692307692307647" fill="green" />
  <line x1="87.99999999999999" y1="250" x2="87.99999999999999" y2="255" stroke="black" stroke-width="1" />
  <text x="82.66666666666666" y="275" font-size="12" fill="black">2024-08-25</text>
  <line x1="98.66666666666666" y1="182.30769230769232" x2="98.66666666666666" y2="196.15384615384616" stroke="black" stroke-width="1" />
  <rect x="93.86666666666666" y="182.30769230769232" width="9.6" height="9.5384615384615" fill="red" />
  <line x1="98.66666666666666" y1="250" x2="98.66666666666666" y2="255" stroke="black" stroke-width="1" />
  <text x="93.33333333333333" y="275" font-size="12" fill="black">2024-08-28</text>
  <line x1="109.33333333333333" y1="191.8461538461538" x2="109.33333333333333" y2="204.46153846153845" stroke="black" stroke-width="1" />
  <rect x="104.53333333333333" y="191.8461538461538" width="9.6" height="9.5384615384615" fill="red" />
  <line x1="109.33333333333333" y1="250" x2="109.33333333333333" y2="255" stroke="black" stroke-width="1" />
  <text x="104.0" y="275" font-size="12" fill="black">2024-08-29</text>
  <line x1="119.99999999999999" y1="199.84615384615387" x2="119.99999999999999" y2="207.53846153846158" stroke="black" stroke-width="1" />
  <rect x="115.19999999999999" y="200.46153846153848" width="9.6" height="3.3846153846153673" fill="red" />
  <line x1="119.99999999999999" y1="250" x2="119.99999999999999" y2="255" stroke="black" stroke-width="1" />
  <text x="114.66666666666666" y="275" font-size="12" fill="black">2024-08-30</text>
  <line x1="130.66666666666666" y1="187.23076923076925" x2="130.66666666666666" y2="204.15384615384608" stroke="black" stroke-width="1" />
  <rect x="125.86666666666666" y="192.46153846153842" width="9.6" height="11.384615384615415" fill="green" />
  <line x1="130.66666666666666" y1="250" x2="130.66666666666666" y2="255" stroke="black" stroke-width="1" />
  <text x="125.33333333333333" y="275" font-size="12" fill="black">2024-08-31</text>
  <line x1="141.33333333333334" y1="174.61538461538464" x2="141.33333333333334" y2="193.07692307692304" stroke="black" stroke-width="1" />
  <rect x="136.53333333333333" y="179.53846153846155" width="9.6" height="12.923076923076867" fill="green" />
  <line x1="141.33333333333334" y1="250" x2="141.33333333333334" y2="255" stroke="black" stroke-width="1" />
  <text x="136.0" y="275" font-size="12" fill="black">2024-09-01</text>
  <line x1="152.0" y1="180.15384615384616" x2="152.0" y2="194.0" stroke="black" stroke-width="1" />
  <rect x="147.2" y="182.30769230769232" width="9.6" height="1" fill="red" />
  <line x1="152.0" y1="250" x2="152.0" y2="255" stroke="black" stroke-width="1" />
  <text x="146.66666666666666" y="275" font-size="12" fill="black">2024-09-04</text>
  <line x1="162.66666666666666" y1="178.92307692307685" x2="162.66666666666666" y2="201.0769230769231" stroke="black" stroke-width="1" />
  <rect x="157.86666666666665" y="186.61538461538453" width="9.6" height="12.307692307692374" fill="red" />
  <line x1="162.66666666666666" y1="250" x2="162.66666666666666" y2="255" stroke="black" stroke-width="1" />
  <text x="157.33333333333331" y="275" font-size="12" fill="black">2024-09-05</text>
  <line x1="173.33333333333334" y1="205.38461538461542" x2="173.33333333333334" y2="220.7692307692308" stroke="black" stroke-width="1" />
  <rect x="168.53333333333333" y="209.99999999999997" width="9.6" height="10.15384615384621" fill="red" />
  <line x1="173.33333333333334" y1="250" x2="173.33333333333334" y2="255" stroke="black" stroke-width="1" />
  <text x="168.0" y="275" font-size="12" fill="black">2024-09-06</text>
  <line x1="184.0" y1="220.1538461538462" x2="184.0" y2="243.53846153846152" stroke="black" stroke-width="1" />
  <rect x="179.2" y="221.07692307692304" width="9.6" height="17.846153846153904" fill="red" />
  <line x1="184.0" y1="250" x2="184.0" y2="255" stroke="black" stroke-width="1" />
  <text x="178.66666666666666" y="275" font-size="12" fill="black">2024-09-07</text>
  <line x1="194.66666666666666" y1="233.07692307692307" x2="194.66666666666666" y2="250.0" stroke="black" stroke-width="1" />
  <rect x="189.86666666666665" y="241.0769230769231" width="9.6" height="8.307692307692294" fill="red" />
  <line x1="194.66666666666666" y1="250" x2="194.66666666666666" y2="255" stroke="black" stroke-width="1" />
  <text x="189.33333333333331" y="275" font-size="12" fill="black">2024-09-08</text>
  <line x1="205.33333333333334" y1="236.46153846153842" x2="205.33333333333334" y2="249.3846153846154" stroke="black" stroke-width="1" />
  <rect x="200.53333333333333" y="246.00000000000003" width="9.6" height="3.3846153846153673" fill="red" />
  <line x1="205.33333333333334" y1="250" x2="205.33333333333334" y2="255" stroke="black" stroke-width="1" />
  <text x="200.0" y="275" font-size="12" fill="black">2024-09-11</text>
  <line x1="216.0" y1="236.1538461538462" x2="216.0" y2="249.07692307692304" stroke="black" stroke-width="1" />
  <rect x="211.2" y="243.23076923076925" width="9.6" height="5.538461538461529" fill="green" />
  <line x1="216.0" y1="250" x2="216.0" y2="255" stroke="black" stroke-width="1" />
  <text x="210.66666666666666" y="275" font-size="12" fill="black">2024-09-12</text>
  <line x1="226.66666666666666" y1="229.69230769230768" x2="226.66666666666666" y2="246.00000000000003" stroke="black" stroke-width="1" />
  <rect x="221.86666666666665" y="241.99999999999994" width="9.6" height="2.4615384615385185" fill="red" />
  <line x1="226.66666666666666" y1="250" x2="226.66666666666666" y2="255" stroke="black" stroke-width="1" />
  <text x="221.33333333333331" y="275" font-size="12" fill="black">2024-09-13</text>
  <line x1="237.33333333333334" y1="222.92307692307696" x2="237.33333333333334" y2="241.38461538461536" stroke="black" stroke-width="1" />
  <rect x="232.53333333333333" y="232.7692307692307" width="9.6" height="8.61538461538465" fill="red" />
  <line x1="237.33333333333334" y1="250" x2="237.33333333333334" y2="255" stroke="black" stroke-width="1" />
  <text x="232.0" y="275" font-size="12" fill="black">2024-09-14</text>
  <line x1="248.0" y1="226.30769230769232" x2="248.0" y2="239.2307692307692" stroke="black" stroke-width="1" />
  <rect x="243.2" y="233.07692307692307" width="9.6" height="6.153846153846132" fill="green" />
  <line x1="248.0" y1="250" x2="248.0" y2="255" stroke="black" stroke-width="1" />
  <text x="242.66666666666666" y="275" font-size="12" fill="black">2024-09-15</text>
  <line x1="258.66666666666663" y1="225.38461538461536" x2="258.66666666666663" y2="237.07692307692304" stroke="black" stroke-width="1" />
  <rect x="253.86666666666665" y="230.3076923076923" width="9.6" height="2.1538461538461626" fill="green" />
  <line x1="258.66666666666663" y1="250" x2="258.66666666666663" y2="255" stroke="black" stroke-width="1" />
  <text x="253.33333333333331" y="275" font-size="12" fill="black">2024-09-18</text>
  <line x1="269.3333333333333" y1="212.76923076923075" x2="269.3333333333333" y2="230.3076923076923" stroke="black" stroke-width="1" />
  <rect x="264.53333333333336" y="215.5384615384615" width="9.6" height="14.769230769230782" fill="green" />
  <line x1="269.3333333333333" y1="250" x2="269.3333333333333" y2="255" stroke="black" stroke-width="1" />
  <text x="264.0" y="275" font-size="12" fill="black">2024-09-19</text>
  <line x1="279.99999999999994" y1="211.84615384615378" x2="279.99999999999994" y2="219.5384615384615" stroke="black" stroke-width="1" />
  <rect x="275.2" y="211.84615384615378" width="9.6" height="4.000000000000079" fill="green" />
  <line x1="279.99999999999994" y1="250" x2="279.99999999999994" y2="255" stroke="black" stroke-width="1" />
  <text x="274.66666666666663" y="275" font-size="12" fill="black">2024-09-20</text>
  <line x1="290.66666666666663" y1="185.0769230769231" x2="290.66666666666663" y2="209.076923076923" stroke="black" stroke-width="1" />
  <rect x="285.8666666666667" y="189.69230769230768" width="9.6" height="13.538461538461577" fill="green" />
  <line x1="290.66666666666663" y1="250" x2="290.66666666666663" y2="255" stroke="black" stroke-width="1" />
  <text x="285.3333333333333" y="275" font-size="12" fill="black">2024-09-21</text>
  <line x1="301.3333333333333" y1="181.38461538461536" x2="301.3333333333333" y2="196.15384615384616" stroke="black" stroke-width="1" />
  <rect x="296.53333333333336" y="187.5384615384615" width="9.6" height="8.000000000000048" fill="red" />
  <line x1="301.3333333333333" y1="250" x2="301.3333333333333" y2="255" stroke="black" stroke-width="1" />
  <text x="296.0" y="275" font-size="12" fill="black">2024-09-22</text>
  <line x1="311.99999999999994" y1="193.07692307692304" x2="311.99999999999994" y2="208.15384615384616" stroke="black" stroke-width="1" />
  <rect x="307.2" y="195.2307692307692" width="9.6" height="8.000000000000048" fill="red" />
  <line x1="311.99999999999994" y1="250" x2="311.99999999999994" y2="255" stroke="black" stroke-width="1" />
  <text x="306.66666666666663" y="275" font-size="12" fill="black">2024-09-25</text>
  <line x1="322.66666666666663" y1="184.15384615384613" x2="322.66666666666663" y2="198.9230769230769" stroke="black" stroke-width="1" />
  <rect x="317.8666666666667" y="193.07692307692304" width="9.6" height="5.846153846153886" fill="red" />
  <line x1="322.66666666666663" y1="250" x2="322.66666666666663" y2="255" stroke="black" stroke-width="1" />
  <text x="317.3333333333333" y="275" font-size="12" fill="black">2024-09-26</text>
  <line x1="333.3333333333333" y1="105.69230769230765" x2="333.3333333333333" y2="138.61538461538458" stroke="black" stroke-width="1" />
  <rect x="328.53333333333336" y="107.84615384615381" width="9.6" height="25.538461538461597" fill="green" />
  <line x1="333.3333333333333" y1="250" x2="333.3333333333333" y2="255" stroke="black" stroke-width="1" />
  <text x="328.0" y="275" font-size="12" fill="black">2024-09-27</text>
  <line x1="343.99999999999994" y1="50.307692307692236" x2="343.99999999999994" y2="103.53846153846149" stroke="black" stroke-width="1" />
  <rect x="339.2" y="56.15384615384613" width="9.6" height="39.692307692307665" fill="green" />
  <line x1="343.99999999999994" y1="250" x2="343.99999999999994" y2="255" stroke="black" stroke-width="1" />
  <text x="338.66666666666663" y="275" font-size="12" fill="black">2024-09-28</text>
  <line x1="354.66666666666663" y1="50.0" x2="354.66666666666663" y2="71.84615384615387" stroke="black" stroke-width="1" />
  <rect x="349.8666666666667" y="53.99999999999997" width="9.6" height="9.230769230769253" fill="red" />
  <line x1="354.66666666666663" y1="250" x2="354.66666666666663" y2="255" stroke="black" stroke-width="1" />
  <text x="349.3333333333333" y="275" font-size="12" fill="black">2024-09-29</text>
</svg>