<svg width="400" height="300" xmlns="http://www.w3.org/2000/svg">
  <line x1="40" y1="250" x2="360" y2="250" stroke="black" stroke-width="2" />
  <line x1="45.333333333333336" y1="227.55511022044107" x2="45.333333333333336" y2="250.0" stroke="black" stroke-width="1" />
  <rect x="40.53333333333333" y="227.9559118236474" width="9.6" height="20.440881763526995" fill="green" />
  <line x1="45.333333333333336" y1="250" x2="45.333333333333336" y2="255" stroke="black" stroke-width="1" />
  <text x="40.0" y="275" font-size="12" fill="black">2024-08-18</text>
  <line x1="56.0" y1="217.93587174348704" x2="56.0" y2="229.95991983967934" stroke="black" stroke-width="1" />
  <rect x="51.199999999999996" y="222.7454909819639" width="9.6" height="4.6092184368738325" fill="green" />
  <line x1="56.0" y1="250" x2="56.0" y2="255" stroke="black" stroke-width="1" />
  <text x="50.666666666666664" y="275" font-size="12" fill="black">2024-08-21</text>
  <line x1="66.66666666666666" y1="214.12825651302617" x2="66.66666666666666" y2="227.35470941883773" stroke="black" stroke-width="1" />
  <rect x="61.86666666666666" y="218.33667334669337" width="9.6" height="7.615230460922046" fill="green" />
  <line x1="66.66666666666666" y1="250" x2="66.66666666666666" y2="255" stroke="black" stroke-width="1" />
  <text x="61.33333333333333" y="275" font-size="12" fill="black">2024-08-22</text>
  <line x1="77.33333333333333" y1="209.51903807615236" x2="77.33333333333333" y2="223.14629258517053" stroke="black" stroke-width="1" />
  <rect x="72.53333333333333" y="210.3206412825653" width="9.6" height="5.611222444889808" fill="green" />
  <line x1="77.33333333333333" y1="250" x2="77.33333333333333" y2="255" stroke="black" stroke-width="1" />
  <text x="72.0" y="275" font-size="12" fill="black">2024-08-23</text>
  <line x1="87.99999999999999" y1="205.91182364729477" x2="87.99999999999999" y2="227.9559118236474" stroke="black" stroke-width="1" />
  <rect x="83.19999999999999" y="208.31663326653305" width="9.6" height="9.218436873747665" fill="red" />
  <line x1="87.99999999999999" y1="250" x2="87.99999999999999" y2="255" stroke="black" stroke-width="1" />
  <text x="82.66666666666666" y="275" font-size="12" fill="black">2024-08-24</text>
  <line x1="98.66666666666666" y1="203.10621242484987" x2="98.66666666666666" y2="215.7314629258518" stroke="black" stroke-width="1" />
  <rect x="93.86666666666666" y="203.90781563126254" width="9.6" height="8.817635270541047" fill="green" />
  <line x1="98.66666666666666" y1="250" x2="98.66666666666666" y2="255" stroke="black" stroke-width="1" />
  <text x="93.33333333333333" y="275" font-size="12" fill="black">2024-08-25</text>
  <line x1="109.33333333333333" y1="182.66533066132257" x2="109.33333333333333" y2="202.70541082164326" stroke="black" stroke-width="1" />
  <rect x="104.53333333333333" y="192.68537074148293" width="9.6" height="4.809619238477142" fill="green" />
  <line x1="109.33333333333333" y1="250" x2="109.33333333333333" y2="255" stroke="black" stroke-width="1" />
  <text x="104.0" y="275" font-size="12" fill="black">2024-08-28</text>
  <line x1="119.99999999999999" y1="186.67334669338678" x2="119.99999999999999" y2="205.31062124248513" stroke="black" stroke-width="1" />
  <rect x="115.19999999999999" y="190.28056112224462" width="9.6" height="4.008016032063905" fill="red" />
  <line x1="119.99999999999999" y1="250" x2="119.99999999999999" y2="255" stroke="black" stroke-width="1" />
  <text x="114.66666666666666" y="275" font-size="12" fill="black">2024-08-29</text>
  <line x1="130.66666666666666" y1="183.95190380761517" x2="130.66666666666666" y2="197.89579158316639" stroke="black" stroke-width="1" />
  <rect x="125.86666666666666" y="192.68537074148293" width="9.6" height="1" fill="red" />
  <line x1="130.66666666666666" y1="250" x2="130.66666666666666" y2="255" stroke="black" stroke-width="1" />
  <text x="125.33333333333333" y="275" font-size="12" fill="black">2024-08-30</text>
  <line x1="141.33333333333334" y1="189.67935871743498" x2="141.33333333333334" y2="206.71342685370743" stroke="black" stroke-width="1" />
  <rect x="136.53333333333333" y="190.68136272545095" width="9.6" height="11.62324649298595" fill="red" />
  <line x1="141.33333333333334" y1="250" x2="141.33333333333334" y2="255" stroke="black" stroke-width="1" />
  <text x="136.0" y="275" font-size="12" fill="black">2024-08-31</text>
  <line x1="152.0" y1="176.65330661322645" x2="152.0" y2="205.51102204408815" stroke="black" stroke-width="1" />
  <rect x="147.2" y="181.06212424849696" width="9.6" height="19.238476953907995" fill="green" />
  <line x1="152.0" y1="250" x2="152.0" y2="255" stroke="black" stroke-width="1" />
  <text x="146.66666666666666" y="275" font-size="12" fill="black">2024-09-01</text>
  <line x1="162.66666666666666" y1="134.9699398797595" x2="162.66666666666666" y2="175.45090180360717" stroke="black" stroke-width="1" />
  <rect x="157.86666666666665" y="134.9699398797595" width="9.6" height="38.87775551102204" fill="green" />
  <line x1="162.66666666666666" y1="250" x2="162.66666666666666" y2="255" stroke="black" stroke-width="1" />
  <text x="157.33333333333331" y="275" font-size="12" fill="black">2024-09-05</text>
  <line x1="173.33333333333334" y1="121.34268537074132" x2="173.33333333333334" y2="204.30861723446887" stroke="black" stroke-width="1" />
  <rect x="168.53333333333333" y="132.1643286573146" width="9.6" height="60.92184368737494" fill="red" />
  <line x1="173.33333333333334" y1="250" x2="173.33333333333334" y2="255" stroke="black" stroke-width="1" />
  <text x="168.0" y="275" font-size="12" fill="black">2024-09-06</text>
  <line x1="184.0" y1="179.85971943887768" x2="184.0" y2="216.33266533066143" stroke="black" stroke-width="1" />
  <rect x="179.2" y="199.89979959919833" width="9.6" height="1" fill="green" />
  <line x1="184.0" y1="250" x2="184.0" y2="255" stroke="black" stroke-width="1" />
  <text x="178.66666666666666" y="275" font-size="12" fill="black">2024-09-07</text>
  <line x1="194.66666666666666" y1="180.62124248497008" x2="194.66666666666666" y2="207.11422845691376" stroke="black" stroke-width="1" />
  <rect x="189.86666666666665" y="197.89579158316639" width="9.6" height="8.416833667334712" fill="red" />
  <line x1="194.66666666666666" y1="250" x2="194.66666666666666" y2="255" stroke="black" stroke-width="1" />
  <text x="189.33333333333331" y="275" font-size="12" fill="black">2024-09-08</text>
  <line x1="205.33333333333334" y1="140.98196392785565" x2="205.33333333333334" y2="201.90380761523056" stroke="black" stroke-width="1" />
  <rect x="200.53333333333333" y="142.98597194388788" width="9.6" height="58.9178356713427" fill="green" />
  <line x1="205.33333333333334" y1="250" x2="205.33333333333334" y2="255" stroke="black" stroke-width="1" />
  <text x="200.0" y="275" font-size="12" fill="black">2024-09-11</text>
  <line x1="216.0" y1="104.51302605210407" x2="216.0" y2="157.01402805611212" stroke="black" stroke-width="1" />
  <rect x="211.2" y="106.11222444889779" width="9.6" height="34.468937875751514" fill="green" />
  <line x1="216.0" y1="250" x2="216.0" y2="255" stroke="black" stroke-width="1" />
  <text x="210.66666666666666" y="275" font-size="12" fill="black">2024-09-12</text>
  <line x1="226.66666666666666" y1="99.29859719438869" x2="226.66666666666666" y2="134.56913827655316" stroke="black" stroke-width="1" />
  <rect x="221.86666666666665" y="100.10020040080164" width="9.6" height="11.62324649298595" fill="green" />
  <line x1="226.66666666666666" y1="250" x2="226.66666666666666" y2="255" stroke="black" stroke-width="1" />
  <text x="221.33333333333331" y="275" font-size="12" fill="black">2024-09-13</text>
  <line x1="237.33333333333334" y1="96.89378757515013" x2="237.33333333333334" y2="114.92985971943884" stroke="black" stroke-width="1" />
  <rect x="232.53333333333333" y="97.69539078156308" width="9.6" height="14.428857715430855" fill="green" />
  <line x1="237.33333333333334" y1="250" x2="237.33333333333334" y2="255" stroke="black" stroke-width="1" />
  <text x="232.0" y="275" font-size="12" fill="black">2024-09-14</text>
  <line x1="248.0" y1="73.24649298597188" x2="248.0" y2="107.31462925851707" stroke="black" stroke-width="1" />
  <rect x="243.2" y="74.8496993987975" width="9.6" height="20.24048096192397" fill="green" />
  <line x1="248.0" y1="250" x2="248.0" y2="255" stroke="black" stroke-width="1" />
  <text x="242.66666666666666" y="275" font-size="12" fill="black">2024-09-15</text>
  <line x1="258.66666666666663" y1="50.0" x2="258.66666666666663" y2="73.64729458917822" stroke="black" stroke-width="1" />
  <rect x="253.86666666666665" y="52.004008016031946" width="9.6" height="15.63126252505014" fill="green" />
  <line x1="258.66666666666663" y1="250" x2="258.66666666666663" y2="255" stroke="black" stroke-width="1" />
  <text x="253.33333333333331" y="275" font-size="12" fill="black">2024-09-18</text>
  <line x1="269.3333333333333" y1="62.024048096192274" x2="269.3333333333333" y2="95.29058116232451" stroke="black" stroke-width="1" />
  <rect x="264.53333333333336" y="62.024048096192274" width="9.6" height="26.853707414829756" fill="red" />
  <line x1="269.3333333333333" y1="250" x2="269.3333333333333" y2="255" stroke="black" stroke-width="1" />
  <text x="264.0" y="275" font-size="12" fill="black">2024-09-19</text>
  <line x1="279.99999999999994" y1="72.0440881763526" x2="279.99999999999994" y2="100.9018036072143" stroke="black" stroke-width="1" />
  <rect x="275.2" y="88.07615230460908" width="9.6" height="8.817635270541047" fill="red" />
  <line x1="279.99999999999994" y1="250" x2="279.99999999999994" y2="255" stroke="black" stroke-width="1" />
  <text x="274.66666666666663" y="275" font-size="12" fill="black">2024-09-20</text>
  <line x1="290.66666666666663" y1="93.28657314629254" x2="290.66666666666663" y2="119.13827655310604" stroke="black" stroke-width="1" />
  <rect x="285.8666666666667" y="93.68737474949887" width="9.6" height="1" fill="red" />
  <line x1="290.66666666666663" y1="250" x2="290.66666666666663" y2="255" stroke="black" stroke-width="1" />
  <text x="285.3333333333333" y="275" font-size="12" fill="black">2024-09-21</text>
  <line x1="301.3333333333333" y1="73.24649298597188" x2="301.3333333333333" y2="106.31262525050082" stroke="black" stroke-width="1" />
  <rect x="296.53333333333336" y="78.8577154308617" width="9.6" height="22.044088176352616" fill="green" />
  <line x1="301.3333333333333" y1="250" x2="301.3333333333333" y2="255" stroke="black" stroke-width="1" />
  <text x="296.0" y="275" font-size="12" fill="black">2024-09-22</text>
  <line x1="311.99999999999994" y1="70.84168336673332" x2="311.99999999999994" y2="94.0881763527052" stroke="black" stroke-width="1" />
  <rect x="307.2" y="78.05611222444875" width="9.6" height="3.6072144288578563" fill="red" />
  <line x1="311.99999999999994" y1="250" x2="311.99999999999994" y2="255" stroke="black" stroke-width="1" />
  <text x="306.66666666666663" y="275" font-size="12" fill="black">2024-09-25</text>
  <line x1="322.66666666666663" y1="60.42084168336666" x2="322.66666666666663" y2="86.8737474949898" stroke="black" stroke-width="1" />
  <rect x="317.8666666666667" y="65.63126252505012" width="9.6" height="18.036072144288426" fill="green" />
  <line x1="322.66666666666663" y1="250" x2="322.66666666666663" y2="255" stroke="black" stroke-width="1" />
  <text x="317.3333333333333" y="275" font-size="12" fill="black">2024-09-26</text>
  <line x1="333.3333333333333" y1="56.81362725450879" x2="333.3333333333333" y2="75.07414829659314" stroke="black" stroke-width="1" />
  <rect x="328.53333333333336" y="60.02004008016033" width="9.6" height="10.020040080160332" fill="red" />
  <line x1="333.3333333333333" y1="250" x2="333.3333333333333" y2="255" stroke="black" stroke-width="1" />
  <text x="328.0" y="275" font-size="12" fill="black">2024-09-27</text>
  <line x1="343.99999999999994" y1="56.81362725450879" x2="343.99999999999994" y2="77.65531062124242" stroke="black" stroke-width="1" />
  <rect x="339.2" y="67.23446893787573" width="9.6" height="1" fill="green" />
  <line x1="343.99999999999994" y1="250" x2="343.99999999999994" y2="255" stroke="black" stroke-width="1" />
  <text x="338.66666666666663" y="275" font-size="12" fill="black">2024-09-28</text>
  <line x1="354.66666666666663" y1="50.0" x2="354.66666666666663" y2="72.64529058116224" stroke="black" stroke-width="1" />
  <rect x="349.8666666666667" y="56.412825651302455" width="9.6" height="7.014028056112118" fill="green" />
  <line x1="354.66666666666663" y1="250" x2="354.66666666666663" y2="255" stroke="black" stroke-width="1" />
  <text x="349.3333333333333" y="275" font-size="12" fill="black">2024-09-29</text>
</svg>