<svg width="400" height="300" xmlns="http://www.w3.org/2000/svg">
  <line x1="40" y1="250" x2="360" y2="250" stroke="black" stroke-width="2" />
  <line x1="45.333333333333336" y1="226.93965517241392" x2="45.333333333333336" y2="248.85057471264392" stroke="black" stroke-width="1" />
  <rect x="40.53333333333333" y="234.55459770114956" width="9.6" height="3.807471264367624" fill="green" />
  <line x1="45.333333333333336" y1="250" x2="45.333333333333336" y2="255" stroke="black" stroke-width="1" />
  <text x="40.0" y="275" font-size="12" fill="black">2024-08-18</text>
  <line x1="56.0" y1="227.86925287356317" x2="56.0" y2="250.0" stroke="black" stroke-width="1" />
  <rect x="51.199999999999996" y="234.26724137931035" width="9.6" height="6.824712643678086" fill="red" />
  <line x1="56.0" y1="250" x2="56.0" y2="255" stroke="black" stroke-width="1" />
  <text x="50.666666666666664" y="275" font-size="12" fill="black">2024-08-21</text>
  <line x1="66.66666666666666" y1="229.81321839080456" x2="66.66666666666666" y2="246.04885057471296" stroke="black" stroke-width="1" />
  <rect x="61.86666666666666" y="229.81321839080456" width="9.6" height="7.4712643678162465" fill="green" />
  <line x1="66.66666666666666" y1="250" x2="66.66666666666666" y2="255" stroke="black" stroke-width="1" />
  <text x="61.33333333333333" y="275" font-size="12" fill="black">2024-08-22</text>
  <line x1="77.33333333333333" y1="220.9770114942531" x2="77.33333333333333" y2="234.48275862068988" stroke="black" stroke-width="1" />
  <rect x="72.53333333333333" y="226.07758620689665" width="9.6" height="2.5862068965518246" fill="red" />
  <line x1="77.33333333333333" y1="250" x2="77.33333333333333" y2="255" stroke="black" stroke-width="1" />
  <text x="72.0" y="275" font-size="12" fill="black">2024-08-23</text>
  <line x1="87.99999999999999" y1="219.32471264367825" x2="87.99999999999999" y2="240.37356321839098" stroke="black" stroke-width="1" />
  <rect x="83.19999999999999" y="223.3477011494254" width="9.6" height="7.183908045977018" fill="red" />
  <line x1="87.99999999999999" y1="250" x2="87.99999999999999" y2="255" stroke="black" stroke-width="1" />
  <text x="82.66666666666666" y="275" font-size="12" fill="black">2024-08-24</text>
  <line x1="98.66666666666666" y1="221.40804597701174" x2="98.66666666666666" y2="249.42528735632195" stroke="black" stroke-width="1" />
  <rect x="93.86666666666666" y="225.07183908045997" width="9.6" height="9.051724137930977" fill="red" />
  <line x1="98.66666666666666" y1="250" x2="98.66666666666666" y2="255" stroke="black" stroke-width="1" />
  <text x="93.33333333333333" y="275" font-size="12" fill="black">2024-08-25</text>
  <line x1="109.33333333333333" y1="213.07471264367823" x2="109.33333333333333" y2="232.4712643678161" stroke="black" stroke-width="1" />
  <rect x="104.53333333333333" y="228.59195402298877" width="9.6" height="3.520114942528396" fill="green" />
  <line x1="109.33333333333333" y1="250" x2="109.33333333333333" y2="255" stroke="black" stroke-width="1" />
  <text x="104.0" y="275" font-size="12" fill="black">2024-08-28</text>
  <line x1="119.99999999999999" y1="208.90804597701168" x2="119.99999999999999" y2="230.89080459770136" stroke="black" stroke-width="1" />
  <rect x="115.19999999999999" y="210.5603448275861" width="9.6" height="15.804597701149767" fill="green" />
  <line x1="119.99999999999999" y1="250" x2="119.99999999999999" y2="255" stroke="black" stroke-width="1" />
  <text x="114.66666666666666" y="275" font-size="12" fill="black">2024-08-29</text>
  <line x1="130.66666666666666" y1="201.50862068965512" x2="130.66666666666666" y2="232.4712643678161" stroke="black" stroke-width="1" />
  <rect x="125.86666666666666" y="207.39942528735622" width="9.6" height="14.152298850574923" fill="red" />
  <line x1="130.66666666666666" y1="250" x2="130.66666666666666" y2="255" stroke="black" stroke-width="1" />
  <text x="125.33333333333333" y="275" font-size="12" fill="black">2024-08-30</text>
  <line x1="141.33333333333334" y1="172.70114942528735" x2="141.33333333333334" y2="212.50000000000017" stroke="black" stroke-width="1" />
  <rect x="136.53333333333333" y="184.69827586206907" width="9.6" height="23.994252873563063" fill="green" />
  <line x1="141.33333333333334" y1="250" x2="141.33333333333334" y2="255" stroke="black" stroke-width="1" />
  <text x="136.0" y="275" font-size="12" fill="black">2024-08-31</text>
  <line x1="152.0" y1="165.51724137931035" x2="152.0" y2="185.12931034482773" stroke="black" stroke-width="1" />
  <rect x="147.2" y="169.9712643678161" width="9.6" height="9.841954022988547" fill="green" />
  <line x1="152.0" y1="250" x2="152.0" y2="255" stroke="black" stroke-width="1" />
  <text x="146.66666666666666" y="275" font-size="12" fill="black">2024-09-01</text>
  <line x1="162.66666666666666" y1="128.8793103448278" x2="162.66666666666666" y2="169.9712643678161" stroke="black" stroke-width="1" />
  <rect x="157.86666666666665" y="154.38218390804587" width="9.6" height="15.589080459770244" fill="green" />
  <line x1="162.66666666666666" y1="250" x2="162.66666666666666" y2="255" stroke="black" stroke-width="1" />
  <text x="157.33333333333331" y="275" font-size="12" fill="black">2024-09-05</text>
  <line x1="173.33333333333334" y1="132.0761494252875" x2="173.33333333333334" y2="153.23275862068976" stroke="black" stroke-width="1" />
  <rect x="168.53333333333333" y="140.37356321839076" width="9.6" height="12.787356321839304" fill="green" />
  <line x1="173.33333333333334" y1="250" x2="173.33333333333334" y2="255" stroke="black" stroke-width="1" />
  <text x="168.0" y="275" font-size="12" fill="black">2024-09-06</text>
  <line x1="184.0" y1="133.11781609195404" x2="184.0" y2="162.4999999999999" stroke="black" stroke-width="1" />
  <rect x="179.2" y="136.70977011494256" width="9.6" height="17.09770114942527" fill="red" />
  <line x1="184.0" y1="250" x2="184.0" y2="255" stroke="black" stroke-width="1" />
  <text x="178.66666666666666" y="275" font-size="12" fill="black">2024-09-07</text>
  <line x1="194.66666666666666" y1="141.88218390804622" x2="194.66666666666666" y2="162.35632183908046" stroke="black" stroke-width="1" />
  <rect x="189.86666666666665" y="148.41954022988506" width="9.6" height="11.494252873563394" fill="green" />
  <line x1="194.66666666666666" y1="250" x2="194.66666666666666" y2="255" stroke="black" stroke-width="1" />
  <text x="189.33333333333331" y="275" font-size="12" fill="black">2024-09-08</text>
  <line x1="205.33333333333334" y1="93.82183908045957" x2="205.33333333333334" y2="132.04022988505767" stroke="black" stroke-width="1" />
  <rect x="200.53333333333333" y="103.5919540229884" width="9.6" height="25.287356321839383" fill="green" />
  <line x1="205.33333333333334" y1="250" x2="205.33333333333334" y2="255" stroke="black" stroke-width="1" />
  <text x="200.0" y="275" font-size="12" fill="black">2024-09-11</text>
  <line x1="216.0" y1="97.93031609195401" x2="216.0" y2="118.24712643678166" stroke="black" stroke-width="1" />
  <rect x="211.2" y="101.29310344827582" width="9.6" height="4.23850574712667" fill="red" />
  <line x1="216.0" y1="250" x2="216.0" y2="255" stroke="black" stroke-width="1" />
  <text x="210.66666666666666" y="275" font-size="12" fill="black">2024-09-12</text>
  <line x1="226.66666666666666" y1="106.75287356321826" x2="226.66666666666666" y2="156.1063218390804" stroke="black" stroke-width="1" />
  <rect x="221.86666666666665" y="107.83045977011506" width="9.6" height="7.614942528735656" fill="red" />
  <line x1="226.66666666666666" y1="250" x2="226.66666666666666" y2="255" stroke="black" stroke-width="1" />
  <text x="221.33333333333331" y="275" font-size="12" fill="black">2024-09-13</text>
  <line x1="237.33333333333334" y1="100.79022988505747" x2="237.33333333333334" y2="133.33333333333314" stroke="black" stroke-width="1" />
  <rect x="232.53333333333333" y="105.31609195402294" width="9.6" height="9.841954022988547" fill="green" />
  <line x1="237.33333333333334" y1="250" x2="237.33333333333334" y2="255" stroke="black" stroke-width="1" />
  <text x="232.0" y="275" font-size="12" fill="black">2024-09-14</text>
  <line x1="248.0" y1="81.10632183908035" x2="248.0" y2="104.02298850574704" stroke="black" stroke-width="1" />
  <rect x="243.2" y="91.09195402298832" width="9.6" height="6.178160919540334" fill="green" />
  <line x1="248.0" y1="250" x2="248.0" y2="255" stroke="black" stroke-width="1" />
  <text x="242.66666666666666" y="275" font-size="12" fill="black">2024-09-15</text>
  <line x1="258.66666666666663" y1="65.58908045977023" x2="258.66666666666663" y2="88.29022988505739" stroke="black" stroke-width="1" />
  <rect x="253.86666666666665" y="68.6063218390803" width="9.6" height="17.456896551724203" fill="green" />
  <line x1="258.66666666666663" y1="250" x2="258.66666666666663" y2="255" stroke="black" stroke-width="1" />
  <text x="253.33333333333331" y="275" font-size="12" fill="black">2024-09-18</text>
  <line x1="269.3333333333333" y1="50.0" x2="269.3333333333333" y2="71.44396551724148" stroke="black" stroke-width="1" />
  <rect x="264.53333333333336" y="60.847701149425234" width="9.6" height="4.741379310345012" fill="green" />
  <line x1="269.3333333333333" y1="250" x2="269.3333333333333" y2="255" stroke="black" stroke-width="1" />
  <text x="264.0" y="275" font-size="12" fill="black">2024-09-19</text>
  <line x1="279.99999999999994" y1="57.54310344827593" x2="279.99999999999994" y2="85.48850574712645" stroke="black" stroke-width="1" />
  <rect x="275.2" y="58.83620689655186" width="9.6" height="24.13793103448247" fill="red" />
  <line x1="279.99999999999994" y1="250" x2="279.99999999999994" y2="255" stroke="black" stroke-width="1" />
  <text x="274.66666666666663" y="275" font-size="12" fill="black">2024-09-20</text>
  <line x1="290.66666666666663" y1="61.4403735632182" x2="290.66666666666663" y2="123.2758620689655" stroke="black" stroke-width="1" />
  <rect x="285.8666666666667" y="64.22413793103462" width="9.6" height="42.02586206896531" fill="red" />
  <line x1="290.66666666666663" y1="250" x2="290.66666666666663" y2="255" stroke="black" stroke-width="1" />
  <text x="285.3333333333333" y="275" font-size="12" fill="black">2024-09-21</text>
  <line x1="301.3333333333333" y1="93.60632183908044" x2="301.3333333333333" y2="120.54597701149427" stroke="black" stroke-width="1" />
  <rect x="296.53333333333336" y="104.38218390804596" width="9.6" height="5.2442528735633545" fill="red" />
  <line x1="301.3333333333333" y1="250" x2="301.3333333333333" y2="255" stroke="black" stroke-width="1" />
  <text x="296.0" y="275" font-size="12" fill="black">2024-09-22</text>
  <line x1="311.99999999999994" y1="80.10057471264369" x2="311.99999999999994" y2="110.7040229885057" stroke="black" stroke-width="1" />
  <rect x="307.2" y="81.89655172413794" width="9.6" height="26.795977011494408" fill="green" />
  <line x1="311.99999999999994" y1="250" x2="311.99999999999994" y2="255" stroke="black" stroke-width="1" />
  <text x="306.66666666666663" y="275" font-size="12" fill="black">2024-09-25</text>
  <line x1="322.66666666666663" y1="136.70977011494256" x2="322.66666666666663" y2="196.26436781609218" stroke="black" stroke-width="1" />
  <rect x="317.8666666666667" y="142.60057471264366" width="9.6" height="53.16091954023018" fill="red" />
  <line x1="322.66666666666663" y1="250" x2="322.66666666666663" y2="255" stroke="black" stroke-width="1" />
  <text x="317.3333333333333" y="275" font-size="12" fill="black">2024-09-26</text>
  <line x1="333.3333333333333" y1="185.20114942528744" x2="333.3333333333333" y2="228.44827586206895" stroke="black" stroke-width="1" />
  <rect x="328.53333333333336" y="185.63218390804604" width="9.6" height="32.75862068965522" fill="red" />
  <line x1="333.3333333333333" y1="250" x2="333.3333333333333" y2="255" stroke="black" stroke-width="1" />
  <text x="328.0" y="275" font-size="12" fill="black">2024-09-27</text>
  <line x1="343.99999999999994" y1="192.45689655172416" x2="343.99999999999994" y2="215.73275862068976" stroke="black" stroke-width="1" />
  <rect x="339.2" y="203.5919540229886" width="9.6" height="8.548850574712635" fill="green" />
  <line x1="343.99999999999994" y1="250" x2="343.99999999999994" y2="255" stroke="black" stroke-width="1" />
  <text x="338.66666666666663" y="275" font-size="12" fill="black">2024-09-28</text>
  <line x1="354.66666666666663" y1="158.40517241379303" x2="354.66666666666663" y2="195.76149425287383" stroke="black" stroke-width="1" />
  <rect x="349.8666666666667" y="178.59195402298846" width="9.6" height="14.439655172413742" fill="green" />
  <line x1="354.66666666666663" y1="250" x2="354.66666666666663" y2="255" stroke="black" stroke-width="1" />
  <text x="349.3333333333333" y="275" font-size="12" fill="black">2024-09-29</text>
</svg>