<svg width="400" height="300" xmlns="http://www.w3.org/2000/svg">
  <line x1="40" y1="250" x2="360" y2="250" stroke="black" stroke-width="2" />
  <line x1="45.333333333333336" y1="226.1013215859029" x2="45.333333333333336" y2="250.0" stroke="black" stroke-width="1" />
  <rect x="40.53333333333333" y="229.5154185022025" width="9.6" height="16.519823788546258" fill="green" />
  <line x1="45.333333333333336" y1="250" x2="45.333333333333336" y2="255" stroke="black" stroke-width="1" />
  <text x="40.0" y="275" font-size="12" fill="black">2024-08-18</text>
  <line x1="56.0" y1="217.8414096916298" x2="56.0" y2="231.93832599118926" stroke="black" stroke-width="1" />
  <rect x="51.199999999999996" y="223.56828193832592" width="9.6" height="7.268722466960316" fill="green" />
  <line x1="56.0" y1="250" x2="56.0" y2="255" stroke="black" stroke-width="1" />
  <text x="50.666666666666664" y="275" font-size="12" fill="black">2024-08-21</text>
  <line x1="66.66666666666666" y1="200.88105726872237" x2="66.66666666666666" y2="223.56828193832592" stroke="black" stroke-width="1" />
  <rect x="61.86666666666666" y="205.50660792951518" width="9.6" height="17.40088105726886" fill="green" />
  <line x1="66.66666666666666" y1="250" x2="66.66666666666666" y2="255" stroke="black" stroke-width="1" />
  <text x="61.33333333333333" y="275" font-size="12" fill="black">2024-08-22</text>
  <line x1="77.33333333333333" y1="182.59911894273122" x2="77.33333333333333" y2="204.40528634361218" stroke="black" stroke-width="1" />
  <rect x="72.53333333333333" y="188.7665198237885" width="9.6" height="1.3215859030837507" fill="red" />
  <line x1="77.33333333333333" y1="250" x2="77.33333333333333" y2="255" stroke="black" stroke-width="1" />
  <text x="72.0" y="275" font-size="12" fill="black">2024-08-23</text>
  <line x1="87.99999999999999" y1="168.50220264317173" x2="87.99999999999999" y2="192.07048458149757" stroke="black" stroke-width="1" />
  <rect x="83.19999999999999" y="182.59911894273122" width="9.6" height="4.625550660792815" fill="green" />
  <line x1="87.99999999999999" y1="250" x2="87.99999999999999" y2="255" stroke="black" stroke-width="1" />
  <text x="82.66666666666666" y="275" font-size="12" fill="black">2024-08-24</text>
  <line x1="98.66666666666666" y1="177.53303964757694" x2="98.66666666666666" y2="195.2048458149779" stroke="black" stroke-width="1" />
  <rect x="93.86666666666666" y="179.95594713656374" width="9.6" height="2.2026431718063555" fill="green" />
  <line x1="98.66666666666666" y1="250" x2="98.66666666666666" y2="255" stroke="black" stroke-width="1" />
  <text x="93.33333333333333" y="275" font-size="12" fill="black">2024-08-25</text>
  <line x1="109.33333333333333" y1="168.83259911894265" x2="109.33333333333333" y2="182.81938325991194" stroke="black" stroke-width="1" />
  <rect x="104.53333333333333" y="172.6872246696034" width="9.6" height="2.8634361233479177" fill="green" />
  <line x1="109.33333333333333" y1="250" x2="109.33333333333333" y2="255" stroke="black" stroke-width="1" />
  <text x="104.0" y="275" font-size="12" fill="black">2024-08-28</text>
  <line x1="119.99999999999999" y1="163.43612334801747" x2="119.99999999999999" y2="178.41409691629957" stroke="black" stroke-width="1" />
  <rect x="115.19999999999999" y="163.43612334801747" width="9.6" height="7.048458149779899" fill="red" />
  <line x1="119.99999999999999" y1="250" x2="119.99999999999999" y2="255" stroke="black" stroke-width="1" />
  <text x="114.66666666666666" y="275" font-size="12" fill="black">2024-08-29</text>
  <line x1="130.66666666666666" y1="163.8766519823786" x2="130.66666666666666" y2="177.64317180616717" stroke="black" stroke-width="1" />
  <rect x="125.86666666666666" y="167.180616740088" width="9.6" height="4.4052863436123975" fill="red" />
  <line x1="130.66666666666666" y1="250" x2="130.66666666666666" y2="255" stroke="black" stroke-width="1" />
  <text x="125.33333333333333" y="275" font-size="12" fill="black">2024-08-30</text>
  <line x1="141.33333333333334" y1="162.99559471365632" x2="141.33333333333334" y2="180.6167400881056" stroke="black" stroke-width="1" />
  <rect x="136.53333333333333" y="164.09691629955933" width="9.6" height="9.47136563876667" fill="green" />
  <line x1="141.33333333333334" y1="250" x2="141.33333333333334" y2="255" stroke="black" stroke-width="1" />
  <text x="136.0" y="275" font-size="12" fill="black">2024-08-31</text>
  <line x1="152.0" y1="140.8590308370044" x2="152.0" y2="168.50220264317173" stroke="black" stroke-width="1" />
  <rect x="147.2" y="146.25550660792933" width="9.6" height="17.40088105726886" fill="green" />
  <line x1="152.0" y1="250" x2="152.0" y2="255" stroke="black" stroke-width="1" />
  <text x="146.66666666666666" y="275" font-size="12" fill="black">2024-09-01</text>
  <line x1="162.66666666666666" y1="133.4801762114536" x2="162.66666666666666" y2="155.83700440528622" stroke="black" stroke-width="1" />
  <rect x="157.86666666666665" y="144.0528634361233" width="9.6" height="3.524229074889793" fill="red" />
  <line x1="162.66666666666666" y1="250" x2="162.66666666666666" y2="255" stroke="black" stroke-width="1" />
  <text x="157.33333333333331" y="275" font-size="12" fill="black">2024-09-05</text>
  <line x1="173.33333333333334" y1="140.74889867841392" x2="173.33333333333334" y2="157.26872246696018" stroke="black" stroke-width="1" />
  <rect x="168.53333333333333" y="144.0528634361233" width="9.6" height="1.982378854625626" fill="red" />
  <line x1="173.33333333333334" y1="250" x2="173.33333333333334" y2="255" stroke="black" stroke-width="1" />
  <text x="168.0" y="275" font-size="12" fill="black">2024-09-06</text>
  <line x1="184.0" y1="141.40969162995577" x2="184.0" y2="164.75770925110123" stroke="black" stroke-width="1" />
  <rect x="179.2" y="145.81497797356818" width="9.6" height="6.3876651982380235" fill="red" />
  <line x1="184.0" y1="250" x2="184.0" y2="255" stroke="black" stroke-width="1" />
  <text x="178.66666666666666" y="275" font-size="12" fill="black">2024-09-07</text>
  <line x1="194.66666666666666" y1="144.273127753304" x2="194.66666666666666" y2="166.74008810572684" stroke="black" stroke-width="1" />
  <rect x="189.86666666666665" y="153.52422907488966" width="9.6" height="5.726872246696148" fill="red" />
  <line x1="194.66666666666666" y1="250" x2="194.66666666666666" y2="255" stroke="black" stroke-width="1" />
  <text x="189.33333333333331" y="275" font-size="12" fill="black">2024-09-08</text>
  <line x1="205.33333333333334" y1="140.96916299559464" x2="205.33333333333334" y2="162.55506607929516" stroke="black" stroke-width="1" />
  <rect x="200.53333333333333" y="143.83259911894254" width="9.6" height="10.792951541850421" fill="green" />
  <line x1="205.33333333333334" y1="250" x2="205.33333333333334" y2="255" stroke="black" stroke-width="1" />
  <text x="200.0" y="275" font-size="12" fill="black">2024-09-11</text>
  <line x1="216.0" y1="109.47136563876629" x2="216.0" y2="145.1541850220263" stroke="black" stroke-width="1" />
  <rect x="211.2" y="111.45374449339192" width="9.6" height="32.15859030837022" fill="green" />
  <line x1="216.0" y1="250" x2="216.0" y2="255" stroke="black" stroke-width="1" />
  <text x="210.66666666666666" y="275" font-size="12" fill="black">2024-09-12</text>
  <line x1="226.66666666666666" y1="109.03083700440516" x2="226.66666666666666" y2="138.8766519823788" stroke="black" stroke-width="1" />
  <rect x="221.86666666666665" y="110.79295154185004" width="9.6" height="10.132158590308546" fill="green" />
  <line x1="226.66666666666666" y1="250" x2="226.66666666666666" y2="255" stroke="black" stroke-width="1" />
  <text x="221.33333333333331" y="275" font-size="12" fill="black">2024-09-13</text>
  <line x1="237.33333333333334" y1="87.33480176211441" x2="237.33333333333334" y2="115.5925110132157" stroke="black" stroke-width="1" />
  <rect x="232.53333333333333" y="92.73127753303962" width="9.6" height="14.75770925110136" fill="green" />
  <line x1="237.33333333333334" y1="250" x2="237.33333333333334" y2="255" stroke="black" stroke-width="1" />
  <text x="232.0" y="275" font-size="12" fill="black">2024-09-14</text>
  <line x1="248.0" y1="70.15418502202627" x2="248.0" y2="92.07048458149774" stroke="black" stroke-width="1" />
  <rect x="243.2" y="72.0264317180617" width="9.6" height="17.180616740088134" fill="green" />
  <line x1="248.0" y1="250" x2="248.0" y2="255" stroke="black" stroke-width="1" />
  <text x="242.66666666666666" y="275" font-size="12" fill="black">2024-09-15</text>
  <line x1="258.66666666666663" y1="62.77533039647574" x2="258.66666666666663" y2="82.15859030836992" stroke="black" stroke-width="1" />
  <rect x="253.86666666666665" y="66.7400881057267" width="9.6" height="6.1674008810572944" fill="red" />
  <line x1="258.66666666666663" y1="250" x2="258.66666666666663" y2="255" stroke="black" stroke-width="1" />
  <text x="253.33333333333331" y="275" font-size="12" fill="black">2024-09-18</text>
  <line x1="269.3333333333333" y1="79.51541850220244" x2="269.3333333333333" y2="123.56828193832578" stroke="black" stroke-width="1" />
  <rect x="264.53333333333336" y="90.52863436123326" width="9.6" height="25.55066079295178" fill="red" />
  <line x1="269.3333333333333" y1="250" x2="269.3333333333333" y2="255" stroke="black" stroke-width="1" />
  <text x="264.0" y="275" font-size="12" fill="black">2024-09-19</text>
  <line x1="279.99999999999994" y1="98.23788546255503" x2="279.99999999999994" y2="123.12775330396462" stroke="black" stroke-width="1" />
  <rect x="275.2" y="106.60792951541836" width="9.6" height="8.590308370044067" fill="green" />
  <line x1="279.99999999999994" y1="250" x2="279.99999999999994" y2="255" stroke="black" stroke-width="1" />
  <text x="274.66666666666663" y="275" font-size="12" fill="black">2024-09-20</text>
  <line x1="290.66666666666663" y1="105.28634361233463" x2="290.66666666666663" y2="140.5286343612335" stroke="black" stroke-width="1" />
  <rect x="285.8666666666667" y="106.16740088105723" width="9.6" height="22.246696035242092" fill="red" />
  <line x1="290.66666666666663" y1="250" x2="290.66666666666663" y2="255" stroke="black" stroke-width="1" />
  <text x="285.3333333333333" y="275" font-size="12" fill="black">2024-09-21</text>
  <line x1="301.3333333333333" y1="93.83259911894265" x2="301.3333333333333" y2="126.87224669603515" stroke="black" stroke-width="1" />
  <rect x="296.53333333333336" y="105.94713656387651" width="9.6" height="18.281938325991153" fill="green" />
  <line x1="301.3333333333333" y1="250" x2="301.3333333333333" y2="255" stroke="black" stroke-width="1" />
  <text x="296.0" y="275" font-size="12" fill="black">2024-09-22</text>
  <line x1="311.99999999999994" y1="75.60792951541848" x2="311.99999999999994" y2="105.72687224669608" stroke="black" stroke-width="1" />
  <rect x="307.2" y="77.97356828193827" width="9.6" height="27.753303964757826" fill="green" />
  <line x1="311.99999999999994" y1="250" x2="311.99999999999994" y2="255" stroke="black" stroke-width="1" />
  <text x="306.66666666666663" y="275" font-size="12" fill="black">2024-09-25</text>
  <line x1="322.66666666666663" y1="65.19823788546253" x2="322.66666666666663" y2="79.95594713656388" stroke="black" stroke-width="1" />
  <rect x="317.8666666666667" y="70.48458149779722" width="9.6" height="4.185022026431668" fill="green" />
  <line x1="322.66666666666663" y1="250" x2="322.66666666666663" y2="255" stroke="black" stroke-width="1" />
  <text x="317.3333333333333" y="275" font-size="12" fill="black">2024-09-26</text>
  <line x1="333.3333333333333" y1="50.00000000000003" x2="333.3333333333333" y2="70.26431718061647" stroke="black" stroke-width="1" />
  <rect x="328.53333333333336" y="54.40528634361209" width="9.6" height="11.233480176211568" fill="green" />
  <line x1="333.3333333333333" y1="250" x2="333.3333333333333" y2="255" stroke="black" stroke-width="1" />
  <text x="328.0" y="275" font-size="12" fill="black">2024-09-27</text>
  <line x1="343.99999999999994" y1="58.81057268722449" x2="343.99999999999994" y2="101.54185022026411" stroke="black" stroke-width="1" />
  <rect x="339.2" y="62.334801762114296" width="9.6" height="24.669603524229178" fill="red" />
  <line x1="343.99999999999994" y1="250" x2="343.99999999999994" y2="255" stroke="black" stroke-width="1" />
  <text x="338.66666666666663" y="275" font-size="12" fill="black">2024-09-28</text>
  <line x1="354.66666666666663" y1="78.90969162995597" x2="354.66666666666663" y2="94.05286343612337" stroke="black" stroke-width="1" />
  <rect x="349.8666666666667" y="87.44493392070461" width="9.6" height="2.6431718061675014" fill="red" />
  <line x1="354.66666666666663" y1="250" x2="354.66666666666663" y2="255" stroke="black" stroke-width="1" />
  <text x="349.3333333333333" y="275" font-size="12" fill="black">2024-09-29</text>
</svg>