<svg width="400" height="300" xmlns="http://www.w3.org/2000/svg">
  <line x1="40" y1="250" x2="360" y2="250" stroke="black" stroke-width="2" />
  <line x1="45.333333333333336" y1="203.5641547861507" x2="45.333333333333336" y2="230.04073319755594" stroke="black" stroke-width="1" />
  <rect x="40.53333333333333" y="207.6374745417516" width="9.6" height="14.256619144602897" fill="green" />
  <line x1="45.333333333333336" y1="250" x2="45.333333333333336" y2="255" stroke="black" stroke-width="1" />
  <text x="40.0" y="275" font-size="12" fill="black">2024-08-21</text>
  <line x1="56.0" y1="192.5661914460284" x2="56.0" y2="229.63340122199594" stroke="black" stroke-width="1" />
  <rect x="51.199999999999996" y="205.19348268839101" width="9.6" height="18.329938900203768" fill="red" />
  <line x1="56.0" y1="250" x2="56.0" y2="255" stroke="black" stroke-width="1" />
  <text x="50.666666666666664" y="275" font-size="12" fill="black">2024-08-22</text>
  <line x1="66.66666666666666" y1="194.195519348269" x2="66.66666666666666" y2="225.96741344195507" stroke="black" stroke-width="1" />
  <rect x="61.86666666666666" y="194.195519348269" width="9.6" height="30.549898167006084" fill="green" />
  <line x1="66.66666666666666" y1="250" x2="66.66666666666666" y2="255" stroke="black" stroke-width="1" />
  <text x="61.33333333333333" y="275" font-size="12" fill="black">2024-08-23</text>
  <line x1="77.33333333333333" y1="165.2749490835032" x2="77.33333333333333" y2="199.89816700611016" stroke="black" stroke-width="1" />
  <rect x="72.53333333333333" y="171.79226069246437" width="9.6" height="22.40325865580464" fill="green" />
  <line x1="77.33333333333333" y1="250" x2="77.33333333333333" y2="255" stroke="black" stroke-width="1" />
  <text x="72.0" y="275" font-size="12" fill="black">2024-08-24</text>
  <line x1="87.99999999999999" y1="143.27902240325886" x2="87.99999999999999" y2="175.05091649694492" stroke="black" stroke-width="1" />
  <rect x="83.19999999999999" y="159.57230142566203" width="9.6" height="15.4786150712829" fill="green" />
  <line x1="87.99999999999999" y1="250" x2="87.99999999999999" y2="255" stroke="black" stroke-width="1" />
  <text x="82.66666666666666" y="275" font-size="12" fill="black">2024-08-25</text>
  <line x1="98.66666666666666" y1="155.09164969450114" x2="98.66666666666666" y2="191.7515274949084" stroke="black" stroke-width="1" />
  <rect x="93.86666666666666" y="161.6089613034623" width="9.6" height="4.48065173116087" fill="red" />
  <line x1="98.66666666666666" y1="250" x2="98.66666666666666" y2="255" stroke="black" stroke-width="1" />
  <text x="93.33333333333333" y="275" font-size="12" fill="black">2024-08-28</text>
  <line x1="109.33333333333333" y1="158.35030549898175" x2="109.33333333333333" y2="179.5315682281061" stroke="black" stroke-width="1" />
  <rect x="104.53333333333333" y="158.35030549898175" width="9.6" height="8.55397148676174" fill="green" />
  <line x1="109.33333333333333" y1="250" x2="109.33333333333333" y2="255" stroke="black" stroke-width="1" />
  <text x="104.0" y="275" font-size="12" fill="black">2024-08-29</text>
  <line x1="119.99999999999999" y1="151.4256619144603" x2="119.99999999999999" y2="179.9389002036661" stroke="black" stroke-width="1" />
  <rect x="115.19999999999999" y="158.35030549898175" width="9.6" height="5.295315682281159" fill="red" />
  <line x1="119.99999999999999" y1="250" x2="119.99999999999999" y2="255" stroke="black" stroke-width="1" />
  <text x="114.66666666666666" y="275" font-size="12" fill="black">2024-08-30</text>
  <line x1="130.66666666666666" y1="102.13849287169043" x2="130.66666666666666" y2="162.83095723014262" stroke="black" stroke-width="1" />
  <rect x="125.86666666666666" y="102.13849287169043" width="9.6" height="60.69246435845217" fill="green" />
  <line x1="130.66666666666666" y1="250" x2="130.66666666666666" y2="255" stroke="black" stroke-width="1" />
  <text x="125.33333333333333" y="275" font-size="12" fill="black">2024-08-31</text>
  <line x1="141.33333333333334" y1="95.62118126272927" x2="141.33333333333334" y2="122.50509164969449" stroke="black" stroke-width="1" />
  <rect x="136.53333333333333" y="102.95315682281074" width="9.6" height="5.702647657841159" fill="green" />
  <line x1="141.33333333333334" y1="250" x2="141.33333333333334" y2="255" stroke="black" stroke-width="1" />
  <text x="136.0" y="275" font-size="12" fill="black">2024-09-01</text>
  <line x1="152.0" y1="101.32382892057043" x2="152.0" y2="129.02240325865594" stroke="black" stroke-width="1" />
  <rect x="147.2" y="104.58248472505102" width="9.6" height="4.07331975560087" fill="red" />
  <line x1="152.0" y1="250" x2="152.0" y2="255" stroke="black" stroke-width="1" />
  <text x="146.66666666666666" y="275" font-size="12" fill="black">2024-09-04</text>
  <line x1="162.66666666666666" y1="105.3971486761713" x2="162.66666666666666" y2="163.2382892057026" stroke="black" stroke-width="1" />
  <rect x="157.86666666666665" y="112.72912423625274" width="9.6" height="45.21384928716898" fill="red" />
  <line x1="162.66666666666666" y1="250" x2="162.66666666666666" y2="255" stroke="black" stroke-width="1" />
  <text x="157.33333333333331" y="275" font-size="12" fill="black">2024-09-05</text>
  <line x1="173.33333333333334" y1="171.38492871690437" x2="173.33333333333334" y2="195.82484725050926" stroke="black" stroke-width="1" />
  <rect x="168.53333333333333" y="182.79022403258665" width="9.6" height="1" fill="red" />
  <line x1="173.33333333333334" y1="250" x2="173.33333333333334" y2="255" stroke="black" stroke-width="1" />
  <text x="168.0" y="275" font-size="12" fill="black">2024-09-06</text>
  <line x1="184.0" y1="187.27087576374754" x2="184.0" y2="231.67006109979624" stroke="black" stroke-width="1" />
  <rect x="179.2" y="187.27087576374754" width="9.6" height="33.40122199592667" fill="red" />
  <line x1="184.0" y1="250" x2="184.0" y2="255" stroke="black" stroke-width="1" />
  <text x="178.66666666666666" y="275" font-size="12" fill="black">2024-09-07</text>
  <line x1="194.66666666666666" y1="203.97148676171074" x2="194.66666666666666" y2="239.0020366598777" stroke="black" stroke-width="1" />
  <rect x="189.86666666666665" y="223.93075356415477" width="9.6" height="9.36863543788174" fill="red" />
  <line x1="194.66666666666666" y1="250" x2="194.66666666666666" y2="255" stroke="black" stroke-width="1" />
  <text x="189.33333333333331" y="275" font-size="12" fill="black">2024-09-08</text>
  <line x1="205.33333333333334" y1="203.97148676171074" x2="205.33333333333334" y2="230.44806517311622" stroke="black" stroke-width="1" />
  <rect x="200.53333333333333" y="210.08146639511216" width="9.6" height="20.366598778004057" fill="green" />
  <line x1="205.33333333333334" y1="250" x2="205.33333333333334" y2="255" stroke="black" stroke-width="1" />
  <text x="200.0" y="275" font-size="12" fill="black">2024-09-11</text>
  <line x1="216.0" y1="213.74745417515277" x2="216.0" y2="241.85336048879827" stroke="black" stroke-width="1" />
  <rect x="211.2" y="223.1160896130345" width="9.6" height="3.665987780040869" fill="red" />
  <line x1="216.0" y1="250" x2="216.0" y2="255" stroke="black" stroke-width="1" />
  <text x="210.66666666666666" y="275" font-size="12" fill="black">2024-09-12</text>
  <line x1="226.66666666666666" y1="221.8940936863545" x2="226.66666666666666" y2="250.0" stroke="black" stroke-width="1" />
  <rect x="221.86666666666665" y="226.78207739307535" width="9.6" height="10.997963340122318" fill="red" />
  <line x1="226.66666666666666" y1="250" x2="226.66666666666666" y2="255" stroke="black" stroke-width="1" />
  <text x="221.33333333333331" y="275" font-size="12" fill="black">2024-09-13</text>
  <line x1="237.33333333333334" y1="207.2301425661916" x2="237.33333333333334" y2="227.59674134419566" stroke="black" stroke-width="1" />
  <rect x="232.53333333333333" y="210.48879837067219" width="9.6" height="6.517311608961159" fill="green" />
  <line x1="237.33333333333334" y1="250" x2="237.33333333333334" y2="255" stroke="black" stroke-width="1" />
  <text x="232.0" y="275" font-size="12" fill="black">2024-09-14</text>
  <line x1="248.0" y1="196.23217922606926" x2="248.0" y2="235.3360488798371" stroke="black" stroke-width="1" />
  <rect x="243.2" y="201.12016293279015" width="9.6" height="24.847250509164926" fill="green" />
  <line x1="248.0" y1="250" x2="248.0" y2="255" stroke="black" stroke-width="1" />
  <text x="242.66666666666666" y="275" font-size="12" fill="black">2024-09-15</text>
  <line x1="258.66666666666663" y1="192.1588594704684" x2="258.66666666666663" y2="211.71079429735246" stroke="black" stroke-width="1" />
  <rect x="253.86666666666665" y="203.5641547861507" width="9.6" height="6.924643584521449" fill="red" />
  <line x1="258.66666666666663" y1="250" x2="258.66666666666663" y2="255" stroke="black" stroke-width="1" />
  <text x="253.33333333333331" y="275" font-size="12" fill="black">2024-09-18</text>
  <line x1="269.3333333333333" y1="195.82484725050926" x2="269.3333333333333" y2="224.74541751527508" stroke="black" stroke-width="1" />
  <rect x="264.53333333333336" y="201.52749490835043" width="9.6" height="20.366598778004057" fill="red" />
  <line x1="269.3333333333333" y1="250" x2="269.3333333333333" y2="255" stroke="black" stroke-width="1" />
  <text x="264.0" y="275" font-size="12" fill="black">2024-09-19</text>
  <line x1="279.99999999999994" y1="195.01018329938898" x2="279.99999999999994" y2="228.00407331975566" stroke="black" stroke-width="1" />
  <rect x="275.2" y="199.49083503054987" width="9.6" height="23.21792260692464" fill="green" />
  <line x1="279.99999999999994" y1="250" x2="279.99999999999994" y2="255" stroke="black" stroke-width="1" />
  <text x="274.66666666666663" y="275" font-size="12" fill="black">2024-09-20</text>
  <line x1="290.66666666666663" y1="121.6904276985745" x2="290.66666666666663" y2="196.23217922606926" stroke="black" stroke-width="1" />
  <rect x="285.8666666666667" y="124.13441955193478" width="9.6" height="61.91446028513246" fill="green" />
  <line x1="290.66666666666663" y1="250" x2="290.66666666666663" y2="255" stroke="black" stroke-width="1" />
  <text x="285.3333333333333" y="275" font-size="12" fill="black">2024-09-21</text>
  <line x1="301.3333333333333" y1="116.80244399185332" x2="301.3333333333333" y2="138.79837067209797" stroke="black" stroke-width="1" />
  <rect x="296.53333333333336" y="124.13441955193478" width="9.6" height="2.4439918533605796" fill="red" />
  <line x1="301.3333333333333" y1="250" x2="301.3333333333333" y2="255" stroke="black" stroke-width="1" />
  <text x="296.0" y="275" font-size="12" fill="black">2024-09-22</text>
  <line x1="311.99999999999994" y1="109.47046843177188" x2="311.99999999999994" y2="140.83503054989825" stroke="black" stroke-width="1" />
  <rect x="307.2" y="111.91446028513246" width="9.6" height="16.293279022403187" fill="green" />
  <line x1="311.99999999999994" y1="250" x2="311.99999999999994" y2="255" stroke="black" stroke-width="1" />
  <text x="306.66666666666663" y="275" font-size="12" fill="black">2024-09-25</text>
  <line x1="322.66666666666663" y1="88.28920570264782" x2="322.66666666666663" y2="117.61710794297363" stroke="black" stroke-width="1" />
  <rect x="317.8666666666667" y="91.5478615071284" width="9.6" height="13.849287169042897" fill="green" />
  <line x1="322.66666666666663" y1="250" x2="322.66666666666663" y2="255" stroke="black" stroke-width="1" />
  <text x="317.3333333333333" y="275" font-size="12" fill="black">2024-09-26</text>
  <line x1="333.3333333333333" y1="69.55193482688406" x2="333.3333333333333" y2="98.06517311608985" stroke="black" stroke-width="1" />
  <rect x="328.53333333333336" y="80.1425661914461" width="9.6" height="14.663951120162897" fill="green" />
  <line x1="333.3333333333333" y1="250" x2="333.3333333333333" y2="255" stroke="black" stroke-width="1" />
  <text x="328.0" y="275" font-size="12" fill="black">2024-09-27</text>
  <line x1="343.99999999999994" y1="50.0" x2="343.99999999999994" y2="64.6639511201632" stroke="black" stroke-width="1" />
  <rect x="339.2" y="60.59063136456231" width="9.6" height="3.2586558044805796" fill="red" />
  <line x1="343.99999999999994" y1="250" x2="343.99999999999994" y2="255" stroke="black" stroke-width="1" />
  <text x="338.66666666666663" y="275" font-size="12" fill="black">2024-09-28</text>
  <line x1="354.66666666666663" y1="64.6639511201632" x2="354.66666666666663" y2="97.25050916496957" stroke="black" stroke-width="1" />
  <rect x="349.8666666666667" y="64.6639511201632" width="9.6" height="26.883910386965216" fill="red" />
  <line x1="354.66666666666663" y1="250" x2="354.66666666666663" y2="255" stroke="black" stroke-width="1" />
  <text x="349.3333333333333" y="275" font-size="12" fill="black">2024-09-29</text>
</svg>